<svg width="561" height="561" viewBox="0 0 561 561" fill="none" xmlns="http://www.w3.org/2000/svg">
<path d="M259.176 0.314588C246.829 1.49052 227.19 4.66554 215.666 7.2526C199.674 11.0156 175.097 19.4823 172.157 22.187C167.1 26.8907 168.394 34.7695 174.744 38.2973C177.684 39.9436 178.977 39.7084 195.911 34.0639C263.997 11.2508 334.788 16.0721 397.348 47.7047C474.137 86.6282 525.643 158.243 538.695 244.203C541.518 262.783 541.518 298.649 538.578 317.111C533.992 346.98 524.349 376.731 511.179 401.779C501.066 420.946 482.721 447.287 476.371 451.756C472.961 454.225 468.139 453.99 464.847 451.285C462.142 449.169 462.025 448.11 461.437 432.941C460.849 417.066 460.849 416.83 457.556 414.008C453.558 410.598 448.619 410.363 444.503 413.655L441.446 416.007V455.284C441.446 476.803 441.798 495.383 442.151 496.441C444.033 501.263 447.796 501.733 486.131 501.733C523.408 501.733 525.995 501.498 529.288 497.147C531.757 493.972 531.052 487.857 527.877 484.682C525.172 481.86 524.231 481.742 512.002 481.742C497.067 481.742 492.952 480.331 490.952 474.686C489.306 469.983 490.365 467.631 498.478 457.635C516.117 435.881 534.58 403.307 544.34 376.496C549.867 361.444 555.864 337.925 558.569 320.051C561.509 300.531 561.509 261.019 558.569 241.263C553.983 210.924 545.633 184.231 531.993 156.596C504.476 100.739 460.261 56.5242 404.404 29.0074C376.887 15.4841 349.605 6.89982 320.324 2.54886C307.389 0.667368 270.23 -0.626159 259.176 0.314588Z" fill="#6DE723"/>
<path d="M35.1604 60.9929C29.1632 64.4031 27.9872 71.929 32.8086 76.6328C35.5132 79.455 36.454 79.5726 48.6837 79.5726C63.618 79.5726 67.7338 80.9837 69.7329 86.6282C71.3792 91.332 70.3209 93.6838 62.2069 103.679C37.3947 134.371 17.9918 173.177 8.11395 211.748C1.7639 236.913 0 251.965 0 280.657C0 309.35 1.7639 324.402 8.11395 349.567C33.5141 449.169 111.831 527.486 211.433 552.886C236.598 559.236 251.65 561 280.343 561C307.624 561 321.736 559.471 345.607 553.827C364.069 549.476 385.001 542.067 388.529 538.775C392.644 534.659 392.409 528.191 388.058 524.546C386.294 523.017 383.942 521.724 382.767 521.724C381.591 521.724 374.888 523.84 367.832 526.31C338.551 536.776 313.034 541.009 280.343 541.009C221.664 541.009 170.628 523.958 122.768 488.327C108.304 477.509 83.2561 452.461 72.5551 438.232C0.70556 341.923 2.11668 212.1 75.9653 118.614C79.258 114.615 82.9034 110.5 84.3145 109.559C87.7247 107.089 92.546 107.325 95.8386 110.029C98.5433 112.146 98.6609 113.204 99.2488 128.374C99.8368 144.249 99.8368 144.484 103.129 147.306C107.128 150.717 112.067 150.952 116.182 147.659L119.24 145.307V106.031C119.24 84.5115 118.887 65.9318 118.534 64.8734C116.653 60.0521 112.89 59.5817 74.319 59.5817C48.8013 59.6993 36.8067 60.0521 35.1604 60.9929Z" fill="#6DE723"/>
<path d="M270.582 81.2188C266.819 82.042 262.939 83.4531 261.998 84.5115C260.94 85.4522 259.411 91.8022 258.235 99.9162C255.883 115.321 254.472 117.673 246.946 119.554C226.485 124.728 209.081 131.784 193.206 141.427C183.563 147.189 181.447 146.836 168.276 137.193C162.161 132.607 156.282 128.962 155.223 128.962C153.107 128.962 145.933 132.49 142.523 135.194C141.465 136.017 140.289 139.31 139.819 142.485C138.995 148.129 136.056 155.773 133.233 159.654C132.057 161.3 132.881 163.064 138.407 170.707C146.404 181.644 146.757 184.231 141.112 193.521C131.469 209.396 124.414 226.799 119.24 247.261C117.358 254.787 115.006 256.198 99.484 258.55C83.3737 260.902 82.5506 261.607 80.5515 273.014C79.4932 278.658 79.4932 282.656 80.5515 288.301C82.5506 299.707 83.3737 300.413 99.484 302.765C115.006 305.117 117.358 306.528 119.24 314.054C124.414 334.515 131.469 351.919 141.112 367.794C146.874 377.437 146.521 379.553 136.879 392.724C132.41 398.839 128.647 404.718 128.647 405.777C128.647 414.243 146.757 432.353 155.223 432.353C156.282 432.353 162.161 428.59 168.276 424.121C181.329 414.479 183.563 414.126 193.206 419.888C209.316 429.648 226.603 436.704 246.946 441.76C254.472 443.642 255.883 445.994 258.235 461.516C260.587 477.626 261.293 478.449 272.699 480.448C278.344 481.507 282.342 481.507 287.986 480.448C299.393 478.449 300.098 477.626 302.568 461.398C304.097 451.05 305.155 446.934 306.919 445.17C308.212 443.877 314.092 441.643 320.324 439.879C338.316 435.175 351.369 429.648 367.479 419.888C377.122 414.126 379.356 414.479 392.409 424.121C398.524 428.707 404.404 432.353 405.462 432.353C407.579 432.353 414.752 428.825 418.162 426.12C419.22 425.297 420.396 422.005 420.867 418.829C421.69 413.185 424.63 405.541 427.452 401.661C428.628 400.015 427.805 398.251 422.278 390.607C414.282 379.788 413.929 377.084 419.573 367.794C429.334 351.684 436.389 334.397 441.446 314.054C443.327 306.528 445.561 305.234 461.084 302.882C477.312 300.413 478.135 299.707 480.134 288.301C481.192 282.656 481.192 278.658 480.134 273.014C478.135 261.607 477.312 260.902 461.084 258.432C445.561 256.08 443.327 254.787 441.446 247.261C436.272 226.799 429.216 209.396 419.573 193.521C413.811 183.878 414.164 181.761 423.807 168.591C428.393 162.476 432.038 156.596 432.038 155.538C432.038 147.071 413.929 128.962 405.462 128.962C404.404 128.962 398.524 132.607 392.409 137.193C379.356 146.836 377.122 147.189 367.479 141.427C351.369 131.666 338.316 126.14 320.324 121.436C314.092 119.672 308.212 117.438 306.919 116.144C305.155 114.38 304.097 110.264 302.568 99.9162C300.098 83.6883 299.393 82.8651 288.221 80.8661C279.402 79.3373 279.402 79.3373 270.582 81.2188ZM307.036 142.955C355.72 152.48 395.702 186.7 412.635 233.62C424.983 267.957 422.396 310.644 405.815 343.57C393.115 368.852 368.538 393.429 343.255 406.129C304.685 425.532 256.118 425.532 217.43 406.129C191.912 393.429 167.688 369.205 154.871 343.57C135.468 304.999 135.468 256.315 154.871 217.745C170.628 186.347 199.791 160.594 233.305 148.365C254.707 140.604 284.106 138.487 307.036 142.955Z" fill="#6DE723"/>
<path d="M259.411 162.005C248.828 163.887 231.424 170.119 222.016 175.529C193.324 191.874 174.273 215.863 164.278 248.554C161.338 258.197 161.103 260.314 161.103 280.657C161.103 301.001 161.338 303.118 164.278 312.76C171.098 334.75 180.153 350.037 195.558 365.442C210.963 380.847 226.25 389.902 248.24 396.722C257.882 399.662 259.999 399.897 280.343 399.897C300.686 399.897 302.803 399.662 312.446 396.722C334.436 389.902 349.723 380.847 365.128 365.442C380.532 350.037 389.587 334.75 396.407 312.76C399.347 303.118 399.582 301.001 399.582 280.657C399.582 260.314 399.347 258.197 396.407 248.554C383.472 206.338 354.191 177.175 312.563 164.71C303.626 162.123 299.393 161.535 283.87 161.182C273.875 161.065 262.821 161.3 259.411 162.005ZM347.489 213.159C350.311 215.746 351.369 221.155 349.605 224.33C348.9 225.859 327.615 254.434 302.45 287.948C272.111 328.518 255.766 349.332 253.767 350.037C252.12 350.743 249.533 350.861 248.122 350.508C246.711 350.155 237.656 342.041 228.014 332.398C211.786 316.17 210.492 314.524 210.492 310.526C210.492 307.233 211.315 305.587 213.785 303.47C219.9 298.061 222.957 299.472 238.127 314.407L249.416 325.46L290.926 270.074C313.739 239.617 333.848 213.629 335.494 212.335C338.904 209.631 343.961 209.984 347.489 213.159Z" fill="#6DE723"/>
</svg>
