<svg width="682" height="682" viewBox="0 0 682 682" fill="none" xmlns="http://www.w3.org/2000/svg">
<path d="M329.13 1.11904C305.663 5.65237 285.663 26.8524 282.33 50.5857C281.663 55.2524 280.997 108.986 280.997 169.919V280.986H170.063C99.93 280.986 55.7967 281.519 50.33 282.452C24.73 286.452 4.99666 306.319 0.729998 332.186C-4.47 363.652 18.73 395.119 50.5967 399.652C55.2633 400.319 108.997 400.986 170.063 400.986H280.997V511.919C280.997 572.986 281.663 626.719 282.33 631.386C286.863 663.252 318.33 686.452 349.797 681.252C375.663 676.986 395.53 657.252 399.53 631.652C400.463 626.186 400.997 582.052 400.997 511.919V400.986H512.063C572.997 400.986 626.73 400.319 631.397 399.652C663.263 395.119 686.463 363.652 681.263 332.186C676.997 306.319 657.263 286.452 631.663 282.452C626.197 281.519 582.063 280.986 512.063 280.986H400.997V169.919C400.997 108.986 400.33 55.2524 399.663 50.5857C394.997 17.3857 362.33 -5.41429 329.13 1.11904Z" fill="#17234C"/>
</svg>
