<svg width="265" height="265" viewBox="0 0 265 265" fill="none" xmlns="http://www.w3.org/2000/svg">
<path d="M28.7115 0.738462C27.7849 1.20179 21.0666 7.51462 13.8272 14.7541C-0.304321 29.0593 -0.593901 29.5227 0.332754 34.5034C0.853997 37.3413 4.32895 40.8163 7.16683 41.3375C11.3947 42.1483 13.248 41.2796 18.4025 36.2409L23.2095 31.5497V101.86V172.17L18.4025 167.478C13.248 162.44 11.3947 161.571 7.16683 162.382C4.32895 162.903 0.853997 166.378 0.332754 169.216C-0.651817 174.254 -0.362237 174.602 14.4063 189.428C29.2328 204.197 29.5803 204.429 34.619 203.502C36.5302 203.212 38.7889 201.185 50.5458 189.428C65.3144 174.602 65.604 174.254 64.6194 169.216C64.0982 166.378 60.6232 162.903 57.7853 162.382C53.5575 161.571 51.7042 162.44 46.5496 167.478L41.7426 172.17V101.86V31.5497L46.5496 36.2409C51.7042 41.2796 53.5575 42.1483 57.7853 41.3375C60.6232 40.8163 64.0982 37.3413 64.6194 34.5034C65.5461 29.5227 65.2565 29.0593 51.125 14.7541C43.8855 7.51462 37.1673 1.20179 36.1248 0.738462C33.8081 -0.246108 30.9703 -0.246108 28.7115 0.738462Z" fill="black" fill-opacity="0.560784"/>
<path d="M159.312 28.1327C156.069 29.4068 64.2721 85.0061 62.7662 86.5119C56.9167 92.5931 62.3029 102.844 70.7586 101.686C72.0907 101.512 75.7973 99.6588 80.2568 96.9947C84.253 94.5622 87.6701 92.5931 87.7859 92.5931C87.9597 92.5931 88.1334 110.026 88.1913 131.339C88.3651 169.447 88.3651 170.142 89.5813 171.706C90.2184 172.575 91.4925 173.849 92.3613 174.486C93.925 175.702 94.1567 175.702 162.208 175.702C230.259 175.702 230.491 175.702 232.054 174.486C232.923 173.849 234.197 172.575 234.834 171.706C236.051 170.142 236.051 169.447 236.224 131.339C236.282 110.026 236.456 92.5931 236.63 92.5931C236.746 92.5931 240.163 94.5622 244.159 96.9947C248.618 99.6588 252.325 101.512 253.657 101.686C262.113 102.844 267.499 92.5931 261.649 86.5119C260.607 85.4694 238.599 71.9171 212.653 56.3377C171.301 31.6077 165.162 28.0748 162.845 27.959C161.397 27.8431 159.775 27.901 159.312 28.1327ZM190.645 64.8514L217.807 81.1837V119.292V157.459H203.907H190.065L189.892 127.98C189.718 99.1955 189.66 98.4426 188.502 96.8789C187.865 96.0101 186.59 94.736 185.722 94.0989C184.158 92.9406 183.463 92.8827 162.208 92.8827C140.953 92.8827 140.258 92.9406 138.694 94.0989C137.825 94.736 136.551 96.0101 135.914 96.8789C134.756 98.4426 134.698 99.1955 134.524 127.98L134.35 157.459H120.508H106.609V119.292V81.1837L134.292 64.5618C149.466 55.469 162.266 48.1137 162.671 48.2874C163.134 48.4612 175.702 55.9323 190.645 64.8514ZM171.474 134.293V157.459H162.208H152.941V134.293V111.126H162.208H171.474V134.293Z" fill="black" fill-opacity="0.560784"/>
<path d="M88.9441 199.969C88.0174 200.432 81.2992 206.745 74.0597 213.985C55.5266 232.692 55.5266 230.491 74.6389 249.661C89.4653 264.429 89.8128 264.719 94.8515 263.735C97.6894 263.213 101.164 259.738 101.686 256.9C102.496 252.673 101.628 250.819 96.589 245.665L91.8978 240.858H162.208H232.518L227.826 245.665C222.788 250.819 221.919 252.673 222.73 256.9C223.251 259.738 226.726 263.213 229.564 263.735C234.603 264.719 234.95 264.429 249.777 249.661C261.533 237.904 263.561 235.645 263.85 233.734C264.777 228.695 264.545 228.348 249.777 213.521C234.95 198.753 234.603 198.463 229.564 199.448C226.726 199.969 223.251 203.444 222.73 206.282C221.919 210.51 222.788 212.363 227.826 217.518L232.518 222.325H162.208H91.8978L96.589 217.518C100.18 213.869 101.396 212.189 101.686 210.568C103.133 202.923 95.8361 196.9 88.9441 199.969Z" fill="black" fill-opacity="0.560784"/>
</svg>
