<svg width="682" height="584" viewBox="0 0 682 584" fill="none" xmlns="http://www.w3.org/2000/svg">
<path d="M274.085 2.79912C269.951 4.53246 264.218 7.86579 261.418 10.1325C251.151 18.3991 10.4846 260.532 7.15131 266.132C2.08465 274.266 -0.848688 286.666 0.217978 296.132C2.08465 313.732 -5.11536 305.866 135.418 446.666C241.418 552.799 265.418 576.132 271.418 579.199C281.818 584.399 298.351 585.332 309.418 581.066C321.285 576.532 329.818 569.066 334.885 558.532C338.618 550.532 339.018 548.532 339.018 537.066C339.018 515.066 341.151 517.866 264.085 439.866C227.551 402.799 192.885 368.399 186.885 363.199C180.885 357.866 171.151 351.066 164.618 347.732L153.151 341.732L398.085 341.066L643.018 340.399L650.618 337.332C661.418 332.932 671.951 322.932 677.285 311.999C681.285 303.999 681.685 301.999 681.685 291.732C681.551 282.399 681.018 279.066 678.085 272.799C673.418 262.666 664.885 253.732 655.018 248.666L647.018 244.399L399.685 243.732L152.351 243.066L165.018 236.399L177.685 229.866L254.485 153.066C343.151 64.5325 339.018 69.8658 339.018 47.0658C339.018 35.1991 338.618 32.9325 335.285 26.2658C333.285 22.1325 328.618 15.8658 325.018 12.5325C315.418 3.46579 308.218 0.66579 293.685 0.132457C283.418 -0.267543 280.618 0.132457 274.085 2.79912Z" fill="#17234C"/>
</svg>
