<svg width="243" height="245" viewBox="0 0 243 245" fill="none" xmlns="http://www.w3.org/2000/svg">
<path d="M158.214 0.527631C149.759 2.43831 143.263 8.31364 144.887 12.6127C145.46 14.0934 173.881 42.8491 176.222 44.2822C178.324 45.5719 179.995 45.1897 182.766 42.7536C187.017 38.98 189.549 31.6717 189.167 24.1723C188.928 20.0165 188.593 18.6313 186.635 14.0457C186.348 13.3769 186.826 12.9948 189.023 11.9917C192.033 10.6542 193.848 10.5109 195.711 11.3707C198.433 12.6127 198.338 10.8453 198.338 57.9913V101.411L194.23 101.698C188.928 101.985 186.348 103.465 184.39 107.239C183.148 109.627 183.052 110.153 183.052 115.933V122.094H177.273H171.541L170.299 120.661C169.63 119.849 168.197 118.703 167.098 118.13C165.188 117.079 164.758 117.079 147.705 117.079C128.073 117.079 126.926 117.222 124.49 120.47L123.248 122.094H104.954H86.7066L76.9621 112.398C69.5582 104.994 66.5489 102.367 64.3516 101.22C52.5054 95.0584 38.1276 98.5932 30.867 109.532C28.813 112.684 26.9023 117.795 26.8546 120.279V121.999L19.1163 122.19C11.7124 122.333 11.187 122.381 8.60759 123.671C7.03129 124.435 4.97731 126.011 3.73537 127.397C-2.85647 134.753 -0.420358 146.551 8.65536 151.185C9.754 151.758 10.6138 152.522 10.6138 152.952C10.6138 154.863 16.9668 198.808 17.8266 202.725C19.0208 208.123 19.9761 210.463 22.1734 213.377L23.8453 215.574L22.7466 222.214C22.1256 225.844 21.6002 229.618 21.6002 230.573C21.6002 235.302 24.8961 240.461 29.434 242.849C31.488 243.9 32.4911 244.139 35.6915 244.139C39.0351 244.139 39.8472 243.948 42.0922 242.706C45.4359 240.843 47.5854 238.359 52.5532 230.43L56.7089 223.838L121.911 223.981L187.113 224.077L192.224 231.72C195.042 235.923 198.051 239.983 198.911 240.7C205.837 246.718 216.728 244.378 220.597 236.019C222.03 232.962 222.078 228.854 220.741 221.02L219.785 215.192L221.218 213.52C225.135 209.078 225.708 206.546 230.581 171.294C232.061 160.69 233.303 151.949 233.351 151.949C238.223 149.178 239.991 147.554 241.901 143.924C242.809 142.252 243 141.154 243 137.38C243 133.559 242.809 132.508 241.901 130.788C238.892 125.199 234.545 122.477 227.858 122.19L223.654 121.999V115.789C223.654 111.347 223.463 109.15 222.938 107.86C221.218 103.848 218.018 101.985 212.334 101.65L208.369 101.459L208.273 56.2239L208.13 11.0364L206.84 8.60024C205.407 5.87753 202.685 3.25035 199.675 1.62627C197.956 0.718699 196.905 0.527631 193.322 0.527631C189.262 0.527631 188.737 0.670932 184.533 2.58161C182.097 3.68025 179.757 4.58782 179.422 4.58782C179.04 4.58782 177.941 4.06238 176.938 3.44141C172.4 0.479864 164.137 -0.809843 158.214 0.527631ZM170.394 11.4663C175.792 13.9024 178.753 18.2014 179.136 24.029C179.279 26.1307 179.088 28.3758 178.753 29.7132L178.132 31.9105L167.958 21.7362C162.369 16.1474 157.879 11.4663 157.975 11.323C158.118 11.2274 159.217 10.8453 160.459 10.5109C163.42 9.65112 167.337 10.0333 170.394 11.4663ZM58.6196 109.866C60.1481 110.678 62.9186 113.019 66.5011 116.601L71.9943 122.094H54.4161C44.7672 122.094 36.8856 121.903 36.8856 121.712C36.8856 121.474 37.1722 120.327 37.5544 119.133C40.1815 110.344 50.4037 105.854 58.6196 109.866ZM213.623 117.079V122.094H203.353H193.084V117.079V112.063H203.353H213.623V117.079ZM162.513 147.65V167.951H147.227H131.942V147.65V127.349H147.227H162.513V147.65ZM121.911 137.38V142.634L67.4087 142.539L12.9066 142.395L11.5214 140.819C9.51517 138.574 9.65847 135.851 11.9035 133.081C12.4767 132.412 21.7913 132.269 69.5105 132.173L121.911 132.126V137.38ZM232.3 133.941C233.303 135.039 233.685 135.995 233.685 137.189C233.685 139.052 232.539 141.44 231.345 142.013C230.915 142.204 217.636 142.443 201.825 142.539L173.021 142.682V137.38V132.126L201.968 132.221L230.915 132.364L232.3 133.941ZM121.911 163.461C121.911 175.164 122.15 176.31 124.634 177.456C125.398 177.791 132.945 177.982 147.609 177.982C167.051 177.982 169.582 177.886 170.585 177.218C172.735 175.689 173.021 174.017 173.021 162.935V152.665H198.099H223.177L222.938 153.716C222.842 154.337 221.171 165.562 219.308 178.698C216.919 195.56 215.677 203.251 214.961 204.827C213.719 207.693 209.754 211.466 206.697 212.661C204.357 213.52 202.111 213.568 121.433 213.568H38.5575L35.5482 211.944C32.2045 210.129 30.7237 208.6 29.0041 205.209C27.8577 202.916 27.2845 199.381 22.2689 163.413C21.648 158.684 20.9792 154.337 20.8837 153.716L20.6449 152.665H71.2778H121.911V163.461ZM41.4713 223.838C42.9043 223.838 44.0507 223.981 44.0507 224.172C44.0507 224.364 42.761 226.465 41.1369 228.901C38.032 233.63 36.5513 234.729 34.4495 233.917C31.8223 232.962 31.4402 231.146 32.5866 225.128L33.1598 222.071L36.0258 222.931C37.6021 223.456 40.0382 223.838 41.4713 223.838ZM211.426 226.513C212.19 231.337 211.856 232.723 209.754 233.726C207.414 234.872 205.885 233.821 202.685 228.901C201.061 226.513 199.771 224.364 199.771 224.172C199.771 223.981 201.013 223.838 202.541 223.79C204.022 223.79 206.458 223.408 207.891 222.931C209.324 222.453 210.566 222.118 210.614 222.166C210.662 222.166 211.044 224.125 211.426 226.513Z" fill="black" fill-opacity="0.560784"/>
<path d="M139.011 21.4496C137.483 22.8826 137.005 24.2679 137.387 26.2741C137.865 28.6624 139.728 30.1432 142.307 30.1432C144.122 30.1432 144.648 29.9044 145.842 28.5669C148.899 25.1754 146.797 20.351 142.307 20.351C140.779 20.351 139.871 20.6376 139.011 21.4496Z" fill="black" fill-opacity="0.560784"/>
<path d="M124.681 28.9012C120.525 32.627 124.872 39.2188 130.031 37.0693C131.894 36.305 132.897 34.6332 132.897 32.2926C132.897 27.9458 128.025 25.9396 124.681 28.9012Z" fill="black" fill-opacity="0.560784"/>
<path d="M110.16 36.3051C107.915 38.5501 107.915 40.8429 110.16 43.088C111.307 44.2344 112.214 44.712 113.265 44.712C115.319 44.712 117.325 43.6134 117.994 42.0849C119.713 38.359 117.325 34.681 113.265 34.681C112.214 34.681 111.307 35.1586 110.16 36.3051Z" fill="black" fill-opacity="0.560784"/>
<path d="M144.075 38.6934C142.068 39.5532 141.018 41.1773 141.018 43.3268C141.018 45.5241 142.833 47.8647 144.791 48.2946C147.705 48.9155 151.049 46.2406 151.049 43.279C151.049 41.5117 149.616 39.4099 147.944 38.6934C145.985 37.8814 145.938 37.8814 144.075 38.6934Z" fill="black" fill-opacity="0.560784"/>
<path d="M161.796 42.3715C160.029 43.3746 159.169 44.9031 159.169 47.0049C159.169 51.4472 163.993 53.5012 167.385 50.4919C168.722 49.2977 168.961 48.7722 168.961 46.9093C168.961 45.1897 168.675 44.4732 167.719 43.4701C166.286 42.0849 163.277 41.5117 161.796 42.3715Z" fill="black" fill-opacity="0.560784"/>
<path d="M28.9085 51.7815C21.0747 54.5998 15.7248 61.4305 15.0561 69.5986C14.053 81.7314 24.705 92.3834 36.8378 91.3803C43.143 90.8549 48.9228 87.4634 52.2187 82.3046C54.8459 78.2444 55.658 75.1396 55.4191 70.0763C55.0848 62.4813 51.0246 56.3672 44.1461 52.9757C40.898 51.3516 40.1815 51.1606 35.978 51.065C32.4432 50.9217 30.8192 51.1128 28.9085 51.7815ZM38.5096 61.526C42.3788 62.7202 45.4836 67.1625 45.4836 71.5571C45.4836 73.9932 43.3819 77.8145 41.1846 79.3431C36.8378 82.3524 32.0133 81.9225 28.2875 78.1489C23.2242 73.1334 24.4184 65.3474 30.7236 62.1947C33.4941 60.8095 35.5481 60.6662 38.5096 61.526Z" fill="black" fill-opacity="0.560784"/>
<path d="M128.073 54.2177C123.917 58.3734 129.458 65.1085 134.33 61.8126C138.534 58.9466 136.719 52.8324 131.608 52.8324C129.888 52.8324 129.219 53.119 128.073 54.2177Z" fill="black" fill-opacity="0.560784"/>
<path d="M154.106 57.0837C149.854 59.6631 151.861 66.2072 156.828 66.2072C159.026 66.2072 161.366 64.392 161.796 62.4336C162.226 60.4751 160.984 57.8479 159.217 56.9404C157.306 55.9373 155.921 55.985 154.106 57.0837Z" fill="black" fill-opacity="0.560784"/>
<path d="M146.893 71.7004C145.603 72.608 144.696 75.2829 145.126 76.907C145.938 80.2507 150.953 81.7792 152.912 79.2476C154.297 77.528 154.631 75.9994 153.915 74.2798C152.673 71.3183 149.234 70.0763 146.893 71.7004Z" fill="black" fill-opacity="0.560784"/>
</svg>
