<svg width="248" height="203" viewBox="0 0 248 203" fill="none" xmlns="http://www.w3.org/2000/svg">
<path d="M41.1416 0.882002C33.3489 3.10849 26.9598 9.20711 24.3461 16.903C23.2813 20.0007 23.2329 20.6299 23.0877 48.1222L22.9425 76.1952L21.2 77.4053C15.6822 81.1806 11.9069 89.4574 11.8584 97.7341V101.364L9.68037 102.284C6.53425 103.542 2.95251 106.979 1.35525 110.222L0 112.981V144.684V176.387L1.25845 179.049C3.77534 184.228 7.59909 187.084 13.8913 188.439C15.2466 188.73 15.2466 188.778 15.2466 192.747C15.2466 198.942 17.2311 201.75 21.8776 202.137C26.9598 202.572 29.7671 199.136 29.7671 192.505V188.73H123.667H217.566V192.505C217.566 199.136 220.374 202.572 225.456 202.137C230.102 201.75 232.087 198.894 232.087 192.747C232.087 188.778 232.087 188.73 233.442 188.439C239.734 187.084 243.558 184.228 246.075 179.049L247.333 176.387V144.684V112.981L245.978 110.222C244.381 106.979 240.799 103.542 237.653 102.284L235.475 101.364V97.7341C235.427 89.4574 231.651 81.1806 226.133 77.4053L224.391 76.1952L224.246 48.1222C224.101 20.1943 224.101 20.0491 222.987 16.903C220.132 8.86829 213.597 2.76967 205.708 0.688395C203.191 0.0591709 193.269 -0.0376328 123.425 0.0107691C49.8055 0.0107691 43.8521 0.107573 41.1416 0.882002ZM203.82 15.4025C206.482 16.6126 208.709 19.4199 209.338 22.4208C209.677 24.0665 209.822 32.7788 209.725 48.3642L209.58 71.8391L204.885 71.9843L200.238 72.1295L200.045 63.756C199.9 55.9149 199.803 55.1889 198.593 52.6236C197.044 49.2838 193.946 46.0893 190.703 44.492L188.283 43.282H164.324H140.365L138.139 44.3952C134.509 46.1861 132.089 48.6062 130.346 52.1395C128.749 55.3341 128.749 55.3825 128.604 63.7076L128.41 72.0811H123.667H118.923L118.73 63.7076C118.584 55.9149 118.488 55.1889 117.278 52.6236C115.729 49.2838 112.631 46.0893 109.388 44.492L106.968 43.282H83.0091H59.0502L56.8238 44.3952C53.1936 46.1861 50.7735 48.6062 49.0311 52.1395C47.4338 55.3341 47.4338 55.3825 47.2886 63.756L47.095 72.1295L42.4484 71.9843L37.7534 71.8391L37.6082 48.3642C37.5114 32.1012 37.6082 24.1149 37.9954 22.324C38.6731 19.2747 40.7543 16.661 43.5617 15.4025C45.4009 14.5313 49.0795 14.4829 123.667 14.4829C198.69 14.4829 201.932 14.5313 203.82 15.4025ZM103.725 58.1414C104.112 58.5286 104.306 60.7067 104.306 64.6272C104.306 69.3706 104.161 70.7258 103.532 71.3067C102.902 71.9843 100.337 72.0811 83.0091 72.0811C65.6813 72.0811 63.116 71.9843 62.4868 71.3067C61.8575 70.7258 61.7123 69.3706 61.7123 64.6272C61.7123 60.7067 61.9059 58.5286 62.2932 58.1414C63.116 57.3185 102.902 57.3185 103.725 58.1414ZM185.04 58.1414C185.427 58.5286 185.621 60.7067 185.621 64.6272C185.621 69.3706 185.476 70.7258 184.847 71.3067C184.217 71.9843 181.652 72.0811 164.518 72.0811C151.933 72.0811 144.576 71.8875 143.947 71.5971C143.124 71.1131 143.027 70.5322 143.027 64.9176C143.027 60.7551 143.221 58.5286 143.608 58.1414C144.431 57.3185 184.217 57.3185 185.04 58.1414ZM215.049 87.5213C219.018 89.5542 220.954 92.9907 220.954 97.9761V101.122H123.667H26.379V97.8309C26.4274 92.8939 28.3151 89.5542 32.4292 87.4245C33.7361 86.6984 42.8356 86.65 123.57 86.6016C210.887 86.6016 213.307 86.65 215.049 87.5213ZM232.958 144.393C233.006 165.013 232.91 173.096 232.522 173.531C231.748 174.451 15.779 174.548 14.8594 173.628C14.4237 173.193 14.2785 166.077 14.2785 144.684C14.2785 129.05 14.4237 116.127 14.6174 115.982C14.7626 115.788 63.9388 115.691 123.86 115.74L232.813 115.885L232.958 144.393Z" fill="black" fill-opacity="0.560784"/>
</svg>
