<svg width="531" height="682" viewBox="0 0 531 682" fill="none" xmlns="http://www.w3.org/2000/svg">
<path d="M151.333 18.6666L132.667 37.3332H66.4H0V75.3332V113.333H265.333H530.667V75.3332V37.3332H464.267H398L379.333 18.6666L360.667 -8.7291e-05H265.333H170L151.333 18.6666Z" fill="black" fill-opacity="0.560784"/>
<path d="M37.6002 386.267L38.0002 620.667L41.0668 629.333C50.1335 654.533 66.8002 670.933 92.0002 679.467C99.0668 681.867 106.667 682 265.334 682C424 682 431.6 681.867 438.667 679.467C463.867 670.933 480.534 654.533 489.6 629.333L492.667 620.667L493.067 386.267L493.334 152H265.334H37.3335L37.6002 386.267Z" fill="black" fill-opacity="0.560784"/>
</svg>
