<svg width="683" height="683" viewBox="0 0 683 683" fill="none" xmlns="http://www.w3.org/2000/svg">
<path d="M564.8 1.79271C547.2 6.05938 534.933 15.526 509.6 44.7261L493.6 63.2594L557.867 127.526L622.133 191.793L645.6 167.926C665.6 147.526 669.6 142.726 673.867 134.193C689.067 103.393 683.867 72.7261 658.933 45.9261C642.667 28.4594 626 13.7927 617.467 9.12605C601.333 0.592715 581.467 -2.20729 564.8 1.79271Z" fill="black" fill-opacity="0.560784"/>
<path d="M118 79.7928C91.8667 82.1928 69.2 91.3928 49.3333 107.393C27.0667 125.126 12.6667 147.393 4 176.993L0 190.993L0.266667 382.993L0.666667 574.993L4.4 586.993C9.33333 602.993 18.2667 620.993 26.5333 631.926C39.6 649.126 55.7333 659.393 93.3333 674.193L114.133 682.326L303.333 682.06L492.667 681.66L505.2 677.926C531.867 670.06 550.933 659.393 566.933 643.393C587.467 622.993 598 599.26 601.333 566.326C603.333 546.193 604.4 461.793 603.067 433.659C601.867 411.793 601.467 409.126 598.4 402.993C594 394.459 589.2 389.926 580 385.793C560.133 376.726 537.6 381.793 526.4 397.926C518.667 409.259 518.533 410.593 518.533 475.659C518.667 561.926 517.733 569.393 505.467 582.726C498.4 590.326 489.333 594.193 474.8 595.793C459.733 597.393 144.133 597.26 128.933 595.66C109.067 593.66 97.7333 586.46 90.8 571.659L87.3333 564.326V380.993C87.3333 204.326 87.4667 197.393 89.8667 191.126C92.6667 183.793 99.3333 175.793 106.133 171.526C116.133 165.393 120.667 164.993 189.333 164.993C224.933 164.993 258 164.326 263.067 163.659C279.467 161.259 291.867 152.726 297.733 139.793C301.867 130.859 301.733 113.659 297.467 104.059C293.467 94.9928 284 86.1928 273.867 82.1928L266 78.9928L198 78.8595C160.667 78.7261 124.667 79.1261 118 79.7928Z" fill="black" fill-opacity="0.560784"/>
<path d="M340.533 212.193C229.333 322.593 224.267 327.926 219.6 337.26C217.067 342.593 205.467 374.86 194 408.993C173.6 469.526 173.2 471.26 173.733 480.06C174.4 490.726 178.4 497.66 187.733 504.193C192.4 507.526 195.067 508.326 202.4 508.726C210.8 509.26 214.133 508.326 253.333 495.66C326.933 471.793 346 463.793 363.067 449.66C367.6 445.793 419.067 395.393 477.333 337.393C535.6 279.526 584.8 231.393 586.533 230.46C589.6 228.726 588 226.993 523.867 162.86C487.6 126.593 457.733 96.9928 457.333 96.9928C456.933 96.9928 404.267 148.86 340.533 212.193Z" fill="black" fill-opacity="0.560784"/>
</svg>
