<svg width="568" height="568" viewBox="0 0 568 568" fill="none" xmlns="http://www.w3.org/2000/svg">
<path d="M344.368 1.52317C333.386 4.01907 323.402 14.6682 320.906 26.8149C318.077 40.6256 320.906 51.4411 329.891 60.4264C333.885 64.5862 339.376 68.0805 343.369 69.2452C347.862 70.41 374.818 71.0755 423.737 71.0755H497.283V144.621C497.283 191.544 497.949 220.663 499.113 224.657C504.604 244.956 530.062 254.441 550.529 244.125C557.185 240.63 560.512 237.302 564.839 229.149C567.834 223.658 568 217.834 568 124.321C568 30.8084 567.834 24.9846 564.839 19.4936C560.512 11.3404 557.351 8.01251 549.697 3.85267C543.207 0.358416 541.71 0.358416 447.365 0.0256299C388.961 -0.140763 348.86 0.52481 344.368 1.52317Z" fill="#17234C"/>
<path d="M24.8924 320.998C14.0769 323.328 3.92688 334.143 1.59738 345.957C0.266229 352.28 -0.232951 383.562 0.0998359 448.955C0.599016 541.303 0.599016 542.967 4.09327 549.456C8.2531 557.11 11.581 560.272 19.7342 564.598C25.2252 567.593 31.049 567.759 124.562 567.759C222.568 567.759 223.566 567.759 230.222 564.265C245.031 556.278 251.354 541.303 247.527 523.499C245.197 512.517 235.38 501.701 225.23 498.872C220.737 497.708 193.782 497.042 145.028 497.042H71.3161V423.33C71.3161 376.573 70.6506 347.455 69.4858 343.461C66.8235 333.81 57.5055 324.492 47.5219 321.497C38.0375 318.669 35.3752 318.669 24.8924 320.998Z" fill="#17234C"/>
</svg>
