<svg width="682" height="534" viewBox="0 0 682 534" fill="none" xmlns="http://www.w3.org/2000/svg">
<path d="M98.6667 2.26778C76.2667 8.13445 54.4 26.0011 44.1333 46.8011C34.4 66.6678 34.6667 61.8678 34.6667 201.734V326.801H17.3333H0V357.068C0 392.534 1.33333 400.268 9.46667 417.334C14 426.668 17.2 430.934 26.5333 440.268C35.8667 449.601 40.1333 452.801 49.3333 457.201C70.4 467.201 60.6667 466.801 253.067 466.801H424.933L429.333 473.734C439.2 488.801 457.067 505.201 475.333 515.734C498.533 529.068 520 534.134 549.333 533.068C572.4 532.268 584 529.468 603.333 520.268C641.333 502.134 668.667 468.401 679.067 426.801C681.333 417.601 681.867 411.601 681.867 394.801C681.733 376.668 681.333 372.534 678.267 360.801C667.6 320.801 640 287.334 603.333 270.001L593.333 265.201V171.868C593.333 66.9344 593.333 66.8011 583.733 46.9344C573.6 25.7344 551.733 8.00111 528.667 2.13444C517.067 -0.798889 110 -0.665555 98.6667 2.26778ZM527.333 44.0011C536.133 48.4011 544.8 57.3344 549.067 66.5344L552.667 74.1344L553.067 165.068L553.467 256.134H544.4C519.733 256.268 493.067 263.601 472.667 276.001C467.733 279.068 463.467 281.468 463.2 281.468C462.933 281.468 462.667 245.201 462.667 200.801V120.134H420H377.333V102.134V84.1344H314H250.667V117.468V150.801H208H165.333V216.801V282.801H313.6H462L456.667 287.068C448.133 293.868 435.067 308.134 428.533 317.734L422.533 326.801H248.533H74.6667V204.134C74.6667 122.801 75.2 79.3344 76.1333 75.0678C79.0667 61.0678 91.3333 46.9344 104.667 42.2678C109.2 40.6678 140.133 40.4011 315.333 40.5344L520.667 40.8011L527.333 44.0011ZM337.067 183.068L336.667 242.134H314H291.333L290.933 183.068L290.667 124.134H314H337.333L337.067 183.068ZM422.667 201.468V242.801H400H377.333V201.468V160.134H400H422.667V201.468ZM250.667 216.801V242.801H228H205.333V216.801V190.801H228H250.667V216.801ZM568.667 299.334C580.667 302.534 596.8 311.068 607.067 319.468C639.733 346.534 651.333 392.934 635.2 432.668C626.667 453.601 608 473.601 587.467 483.468C571.867 491.068 561.467 493.468 543.867 493.468C497.6 493.468 459.067 463.468 447.733 418.401C445.467 409.601 445.2 404.801 445.6 391.601C446.8 364.001 454.8 345.468 474 326.001C488.933 310.934 507.2 301.068 527.2 297.468C536.533 295.868 558.933 296.801 568.667 299.334ZM406.933 371.734C405.6 378.668 405.733 412.801 407.067 420.534L408.133 426.801L242.4 426.534L76.6667 426.134L67.8667 421.868C50.6667 413.334 41.4667 398.934 40.2667 378.668L39.6 366.801H223.733H407.867L406.933 371.734Z" fill="#F01919"/>
<path d="M504 355.468L490 369.468L502.667 382.135L515.333 394.801L502.667 407.468L490 420.135L504.4 434.401L518.667 448.801L531.333 436.135L544 423.468L556.667 436.135L569.333 448.801L583.333 434.801L597.333 420.801L584.667 408.135L572 395.468L584.667 382.801L597.333 370.135L582.933 355.735L568.667 341.468L556 354.135L543.333 366.801L530.667 354.135L518 341.468L504 355.468Z" fill="#F01919"/>
</svg>
