<?xml version="1.0" encoding="utf-8"?>
<!-- Generator: Adobe Illustrator 24.0.1, SVG Export Plug-In . SVG Version: 6.00 Build 0)  -->
<svg version="1.1" id="Layer_1" xmlns="http://www.w3.org/2000/svg" xmlns:xlink="http://www.w3.org/1999/xlink" x="0px" y="0px"
	 viewBox="0 0 243 168" style="enable-background:new 0 0 243 168;" xml:space="preserve">
<style type="text/css">
	.st0{fill:#231F20;}
</style>
<g>
	<path class="st0" d="M177.9,72.5l-2.4-1.5l0.7-2.8L174,70l-2.4-1.6l1.1,2.7l-2.2,1.8l2.9-0.2l1.1,2.7l0.7-2.8L177.9,72.5z
		 M174.1,83l-2-1.9l1.2-2.5l-2.6,1.3l-2.1-2l0.5,2.8l-2.5,1.3l2.9,0.4l0.6,2.8l1.2-2.6L174.1,83z M152.4,71.1
		c-0.8-1.1-0.1-1.5-0.5-2.2c-0.8-1-1.6-2-2.5-2.9c-0.6-0.6-1.4-1.3-2-1.8c-1-0.9-1.7-1.5-1.9-1.4c-0.1,0.1,0.4,0.9,0.6,1.2
		c0.2,0.3,0.6,0.9,1.2,1.5c0.9,1,0.1,1.8,0.9,2.6c0.1,0.1,2.4,2.6,2.9,3.1c0.8,0.7,3.7,4.2,3.9,4.4c0.3,0.3,0.9,1,1,0.9
		s-0.2-0.5-0.4-0.8s-1.2-1.4-1.4-1.8C154.2,73.6,152.9,71.7,152.4,71.1 M124.4,52.5c0.5,1.8,0.1,2.5-0.2,3c-0.3,0.5-0.3,0.8,0,1.7
		c0.3,0.8,1.3,5.4,1.5,6.4s0.6,1,0.8,1.4c0.2,0.9,1,1.5,1.8,1.6c1.2,0.4,1.3,2,2,3.4c0.8,1.4,1.4,2.5,2,4c0.6,1.5,3.8,9.4,4.4,10.6
		c0.2,0.4,1.7,0.4,1.5,0c-0.7-1.7-1.3-3.4-1.8-5.2c-0.4-1.4,1-0.4,0.1-2.7c-0.4-0.9-0.9-1.8-1.6-2.5c-0.4-0.4-0.8-2.2-1.2-3
		c-0.3-0.8-0.2-0.8-0.9-2.7c-0.5-1.4,1-0.9,0.1-3.1c-0.6-1.4-3.3-6.4-3.6-6.9c-0.2-0.3-0.7-1.1-1.4-2.2c-0.7-1-1.1-2-1.4-2.5
		c-0.6-0.9-1.6-2.9-2.2-3.8s-1.3-2.7-1.6-2.4S123.8,50.8,124.4,52.5 M132.4,54.2c-0.3,0.2,1.1,2.2,1.3,2.4c0.7,1.2,1.4,2.5,1.9,3.8
		c0.2,0.8,3.2,5.9,3.9,7.5c0.4,0.9,2.5,2.2,3.3,3.6c0.8,1.3,1,1.1,1.4,1.1c0.8,0,2.5,1.9,2.8,2.4c1.2,1.4,2.5,2.7,3.8,3.9
		c0.3,0.3,2.5,3.8,2.8,3.6s-0.8-2-1-2.3c-0.4-0.5-0.8-1.1-1.1-1.7c-0.6-1.2-1.3-2.3-2-3.4c-0.6-1-1.2-2-1.8-2.9
		c-0.7-0.8-0.1-1-0.8-1.7c-0.4-0.4-1.8-1.6-2.1-1.8l-2-1.8c-0.6-0.5-2.1-1.5-2-2.2c0-0.9-0.3-1.7-0.8-2.4c-0.4-0.3-1.4-2-2.6-3
		c-1-1-2-2-2.9-3C133.4,55.1,132.6,54.1,132.4,54.2 M102.5,69.9c0.4,0,0.1,0.7-0.4,1.4c-0.5,1-0.9,2.1-1.2,3.1
		c-0.2,0.6-0.3,1.3-0.3,1.9c-0.1,0.3-1.5,3.2-1.8,3.9c-0.1,0.3-0.2,0.5-0.3,0.8c-0.1,0.3,0,0.4,0.3,0.2c0.2-0.2,1.7-2.5,2.2-2.8
		c0.6-0.4,0.9-1,0.9-1.7c0.1-1,0.7-1.2,1.2-1.8c0.6-0.6,1.1-1.3,1.5-2.1c0.3-0.8,0.7-0.2,1.5-1.4c0.8-1.2,2.4-4.2,2.8-4.8
		c0.4-0.6,0.1-1.4,0.1-2.1c0-0.8,0.1-1.5,0.2-2.2c0.2-0.8,0.5-1.5,0.8-2.3c0.3-0.6,0.5-1.2,0.6-1.9c0-0.1-0.2-0.2-0.4-0.1
		c-0.8,0.7-2.3,3.4-2.9,3.7c-1.3,0.6-1.9,2.2-2.3,2.8c-0.3,0.5-0.6,1.2-1.3,2.1c-0.5,0.8-1,1.6-1.4,2.4
		C102.2,69.5,102.1,69.9,102.5,69.9 M97.1,67.8c0.6-1.1,2.1-3.1,1.8-3.4c-0.2-0.2-2.9,2.6-4.7,4.5c-0.5,0.5-0.9,1-1.3,1.6
		c0,0-0.8,1.3-1.2,1.8c-0.4,0.6-1.5,2.1-1.9,2.8c-0.4,0.8-0.9,1.5-1.4,2.2c-0.4,0.5-0.8,1.2-1.6,2.2c-1.1,1.4-1.8,2.5-1.7,2.6
		c0.2,0.1,1.7-1.8,3.3-3.8c0.7-0.8,1.4-1.7,2.1-2.5c0.3-0.4,1-1.1,1.2-1.4c0.3-0.4,0.6-0.8,1-1.2c0.9-0.8,1.4-0.8,1.7-1.2
		C94.6,71.6,96.4,68.9,97.1,67.8 M76.5,82.4l-2.5-1.3l0.5-2.8l-2.1,2L70,78.9l1.2,2.6l-2.1,1.9l2.8-0.4l1.2,2.5l0.6-2.8L76.5,82.4z
		 M72.7,73.4l-2.2-1.8l1.1-2.6l-2.4,1.5l-2.3-1.8l0.7,2.8L65.2,73l2.8,0.2l0.7,2.8l1.1-2.7L72.7,73.4z M66,60.9l-2.6,1l2.7,0.7
		l0.2,2.8l1.6-2.4l2.8,0.8l-1.8-2.2l1.6-2.4l-2.7,1.1l-1.9-2.2L66,60.9z M66.5,50.3l-2.8,0.5l2.5,1.2l-0.4,2.8l2-2.1l2.6,1.3
		l-1.4-2.5l2-2.1l-2.8,0.6l-1.4-2.5L66.5,50.3z M70.9,39.9l-0.9-2.7L69,39.9l-2.8-0.1l2.3,1.7l-0.9,2.7l2.4-1.7l2.3,1.7l-0.9-2.7
		l2.4-1.6L70.9,39.9z M78.1,31.2l-2.8-0.6l-0.4-2.9l-1.4,2.5l-2.7-0.6l1.9,2.1l-1.4,2.5l2.7-1.2l1.9,2.2l-0.3-2.8L78.1,31.2z
		 M81.4,22.3l0.2-2.9l-1.9,2.2l-2.6-1.1l1.5,2.4l-1.9,2.2l2.8-0.6l1.5,2.5l0.2-2.8l2.8-0.6L81.4,22.3z M91.3,16.9l-2.4-1.6l0.7-2.8
		l-2.3,1.8l-2.3-1.6l1,2.7l-2.2,1.8l2.9-0.1l1,2.7l0.7-2.8L91.3,16.9z M99.7,11.9l-2.1-2l1.3-2.6l-2.5,1.3l-2-2l0.5,2.8l-2.5,1.3
		l2.9,0.5l0.4,2.9l1.3-2.5L99.7,11.9z M107.3,6.2l1.7-2.3l-2.8,0.8l-1.6-2.3l-0.1,2.8L101.9,6l2.7,1l-0.1,2.9l1.7-2.3l2.7,1
		L107.3,6.2z M117.5,4.4l2.1-1.9l-2.9,0.3l-1.1-2.6L115,3l-2.8,0.3l2.5,1.5L114,7.6l2.1-1.9l2.5,1.5L117.5,4.4z M108,32.8
		c0.1-0.3,0.3-0.6,0.5-1l0,0c-0.8,0-1.7,0.9-2,1.3c-0.7,0.9-1.6,2.2-1.7,3.1c-0.1,0.2,0,0.4,0.1,0.5c0.1,0.1,0.2,0.1,0.3,0.1
		c0.6,0,1.4-1.1,2-2.1C107.4,34.1,107.7,33.6,108,32.8 M119.2,33.3c0.2-0.4,0.4-0.9,0.6-1.5l0,0c-0.8,0-1.7,0.9-2,1.3
		c-0.3,0.4-1.5,1.9-1.7,3.1c-0.1,0.2,0,0.4,0.1,0.6c0.1,0.1,0.2,0.1,0.3,0.1c0.6,0,1.5-1.1,2-2.1C118.7,34.3,118.9,33.8,119.2,33.3
		 M134.8,35.3c0.6-1.2,1.2-2.6,0.9-3.2c0-0.1-0.1-0.2-0.2-0.2c-0.1,0-0.1,0-0.2,0c-0.5,0-1.3,0.8-2.2,2.5c-0.6,1.1-1.1,2.5-0.9,3.2
		c0,0.1,0.1,0.2,0.2,0.3C133.2,38.2,134.1,36.7,134.8,35.3 M154.5,28.9h1.8l0,0.1l-1.2,2.7h1.3l-0.3,0.6h-1.3
		c-0.7,1.5-1.3,2.8-2,4.3c-0.3,0.5-0.4,1.2-0.4,1.8c0.1,0.2,0.2,0.3,0.4,0.2c0.1,0,0.2,0,0.3,0c0.9-0.4,1.7-1.1,2.2-2
		c0-0.1,0.1-0.1,0.2-0.1s0.3,0,0.4,0.1l0,0v0c-0.7,1.3-2.1,2.7-3.5,2.7h0c-0.5,0-0.9-0.3-1.2-0.6c-0.1-0.2-0.2-0.4-0.3-0.6
		c-0.1-0.3-0.1-0.7,0-1c-0.1,0.1-0.2,0.1-0.3,0.2c-0.6,0.6-1.3,1-2.1,1.2c-0.1,0-0.1,0-0.2,0c-0.4,0-0.8-0.2-0.9-0.6
		c-0.1-0.4,0-0.7,0.1-1.1c0.7-1.5,1.2-2.6,1.7-3.8c0-0.1,0-0.1,0-0.2l0,0c0,0-0.1,0-0.2,0c-0.1,0-0.3,0.1-0.4,0.1
		c-1,0.8-1.8,1.9-2.3,3.2c-0.4,0.8-0.8,1.6-1.1,2.4l0,0h-1.8v-0.1c0.1-0.3,0.3-0.6,0.4-1c0.1-0.1,0.1-0.3,0.2-0.4
		c-0.6,0.7-1.4,1.2-2.3,1.6c-0.4,0.1-0.8,0-1-0.4c-0.2-0.3-0.2-0.7-0.1-1.1c-0.5,0.6-1.2,1.1-2,1.4c-0.5,0.2-1,0-1.3-0.4
		c-0.2-0.5-0.2-1,0-1.5c0-0.1,0.1-0.3,0.2-0.4c0.2-0.5,0.6-1.3,0.9-2.1c-0.2,0.1-0.5,0.1-0.7,0.1c-0.1,0-0.3,0-0.4-0.1
		c-0.3,1.8-1.5,3.3-3.1,4.2c-0.8,0.5-1.8,0.4-2.5-0.1c-0.4-0.3-0.6-0.8-0.6-1.3l-0.1,0.1c-0.7,0.7-1.5,1.6-2.6,1.6
		c-0.1,0-0.2,0-0.3,0c-0.2-0.1-0.4-0.2-0.5-0.4c-0.2-0.5-0.2-1,0.1-1.5c0.6-1.3,1.1-2.5,1.7-3.9c0,0,0-0.1,0-0.1
		c-0.1-0.1-0.2-0.1-0.3-0.1c-0.5,0.3-1,0.6-1.3,1.1c-0.2,0.2-0.4,0.5-0.5,0.8c-0.2,0.6-0.5,1.1-0.7,1.6c-0.3,0.7-0.6,1.4-0.9,2.1v0
		h-1.9l0-0.1c0.4-0.8,0.7-1.5,1-2.3c0.4-0.9,0.8-1.9,1.3-2.8c0.1-0.1,0-0.3,0-0.4H126c-0.2,0-0.3,0.1-0.5,0.2
		c-0.4,0.3-0.8,0.7-1,1.1c-0.3,0.5-0.6,1-0.8,1.5l-1.3,2.9h-1.8l0.1-0.1c0.2-0.3,0.4-0.9,0.6-1.3c-0.8,0.7-1.8,1.5-2.7,1.5
		c-0.1,0-0.1,0-0.2,0c-0.3-0.1-0.6-0.3-0.6-0.6c-0.1-0.3-0.1-0.5,0-0.8c-0.6,0.7-1.4,1.2-2.3,1.5c-0.1,0-0.2,0-0.2,0
		c-0.4,0-0.8-0.3-1-0.6c-0.3-0.6-0.3-1.4,0.1-2c0.2-0.5,0.4-0.9,0.7-1.3c-0.2,0-0.3,0.1-0.5,0.1h-0.2c-0.2-0.1-0.5-0.2-0.6-0.4
		c-0.1-0.2-0.2-0.4-0.2-0.6h0c-0.4,0.4-0.8,0.9-1,1.4l-1.5,3.3h-1.8l0.6-1.3c-0.8,0.7-1.7,1.5-2.5,1.5c-0.1,0-0.2,0-0.2,0
		c-0.3-0.1-0.5-0.3-0.6-0.6c0-0.3,0-0.5,0-0.8c-0.6,0.7-1.4,1.2-2.3,1.4c-0.5,0.2-1.1-0.1-1.3-0.6c-0.2-0.6-0.2-1.3,0.1-2
		c0.7-1.7,1.9-3.1,3.6-3.9c0.7-0.4,1.4-0.6,2.2-0.6c0.6,0,1.1,0.1,1.7,0.4h0.1l-0.3,0.8c-0.6,1.4-1.2,2.5-1.8,4
		c-0.1,0.2-0.1,0.4,0,0.5c0.1,0.1,0.2,0.1,0.3,0c1-0.5,1.9-1.8,2.4-2.7l1.2-2.5h1.8l-0.4,0.9l0.3-0.3c0.4-0.3,0.8-0.6,1.2-0.9
		c0.1-0.1,0.2-0.1,0.4-0.1c0.2,0,0.3,0,0.4,0.2c0.1,0.1,0.1,0.2,0.1,0.3c0,0.2-0.1,0.5-0.3,0.7c-0.1,0.1-0.1,0.2-0.2,0.4
		c-0.1,0.2-0.2,0.4-0.2,0.6c0,0.1,0.1,0.1,0.2,0.1c0.1,0,0.2,0,0.2-0.1c0.2-0.1,0.5-0.3,0.7-0.5c0.4-0.4,1-0.8,1.5-1.1
		c0.7-0.4,1.5-0.6,2.3-0.6c0.6,0,1.1,0.1,1.6,0.4l0.1,0l-0.4,0.8c-0.6,1.4-1.2,2.6-1.8,4.1c-0.1,0.3,0,0.3,0,0.4
		c0.2,0.1,0.3,0.1,0.5,0c0.9-0.6,1.7-1.4,2.2-2.4c0.3-0.7,0.6-1.4,1-2.2l0.3-0.6h1.8l-0.5,1c0.4-0.3,1.3-1.1,2.2-1.1
		c0.1,0,0.2,0,0.3,0c0.4,0.1,0.7,0.6,0.7,1l0.1-0.1c0.5-0.4,1.1-0.7,1.7-0.9c0.5-0.2,1,0,1.3,0.3c0.2,0.3,0.2,0.7,0,1
		c-0.9,2-1.5,3.4-1.8,4.2c-0.1,0.1-0.1,0.2,0,0.3c0,0,0.1,0,0.1,0c0.1,0,0.2,0,0.3-0.1c0.5-0.4,0.9-0.9,1.3-1.4
		c0.2-1.1,0.7-2.2,1.6-3c0.7-0.9,1.7-1.4,2.9-1.5c0.3,0,0.6,0,0.8,0.1c0.5,0.2,0.9,0.6,1,1.1c0,0.1,0,0.1,0.1,0.2
		c0.1,0.2,0.1,0.3,0.1,0.5c0.1,0.1,0.3,0.1,0.4,0.1c0.6-0.1,1.2-0.5,1.5-1.1c0-0.1,0.1-0.2,0.1-0.4c0.1-0.1,0.1-0.3,0.1-0.4v0h0.1
		h0.5h1.3l-2.1,4.8c-0.1,0.2-0.2,0.4-0.2,0.6c0,0,0,0.1,0.2,0.1c0,0,0.1,0,0.1,0c0.6-0.1,1.5-1.2,1.9-2.1c0.2-0.5,0.5-1,0.7-1.5
		c0.3-0.6,0.6-1.2,0.9-1.9v0h1.8l0,0.1c-0.6,1.3-1.2,2.8-1.7,3.9l-0.3,0.7c-0.1,0.2-0.2,0.5-0.2,0.8c0,0,0.1,0.1,0.1,0.1
		c0.1,0,0.1,0,0.2,0c1-0.7,1.8-1.6,2.4-2.6c0.4-0.9,0.8-1.8,1.3-2.8v0h1.9l-0.4,0.9c0.6-0.5,1.3-0.9,2-1c0.1,0,0.2,0,0.3,0
		c0.3,0,0.6,0.1,0.8,0.4c0.2,0.5,0.2,1-0.1,1.4c-0.3,0.8-0.7,1.6-1.1,2.4c-0.1,0.3-0.3,0.6-0.4,0.9s-0.1,0.5,0,0.5c0,0,0,0,0.1,0
		c0.4,0,1.4-0.7,1.9-1.9c0.2-0.4,0.3-0.7,0.5-1c0.3-0.6,0.5-1.2,0.9-1.9h-0.9l0.3-0.6h0.9L154.5,28.9z M106,29.4
		c0,4.5-6.8,5.4-7.4,5.5c-1.2,6.1-6,8.9-9.9,8.9h-0.1c-1.8,0-3.1-0.6-3.9-1.7c-0.6-0.8-0.8-1.8-0.6-2.8c0.2-0.5,0.5-1.1,1.1-1.1
		c0.6,0,1.1,0.5,1.1,1.1c0,0.4-0.2,0.8-0.5,0.9c-0.6,0.4-0.5,0.8-0.5,0.8c0,2.1,2.7,2.2,3.3,2.2c3.9,0,5.4-3.6,7-7.4
		c1.3-3.1,2.7-6.4,5.5-8.2c0.2-0.1,0.4-0.1,0.5,0c0,0.1,0,0.2-0.1,0.3c-1.8,2.2-2.5,5.7-2.7,6.3c2.6-0.1,4.7-2.2,4.8-4.8
		c0-3.3-2.9-4.8-5.6-4.8c-4,0-6.5,1.6-7.9,2.9c-1.4,1.3-2.3,3-2.5,4.9c0,2.5,1.5,3.7,2.9,3.7c0.7,0.1,1.4-0.2,1.9-0.8
		c0.2-0.2,0.3-0.6,0.2-0.9c-0.2-0.4-0.2-1,0.1-1.4c0.1-0.2,0.4-0.4,0.6-0.4h0c0.6,0,1,0.5,1,1.3c0,1.3-1.8,2.5-3.7,2.5
		c-1.6,0-4.7-0.9-4.7-4.1s2.2-5.3,4.1-6.4c2.3-1.3,4.9-1.9,7.5-1.9c0.2,0,0.4,0,0.6,0C103.3,24.4,106,27,106,29.4 M121.6,10
		C95,10,73.3,31.7,73.3,58.3v0c0.1,7.7,1.9,15.3,5.4,22.2c6.2-5.8,22.5-24.2,24.4-26.3c2.8-3.3,4.1-1.2,5.6-3c0.5-0.6,1-1.2,1.7-1.6
		c0.6-0.4,1.1-0.9,1.6-1.4c0.3-0.2,1.1-1.3,1.7-1.8c0.6-0.5,1.8-1.3,2.9-2.3c1.2-1,3.2-3.3,5.3-3.3c1.5,0,3,0.7,3.9,2
		c0.2,0.2,1.8,1.6,2.1,1.9c0.3,0.3,2,1.7,2.9,1.7c0.9,0,1.6,1,2.1,1.5c1.1,1,5.6,5.7,7.1,6.8c0.6,0.5,1.3,0.4,1.8,0.8
		c0.3,0.3,0.7,0.5,1,0.7c1,0,1.9,0.5,2.4,1.3c0.2,0.2,0.4,0.3,0.7,0.4c0.8,0.7,1.5,1.5,2.1,2.4c0.5,0.9,12,16.1,16.1,21.5
		c12.9-23.4,4.3-52.7-19-65.6C137.8,12.1,129.8,10.1,121.6,10 M127.8,4.8l2.5-1.5L127.4,3l-0.6-2.8l-1.1,2.6l-2.8-0.3l2.1,2
		l-1.2,2.6l2.5-1.4l2.1,1.9L127.8,4.8z M137.9,7l2.7-1l-2.8-0.8l0-2.8l-1.6,2.3l-2.7-0.8l1.7,2.3l-1.7,2.4l2.7-1l1.7,2.3L137.9,7z
		 M150.2,10.6l-2.5-1.3l0.5-2.8l-2,2l-2.5-1.3l1.3,2.6l-2.1,1.9l2.8-0.4l1.3,2.5l0.5-2.9L150.2,10.6z M158.7,17l-2.2-1.8l1-2.6
		l-2.4,1.5l-2.2-1.8l0.7,2.8l-2.4,1.6l2.9,0.1l0.7,2.8l1-2.8L158.7,17z M165.9,24.8l-1.9-2.3l1.5-2.4l-2.6,1.1l-1.8-2.2l0.2,2.9
		l-2.7,1.1l2.8,0.6l0.2,2.8l1.5-2.5L165.9,24.8z M170.1,31.4l1.9-2l-2.8,0.6l-1.4-2.5l-0.4,2.9l-2.8,0.5l2.6,1.2l-0.4,2.8l2-2.1
		l2.6,1.2L170.1,31.4z M174.3,41l2.3-1.6h-2.8l-0.9-2.7l-0.9,2.8h-2.9l2.3,1.7l-0.9,2.7l2.3-1.7l2.4,1.7L174.3,41z M176.6,51.5
		l2.5-1.2l-2.8-0.5l-0.4-2.8l-1.4,2.5l-2.8-0.6l2,2.1l-1.4,2.5l2.6-1.2l2,2.1L176.6,51.5z M176.9,62.1l2.7-0.7l-2.6-1l0.2-2.8
		l-1.9,2.2l-2.7-1.1l1.5,2.4l-1.8,2.2l2.8-0.7l1.6,2.4L176.9,62.1z"/>
	<path class="st0" d="M164.9,87.3c-1.6,0-2.9,1.3-2.9,2.9s1.3,2.9,2.9,2.9c1.6,0,2.9-1.3,2.9-2.9c0,0,0,0,0,0c0-1.6-1.2-2.9-2.8-2.9
		C165,87.3,165,87.3,164.9,87.3z M164.9,92.7c-1.4,0-2.5-1-2.6-2.4c0-1.4,1-2.5,2.4-2.6c1.4,0,2.5,1,2.6,2.4c0,0,0,0.1,0,0.1
		c0.1,1.3-1,2.4-2.3,2.5C165,92.7,165,92.7,164.9,92.7z"/>
	<path class="st0" d="M165.9,91.1v-0.3c0-0.3-0.2-0.5-0.5-0.6c0.3-0.1,0.4-0.2,0.4-0.6v-0.1c0-0.4-0.2-0.7-0.8-0.7h-1v2.7h0.5v-1.2
		h0.5c0.2,0,0.3,0.2,0.3,0.4v0.4c0,0.3,0.1,0.4,0.5,0.4h0.1v-0.4C166,91.2,165.9,91.2,165.9,91.1z M165.4,89.7
		c0,0.2-0.1,0.4-0.3,0.4h-0.5v-0.8h0.5c0.2,0,0.3,0.1,0.3,0.3V89.7z"/>
	<path class="st0" d="M90.2,101.7c0-5.6-6.4-10.9-16.8-11.2c-9.6-0.3-25.8,4.5-25.8,17.7c0,6.5,5.7,8.9,10,8.9
		c4.1-0.1,7.5-2.8,7.8-5.4c0.3-2.6-1.5-2.7-2-2.6c-1.2,0.1-2.2,1.6-1.5,3.5c0.5,1.2-0.8,3.6-4.5,3.5c-2.9-0.1-6.4-1.9-6.4-7.8
		s6.3-16.8,22.1-16.8c6,0,12.4,3,12.4,10.3c0,4.8-4.4,10.3-10.8,10.4c0,0,1.8-8.4,5.9-13.6c0.4-0.4-0.1-0.8-0.7-0.4
		c-13.3,8.4-11.7,33.7-26.8,34c-1.6,0-7.1-0.5-7-4.6c0-0.8,0.4-1.5,1.1-1.9c0.7-0.4,1.1-1.2,1.2-2c0-1.2-0.9-2.2-2.1-2.3
		c-0.1,0-0.2,0-0.4,0c-1.3,0-2,1-2.3,2.3c-0.4,1.6-0.5,9.3,9.6,9.4c7.6,0.1,18.6-6.1,21.3-19.8C74.4,113.2,90.2,111.8,90.2,101.7z"
		/>
	<path class="st0" d="M196.7,115c-2.5,2.9-4.4,4.1-4.8,3.7c-0.4-0.4-0.3-1,0.5-2.8l3.6-8.1h2.9l0.5-1.1h-2.9l2.7-5.9h-3.6l-2.6,5.9
		h-1.6l-0.5,1.1h1.5c-0.9,2.2-1.9,4.9-3.4,6.8c-1.7,2.3-4,4.2-4.6,3.9c-0.5-0.2-0.4-0.7-0.1-1.4c1-2.2,2.3-4.9,3.3-7.2
		c0.4-0.9,0.8-1.9,0.2-2.9c-0.5-0.8-1.5-0.9-2.3-0.7c-1.8,0.3-3.3,1.5-4.7,2.7l0.9-2.2H178c-1.1,2.2-1.8,3.9-2.7,6.1
		c-0.9,1.8-3.4,4.8-5.2,5.7c-0.3,0.1-0.7,0.2-0.9-0.1c-0.1-0.6,0-1.1,0.3-1.6c1.3-2.6,2.9-6.5,4.4-10h-3.6c-1.1,2.6-2.2,4.6-3.3,7.1
		c-1,2-3,4.5-4.3,4.7c-0.4,0.1-0.8,0-0.8-0.4c0-0.5,0.1-1,0.4-1.4l4.4-10.1H163c-0.2,0.5-0.4,1-0.6,1.4c-0.9,1.6-2.8,3.3-4.3,2.2
		c0-0.5-0.1-0.9-0.2-1.4c-0.3-1.1-1-2-2-2.4c-2.9-1-5.9,0.6-7.8,2.8c-1.8,1.8-3,4.1-3.4,6.6c-0.7,1.1-1.6,2-2.7,2.6
		c-0.3,0.2-0.7,0.2-1,0c-0.1-0.1-0.2-0.5,0-0.9c1-2.3,2.8-6.3,3.8-8.5c0.8-1.6-0.2-3.3-2.7-2.7c-1.5,0.4-2.9,1.2-4.1,2.3
		c0.1-1.3-0.4-2.1-1.4-2.3c-1.8-0.4-4.4,1.5-5.3,2.3l0.9-1.9h-3.6c-0.9,2-2.1,4.7-2.9,6.6c-1,2.1-3.2,4.4-4.5,4.9
		c-0.4,0.2-0.8,0.3-1.2,0.1c-0.2-0.1-0.3-0.5,0-1.1c1.6-3.6,2.8-6.3,4.5-10.1c-2.4-1.6-5.7-0.9-8.2,0.3c-1.1,0.5-2.2,1.3-3.1,2.1
		c-0.4,0.4-0.9,0.7-1.4,1c-0.4,0.2-1,0.2-1.1-0.1c-0.1-0.5,0-0.9,0.3-1.3c0.4-0.7,1-1.4,1-2.2c0-0.8-1-0.9-1.7-0.6
		c-1.3,0.7-2.6,1.6-3.6,2.7l1.1-2.3h-3.4l-2.5,5.6c-1.4,2.6-3.1,5.1-5.1,6.1c-0.3,0.2-0.6,0.2-0.9,0.1c-0.3-0.2-0.2-0.8-0.1-1.2
		c1.6-3.6,2.9-6.5,4.6-10.3c-2.4-1.3-5.9-0.9-8.2,0.4c-3.5,1.9-6.2,5-7.6,8.7c-0.6,1.7-0.9,5.6,2.5,5.1c2-0.4,3.3-1.6,4.8-3.1
		c-0.1,0.6-0.1,1.3,0,1.9c0.1,0.6,0.6,1.1,1.3,1.3c1.8,0.4,4.5-1.8,6.2-3.5l-1.3,3h3.7l3-6.9c0.4-1.2,1.1-2.2,2-3
		c0.2-0.1,0.4-0.1,0.3-0.1c-0.1,1,0.6,1.9,1.6,2.1c0.7,0.1,1.3-0.1,1.9-0.5c-0.8,1.1-1.4,2.3-1.9,3.5c-0.8,2-0.7,3.3-0.2,4.1
		c0.6,1,1.7,1.5,2.8,1.2c2-0.5,3.2-1.7,4.8-3.2l0.2-0.2c-0.2,0.7-0.3,1.5-0.2,2.2c0.2,0.6,0.7,1.1,1.3,1.1c1.8,0.4,4.6-1.8,6.4-3.5
		l0.2-0.2c-0.4,0.8-1.1,2.3-1.4,3.1h3.6l2.7-6c0.5-1.1,1-2.1,1.6-3.1c0.6-1,1.4-1.9,2.3-2.5c0.5-0.3,1-0.5,1.3-0.3
		c0.4,0.1,0.3,0.6,0.1,1l-4.9,11.1h3.7c1.1-2.6,2.1-4.6,3.3-7.4c0.3-0.8,0.7-1.5,1.2-2.2c0.7-1.1,1.6-1.9,2.7-2.5
		c0.6-0.2,1.2,0.1,0.9,0.8c-1.3,3-2.5,5.5-3.5,7.7c-0.4,0.9-0.9,2.3-0.4,3.3c0.2,0.4,0.6,0.7,1.1,0.8c2.7,0.4,4.8-1.9,6.5-3.7
		c0,1.2,0.5,2.3,1.3,3c1.4,1.1,3.6,0.9,5.4,0.1c3.5-1.6,5.6-5.3,6.4-9.1c0,0,0.1,0.1,0.2,0.1c0.9,0.3,1.9,0.2,2.7-0.2
		c-1.1,2.7-2.2,5.1-2.5,5.9c-1.3,3,0.5,4.4,2.6,3.8c1.8-0.6,3.2-1.9,4.6-3.3c-0.2,0.9-0.3,2,0.1,2.6c0.4,0.7,1.3,1,2,0.8
		c1.9-0.4,3.9-2.2,5.4-3.7c-0.5,1.1-1.1,2.4-1.4,3.2h3.6c0.7-1.4,1.5-3,2.3-4.7c1.1-2.5,2.4-5,4.9-6.9c0.6-0.5,1.3-0.6,1.5-0.4
		c0.2,0.1,0.2,0.4,0.1,0.7c-1.2,2.9-2.6,5.8-3.9,8.6c-0.3,0.7-0.4,1.5-0.3,2.2c0.3,1,1.4,1.3,2.3,1.2c2-0.4,3.1-1.4,4.4-2.5
		c0.7-0.7,1.4-1.5,2-2.3c-0.2,0.4-0.2,0.6-0.3,0.9c0,0-1,2.5,0.7,3.6c1.4,0.9,4.8-0.2,8.7-5.7L196.7,115z M93.6,113.4
		c-1.2,2.5-3.1,5-4.5,5c-0.6,0-1.2-0.5-1-1.6c0.3-2.2,2.3-5.3,3.6-6.8c1.1-1.3,2.8-2.9,4.4-2.9c0.1,0,0.3,0,0.2,0.1
		C95.1,110.2,94.7,111.1,93.6,113.4z M117.7,113.8c-1.1,2.1-3,4.6-4.3,4.6c-0.7,0-1.2-0.5-1-1.6c0.3-2.2,2.4-5,3.7-6.6
		c1.1-1.3,2.9-3,4.4-3c0.1,0,0.3,0,0.2,0.1C119.4,110.3,118.8,111.5,117.7,113.8L117.7,113.8z M152.9,114.8c-1.6,3.1-3.3,6-4.8,5.2
		c-1.5-0.8-0.3-4.3,1.3-7.4s3.6-6,5.2-5.3C155.9,107.7,154.5,111.7,152.9,114.8z"/>
	<path class="st0" d="M180.7,161.4c-1,1.4-2.3,2.6-3.7,3.6c-3.3,2.2-4.9,0.5-4.6-1.9c0.3-2.6,1.7-6.1,1.1-9.6
		c-0.5-2.6-2.9-4.8-5-5.6c-0.5-0.2-1-0.3-1.6-0.4c4.5-0.9,13-3.7,13-11.1c0-5.6-6.4-10.9-16.8-11.2c-9.6-0.3-25.8,4.5-25.8,17.7
		c0,6.5,5.7,8.9,10.1,8.9c4.1-0.1,7.5-2.8,7.9-5.4c0.3-2.6-1.5-2.7-2-2.7c-1.2,0.1-2.2,1.6-1.5,3.5c0.5,1.2-0.8,3.6-4.5,3.5
		c-2.9-0.1-6.4-1.9-6.4-7.8s6.3-16.8,22.2-16.8c6,0,12.4,3,12.4,10.3c0,4.8-4.4,10.3-10.9,10.4c0,0,1.8-8.4,5.9-13.6
		c0.4-0.4-0.1-0.8-0.7-0.4c-13.3,8.4-11.7,33.7-26.9,34c-1.6,0-7.2-0.5-7-4.7c0-0.8,0.4-1.5,1.1-1.9c0.7-0.4,1.1-1.2,1.2-2
		c0-1.2-0.9-2.2-2.1-2.3c-0.1,0-0.2,0-0.4,0c-1.3,0-2,1-2.3,2.3c-0.4,1.6-0.5,9.3,9.6,9.4c7.6,0.1,18.6-6.1,21.4-19.8
		c2.2,0.2,4.7,0.9,5.2,3.4c0.2,1.2-0.4,3.3-1.1,5.6c-0.6,2.3-1.2,4.8-0.8,6.9c0.4,2.4,2.5,3.9,5.1,3.8c3.6-0.1,6.4-2.4,9.1-5.9
		c0.6-0.8,1.3-1.7,1.8-2.5h-1.2C181.8,160,181.3,160.8,180.7,161.4z"/>
	<path class="st0" d="M130.8,139.8h-0.1c-0.7,0-1.3,0.2-1.8,0.7c-0.5,0.4-0.8,1.1-0.7,1.8c0.1,0.4,0.3,0.8,0.7,1
		c0.2,0.1,0.5,0.2,0.7,0.2c0.4,0,1.4-0.2,1.8-1.7c0.1-0.2,0.2-0.3,0.4-0.3c0.1,0,0.1,0,0.2,0c0.4,0.1,0.5,0.6,0.5,1.2
		c-0.2,2.4-3.2,2.7-6.4,3.1h-0.2c-3.4,0.4-5.9,0.7-8,2.2c-1.2,0.9-2.1,2.4-2.7,4.6c-0.1,0.2,0,0.3,0.1,0.5c0.1,0.1,0.2,0.1,0.3,0.1
		c0.2,0,0.4-0.1,0.4-0.3c0.5-1.1,1.4-2,2.4-2.6c1.5-0.9,4.4-1.5,6.6-1.8c-0.8,6.1-4.5,9.8-9.8,9.8c-4.5,0-6-3.3-6-5.2v-0.1
		c0-2.1,0.6-4.2,1.9-5.8c1.6-2.3,4.2-3.7,7-3.8h0.1c0.8,0,1.7,0.1,2.5,0.4c0.2,0.1,0.4,0.1,0.6,0.2c0.2,0,0.3-0.1,0.4-0.3
		c0.1-0.3,0-0.5-0.4-0.8c-1.1-0.5-2.3-0.8-3.5-0.9c-0.6-0.5-1.1-1.2-1.3-2c0-1.6,0.6-3,1.6-4.2c1.2-1.5,3-2.5,4.9-2.7
		c1.5-0.1,2.9,0.6,3.2,1.4c0.2,0.4,0,1-0.4,1.2c-0.5,0.4-0.8,1-0.8,1.6c0,0.4,0.2,0.8,0.6,1c0.2,0.1,0.5,0.2,0.7,0.2
		c0.7,0,1.2-0.5,1.3-1.1c0.1-0.4,0.2-0.7,0.2-1.1c0.1-1.9-1.3-4.7-6.3-4.6c-5,0-8.3,3.5-8.7,6.9c-0.1,0.8,0.1,1.6,0.6,2.2
		c0.6,0.7,1.5,1.2,2.4,1.4c-2.5,0.2-4.9,1-7.1,2.3c-2.8,1.7-4.4,4.8-4.4,8c0,1.6,0.6,3.2,1.7,4.5c1.5,1.8,4,2.7,7.3,2.8h0.5
		c3.7,0,6.4-1,8.4-3c2.1-2,3.3-4.7,3.8-8.3c6.5-0.5,7.6-3.7,7.6-5.6c0.1-1.6-1-2.9-2.6-3.1C130.9,139.8,130.8,139.8,130.8,139.8z"/>
	<path class="st0" d="M95.4,142.4c-0.2,0.3-0.5,0.6-0.7,0.9c-0.2,0.3-0.5,0.9-1.1,2c-0.4,0.8-1.7,3.3-2.5,4.6
		c-1.2,1.9-2.5,3.7-4.6,4.4c-0.6,0.3-1.3,0.1-1.6-0.5c-0.3-0.7-0.1-1.9,0.6-3.6c0.6-1.4,6.7-14.9,6.7-14.9h-3.6c0,0-2.4,5.2-4.2,9.2
		c-0.1,0.2-0.2,0.5-0.4,0.8c-0.9,2-2.1,3.8-3.4,5.5c-2,2.2-3.7,3.5-5.4,3.3c-1.7-0.2-2.2-1.8-2.1-3.8c3.6-0.9,8.1-3.2,8.3-6.5
		c0.1-1.6-1.1-3-3.1-3c-2.7,0-5.9,2.2-7.5,5.3l0,0c-3.6,5.9-6.5,7.8-7,7.3c-0.4-0.4-0.2-1.4,0.6-3.2l3.4-7.8h2.8l0.5-1.1h-2.9
		l2.7-5.9h-3.6l-2.7,5.9h-1.6l-0.5,1.1h1.5c-1,2.4-0.5,1.1-1.5,3.4c-1.4,3.2-4.1,5.4-6.6,6.8c1.5-1.8,2.5-3.9,2.9-6.1
		c0.6-3-0.9-4.8-2-5.2c-2.7-1.1-5.8,0.6-7.7,2.8c-1.8,1.7-2.9,3.9-3.3,6.3c-0.2,1.3,0,3.5,1.4,4.7c1.2,1,3.1,0.9,4.7,0.4
		c3.2-0.9,6.1-2.6,8.5-4.9c-0.2,0.4-0.3,0.8-0.4,1.1c0,0-1.2,3,0.5,4c1.4,0.9,5.1-0.6,8.9-6c0,0.2,0,0.4-0.1,0.5
		c-0.2,3.7,1.4,5.3,3.7,5.7c2.3,0.3,5.2-0.8,7.8-4c0.2-0.3,0.4-0.6,0.6-0.9c-0.2,0.8-0.2,1.7,0,2.5c0.1,0.4,0.3,0.8,0.5,1.2
		c0.6,0.8,1.5,1.2,2.4,1.3c3,0.1,5.3-2.2,7.3-5.5c0.7-1.2,1.4-2.4,1.9-3.6c0.1,1,0.5,1.9,1,2.8c1.1,1.8,1.5,2.2,1.5,3
		c0,1.3-1,2.3-2.3,2.4c0,0,0,0,0,0c-1.1,0.1-1.6-0.4-2.2-1.4c-0.2-0.4-0.7-0.6-1.1-0.4c-0.1,0-0.1,0.1-0.2,0.1
		c-0.3,0.3-0.4,1,0.3,1.6c0.8,0.7,1.9,1.1,3,1.1c4.1,0,5.4-2.7,5.4-4.3c0.1-1.4-0.5-2.8-1.5-4.3c-1.2-1.8-1.5-2.3-1.5-3.2
		c-0.1-0.9,0.5-1.7,1.4-1.8c0.7-0.1,1.4,0.3,1.7,0.9c0.6,1.5,1.8,1.6,2.4,1.1c0.4-0.3,0.9-1.5-0.4-2.7S97.2,140.5,95.4,142.4z
		 M73.1,149.3c0.1-1.6,0.8-4.9,2.9-6.5c0.8-0.6,2.2-0.9,2,0.8c-0.2,1.9-1.7,4.2-5,5.8C73.1,149.4,73.1,149.3,73.1,149.3L73.1,149.3z
		 M49.5,154.6c-1.4-0.7-0.3-4.3,1.3-7.3s3.6-6,5.1-5.4c1.4,0.5,0,4.5-1.6,7.5S51,155.3,49.5,154.6L49.5,154.6z"/>
	<path class="st0" d="M49.7,166.7c0,0-17.5,0.9-8.9-16.2c0.3-0.5,1.4-2.9,1.7-3.4c0.3-0.6,1.1-1.9,1.4-2.5c2.8-1.3,5.4-3,7.8-5
		c0.4-0.4,0.8-0.7,1.2-1c1.6-1.3,3-2.8,4.3-4.4c1.1-1.4,3.1-4,2.2-5.9c-0.5-0.9-1.6-1.4-2.6-1.3c-1.4,0.2-3.7,1.3-4.9,2.4
		c-5.2,4.3-8.6,7.6-13.3,14.7c-0.4,0.6-1.2,1.6-1.5,2.2c-3.3,1.4-5.5,1.7-9.2,2.7l0-0.2c3.2-6.7,5.9-15.6,12-19.8
		c0.3-0.1,0.4-0.5,0.2-0.7c-0.1-0.1-0.2-0.2-0.3-0.3c-9.4-3.7-28.9-6-33.5,6.2c-2.3,6.1,0.5,11.2,4.6,12.7c3.9,1.4,8,0,9.3-2.3
		s-0.5-3.1-0.9-3.2c-1.1-0.3-2.6,0.7-2.6,2.8c0,1.3-2,3.1-5.5,1.7c-2.7-1.1-3.7-4.9-1.6-10.4c2.1-5.4,14.7-11.9,29.1-6.9
		c-10.4,5-14,14.7-17.1,21.8c-0.8,0.2-1.5,0.3-2.4,0.4c-7.1,1.1-12.7,3.3-15.9,5.7c-2.6,1.9-3.9,5.1-2.8,7.7
		c0.5,1.2,1.4,2.1,2.5,2.7c0.7,0.3,1.4,0.6,2.2,0.6c0.7,0.1,1.4,0.1,2,0.1c0.6,0,1.3-0.1,1.9-0.2c8.7-1.4,14.8-9.4,18.3-17.2
		c4.6-1.2,5.8-1.2,8.8-2.4c-1,1.6-1.7,3.4-2.1,5.3c-1.6,7.1,2,14.7,15.6,14.7L49.7,166.7z M45.4,141.7c2.4-4.4,4-7.6,6.2-10.3
		c1-1.2,3.6-3.4,5.2-2.3c1.1,0.8,0.3,2.9-0.7,4.6c-1.2,1.8-2.6,3.4-4.3,4.7c-2.2,1.8-4.6,3.5-7.1,4.8
		C44.9,142.7,45.1,142.2,45.4,141.7z M15.5,162.2c-2.2,2.4-4.6,4.1-8,4.5c-3,0.2-5-0.6-5.7-2.3c-0.8-1.9,0.4-4.6,2.4-6.1
		c3.6-2.8,8.9-5.4,16.9-6.9C19.6,155,18.2,159.4,15.5,162.2L15.5,162.2z"/>
	<path class="st0" d="M232.6,149.9c0.6-1,1.2-1.7,1.8-2.8c0.1-0.2,0.2-0.3,0.2-0.5c0.1,1,0.5,1.9,1,2.8c1.1,1.8,1.5,2.2,1.5,3
		c0,1.3-1,2.3-2.3,2.4c0,0,0,0-0.1,0c-1.1,0.1-1.6-0.6-2.2-1.6c-0.2-0.4-0.7-0.6-1.1-0.4c-0.1,0-0.2,0.1-0.2,0.1
		c-0.3,0.3-0.4,1,0.3,1.6c0.8,0.8,1.9,1.3,3,1.3c4.1,0,5.4-2.7,5.4-4.3c0.1-1.4-0.5-2.8-1.5-4.3c-1.2-1.8-1.5-2.3-1.5-3.2
		c-0.1-0.9,0.5-1.7,1.3-1.8c0.1,0,0.3,0,0.4,0c0.6,0.1,1,0.4,1.3,0.9c0.6,1.5,1.8,1.6,2.4,1.1c0.4-0.3,0.9-1.5-0.3-2.7
		c-1.4-1.2-4.3-1.1-6.1,0.9c-0.2,0.2-0.4,0.5-0.6,0.9c-0.2,0.4-0.5,0.9-1.1,2c-0.8,1.5-1.7,3-2.7,4.3c-0.4,0.6-0.9,1.2-1.5,1.8
		c-1.6,1.5-2.6,2.1-2.9,1.8c-0.4-0.4-0.4-0.9,0.5-2.7l3.6-8.2h2.8l0.4-1.1h-2.8l2.7-5.9h-3.6l-2.7,5.9h-1.6l-0.5,1.1h1.5l-0.6,1.6
		c-1.9,4.1-5.1,2.9-3.7,0.7c0.4-0.7,1.5-2.1,1.4-3.1c-0.1-0.9-1-0.9-1.7-0.6c-1.4,0.7-2.6,1.6-3.6,2.6l1.1-2.3h-3.4
		c-0.2,0.5-0.4,1-0.6,1.4c-0.8,1.6-2.7,3.3-4.2,2.2c0-0.5-0.1-0.9-0.2-1.4c-0.2-1.1-1-2-2-2.4c-2.9-1-5.8,0.6-7.7,2.8
		c-0.6,0.6-1.2,1.3-1.7,2.1c-1.4,1.9-2.9,3.8-4.5,5.5c0.1-1.4-0.5-2.7-1.5-4.3c-1.1-1.8-1.5-2.3-1.5-3.2c-0.1-0.9,0.5-1.7,1.3-1.8
		c0.1,0,0.3,0,0.4,0c0.6,0.1,1,0.4,1.3,0.9c0.5,1.5,1.8,1.6,2.4,1.1c0.4-0.3,0.9-1.5-0.4-2.7c-1.3-1.3-4.3-1.1-6.1,0.9
		c-0.2,0.2-0.4,0.5-0.7,0.9c-0.4,0.6-0.8,1.3-1.1,2c-0.9,1.9-2,3.7-3.2,5.4c-0.6,0.7-1.2,1.4-1.9,2c-1.4,1.1-2.7,1.7-3.9,1.5
		c-1.7-0.3-2.2-1.8-2.1-3.8c3.6-0.9,8.1-3.2,8.3-6.6c0.1-1.6-1.1-3-3.1-3c-3.7,0-8.4,4.1-8.6,9.2c-0.2,3.7,1.4,5.3,3.7,5.7
		c1.7,0.3,4-0.4,6.2-2.1c0.7-0.7,1.4-1.4,2.1-2.1c1.2-1.5,2.1-3.1,2.9-4.8c0.1,1,0.5,2,1,2.8c1.3,2,1.5,2.2,1.5,3
		c0,1.4-1.2,2.4-2.5,2.4c-0.9,0-1.8-0.6-2.2-1.5c-0.2-0.4-0.7-0.6-1.1-0.4c-0.1,0-0.1,0.1-0.2,0.1c-0.3,0.3-0.4,1,0.3,1.6
		c0.9,0.8,2,1.2,3.2,1.1c1.2,0,2.3-0.4,3.3-1.1c1.9-1.4,3.7-3.1,5.1-5c0,0.2-0.1,0.4-0.1,0.6c-0.2,1.2-0.2,3.5,1.4,4.7
		c1.4,1.1,3.6,0.9,5.3,0.1c3.4-1.6,5.6-5.2,6.4-9l0.2,0.1c0.9,0.3,1.9,0.2,2.7-0.3c-1.1,2.7-3.8,8.5-4.1,9.3h3.6l3-6.9
		c0.4-1.2,1.1-2.2,2.1-3.1c0.2-0.2,0.5-0.1,0.5,0c-0.1,0.6-0.3,2.4,1,3.1c0.9,0.5,2.8,0.4,4.6-1.2l-1.7,4c-0.2,0.4-0.2,0.4-0.3,0.7
		c0,0-1.1,2.7,0.6,3.8c0.7,0.5,1.9,0.2,2.6,0c1.6-0.6,2.9-1.9,4-3.1C231.4,151.5,232,150.7,232.6,149.9z M179.1,149.3
		c0.1-1.6,1-5.3,3.1-6.9c0.8-0.6,2-0.5,1.8,1.1c-0.2,1.9-1.7,4.2-5,5.9C179.1,149.4,179.1,149.3,179.1,149.3L179.1,149.3z
		 M207.1,149.4c-1.6,3-3.4,5.9-4.9,5.2c-1.5-0.8-0.3-4.3,1.3-7.3c1.6-3,3.6-5.9,5.1-5.3C210,142.4,208.7,146.4,207.1,149.4
		L207.1,149.4z"/>
	<path class="st0" d="M90.2,101.7c0-5.6-6.4-10.9-16.8-11.3c-9.6-0.3-25.8,4.5-25.8,17.7c0,6.5,5.7,9,10.1,8.9
		c4.1-0.1,7.5-2.8,7.8-5.4c0.4-2.7-1.5-2.7-2-2.7c-1.2,0.1-2.2,1.6-1.5,3.5c0.5,1.2-0.8,3.6-4.5,3.5c-2.9-0.1-6.4-1.9-6.4-7.8
		c0-5.9,6.3-16.8,22.1-16.8c6,0,12.4,3,12.4,10.3c0,4.8-4.4,10.3-10.9,10.4c0,0,1.8-8.5,5.9-13.7c0.4-0.4-0.1-0.8-0.7-0.4
		c-13.4,8.5-11.7,33.8-26.9,34.1c-1.6,0-7.2-0.5-7-4.7c0-0.8,0.4-1.5,1.1-1.9c0.7-0.4,1.1-1.2,1.2-2c0-1.2-0.9-2.2-2.1-2.3
		c-0.1,0-0.2,0-0.4,0c-1.3,0-2,1-2.3,2.3c-0.4,1.6-0.5,9.3,9.7,9.4c7.6,0.1,18.6-6.1,21.4-19.8C74.5,113.2,90.2,111.8,90.2,101.7z"
		/>
	<path class="st0" d="M188.9,116.3c-0.2,0.4-0.2,0.6-0.3,0.9c0,0-1,2.5,0.7,3.6c1.4,0.9,4.8-0.2,8.7-5.7c0.2-0.3-0.5-0.8-1-0.2
		c-2.5,2.9-4.4,4.1-4.8,3.7c-0.4-0.4-0.3-1,0.5-2.8l3.6-8.3h2.8l0.5-1.1h-2.9l2.7-5.8h-3.6l-2.6,5.8h-1.6l-0.5,1.1h1.5
		c-0.9,2.2-1.9,5-3.4,7c-1.8,2.3-4,4.2-4.7,3.9c-0.5-0.2-0.4-0.8-0.1-1.4c1-2.2,2.3-4.9,3.3-7.2c0.4-0.9,0.8-1.9,0.2-2.9
		c-0.5-0.8-1.5-0.9-2.3-0.7c-1.8,0.3-3.3,1.5-4.7,2.7l0.9-2.2h-3.7c-1.1,2.2-1.8,3.9-2.8,6.1c-0.9,1.9-3.4,4.8-5.2,5.7
		c-0.3,0.1-0.7,0.2-0.9-0.1c-0.2-0.4,0-0.9,0.3-1.6c1.3-2.6,2.9-6.5,4.4-10h-3.6c-1.1,2.6-2.2,4.6-3.3,7.1c-1,2-3,4.5-4.3,4.7
		c-0.4,0.1-0.8,0-0.8-0.4c0-0.5,0.1-1,0.4-1.4l4.5-10.1h-3.6c-0.2,0.5-0.4,1-0.6,1.4c-0.9,1.6-2.8,3.3-4.3,2.2
		c0-0.5-0.1-0.9-0.2-1.4c-0.3-1.1-1-2-2-2.4c-2.9-1-5.9,0.6-7.8,2.8c-1.8,1.8-3,4.1-3.4,6.6c-0.7,1.1-1.6,2-2.7,2.6
		c-0.3,0.2-0.7,0.2-1,0c-0.1-0.1-0.2-0.5,0-0.9c1-2.3,2.8-6.3,3.8-8.5c0.8-1.6-0.2-3.4-2.7-2.7c-1.5,0.4-2.9,1.2-4.1,2.2
		c0-1.3-0.4-2.1-1.4-2.3c-1.8-0.4-4.4,1.5-5.3,2.4l0.9-1.9h-3.6c-0.9,2-2.1,4.7-2.9,6.6c-0.9,2.1-3.2,4.4-4.5,4.9
		c-0.4,0.2-0.8,0.3-1.2,0.1c-0.2-0.1-0.3-0.5,0-1.1c1.6-3.6,2.8-6.3,4.5-10.1c-2.4-1.6-5.7-0.9-8.2,0.3c-1.1,0.5-2.2,1.3-3.1,2.1
		c-0.4,0.4-0.9,0.7-1.4,1c-0.4,0.2-1,0.2-1.1-0.1c-0.1-0.5,0-0.9,0.3-1.3c0.4-0.7,1-1.4,1-2.2c0-0.8-1-0.9-1.7-0.6
		c-1.3,0.7-2.6,1.6-3.6,2.7l1.1-2.3h-3.5l-2.5,5.6c-1.4,2.6-3.1,5.1-5.1,6.1c-0.3,0.2-0.6,0.2-0.9,0.1c-0.4-0.2-0.2-0.8-0.1-1.2
		c1.6-3.6,2.9-6.5,4.6-10.3c-2.4-1.3-5.9-0.9-8.2,0.4c-3.5,1.9-6.2,5-7.6,8.7c-0.6,1.7-0.9,5.7,2.5,5.1c2-0.4,3.3-1.6,4.8-3.1
		c-0.1,0.6-0.1,1.3,0,1.9c0.1,0.6,0.6,1.1,1.3,1.3c1.8,0.4,4.5-1.8,6.2-3.6l-1.3,3h3.7l3.1-6.9c0.4-1.2,1.1-2.2,2-3
		c0.2-0.1,0.4-0.1,0.3-0.1c-0.1,1,0.6,1.9,1.6,2.1c0.7,0.1,1.4-0.1,1.9-0.5c-0.8,1.1-1.4,2.3-1.9,3.5c-0.8,2-0.7,3.3-0.2,4.1
		c0.6,1,1.7,1.5,2.8,1.2c2-0.5,3.2-1.7,4.8-3.2l0.2-0.2c-0.2,0.7-0.3,1.5-0.2,2.2c0.2,0.6,0.7,1.1,1.3,1.2c1.8,0.4,4.6-1.8,6.4-3.5
		l0.2-0.2c-0.4,0.8-1.1,2.3-1.5,3.2h3.6l2.7-6c0.5-1.1,1-2.1,1.6-3.2c0.6-1,1.4-1.9,2.3-2.5c0.5-0.3,1-0.5,1.3-0.3
		c0.4,0.2,0.3,0.6,0.1,1c-1.6,3.7-3.3,7.4-4.9,11.1h3.7c1.1-2.7,2.1-4.7,3.3-7.4c0.3-0.8,0.7-1.5,1.2-2.2c0.7-1.1,1.6-1.9,2.8-2.5
		c0.6-0.2,1.2,0.1,0.9,0.8c-1.3,3.1-2.5,5.5-3.5,7.8c-0.4,0.9-0.9,2.3-0.4,3.3c0.2,0.4,0.6,0.7,1.1,0.8c2.7,0.4,4.8-1.9,6.5-3.7
		c0,1.2,0.5,2.3,1.3,3c1.4,1.1,3.6,0.9,5.4,0.1c3.5-1.6,5.6-5.3,6.5-9.1c0,0,0.1,0.1,0.2,0.1c0.9,0.3,1.9,0.2,2.7-0.2
		c-1.1,2.7-2.2,5.1-2.5,5.9c-1.3,3,0.5,4.4,2.6,3.8c1.8-0.6,3.2-1.9,4.6-3.3c-0.2,0.9-0.3,2,0.1,2.6c0.4,0.7,1.3,1,2,0.8
		c1.9-0.4,3.9-2.2,5.4-3.7c-0.5,1.1-1.1,2.5-1.4,3.2h3.6c0.7-1.4,1.5-3.1,2.3-4.8c1.1-2.5,2.4-5,4.9-7c0.6-0.5,1.3-0.6,1.5-0.4
		c0.2,0.1,0.2,0.4,0.1,0.7c-1.2,2.9-2.6,5.8-3.9,8.6c-0.3,0.7-0.4,1.5-0.3,2.2c0.3,1,1.4,1.3,2.3,1.2c2-0.4,3.1-1.4,4.4-2.5
		C187.6,117.9,188.3,117.1,188.9,116.3z M93.7,113.5c-1.2,2.5-3.1,5-4.5,5c-0.6,0-1.2-0.5-1-1.6c0.3-2.2,2.3-5.3,3.6-6.8
		c1.1-1.3,2.8-2.9,4.4-2.9c0.1,0,0.3,0,0.2,0.1C95.1,110.2,94.8,111.2,93.7,113.5L93.7,113.5z M117.8,113.8c-1.1,2.1-3,4.6-4.3,4.6
		c-0.7,0-1.2-0.5-1-1.6c0.3-2.2,2.4-5,3.7-6.6c1.1-1.3,2.9-3,4.4-3c0.1,0,0.3,0,0.2,0.1C119.5,110.3,118.9,111.5,117.8,113.8
		L117.8,113.8z M153,114.8c-1.6,3.1-3.4,6-4.8,5.2c-1.4-0.6-0.3-4.3,1.3-7.4s3.6-6,5.2-5.4C156.1,107.8,154.7,111.7,153,114.8z"/>
</g>
</svg>
