<svg width="200" height="200" viewBox="0 0 200 200" fill="none" xmlns="http://www.w3.org/2000/svg">
<path d="M190 134.4L143.1 114.4C140.68 113.315 138.024 112.866 135.382 113.093C132.739 113.321 130.199 114.218 128 115.7L102.9 132.4C87.6025 124.97 75.2168 112.655 67.7 97.4L84.3 72C85.7724 69.7988 86.6717 67.2647 86.9162 64.6277C87.1607 61.9907 86.7426 59.3344 85.7 56.9L65.6 10C64.1974 6.83316 61.8225 4.19539 58.8198 2.46925C55.817 0.743107 52.3425 0.0183274 48.9 0.400018C35.3959 2.16906 22.9937 8.78174 13.9992 19.0086C5.00474 29.2355 0.0300235 42.3806 0 56C0 135.4 64.6 200 144 200C157.619 199.97 170.765 194.995 180.991 186.001C191.218 177.006 197.831 164.604 199.6 151.1C199.982 147.658 199.257 144.183 197.531 141.18C195.805 138.177 193.167 135.803 190 134.4Z" fill="#EC1F28"/>
</svg>
