<svg width="542" height="541" viewBox="0 0 542 541" fill="none" xmlns="http://www.w3.org/2000/svg">
<path d="M171.283 0.82666C153.838 4.20998 139.247 19.6464 136.393 37.7261C135.864 41.5323 135.335 58.9776 135.335 76.5286V108.564H122.119H108.903V99.7889C108.797 84.8811 107.212 76.1057 102.771 66.8015C89.1319 38.5719 54.9815 27.8933 27.5977 43.3297C14.8045 50.625 3.70298 66.0614 1.16549 80.4405C0.319656 84.7754 0.00246944 149.904 0.00246944 288.726C0.00246944 509.805 -0.314717 498.281 6.24047 511.286C11.104 520.695 21.1482 530.634 30.7696 535.18C35.1044 537.189 41.131 539.304 44.3029 539.938C48.0034 540.573 115.776 540.995 239.901 540.995C450.09 540.995 436.98 541.418 449.984 534.123C466.267 525.03 477.897 506.316 477.897 489.188C477.897 484.325 477.474 482.845 475.571 481.047C471.976 477.875 469.756 477.452 465.844 479.038C462.143 480.624 459.923 484.748 459.923 490.351C459.923 494.792 456.117 504.308 452.416 508.96C447.658 514.986 438.989 520.378 431.799 521.859C427.041 522.81 381.684 523.022 235.778 522.81L45.9945 522.493L40.0737 519.744C28.5493 514.246 21.3597 505.153 19.1394 492.995C17.6592 485.276 17.6592 453.875 19.0337 445.522C21.8883 428.077 35.2102 416.235 52.8669 415.39C63.2283 414.861 71.2637 417.716 78.559 424.588C85.6428 431.143 88.8147 437.91 90.4006 449.434C91.6694 458.844 98.9647 462.545 105.414 457.047L108.375 454.509L108.692 290.524L108.903 126.538H122.119H135.335L135.547 230.893L135.864 335.353L150.032 369.715C157.75 388.64 165.257 405.662 166.737 407.566C171.283 413.592 174.349 414.544 191.372 414.967C208.923 415.495 213.786 414.332 215.795 409.152C218.333 402.491 214.103 397.204 206.174 397.204C202.579 397.204 200.887 396.781 200.887 395.83C200.887 395.09 206.385 381.028 213.046 364.534L225.205 334.507V185.852C225.205 27.999 225.311 33.4969 220.341 23.8756C211.46 6.64181 190.949 -2.97958 171.283 0.82666ZM191.9 20.7037C197.293 23.0298 202.79 28.5276 205.222 34.0255C206.808 37.5146 207.231 41.1094 207.231 54.8541V71.5593H180.27H153.309V57.8145C153.309 41.8495 154.472 35.6115 158.384 29.7964C165.891 19.012 179.424 15.3116 191.9 20.7037ZM69.2549 57.8145C80.6736 62.9953 87.7574 72.6166 89.872 85.4098C90.9293 92.3879 91.4579 409.892 90.4006 409.892C90.0835 409.892 87.4402 408.306 84.5856 406.297C74.647 399.424 68.7262 397.733 54.4528 397.733C40.1794 397.733 34.2586 399.424 24.3201 406.297C21.4654 408.306 18.8222 409.892 18.505 409.892C17.4477 409.892 17.9764 91.3306 19.0337 84.8811C20.3024 76.74 23.4743 70.3963 28.9722 64.8984C39.968 54.0083 55.1929 51.2594 69.2549 57.8145ZM207.231 201.606C207.231 262.611 207.02 312.621 206.702 312.621C206.279 312.621 204.694 311.881 203.002 311.035C201.31 310.189 197.504 308.921 194.544 308.286L189.257 307.123V228.461V149.693L186.614 147.155C183.125 143.561 177.838 143.561 174.349 147.261L171.812 150.01L171.495 228.672L171.283 307.335L168.323 307.969C166.737 308.286 162.931 309.449 159.865 310.612C156.693 311.67 153.944 312.621 153.732 312.621C153.521 312.621 153.309 262.611 153.309 201.606V90.5905H180.27H207.231V201.606ZM194.438 327C196.552 327.846 199.936 329.749 202.156 331.229L205.962 333.873L194.332 362.631C187.883 378.49 182.279 392.552 181.645 394.032C180.799 396.358 179.107 392.869 168.006 365.591C157.961 340.851 155.741 334.19 156.693 333.027C158.49 330.806 167.688 326.366 172.763 325.309C178.367 324.04 189.574 324.991 194.438 327Z" fill="#0A23A6"/>
<path d="M332.837 29.2677C327.656 32.0167 324.061 38.4661 322.476 47.9817C321.735 52.1051 320.784 56.1228 320.361 56.7572C319.832 57.7088 317.718 56.7572 313.383 53.9025C301.436 45.7614 295.832 44.3869 288.325 47.6645C284.096 49.5676 265.911 67.8587 264.43 71.8764C263.796 73.5681 263.267 77.1629 263.267 79.9118C263.267 84.2467 264.113 86.2556 269.082 93.868C272.254 98.7316 274.475 103.066 274.052 103.384C273.629 103.701 269.294 104.758 264.43 105.71C253.963 107.824 249.1 110.573 246.351 116.071C244.553 119.56 244.236 122.309 244.236 135.842V151.596L247.408 155.931C251.32 161.429 252.695 162.169 264.642 164.706C269.928 165.869 274.475 167.032 274.686 167.244C274.898 167.455 272.36 171.579 269.188 176.442C263.796 184.478 263.267 185.746 263.267 191.033C263.267 198.751 266.334 203.615 277.858 214.399C290.757 226.558 296.783 227.192 311.057 217.994C321.101 211.439 319.938 210.698 323.004 225.183C324.907 233.959 327.656 238.399 333.471 241.571C336.115 243.051 339.604 243.369 352.185 243.369C367.199 243.369 367.622 243.263 371.957 240.514C377.349 236.813 379.146 233.536 381.684 222.117C382.741 217.148 383.798 212.919 384.01 212.707C384.221 212.496 388.239 214.822 392.997 217.888C408.01 227.615 412.662 226.875 427.57 212.284C438.672 201.5 440.892 197.905 440.892 191.033C440.892 186.275 439.412 182.892 433.279 173.799C430.953 170.416 429.262 167.455 429.473 167.244C429.685 167.032 434.231 165.869 439.623 164.706C450.725 162.275 454.848 159.843 457.808 154.028C459.606 150.433 459.923 147.79 459.923 134.997C459.923 118.397 459.289 116.388 453.156 110.89C449.667 107.824 445.544 106.556 434.548 104.758C432.222 104.335 430.002 103.701 429.685 103.172C429.367 102.644 431.693 98.6258 434.654 94.0795C441.103 84.5639 442.478 77.903 439.306 71.2421C436.557 65.427 417.843 47.7703 413.508 46.9244C405.156 45.2328 402.301 46.0786 390.882 53.7968C387.605 56.0171 384.433 57.7088 383.904 57.3916C383.375 57.0744 382.741 54.8541 382.318 52.5281C380.521 41.4265 379.252 37.4088 376.08 33.814C370.899 27.999 367.833 27.1531 351.34 27.1531C338.969 27.2589 336.115 27.576 332.837 29.2677ZM363.71 51.1536C366.882 67.4358 369.419 71.7707 377.877 75.2598C383.798 77.7973 388.768 76.5285 399.235 69.7619L408.327 63.841L415.834 71.3478L423.235 78.8545L417.737 87.2071C411.076 97.3571 409.702 101.692 411.288 107.507C413.72 116.705 419.006 120.089 435.923 123.366L442.055 124.635L441.738 135.314L441.421 145.992L432.222 147.895C418.16 150.644 413.614 153.922 411.288 162.592C409.702 168.301 411.288 173.27 417.737 183.103L423.129 191.35L415.94 198.54C411.922 202.557 408.327 205.835 407.799 205.835C407.376 205.835 404.204 204.038 400.926 201.711C391.939 195.685 388.556 194.205 383.798 194.205C373.754 194.205 367.833 200.02 365.296 212.284C364.45 216.619 363.498 221.166 363.181 222.54C362.653 224.866 362.335 224.972 351.868 224.655L341.084 224.337L339.181 214.928C336.96 203.72 334.317 199.068 328.502 196.214C321.418 192.513 314.969 193.676 304.502 200.548L295.938 206.152L288.431 198.751L280.924 191.244L286.845 181.94C292.131 173.905 292.871 172.107 292.871 167.561C292.871 161.006 289.805 154.979 285.048 152.019C283.144 150.75 277.224 148.953 272.149 147.895L262.739 145.992L262.422 135.314L262.104 124.635L268.237 123.366C283.567 120.3 288.642 117.551 291.391 111.102C294.563 103.384 293.294 97.8857 285.365 86.1498C283.039 82.8722 281.241 79.7004 281.241 79.2775C281.241 78.7488 284.519 75.154 288.537 71.1363L295.726 63.9468L303.973 69.3389C314.334 76.1056 318.881 77.5858 324.484 75.9999C333.154 73.3566 336.432 68.8103 338.969 56.0171C339.815 51.4708 340.767 47.1359 340.978 46.3958C341.295 45.5499 344.467 45.127 351.974 45.127H362.547L363.71 51.1536Z" fill="#FF3030"/>
<path d="M338.969 82.7664C315.709 88.3701 298.158 110.89 298.158 134.891C298.158 149.481 303.656 162.697 313.806 172.847C324.802 183.843 336.96 188.918 352.08 188.918C366.776 188.918 379.463 183.632 389.931 173.059C411.499 151.596 411.394 119.137 389.613 97.4628C375.446 83.2951 357.895 78.2201 338.969 82.7664ZM360.855 100.635C387.605 107.613 396.803 140.494 377.56 160.16C365.613 172.425 346.159 174.328 331.991 164.812C310.845 150.539 310.845 119.877 332.097 105.392C337.172 102.009 345.419 99.2601 351.551 99.1544C353.348 99.0487 357.578 99.7888 360.855 100.635Z" fill="#0A23A6"/>
<path d="M414.883 254.47C408.539 257.642 406.107 261.66 403.675 273.501L401.455 283.863L392.574 278.154C382.424 271.598 380.309 270.858 373.543 271.916C368.996 272.55 367.516 273.607 357.26 283.863C341.084 299.934 340.344 304.691 350.917 320.445C353.983 324.991 356.309 328.798 356.097 328.903C355.992 329.115 351.551 330.066 346.264 331.018C335.797 333.027 330.511 335.882 327.233 341.379C325.33 344.446 325.119 346.772 325.119 360.728C325.119 374.79 325.33 376.904 327.233 379.759C331.885 386.631 334.951 388.217 349.648 391.178L356.203 392.446L350.599 401.116C340.449 416.658 341.295 421.628 356.626 437.064C372.168 452.5 376.82 453.346 392.574 443.091L401.243 437.487L401.984 440.342C402.301 441.928 403.358 446.791 404.31 451.126C406.107 459.373 408.222 462.65 413.931 466.457C416.68 468.254 419.323 468.571 431.588 468.888C444.91 469.311 446.601 469.1 451.042 466.985C457.386 463.813 460.557 458.844 462.566 448.483C463.518 443.831 464.469 439.39 464.681 438.65C464.998 437.804 468.064 439.284 473.879 443.091C489.527 453.452 494.179 452.5 510.356 436.007C520.083 426.174 521.14 424.799 521.774 420.253C522.832 413.486 521.986 410.949 515.748 401.222C512.787 396.676 510.567 392.764 510.779 392.552C510.99 392.341 515.219 391.389 520.188 390.332C538.057 386.843 541.229 382.191 541.334 360.411C541.334 348.675 541.017 345.714 539.325 342.437C535.731 335.353 531.29 332.815 518.391 330.595C514.162 329.855 510.673 328.798 510.673 328.269C510.673 327.74 512.47 324.569 514.796 321.291C525.158 305.855 524.946 300.145 513.528 287.775C501.157 274.136 493.756 270.012 485.298 271.916C483.606 272.338 478.531 274.982 474.196 277.836C469.756 280.691 465.844 283.017 465.315 283.017C464.892 283.017 463.835 279.528 463.095 275.299C459.712 255.845 455.271 252.461 432.962 252.356C421.226 252.356 418.583 252.673 414.883 254.47ZM445.967 280.903C448.504 293.061 450.936 297.185 457.174 300.039C464.892 303.528 470.496 302.154 482.972 293.696L489.21 289.467L496.717 297.079L504.329 304.691L499.466 311.987C491.113 324.357 490.161 328.692 493.651 336.516C496.505 342.754 500.629 345.186 512.787 347.723L523.36 349.943V360.728V371.406L513.633 373.31C508.347 374.261 502.637 375.847 501.052 376.587C494.919 379.759 490.796 388.534 492.065 395.407C492.488 397.416 495.342 403.125 498.514 407.989L504.223 416.764L496.717 424.377L489.21 431.883L480.434 426.068C469.756 418.984 464.046 417.821 457.068 421.416C450.725 424.588 448.399 428.606 445.967 440.553L443.641 451.232L433.068 450.915L422.495 450.597L420.592 441.399C418.054 428.289 414.883 423.214 407.799 420.57C400.821 417.927 394.16 419.936 382.212 428.183L376.926 431.883L369.313 424.482L361.807 416.976L367.727 407.989C373.437 399.425 373.754 398.684 373.754 392.341C373.754 381.239 368.996 376.904 353.454 373.521L343.093 371.301V360.728V350.155L351.868 348.358C363.71 345.82 367.093 344.234 370.688 339.476C373.331 336.093 373.754 334.507 373.754 329.009C373.754 322.771 373.437 321.925 367.727 313.467L361.807 304.48L369.313 296.973L376.926 289.467L385.701 295.176C395.534 301.625 400.08 302.894 406.001 301.097C414.565 298.559 417.843 294.013 420.38 281.22C421.226 276.673 422.178 272.338 422.389 271.598C422.706 270.753 425.878 270.33 433.279 270.33H443.746L445.967 280.903Z" fill="#0A23A6"/>
<path d="M425.561 307.017C423.869 307.229 420.063 308.18 417.103 309.132C385.807 319.176 370.265 354.913 384.75 383.988C391.728 397.944 405.155 409.152 419.746 413.064C426.513 414.861 440.68 414.649 447.764 412.535C467.747 406.72 483.289 389.063 486.461 368.446C491.959 333.661 460.769 302.365 425.561 307.017ZM447.024 327.635C453.368 329.961 461.72 337.573 464.998 343.917C471.976 357.662 469.227 375.001 458.443 385.891C443.852 400.376 421.015 399.847 406.953 384.834C399.975 377.327 397.226 369.503 397.754 358.613C398.283 348.675 401.243 341.908 407.904 335.247C418.16 324.991 432.328 322.242 447.024 327.635Z" fill="#EC1F28"/>
<path d="M237.892 399.319C233.029 404.182 234.298 411.055 240.536 413.698C245.716 415.812 305.03 415.918 310.211 413.698C316.237 411.16 317.401 402.596 312.114 398.684C310.74 397.627 302.281 397.31 275.215 397.204C241.593 397.204 239.901 397.31 237.892 399.319Z" fill="#5B98BA"/>
<path d="M165.468 435.795C161.873 439.284 161.873 444.57 165.574 448.06C168.217 450.597 168.64 450.597 191.16 450.914C216.747 451.337 220.024 450.914 223.09 447.742C226.051 444.465 225.945 438.438 222.773 435.478C220.341 433.257 219.601 433.152 194.121 433.152H168.006L165.468 435.795Z" fill="#5B98BA"/>
<path d="M246.562 435.584C243.919 438.333 243.496 444.254 245.716 447.108C246.456 448.166 248.36 449.434 249.945 450.069C253.963 451.549 323.216 451.549 327.656 449.963C332.203 448.377 334.634 443.619 333.154 439.284C330.934 433.152 331.78 433.258 288.536 433.152H248.782L246.562 435.584Z" fill="#5B98BA"/>
<path d="M165.468 471.743C161.873 475.232 161.873 480.518 165.574 484.008L168.323 486.545L258.827 486.862C308.625 486.968 351.022 486.862 352.925 486.545C360.326 485.171 363.075 476.924 357.895 471.743L355.357 469.1H261.681H168.006L165.468 471.743Z" fill="#5B98BA"/>
</svg>
