<svg width="619" height="683" viewBox="0 0 619 683" fill="none" xmlns="http://www.w3.org/2000/svg">
<path d="M60.4667 2.55381C46.0667 6.42047 35.5333 12.5538 24.0667 23.8871C12.4667 35.4871 5.4 48.1538 2.2 63.2205C-0.733333 77.2205 -0.733333 605.22 2.2 619.22C8.46667 648.954 33.2667 673.887 63.1333 680.554C71.6667 682.42 84.0667 682.554 161.133 682.287L249.267 681.887L255 677.887C270.6 666.82 270.6 644.954 255 633.887L249.267 629.887L160.2 629.22L71.1333 628.554L65.4 624.554C62.3333 622.287 58.4667 618.154 57 615.22L54.2 609.887V341.22V72.5538L57 67.2205C58.4667 64.2871 62.3333 60.0205 65.4 57.8871L71.1333 53.8871L169 53.4871L266.867 53.0871V96.8205C266.867 146.287 267.667 152.954 275.8 169.22C281.8 181.62 297 197.22 309.133 203.62C325.533 212.287 332.733 213.22 382.333 213.22H426.6L427.133 230.154C427.667 250.154 429.533 255.354 438.733 261.887C443.667 265.354 445.533 265.887 453.533 265.887C461.533 265.887 463.4 265.354 468.333 261.887C471.4 259.62 475.4 255.22 477.133 252.02C480.067 246.287 480.2 245.087 480.2 214.687C480.2 196.42 479.533 180.954 478.733 177.887C477.533 173.354 465.4 160.554 392.467 87.6205C319.533 14.6871 306.733 2.55381 302.2 1.35381C298.6 0.420472 260.467 -0.112861 183.533 0.0204722C76.3333 0.0204722 69.6667 0.153806 60.4667 2.55381ZM366.2 159.62C340.467 160.02 335.267 158.954 328.467 152.154C321.4 145.087 320.2 139.754 320.2 113.754V91.2205L354.2 125.22L388.2 159.22L366.2 159.62Z" fill="#17234C"/>
<path d="M124.467 161.354C122.067 162.02 117.8 164.954 115 167.754C103.134 179.62 105 198.82 118.734 208.554L124.467 212.554H160.2H195.934L201.667 208.554C217.267 197.487 217.267 175.62 201.667 164.554L195.934 160.554L162.467 160.287C143.534 160.154 127 160.554 124.467 161.354Z" fill="#17234C"/>
<path d="M124.467 268.02C122.067 268.687 117.8 271.62 115 274.42C103.134 286.287 105 305.487 118.734 315.22L124.467 319.22H186.867H249.267L255 315.22C270.6 304.154 270.6 282.287 255 271.22L249.267 267.22L189.134 266.954C153.4 266.82 127.134 267.22 124.467 268.02Z" fill="#17234C"/>
<path d="M444.467 310.687C438.467 312.554 430.467 320.821 428.467 327.354C427.667 330.421 426.867 340.154 426.867 348.954V365.087L421.267 366.554C400.467 371.754 379 383.621 361.933 399.087C357.533 403.221 353.4 406.554 352.867 406.554C352.333 406.554 345.533 402.821 337.8 398.154C324.6 390.554 323 389.887 315.533 389.887C305 389.887 298.067 393.487 293.133 401.487C288.2 409.487 287.133 416.821 290.2 424.554C293.267 432.821 297.8 436.954 313.533 445.887C325.4 452.554 327 453.887 326.333 456.421C321.8 472.021 321 477.887 321 495.887C321 513.754 322.2 522.687 326.333 536.021C326.733 537.754 324.067 539.887 315.933 544.554C298.067 554.687 295.267 557.087 291.533 564.287C287.267 572.821 287.267 578.954 291.533 587.354C295.267 594.821 299.667 598.554 307.4 601.221C315.8 604.021 323.267 602.021 338.467 593.221C345.933 588.821 352.467 585.221 353 585.221C353.4 585.221 357.533 588.554 361.933 592.687C379 608.154 400.467 620.021 421.134 625.221L426.6 626.554L427.134 644.954C427.667 666.154 429.4 671.221 438.734 677.887C443.667 681.354 445.534 681.887 453.534 681.887C461.534 681.887 463.4 681.354 468.334 677.887C471.4 675.621 475.4 671.221 477.134 668.021C479.934 662.687 480.2 660.421 480.2 644.421V626.687L485.934 625.221C506.067 620.154 528.867 607.621 545.134 592.687C549.534 588.554 553.667 585.221 554.2 585.221C554.6 585.221 561.4 588.954 569.267 593.487C582.334 601.087 584.2 601.754 591.534 601.887C605.4 601.887 614.2 595.221 617.667 582.154C619.134 577.087 619.134 574.687 617.667 569.621C615.134 559.887 611.267 556.021 595 546.687C583.934 540.421 580.334 537.621 580.734 536.021C588.2 512.021 588.2 479.754 580.734 455.754C580.334 454.154 583.934 451.354 595 445.087C603.267 440.421 611.267 434.687 613 432.554C622.6 419.887 619.267 401.354 605.8 392.954C601.934 390.554 599 389.887 592.2 389.887C584.067 389.887 582.734 390.421 569.267 398.287C561.4 402.821 554.6 406.554 554.067 406.554C553.667 406.554 549.534 403.087 545 398.954C528.2 383.354 507.934 372.287 485.934 366.554L480.2 365.087V347.354C480.2 331.354 479.934 329.087 477.134 323.754C471.134 312.554 457 306.821 444.467 310.687ZM472.734 418.554C487.8 422.421 498.067 428.287 509.534 439.887C521.134 451.354 527 461.621 530.867 476.687C535.667 495.487 533.267 515.887 523.934 533.621C518.334 544.421 502.067 560.687 491.267 566.287C473.534 575.621 453.134 578.021 434.334 573.221C419.4 569.487 409.134 563.487 397.4 551.887C372.467 527.087 366.734 491.754 382.334 460.021C388.467 447.487 403.8 431.754 415.8 425.487C433.534 416.154 453.934 413.754 472.734 418.554Z" fill="#17234C"/>
<path d="M444.467 470.687C442.067 471.354 437.8 474.287 435 477.087C423.134 488.954 425 508.154 438.734 517.887C443.667 521.354 445.534 521.887 453.534 521.887C461.534 521.887 463.4 521.354 468.334 517.887C483.8 506.954 483.934 484.954 468.734 474.154C462.734 469.887 451.934 468.421 444.467 470.687Z" fill="#17234C"/>
</svg>
