<?xml version="1.0" encoding="utf-8"?>
<!-- Generator: Adobe Illustrator 27.9.0, SVG Export Plug-In . SVG Version: 6.00 Build 0)  -->
<svg version="1.1" id="Layer_1" xmlns="http://www.w3.org/2000/svg" xmlns:xlink="http://www.w3.org/1999/xlink" x="0px" y="0px"
	 viewBox="0 0 841.89 595.28" style="enable-background:new 0 0 841.89 595.28;" xml:space="preserve">
<style type="text/css">
	.st0{fill:#17234C;}
	.st1{fill:#EC1F28;}
</style>
<g>
	<g>
		<path class="st0" d="M473.45,114.01c-18.66,10.78-34.32,20.71-51.99,30.91c-24.64,14.21-53.21,30.7-77.94,44.74
			c0.17,46.82,0.19,99.85,0.19,146.66v7.91c-1.7-0.74-4.11-2.08-5.31-2.77c-12.25-7.03-28.17-15.52-40.5-22.41
			c0.08-48.16,0.1-106.43,0-154.58c41.87-24.07,90.68-52.27,132.56-76.33C444.52,96.28,458.7,105.47,473.45,114.01"/>
		<path class="st1" d="M561.32,165.82c-18.6-10.55-45.4-26.04-63.88-37.53c-41.6,24.18-89.87,53.34-131.58,77.33
			c0.14,21.79,0.12,52.76,0,74.55c18.78,10.02,45.86,26.02,64.58,36.06c25.73-15.01,52.52-30.43,78.33-45.3
			c1.88-1.08,4.85-2.95,7.76-4.48c0,7.48-0.06,21.78-0.01,27.96c-25.78,14.53-60.57,34.53-86.07,49.55
			c-19.39-11.04-43.57-24.34-64.58-36.23c0,17.13,0.17,35.27,0,51.17c18.3,10.7,38.21,24.79,56.44,35.6
			c3.71,2.2,6.35,1.86,9.87-0.18c40.94-23.8,88.09-51.72,129.16-75.3C561.2,271.45,561.22,213.42,561.32,165.82 M516.51,215.17
			c-26.38,15.01-60.45,34.15-86.65,49.49c-1.34-1.05-17.52-10.22-19.1-10.84c0.31-12.47-0.2-13.35-0.01-23.1
			c24.61-13.7,62.86-35.17,89.05-50.51c5.3,3.26,12.5,6.82,16.71,9.45C516.78,196.06,516.44,208.67,516.51,215.17"/>
	</g>
	<g>
		<path class="st0" d="M476.57,466.82c5.82,0,8.73,2.15,8.73,6.46c0,2.27-0.83,4-2.48,5.18c-1.28,0.9-3.5,1.35-6.67,1.35h-9.87
			v-12.99H476.57z M455.98,506.01h10.29v-18.6h9.3c2.74,0,4.77,0.4,6.07,1.21c1.3,0.81,2.21,2.2,2.73,4.19
			c0.43,2.89,0.71,5.16,0.85,6.82c0.24,3.27,0.64,5.4,1.21,6.39h10.79l-0.43-0.57c-0.66-0.85-1.14-2.89-1.42-6.11l-0.28-3.05
			c-0.24-2.13-0.38-3.38-0.43-3.76c-0.33-2.18-0.9-3.9-1.7-5.18c-1.18-1.89-2.86-3.12-5.04-3.69c5.02-1.89,7.53-5.75,7.53-11.57
			c0-5.11-2.06-8.87-6.18-11.29c-2.41-1.42-5.89-2.13-10.44-2.13h-22.86V506.01z M416.05,470.48c2.3,2.91,3.44,6.85,3.44,11.82
			c0,5.02-1.15,8.98-3.44,11.89c-2.3,2.91-5.41,4.37-9.34,4.37c-3.98,0-7.14-1.46-9.48-4.37c-2.34-2.91-3.51-6.83-3.51-11.75
			c0-5.06,1.16-9.05,3.48-11.96c2.32-2.91,5.49-4.37,9.51-4.37C410.64,466.11,413.75,467.57,416.05,470.48z M389.74,464.34
			c-4.31,4.54-6.46,10.53-6.46,17.96c0,7.43,2.14,13.43,6.43,18c4.28,4.57,9.9,6.85,16.86,6.85c7,0,12.65-2.27,16.93-6.82
			c4.28-4.54,6.43-10.53,6.43-17.96c0-7.38-2.14-13.37-6.43-17.96c-4.28-4.59-9.86-6.89-16.72-6.89
			C399.73,457.52,394.05,459.79,389.74,464.34z M321.66,458.66v8.73h14.27v38.62h10.29v-38.62h14.41v-8.73H321.66z M276.58,497.28
			v-38.62h-10.29v47.35h33.44v-8.73H276.58z M212.96,487.84l3.05-8.52c0.61-1.75,1.21-3.48,1.77-5.18c0.76-2.27,1.28-3.98,1.56-5.11
			c0.8,3.31,1.85,6.74,3.12,10.29l3.05,8.52H212.96z M214.03,458.59L196,506.01h10.65l3.83-10.58h17.61l3.76,10.58h10.86
			l-18.03-47.42H214.03z M138.14,458.66v47.35h35.99v-8.73h-25.7v-11.57h23.14v-8.16h-23.14v-10.15h25.2v-8.73H138.14z
			 M90.78,466.82c5.82,0,8.73,2.15,8.73,6.46c0,2.27-0.83,4-2.48,5.18c-1.28,0.9-3.5,1.35-6.67,1.35h-9.87v-12.99H90.78z
			 M70.19,506.01h10.29v-18.6h9.3c2.74,0,4.77,0.4,6.07,1.21c1.3,0.81,2.21,2.2,2.73,4.19c0.43,2.89,0.71,5.16,0.85,6.82
			c0.24,3.27,0.64,5.4,1.21,6.39h10.79l-0.43-0.57c-0.66-0.85-1.14-2.89-1.42-6.11l-0.28-3.05c-0.24-2.13-0.38-3.38-0.43-3.76
			c-0.33-2.18-0.9-3.9-1.7-5.18c-1.18-1.89-2.86-3.12-5.04-3.69c5.02-1.89,7.53-5.75,7.53-11.57c0-5.11-2.06-8.87-6.18-11.29
			c-2.41-1.42-5.89-2.13-10.44-2.13H70.19V506.01z"/>
		<path class="st1" d="M735.7,458.66v47.35h35.99v-8.73H746v-11.57h23.14v-8.16H746v-10.15h25.2v-8.73H735.7z M697.58,458.66v19.74
			c0,0.38,0,1.14,0,2.27s0,2.3,0,3.48v1.35l0.11,1.28c0.21,2.6,0.32,4.33,0.32,5.18c-1.09-2.08-1.87-3.55-2.34-4.4
			c-1.09-1.94-2.37-4.12-3.83-6.53l-13.77-22.36h-10.51v47.35h9.94v-20.16v-4.33c-0.06-3.27-0.14-5.44-0.26-6.53l-0.17-2.41
			c1.61,3.03,2.79,5.21,3.55,6.53c1.56,2.65,2.37,4,2.41,4.05l14.13,22.86h10.37v-47.35H697.58z M629,458.66v47.35h10.29v-47.35H629
			z M590.8,458.66v19.74c0,0.38,0,1.14,0,2.27s0,2.3,0,3.48v1.35l0.11,1.28c0.21,2.6,0.32,4.33,0.32,5.18
			c-1.09-2.08-1.87-3.55-2.34-4.4c-1.09-1.94-2.37-4.12-3.83-6.53l-13.77-22.36h-10.51v47.35h9.94v-20.16v-4.33
			c-0.06-3.27-0.14-5.44-0.26-6.53l-0.17-2.41c1.61,3.03,2.79,5.21,3.55,6.53c1.56,2.65,2.37,4,2.41,4.05l14.13,22.86h10.37v-47.35
			H590.8z"/>
	</g>
</g>
</svg>
