<svg width="774" height="653" viewBox="0 0 774 653" fill="none" xmlns="http://www.w3.org/2000/svg">
<path d="M372.336 1.68784C368.708 2.89722 363.568 5.1648 360.545 6.97886C357.673 8.64175 292.82 58.8308 216.629 118.544C121.996 192.618 76.493 229.201 73.4695 233.585C63.1898 247.947 60.4688 268.204 66.6668 284.53C70.7484 295.566 82.3887 308.113 93.4242 313.555C100.983 317.335 103.704 317.788 116.402 317.788C130.764 317.788 132.275 317.335 147.09 309.776C147.695 309.474 148.148 351.348 148.148 402.898V496.776L143.613 499.95L139.229 503.125L110.809 484.077C87.982 468.96 81.3305 465.181 77.0977 465.181C72.8648 465.181 65.6086 469.262 39.607 486.647C21.7688 498.439 5.59336 510.079 3.62813 512.498L0 516.882V578.56C0 645.075 0.151172 646.587 7.70977 650.517C14.059 653.692 759.941 653.692 766.29 650.517C773.849 646.587 774 645.075 774 578.56V516.882L770.372 512.498C768.407 510.079 752.231 498.439 734.393 486.647C708.391 469.262 701.135 465.181 696.902 465.181C692.67 465.181 686.018 468.96 663.191 484.077L634.771 503.125L630.387 499.95L625.852 496.776V474.856C625.852 453.692 625.7 452.785 622.223 449.308C615.118 442.203 605.292 442.807 599.548 450.517C597.28 453.541 596.222 457.622 595.92 465.181C595.617 471.076 595.013 475.763 594.559 475.763C594.257 475.763 590.477 473.344 586.093 470.472C573.395 461.855 572.034 462.309 539.23 484.077L510.961 502.974L492.82 490.88L474.68 478.786L474.377 392.467L473.924 306.148L469.691 302.52L465.458 298.892H387H308.542L304.309 302.52L300.076 306.148L299.623 392.467L299.32 478.786L281.18 490.88L263.039 502.974L234.77 484.077C201.966 462.309 200.605 461.855 187.907 470.472C183.523 473.344 179.592 475.763 179.139 475.763C178.685 475.763 178.383 432.679 178.383 380.071L178.534 284.53L281.482 203.653C338.171 159.209 385.639 122.777 387.151 122.777C388.512 122.777 435.98 159.209 492.669 203.653L595.466 284.53L595.617 303.88C595.617 327.01 597.431 332.603 605.443 336.08C609.827 337.894 612.095 338.045 616.177 336.685C623.584 334.115 625.852 330.033 625.852 318.846C625.852 313.555 626.305 309.474 627.061 309.776C641.725 317.335 643.236 317.788 657.598 317.788C670.447 317.788 672.866 317.335 680.727 313.253C692.216 307.509 703.252 295.415 707.484 284.077C710.205 276.972 710.659 273.193 710.205 262.61C709.45 249.005 705.821 239.33 697.961 229.957C695.844 227.539 678.459 213.328 659.261 198.362L624.491 171.152L624.34 105.694C624.34 33.7363 624.189 32.0734 615.27 27.5382C611.339 25.4218 604.385 25.2707 563.871 25.573L517.008 26.0265L512.926 30.2593C508.693 34.341 508.693 34.7945 507.938 56.8656L507.182 79.239L461.225 43.2601C434.77 22.5496 412.095 5.92066 407.559 3.95542C398.036 -0.126218 381.255 -1.33559 372.336 1.68784ZM394.861 31.1664C400.605 33.2828 673.168 247.191 676.948 252.482C681.332 258.68 681.483 270.471 677.25 277.425C670.447 288.461 655.632 291.787 644.899 284.53C641.876 282.565 602.873 252.028 558.278 216.805C513.531 181.734 458.353 138.347 435.677 120.509C413.002 102.671 392.745 87.5535 390.779 86.9488C388.663 86.4953 385.337 86.4953 383.372 86.9488C381.255 87.5535 324.868 131.242 257.748 184.001C190.628 236.76 133.031 281.809 129.554 284.077C118.368 291.787 103.704 288.763 96.75 277.425C92.5172 270.32 92.6684 258.68 97.0523 252.482C100.529 247.644 373.092 33.5851 378.686 31.1664C382.767 29.5035 390.628 29.5035 394.861 31.1664ZM594.105 101.008C594.105 136.835 593.652 146.208 592.291 145.301C591.233 144.696 578.535 135.021 564.325 123.835L538.172 103.427V79.3902V55.505H566.139H594.105V101.008ZM444.445 396.851V464.727L415.723 483.775L387 502.974L358.277 483.775L329.555 464.727V396.851V329.126H387H444.445V396.851ZM100.832 513.707L123.961 529.126V575.687V622.4H77.0977H30.2344V575.839V529.429L53.2125 513.858C65.9109 505.392 76.6441 498.439 76.9465 498.439C77.4 498.439 88.1332 505.392 100.832 513.707ZM224.793 513.707L247.922 529.126V575.687V622.4H201.059H154.195V575.839V529.429L177.173 513.858C189.872 505.392 200.605 498.439 200.907 498.439C201.361 498.439 212.094 505.392 224.793 513.707ZM348.754 513.707L371.883 529.126V575.687V622.4H325.02H278.156V575.839V529.429L301.134 513.858C313.833 505.392 324.566 498.439 324.868 498.439C325.322 498.439 336.055 505.392 348.754 513.707ZM472.714 513.707L495.844 529.126V575.687V622.4H448.98H402.117V575.839V529.429L425.095 513.858C437.794 505.392 448.527 498.439 448.829 498.439C449.283 498.439 460.016 505.392 472.714 513.707ZM596.675 513.707L619.805 529.126V575.687V622.4H572.941H526.078V575.839V529.429L549.056 513.858C561.755 505.392 572.488 498.439 572.79 498.439C573.244 498.439 583.977 505.392 596.675 513.707ZM720.636 513.707L743.766 529.126V575.687V622.4H696.902H650.039V575.839V529.429L673.017 513.858C685.716 505.392 696.449 498.439 696.751 498.439C697.205 498.439 707.938 505.392 720.636 513.707Z" fill="#17234C"/>
<path d="M605.141 377.501C600.303 379.466 596.524 386.118 596.675 392.316C596.826 399.723 603.932 406.224 611.641 406.224C619.2 406.224 625.851 399.421 625.851 391.862C625.851 384.757 623.886 381.129 618.293 378.257C613.455 375.687 610.13 375.536 605.141 377.501Z" fill="#17234C"/>
</svg>
