<svg id="Layer_1" data-name="Layer 1" xmlns="http://www.w3.org/2000/svg" viewBox="0 0 418.38 166.02"><path d="M309.63,86.28V129.8a21,21,0,1,1-42,0c0-13,10.86-21.32,20.08-28.25s22-15.27,22-15.27M309.49,67c-7.69,5.42-30.64,19.08-40.69,25.62s-22.15,17.44-22.15,39.5c0,19.79,16.31,35.82,36.4,35.82,10.16,0,19.75-3.5,26.35-10.1v7.93l19.9-.8V71c0-23.73-16.7-43-37.31-43s-37.33,19.25-37.33,43V82.51h19.5V70l.06-1.42c0-11.9,7.92-21.51,17.7-21.51,9.29,0,16.89,8.67,17.65,19.71Zm53-65.08-.06,163.35H341.9V1.92ZM152.64,86.17l0,43.52a21,21,0,1,1-42,0c0-13,10.88-21.32,20.1-28.25s22-15.27,22-15.27m-.17-19.27C144.79,72.33,121.85,86,111.8,92.51S89.66,110,89.66,132c0,19.78,16.3,35.82,36.38,35.82,10.18,0,19.76-3.5,26.38-10.11v7.94l19.88-.8v-94c0-23.73-16.71-43-37.34-43s-37.31,19.26-37.31,43V82.41h19.51l0-12.51.06-1.42c0-11.87,7.93-21.49,17.71-21.49,9.27,0,16.9,8.67,17.63,19.7ZM173,30.67h21.7l19.66,85.64,18.88-85.64h21.73l-32.6,135H205.52ZM393.83,1.92l-.05,163.35H373.69V1.92Zm32.59,0-.05,21.41H405.86V1.92Zm0,30-.05,133.4H405.86V31.87ZM85,73.09H66.39C66,57.77,57.25,45.52,46.49,45.52c-11,0-19.93,12.81-19.93,28.6v46.1c0,15.82,8.92,28.62,19.93,28.62,10.84,0,19.69-12.46,19.92-28H84.94v3c0,23.94-17.2,43.35-38.45,43.35S8,147.85,8,123.91V70.46C8,46.52,25.26,27.11,46.49,27.11S84.94,46.52,84.94,70.46Z" transform="translate(-8.04 -1.92)" fill="#1d1d1b"/></svg>