<?xml version="1.0" encoding="utf-8"?>
<!-- Generator: Adobe Illustrator 26.0.3, SVG Export Plug-In . SVG Version: 6.00 Build 0)  -->
<svg version="1.1" id="Layer_1" xmlns="http://www.w3.org/2000/svg" xmlns:xlink="http://www.w3.org/1999/xlink" x="0px" y="0px"
	 viewBox="0 0 138 52" style="enable-background:new 0 0 138 52;" xml:space="preserve">
<style type="text/css">
	.st0{fill:#1D1D1B;}
</style>
<g>
	<path class="st0" d="M58.93,33.32c-0.02-0.27,0.05-0.44-0.22-0.55c-0.37-0.15-0.85-0.22-1.24-0.22c-1.48,0-2.93,1.11-2.93,2.71
		c0,0.77,0.32,1.4,0.89,1.88c0.54,0.46,1.19,0.63,1.88,0.63c0.56,0,1.16-0.12,1.64-0.44c0.18-0.12,0.14-0.21,0.14-0.42v-0.92
		c0-0.12-0.02-0.35,0.08-0.44c0.05-0.06,0.17-0.06,0.24-0.06l0.15-0.02c0.07,0,0.15-0.01,0.15-0.1c0-0.08-0.07-0.1-0.13-0.1
		c-0.27,0-0.53,0.03-0.79,0.03c-0.28,0-0.56-0.03-0.83-0.03c-0.07,0-0.18,0-0.18,0.1s0.11,0.1,0.18,0.1c0.45,0,0.52,0.07,0.52,0.52
		v0.67c0,0.19,0.02,0.54-0.15,0.67c-0.21,0.18-0.61,0.22-0.88,0.22c-0.66,0-1.22-0.18-1.66-0.71c-0.39-0.47-0.56-1.03-0.56-1.64
		c0-0.58,0.19-1.26,0.56-1.72c0.39-0.51,0.94-0.71,1.55-0.71c1.36,0,1.22,1.04,1.48,1.04c0.08,0,0.12-0.08,0.12-0.16L58.93,33.32z"
		/>
	<path class="st0" d="M61.23,33.31c0-0.14-0.02-0.31,0.12-0.37c0.12-0.05,0.46-0.05,0.58-0.05c0.26,0,0.59,0,0.85,0.08
		c0.25,0.08,0.36,0.22,0.48,0.47l0.12,0.22c0.02,0.06,0.05,0.16,0.12,0.16c0.08,0,0.07-0.12,0.07-0.17v-0.69
		c0-0.1,0.04-0.3-0.11-0.3c-0.65,0-1.3,0.03-1.96,0.03c-0.48,0-0.97-0.03-1.45-0.03c-0.07,0-0.13,0.04-0.13,0.12
		c0,0.1,0.12,0.1,0.2,0.1c0.53,0,0.5,0.16,0.5,0.66v3.27c0,0.51,0.03,0.67-0.5,0.67c-0.08,0-0.2,0.01-0.2,0.1
		c0,0.09,0.06,0.12,0.13,0.12c0.16,0,0.32-0.03,0.48-0.03h3.01c0.06,0,0.08,0.01,0.08-0.05l0.12-0.85c0.02-0.06,0.03-0.13,0.03-0.19
		c0-0.06-0.02-0.09-0.08-0.09c-0.09,0-0.15,0.22-0.17,0.27c-0.26,0.71-0.69,0.72-1.35,0.72c-0.61,0-0.95-0.01-0.95-0.75v-1.4
		c0-0.27,0.08-0.27,0.39-0.27c0.23,0,0.63,0,0.93,0.07c0.17,0.04,0.23,0.28,0.27,0.51c0.01,0.05,0.03,0.14,0.1,0.14
		c0.04,0,0.08-0.02,0.08-0.14c-0.01-0.26-0.02-0.5-0.04-0.75c0.01-0.22,0.03-0.47,0.04-0.69c0-0.06-0.05-0.08-0.08-0.08
		c-0.07,0-0.09,0.09-0.1,0.14c-0.04,0.23-0.08,0.53-0.27,0.55c-0.3,0.04-0.7,0.03-0.93,0.03c-0.32,0-0.39,0-0.39-0.38V33.31z"/>
	<path class="st0" d="M71.5,33.31c0-0.14-0.02-0.31,0.12-0.37c0.12-0.05,0.46-0.05,0.58-0.05c0.26,0,0.59,0,0.85,0.08
		c0.25,0.08,0.36,0.22,0.48,0.47l0.12,0.22c0.02,0.06,0.05,0.16,0.12,0.16c0.08,0,0.07-0.12,0.07-0.17v-0.69
		c0-0.1,0.04-0.3-0.11-0.3c-0.65,0-1.3,0.03-1.96,0.03c-0.48,0-0.97-0.03-1.45-0.03c-0.07,0-0.13,0.04-0.13,0.12
		c0,0.1,0.12,0.1,0.2,0.1c0.53,0,0.5,0.16,0.5,0.66v3.27c0,0.51,0.03,0.67-0.5,0.67c-0.08,0-0.2,0.01-0.2,0.1
		c0,0.09,0.06,0.12,0.13,0.12c0.15,0,0.32-0.03,0.48-0.03h3.01c0.06,0,0.08,0.01,0.08-0.05l0.12-0.85c0.02-0.06,0.03-0.13,0.03-0.19
		c0-0.06-0.02-0.09-0.08-0.09c-0.09,0-0.15,0.22-0.17,0.27c-0.26,0.71-0.68,0.72-1.35,0.72c-0.61,0-0.95-0.01-0.95-0.75v-1.4
		c0-0.27,0.08-0.27,0.39-0.27c0.23,0,0.63,0,0.93,0.07c0.17,0.04,0.23,0.28,0.27,0.51c0.01,0.05,0.03,0.14,0.1,0.14
		c0.04,0,0.08-0.02,0.08-0.14c-0.01-0.26-0.02-0.5-0.04-0.75c0.01-0.22,0.03-0.47,0.04-0.69c0-0.06-0.05-0.08-0.08-0.08
		c-0.07,0-0.09,0.09-0.1,0.14c-0.04,0.23-0.08,0.53-0.27,0.55c-0.3,0.04-0.7,0.03-0.93,0.03c-0.32,0-0.39,0-0.39-0.38V33.31z"/>
	<path class="st0" d="M77.23,36.75l-1.38-3.41c-0.04-0.1-0.1-0.21-0.1-0.32c0-0.15,0.33-0.13,0.38-0.14
		c0.06-0.01,0.15-0.02,0.15-0.11c0-0.1-0.08-0.1-0.15-0.1c-0.24,0-0.47,0.03-0.7,0.03c-0.28,0-0.54-0.03-0.81-0.03
		c-0.07,0-0.16,0.01-0.16,0.1c0,0.12,0.13,0.12,0.21,0.12c0.36,0,0.45,0.25,0.56,0.54l1.65,4.12c0.02,0.05,0.06,0.23,0.14,0.23
		c0.06,0,0.11-0.18,0.12-0.23l1.58-4.02c0.06-0.17,0.17-0.41,0.29-0.53c0.09-0.08,0.21-0.1,0.32-0.1c0.07,0,0.18-0.02,0.18-0.11
		c0-0.07-0.05-0.1-0.11-0.1c-0.22,0-0.43,0.03-0.65,0.03c-0.22,0-0.45-0.03-0.66-0.03c-0.08,0-0.17,0.02-0.17,0.12
		c0,0.12,0.27,0.1,0.34,0.1c0.14,0,0.32,0.04,0.32,0.22c0,0.12-0.07,0.3-0.11,0.41L77.23,36.75z"/>
	<path class="st0" d="M80.91,33.31c0-0.14-0.02-0.31,0.12-0.37c0.12-0.05,0.46-0.05,0.58-0.05c0.26,0,0.59,0,0.85,0.08
		c0.25,0.08,0.36,0.22,0.48,0.47l0.12,0.22c0.02,0.06,0.05,0.16,0.12,0.16c0.08,0,0.07-0.12,0.07-0.17v-0.69
		c0-0.1,0.04-0.3-0.11-0.3c-0.65,0-1.3,0.03-1.96,0.03c-0.48,0-0.97-0.03-1.45-0.03c-0.07,0-0.13,0.04-0.13,0.12
		c0,0.1,0.12,0.1,0.2,0.1c0.53,0,0.5,0.16,0.5,0.66v3.27c0,0.51,0.03,0.67-0.5,0.67c-0.08,0-0.2,0.01-0.2,0.1
		c0,0.09,0.06,0.12,0.13,0.12c0.16,0,0.32-0.03,0.48-0.03h3.01c0.06,0,0.08,0.01,0.08-0.05l0.12-0.85c0.02-0.06,0.03-0.13,0.03-0.19
		c0-0.06-0.02-0.09-0.08-0.09c-0.09,0-0.15,0.22-0.17,0.27c-0.26,0.71-0.68,0.72-1.35,0.72c-0.61,0-0.95-0.01-0.95-0.75v-1.4
		c0-0.27,0.08-0.27,0.39-0.27c0.23,0,0.63,0,0.93,0.07c0.17,0.04,0.23,0.28,0.27,0.51c0.01,0.05,0.03,0.14,0.1,0.14
		c0.04,0,0.08-0.02,0.08-0.14c-0.01-0.26-0.02-0.5-0.04-0.75c0.01-0.22,0.03-0.47,0.04-0.69c0-0.06-0.05-0.08-0.08-0.08
		c-0.07,0-0.09,0.09-0.1,0.14c-0.04,0.23-0.08,0.53-0.27,0.55c-0.3,0.04-0.7,0.03-0.93,0.03c-0.32,0-0.39,0-0.39-0.38V33.31z"/>
	<path class="st0" d="M68.75,36.64l-2.89-3.68c-0.1-0.13-0.16-0.24-0.33-0.28h-1.01c-0.09,0-0.2,0.01-0.2,0.13
		c0,0.09,0.13,0.09,0.2,0.09c0.57,0,0.53,0.16,0.53,0.67v3.28c0,0.5,0.04,0.66-0.53,0.66c-0.07,0-0.21-0.02-0.21,0.08
		c0,0.09,0.07,0.12,0.15,0.12c0.24,0,0.48-0.03,0.71-0.03c0.24,0,0.47,0.03,0.72,0.03c0.08,0,0.14-0.03,0.14-0.12
		c0-0.1-0.13-0.08-0.2-0.08c-0.57,0-0.53-0.17-0.53-0.66v-3.62l3.43,4.37c0.04,0.06,0.11,0.19,0.2,0.19c0.07,0,0.06-0.11,0.06-0.15
		v-4.07c0-0.5-0.03-0.67,0.53-0.67c0.08,0,0.21,0,0.21-0.09c0-0.09-0.07-0.13-0.14-0.13c-0.24,0-0.47,0.03-0.71,0.03
		s-0.47-0.03-0.72-0.03c-0.08,0-0.15,0.04-0.15,0.13c0,0.09,0.13,0.09,0.2,0.09c0.57,0,0.54,0.16,0.54,0.67V36.64z"/>
	<path class="st0" d="M35.32,16.21c-0.06-0.72,0.17-1.11-0.54-1.39c-1-0.41-2.29-0.61-3.35-0.61c-3.99,0-7.9,2.99-7.9,7.33
		c0,2.08,0.87,3.77,2.41,5.09c1.46,1.24,3.2,1.69,5.07,1.69c1.52,0,3.14-0.33,4.43-1.19c0.48-0.32,0.37-0.56,0.37-1.13v-2.49
		c0-0.32-0.04-0.95,0.23-1.19c0.15-0.15,0.46-0.15,0.64-0.17l0.4-0.04c0.19,0,0.39-0.02,0.39-0.28c0-0.22-0.19-0.26-0.35-0.26h-4.39
		c-0.19,0-0.48,0-0.48,0.28c0,0.28,0.29,0.26,0.5,0.26c1.21,0,1.41,0.19,1.41,1.41v1.8c0,0.52,0.04,1.45-0.4,1.82
		c-0.58,0.5-1.66,0.61-2.37,0.61c-1.79,0-3.31-0.5-4.49-1.93c-1.06-1.26-1.5-2.77-1.5-4.42c0-1.56,0.52-3.4,1.5-4.64
		c1.06-1.37,2.54-1.91,4.18-1.91c3.68,0,3.29,2.8,3.99,2.8c0.23,0,0.31-0.22,0.31-0.43L35.32,16.21z"/>
	<path class="st0" d="M41.45,16.75c0-1.52,0.04-1.73,1.62-1.73c1.85,0,3,1.08,3,3.08c0,0.87-0.27,1.67-0.96,2.21
		c-0.79,0.63-1.64,0.72-2.6,0.72c-0.35,0-1.06,0.15-1.06-0.39V16.75z M39.8,25.81c0,1.37,0.1,1.8-1.35,1.8
		c-0.19,0-0.52-0.02-0.52,0.26c0,0.24,0.17,0.28,0.35,0.28c0.79,0,1.58-0.09,2.37-0.09c0.79,0,1.54,0.09,2.33,0.09
		c0.19,0,0.35-0.04,0.35-0.28c0-0.28-0.35-0.26-0.54-0.26c-1.44-0.02-1.35-0.41-1.35-1.8v-3.34c0-0.2-0.02-0.72,0.1-0.87
		c0.1-0.13,0.29-0.11,0.46-0.11c1.58,0,1.56,0.17,2.31,1.69l2.04,4.23c0.17,0.32,0.29,0.74,0.71,0.74h2.2
		c0.17,0,0.37-0.02,0.37-0.24c0-0.3-0.37-0.3-0.54-0.3c-0.91,0-1.23-0.82-1.6-1.58l-1.68-3.38c-0.29-0.56-0.6-1.32-1.27-1.43
		c1.73-0.24,3.29-1.39,3.29-3.36c0-2.28-1.96-3.29-3.93-3.29c-1.19,0-2.35,0.09-3.56,0.09c-0.67,0-1.37-0.09-2.04-0.09
		c-0.23,0-0.37,0.09-0.37,0.32c0,0.26,0.33,0.26,0.52,0.26c1.46,0,1.35,0.41,1.35,1.8V25.81z"/>
	<path class="st0" d="M41.45,16.75c0-1.52,0.04-1.73,1.62-1.73c1.85,0,3,1.08,3,3.08c0,0.87-0.27,1.67-0.96,2.21
		c-0.79,0.63-1.64,0.72-2.6,0.72c-0.35,0-1.06,0.15-1.06-0.39V16.75z M39.8,25.81c0,1.37,0.1,1.8-1.35,1.8
		c-0.19,0-0.52-0.02-0.52,0.26c0,0.24,0.17,0.28,0.35,0.28c0.79,0,1.58-0.09,2.37-0.09c0.79,0,1.54,0.09,2.33,0.09
		c0.19,0,0.35-0.04,0.35-0.28c0-0.28-0.35-0.26-0.54-0.26c-1.44-0.02-1.35-0.41-1.35-1.8v-3.34c0-0.2-0.02-0.72,0.1-0.87
		c0.1-0.13,0.29-0.11,0.46-0.11c1.58,0,1.56,0.17,2.31,1.69l2.04,4.23c0.17,0.32,0.29,0.74,0.71,0.74h2.2
		c0.17,0,0.37-0.02,0.37-0.24c0-0.3-0.37-0.3-0.54-0.3c-0.91,0-1.23-0.82-1.6-1.58l-1.68-3.38c-0.29-0.56-0.6-1.32-1.27-1.43
		c1.73-0.24,3.29-1.39,3.29-3.36c0-2.28-1.96-3.29-3.93-3.29c-1.19,0-2.35,0.09-3.56,0.09c-0.67,0-1.37-0.09-2.04-0.09
		c-0.23,0-0.37,0.09-0.37,0.32c0,0.26,0.33,0.26,0.52,0.26c1.46,0,1.35,0.41,1.35,1.8V25.81z"/>
	<path class="st0" d="M52.95,25.81c0,1.37,0.1,1.8-1.35,1.8c-0.19,0-0.52-0.02-0.52,0.26c0,0.24,0.17,0.28,0.35,0.28h4.7
		c0.19,0,0.35-0.04,0.35-0.28c0-0.28-0.35-0.26-0.54-0.26c-1.43-0.02-1.35-0.41-1.35-1.8v-8.89c0-1.37-0.1-1.78,1.35-1.78
		c0.19,0,0.54,0,0.54-0.28c0-0.24-0.17-0.3-0.35-0.3h-4.7c-0.21,0-0.35,0.07-0.35,0.3c0,0.28,0.33,0.28,0.52,0.28
		c1.46,0,1.35,0.41,1.35,1.78V25.81z"/>
	<path class="st0" d="M61.4,21.87c1.41,0.65,2.54,1.5,2.54,3.23c0,1.71-1.54,2.82-3.1,2.82c-1.89,0-2.85-1.17-3.06-3.04
		c-0.02-0.17-0.02-0.72-0.29-0.72c-0.23,0-0.29,0.26-0.31,0.43c-0.06,0.56,0.01,1.17,0.01,1.73c0,0.39-0.13,0.91,0.22,1.15
		c0.87,0.54,2.12,0.85,3.14,0.85c1.21,0,2.39-0.33,3.33-1.13c0.89-0.78,1.46-1.86,1.46-3.08c0-0.93-0.4-1.89-1-2.58
		c-0.5-0.56-1.37-1.02-2.06-1.34c-1.35-0.61-3.64-1.37-3.64-3.23c0-1.58,1.31-2.32,2.68-2.32c1.62,0,2.25,0.8,2.7,2.3
		c0.06,0.15,0.1,0.5,0.33,0.5c0.15,0,0.23-0.11,0.23-0.26c-0.02-0.56,0.03-1.1,0.01-1.66c-0.02-0.39-0.07-0.68-0.47-0.84
		c-0.77-0.32-1.97-0.48-2.79-0.48c-2.04,0-4.01,1.39-4.01,3.66c0,1.93,1.5,2.82,3.01,3.51L61.4,21.87z"/>
	<path class="st0" d="M78.86,21.26c0,1.63-0.31,3.08-1.29,4.38c-1,1.28-2.41,2.08-4.01,2.08c-1.58,0-3.04-0.67-4.03-1.93
		c-1.02-1.26-1.39-2.91-1.39-4.53c0-1.56,0.35-3.19,1.31-4.42c1-1.32,2.49-2.04,4.12-2.04c1.56,0,2.93,0.74,3.93,1.97
		C78.53,18.1,78.86,19.59,78.86,21.26 M66.26,21.26c0,3.95,3.51,7.07,7.26,7.07c3.95,0,7.24-2.88,7.24-7.07
		c0-4.18-3.29-7.05-7.24-7.05C69.77,14.21,66.26,17.32,66.26,21.26"/>
	<path class="st0" d="M78.86,21.26c0,1.63-0.31,3.08-1.29,4.38c-1,1.28-2.41,2.08-4.01,2.08c-1.58,0-3.04-0.67-4.03-1.93
		c-1.02-1.26-1.39-2.91-1.39-4.53c0-1.56,0.35-3.19,1.31-4.42c1-1.32,2.49-2.04,4.12-2.04c1.56,0,2.93,0.74,3.93,1.97
		C78.53,18.1,78.86,19.59,78.86,21.26 M66.26,21.26c0,3.95,3.51,7.07,7.26,7.07c3.95,0,7.24-2.88,7.24-7.07
		c0-4.18-3.29-7.05-7.24-7.05C69.77,14.21,66.26,17.32,66.26,21.26"/>
	<path class="st0" d="M93.26,16.28c-0.06-0.72,0.07-1.18-0.64-1.46c-1-0.41-2.29-0.61-3.35-0.61c-3.99,0-7.9,2.99-7.9,7.33
		c0,2.08,0.87,3.77,2.41,5.09c1.46,1.24,3.2,1.69,5.07,1.69c1.52,0,3.14-0.33,4.43-1.19c0.48-0.32,0.37-0.56,0.37-1.13v-2.49
		c0-0.32-0.04-0.95,0.23-1.19c0.15-0.15,0.46-0.15,0.64-0.17l0.4-0.04c0.19,0,0.4-0.02,0.4-0.28c0-0.22-0.19-0.26-0.35-0.26h-4.39
		c-0.19,0-0.48,0-0.48,0.28c0,0.28,0.29,0.26,0.5,0.26c1.21,0,1.41,0.19,1.41,1.41v1.8c0,0.52,0.04,1.45-0.39,1.82
		c-0.58,0.5-1.66,0.61-2.37,0.61c-1.79,0-3.31-0.5-4.49-1.93c-1.06-1.26-1.5-2.77-1.5-4.42c0-1.56,0.52-3.4,1.5-4.64
		c1.06-1.37,2.54-1.91,4.18-1.91c3.68,0,3.29,2.8,3.99,2.8c0.23,0,0.31-0.22,0.31-0.43L93.26,16.28z"/>
	<path class="st0" d="M108.63,21.26c0,1.63-0.31,3.08-1.29,4.38c-1,1.28-2.41,2.08-4.01,2.08c-1.58,0-3.04-0.67-4.04-1.93
		c-1.02-1.26-1.39-2.91-1.39-4.53c0-1.56,0.35-3.19,1.31-4.42c1-1.32,2.5-2.04,4.12-2.04c1.56,0,2.93,0.74,3.93,1.97
		C108.3,18.1,108.63,19.59,108.63,21.26 M96.03,21.26c0,3.95,3.51,7.07,7.26,7.07c3.95,0,7.24-2.88,7.24-7.07
		c0-4.18-3.29-7.05-7.24-7.05C99.55,14.21,96.03,17.32,96.03,21.26"/>
	<path class="st0" d="M108.63,21.26c0,1.63-0.31,3.08-1.29,4.38c-1,1.28-2.41,2.08-4.01,2.08c-1.58,0-3.04-0.67-4.04-1.93
		c-1.02-1.26-1.39-2.91-1.39-4.53c0-1.56,0.35-3.19,1.31-4.42c1-1.32,2.5-2.04,4.12-2.04c1.56,0,2.93,0.74,3.93,1.97
		C108.3,18.1,108.63,19.59,108.63,21.26 M96.03,21.26c0,3.95,3.51,7.07,7.26,7.07c3.95,0,7.24-2.88,7.24-7.07
		c0-4.18-3.29-7.05-7.24-7.05C99.55,14.21,96.03,17.32,96.03,21.26"/>
	<path class="st0" d="M121.77,25.27l-7.36-9.95c-0.25-0.35-0.42-0.65-0.85-0.76h-2.58c-0.23,0-0.5,0.02-0.5,0.35
		c0,0.24,0.33,0.24,0.52,0.24c1.46,0,1.35,0.43,1.35,1.8v8.87c0,1.34,0.1,1.8-1.35,1.8c-0.19,0-0.54-0.06-0.54,0.22
		c0,0.24,0.17,0.32,0.37,0.32h3.64c0.21,0,0.35-0.09,0.35-0.32c0-0.28-0.33-0.22-0.52-0.22c-1.46,0-1.35-0.45-1.35-1.8v-9.8
		l8.73,11.84c0.1,0.17,0.29,0.52,0.52,0.52c0.19,0,0.15-0.3,0.15-0.41V16.95c0-1.34-0.08-1.8,1.35-1.8c0.21,0,0.54,0,0.54-0.24
		c0-0.24-0.17-0.35-0.35-0.35h-3.64c-0.21,0-0.37,0.11-0.37,0.35c0,0.24,0.33,0.24,0.52,0.24c1.46,0,1.37,0.43,1.37,1.8V25.27z"/>
	<path class="st0" d="M136.11,21.26c0,1.63-0.31,3.08-1.29,4.38c-1,1.28-2.41,2.08-4.01,2.08c-1.58,0-3.04-0.67-4.03-1.93
		c-1.02-1.26-1.39-2.91-1.39-4.53c0-1.56,0.35-3.19,1.31-4.42c1-1.32,2.49-2.04,4.12-2.04c1.56,0,2.93,0.74,3.93,1.97
		C135.78,18.1,136.11,19.59,136.11,21.26 M123.51,21.26c0,3.95,3.51,7.07,7.26,7.07c3.95,0,7.24-2.88,7.24-7.07
		c0-4.18-3.29-7.05-7.24-7.05C127.02,14.21,123.51,17.32,123.51,21.26"/>
	<path class="st0" d="M136.11,21.26c0,1.63-0.31,3.08-1.29,4.38c-1,1.28-2.41,2.08-4.01,2.08c-1.58,0-3.04-0.67-4.03-1.93
		c-1.02-1.26-1.39-2.91-1.39-4.53c0-1.56,0.35-3.19,1.31-4.42c1-1.32,2.49-2.04,4.12-2.04c1.56,0,2.93,0.74,3.93,1.97
		C135.78,18.1,136.11,19.59,136.11,21.26 M123.51,21.26c0,3.95,3.51,7.07,7.26,7.07c3.95,0,7.24-2.88,7.24-7.07
		c0-4.18-3.29-7.05-7.24-7.05C127.02,14.21,123.51,17.32,123.51,21.26"/>
	<path class="st0" d="M12.48,22.29c-0.22,0-0.67,0.06-0.67-0.27s0.31-0.96,0.49-1.19c0.59-0.86,1.55-1.37,2.56-1.37
		c0.63,0,1.28,0.16,1.71,0.64c0.28,0.31,0.51,0.78,0.51,1.21c0,0.49-0.3,0.72-0.73,0.82c-0.57,0.14-1.67,0.16-2.28,0.16H12.48z
		 M18.42,22.79c0.2,0,0.24-0.18,0.24-0.35c0-0.68-0.3-1.56-0.69-2.07c-0.69-0.88-1.77-1.27-2.83-1.27c-1.34,0-2.56,0.47-3.54,1.37
		c-1.04,0.94-1.42,2.03-1.42,3.42c0,2.56,1.91,4.72,4.48,4.72c1.22,0,2.18-0.33,3.11-1.15c0.14-0.12,0.77-0.68,0.77-0.92
		c0-0.08-0.06-0.16-0.16-0.16c-0.26,0-0.98,1.33-2.91,1.33c-2.38,0-3.81-1.99-3.81-4.29c0-0.68,0.2-0.64,0.81-0.64H18.42z"/>
	<path class="st0" d="M12.48,22.29c-0.22,0-0.67,0.06-0.67-0.27s0.31-0.96,0.49-1.19c0.59-0.86,1.55-1.37,2.56-1.37
		c0.63,0,1.28,0.16,1.71,0.64c0.28,0.31,0.51,0.78,0.51,1.21c0,0.49-0.3,0.72-0.73,0.82c-0.57,0.14-1.67,0.16-2.28,0.16H12.48z
		 M18.42,22.79c0.2,0,0.24-0.18,0.24-0.35c0-0.68-0.3-1.56-0.69-2.07c-0.69-0.88-1.77-1.27-2.83-1.27c-1.34,0-2.56,0.47-3.54,1.37
		c-1.04,0.94-1.42,2.03-1.42,3.42c0,2.56,1.91,4.72,4.48,4.72c1.22,0,2.18-0.33,3.11-1.15c0.14-0.12,0.77-0.68,0.77-0.92
		c0-0.08-0.06-0.16-0.16-0.16c-0.26,0-0.98,1.33-2.91,1.33c-2.38,0-3.81-1.99-3.81-4.29c0-0.68,0.2-0.64,0.81-0.64H18.42z"/>
	<path class="st0" d="M8.71,14.56c0-0.16,0-0.21-0.2-0.21c-0.14,0-1.92-0.1-2.47,0c-0.12,0.02-0.2,0.2-0.2,0.34
		c0,0.27,0.22,0.36,0.4,0.34c1.4-0.14,1.13,1.14,1.13,1.9v1.95c0,0.12,0.08,0.76-0.16,0.76c-0.1,0-0.28-0.08-0.37-0.12
		c-0.65-0.27-1.38-0.39-2.1-0.43c-1.26-0.06-2.48,0.59-3.36,1.48C0.49,21.45,0,22.58,0,23.87c0,2.46,1.75,4.74,4.25,4.74
		c1.59,0,2.87-0.97,3.03-1.37c0.08-0.19,0.1,0.6,0.1,0.68c0.02,0.12,0.09,0.55,0.31,0.55c0.12,0,2.32,0.06,2.42,0
		c0,0,0.18-0.22,0.2-0.48c0,0-0.26-0.28-0.4-0.28H9.05c-0.37,0-0.31-1.03-0.31-1.25L8.71,14.56z M7.37,25.74
		c0,0.41,0.06,0.7-0.2,1.03c-0.55,0.68-1.52,0.96-2.32,0.96c-2.18,0-3.4-2.11-3.4-4.16c0-2.05,1.28-3.9,3.42-4.1
		c0.65-0.06,1.55,0.19,2.03,0.66c0.51,0.49,0.47,1.27,0.47,1.91V25.74z"/>
	<path class="st0" d="M8.71,14.56c0-0.16,0-0.21-0.2-0.21c-0.14,0-1.92-0.1-2.47,0c-0.12,0.02-0.2,0.2-0.2,0.34
		c0,0.27,0.22,0.36,0.4,0.34c1.4-0.14,1.13,1.14,1.13,1.9v1.95c0,0.12,0.08,0.76-0.16,0.76c-0.1,0-0.28-0.08-0.37-0.12
		c-0.65-0.27-1.38-0.39-2.1-0.43c-1.26-0.06-2.48,0.59-3.36,1.48C0.49,21.45,0,22.58,0,23.87c0,2.46,1.75,4.74,4.25,4.74
		c1.59,0,2.87-0.97,3.03-1.37c0.08-0.19,0.1,0.6,0.1,0.68c0.02,0.12,0.09,0.55,0.31,0.55c0.12,0,2.32,0.06,2.42,0
		c0,0,0.18-0.22,0.2-0.48c0,0-0.26-0.28-0.4-0.28H9.05c-0.37,0-0.31-1.03-0.31-1.25L8.71,14.56z M7.37,25.74
		c0,0.41,0.06,0.7-0.2,1.03c-0.55,0.68-1.52,0.96-2.32,0.96c-2.18,0-3.4-2.11-3.4-4.16c0-2.05,1.28-3.9,3.42-4.1
		c0.65-0.06,1.55,0.19,2.03,0.66c0.51,0.49,0.47,1.27,0.47,1.91V25.74z"/>
</g>
</svg>
