<?xml version="1.0" encoding="utf-8"?>
<!-- Generator: Adobe Illustrator 24.0.1, SVG Export Plug-In . SVG Version: 6.00 Build 0)  -->
<svg version="1.1" id="Layer_1" xmlns="http://www.w3.org/2000/svg" xmlns:xlink="http://www.w3.org/1999/xlink" x="0px" y="0px"
	 viewBox="0 0 301 113" style="enable-background:new 0 0 301 113;" xml:space="preserve">
<style type="text/css">
	.st0{fill:#231F20;}
</style>
<g>
	<path class="st0" d="M251,74.5c-1,1.7-3,1.8-6.6,2c-2,0.2-4.1,0.2-6.1,0.1c0,0,11.7,4.5-34.4,3.6c0,0,4.1,4.1-12.9,2.9
		c0,0-40.7-1.8-122.7,11.7l-1.2-1.6c0,0-0.8-1.3-2.2-3.4c31.1-8.1,98.8-22.2,181.4-18C246.2,71.9,252.7,71.7,251,74.5z M55.7,92.4
		c-6.1,1.7-9.3,2.8-9.3,2.8c-2.5,0.6-3,1.5-3.5,2.1c-2.1,2.5,5.4,0.9,5.4,0.9c4-0.7,8-1.4,11.8-2.1l-0.5-0.4
		C58.3,94.7,56.9,93.5,55.7,92.4z M166.6,56.1L166.6,56.1c4.6-4.6,11.7-12.9,11.7-12.9c7.4,13.7-3.9,17.3-3.9,17.3
		c-4.2,2.8,0.1,3.4,0.1,3.4c17.5,0.4,18.9-10.2,18.9-10.2c0.4-7.6-9.9-18.5-9.9-18.5c-2.8-6-4.8-0.9-4.8-0.9
		c-1.9,5.2-13.7,18.5-16,20.9c-9.8,8.6-6.4,3.2-7.2-0.6c0,0,0.4-7,2.4-8.5c0,0,1,0.5,1.8-3.8c0,0,2.4-5.5-4-6.5c0,0-4.3-3-6.3,5.4
		c0,0-3.7,15.9,1.4,23.1C150.7,64.3,153.3,69,166.6,56.1z M107.9,61.5c-0.8-5.6,2.1-13,2.1-13c4.1-10.7,11.2-12.9,11.2-12.9
		c5.6-1.8,10.5,4.8,10.5,4.8c0.6,0.8,1,1.6,1.4,2.5c1.7-12.8,2.4-25.7,2.1-38.7c-1-8.3,4.7-1.1,4.7-1.1c10.4,12.6,5.9,19.2,5.9,19.2
		c-0.7,13.4-13.3,45.8-13.3,45.8c-1.6,3.7-2.3,4.2-3,3.9c-1.8-1-1.1-4.8-1.1-4.8c0.1-1.9,0.8-3.1,1.2-4.9c-1.2,1.3-2.6,2.4-4.1,3.4
		C107.6,76.1,107.9,61.5,107.9,61.5z M117.7,61.5c5,3.4,10.7-3.1,13.4-6.8c0.2-1.3,0.5-2.5,0.7-3.9c-5.2,2.8-7.6-3.4-7.6-3.4
		c-0.5-1.6,0.9-1.7,0.8-2.2c-0.3-2.1-0.8-2.6-1.2-2.5c-1.1,0.2-2.3,1.8-2.3,1.8c-2.8,3.5-4.6,7.8-5,12.3
		C116.4,60.7,117.7,61.5,117.7,61.5L117.7,61.5z M159.6,25.9c1.1,0.3,4.7-1.9,6.4-3.2c1.3-0.8,2.1-2.2,2.3-3.7
		c0.3-2.6-1.3-4.9-3.6-5.2s-4.2,1.6-4.5,4.1c-0.2,1-0.3,2-0.3,3.1C159.7,22,158.4,25.6,159.6,25.9L159.6,25.9z M249.9,41.5
		c0,0-1.4-2.8-3.1-1.7c0,0-1.6,0.7-1.1,3.7c0,0-0.2,0.1,0.7,2.5c0,0,2,6,0.8,6.2c-0.5,0.1-0.9,0.3-1.2,0.7c-0.6,0.6-1.2,1.2-1.9,1.7
		c0,0-5.5,3.7-4.3-1.5c0.4-1.7,0.9-3.4,1.5-5.1c0,0,3.1-8.7,6.5-13.3c0,0,3.3-4-0.7-3.7c-0.3,0-0.8,0.2-1.2,0c0,0-2.1-1.8-5.2,2.2
		c0,0-12.1,18-12.1,24c0,0-0.5,5.5,5.8,5.3c0,0,6.3-0.4,10.9-4.1c0,0,2.9-2.9,4.6-3.2c0,0,4.1,0.4,2.8-5.1
		C252.8,50.1,251.4,43.9,249.9,41.5z M200.6,46.9l6.8-5.2c7.5,13.7-3.9,17.3-3.9,17.3c-1.5,0.6-1.9,1.3-1.9,2.1
		c0,1.2,1.9,1.3,1.9,1.3c17.5,0.4,18.9-10.2,18.9-10.2c0.8-4.7-4.1-9.2-7-11.2c-2.1-1.4-4.6-6.4-2.7-8.7c0.8-1,2.5-1.9,2.3-3.4
		c-0.5-3.2-6.2,0-7.2,3.9c-2.1,5.8-8.4,9.6-8.4,9.6c-1,0.9-1.3,3.3-1.3,3.3C197.9,50,200.6,46.9,200.6,46.9z M65.3,71.5
		c-2.3-10.1,7.8-22.2,11.2-26c3.2-4.1,6.3-3,6.3-3c0.3,0,0.7,0,1,0c0.5,0,1,0.2,1.5,0.4c1.5,0.7,2.6,2.1,3,3.8l0,0
		c3.3-11.7,6.3-4.2,6.3-4.2c6.3,1.2,2.9,4.7,2.9,4.7c-0.8,2.4-1.2,4.6-1.2,4.6C95.4,54,93.4,62,93.4,62c0,0.8-0.1,1.6-0.2,2.1
		c0,0,0,0.1,0,0.1c-0.2,2.6,1.3,1.5,1.3,1.5c0.6-0.5,1.3-0.9,2-1.3l1-0.6c2.3-1.4,4.6-2.4,5.1-2.1c0.1,0.1,0.2,0.2,0.2,0.4
		c0.2,2.2-5,5.7-5,5.7c0.1,0.3,0,0.6-0.3,0.7c0,0-0.5,0.3-0.4,1.6c0.2,2.8-6.4,4.3-6.4,4.3c-0.2,0.1-0.4,0.1-0.6,0.1
		c-1.3,0.3-2.7,0-3.7-0.9c-0.6-0.5-1-1.3-1.1-2.1c0-0.1-0.1-0.3-0.1-0.4c-0.2-0.6-0.3-1.3-0.3-2c-0.9,1.1-1.9,2.1-2.9,3.1
		c-3,2.7-6.8,4.2-10.8,4.3C66.6,76.7,65.3,71.5,65.3,71.5z M81.6,68.7c1-0.7,1.9-1.6,2.4-2.7c0.4-0.6,0.7-1.1,1-1.8
		c0.3-4.5,1.8-10.4,2.4-13.6c-0.2-0.2-0.3-0.5-0.5-0.7c-0.5-0.9-0.7-2-1.4-3c-0.3-0.4-0.7-0.3-1.1,0.2c-5.1,4.9-8.4,13.2-8.4,13.2
		c-0.7,2.1-1.2,4.3-1.4,6.6C74.5,73.1,81.6,68.7,81.6,68.7L81.6,68.7z M33.9,38.6c0,0,1.8-4,0.5-6.5c-0.5-0.8-1.5-0.4-4.1,3.7
		c0,0-21.6,36.4-25.9,53.7c0,0-4.8,11.9,1.6,16.2c0,0,1.4,2.3,3.2,2.7c0.5,2.6,1.4,5,3.2,4.1c0.6-0.3,0.7-2.4,0.6-4.5l0,0
		c0-1.5,0.1-3,0.3-4.4c0.1-0.5,0.3-1,0.4-1.6c0,0,0.1-0.4,0.3-1.1c0.1-0.2,0.1-0.3,0.1-0.3h0C16.1,93,26,54.8,33.9,38.6L33.9,38.6z
		 M295.4,58.3c-2.9-1.8-11-18-11-18c-1.9-2.8-5.1,0.6-5.1,0.6c-2.2,1.7-5.2,6.9-6.7,10c-2.1,3.5-1.5-1.1-1.5-1.1
		c0.1-1.2,0.5-3.2,1.9-4.1c0,0,1.1,0.9,2.3-3.2c0,0,2.3-5.4-3.3-6.9c0,0-4-3.4-6.8,4.8c0,0-3.8,11.9-2.3,19.2c0,0,0.7,8.7,8,1.9
		c0.9-0.9,1.7-1.9,2.3-2.9c1.2-1.8,2.2-3.6,3-5.6c1.4-3.1,3.3-6,5.5-8.6c-0.4,4.9,5.3,17.9,5.3,17.9c2,6.6,5.2,6.4,5.2,6.4
		C308.8,69.4,295.4,58.4,295.4,58.3L295.4,58.3z M271.5,73.3c-5.4-0.5-9.3-0.6-12.8-0.8c-2.1,0-3.2,0.5-3.6,1.3
		c-0.8,1.3-1.2,2.4,2.6,2.5c1.9,0.1,4.8,0.1,4.9,1.5c0.1,2.4,4.5,2.2,6.6,2.3c1.6,0,3.3-0.2,4.9-0.6c3.8-0.7,5.9-2.5,5.4-4.1
		C278.7,73.6,274.4,73.6,271.5,73.3L271.5,73.3z M46.6,59.4c-0.5-1.3-1.1-2.5-2-3.5c1.2,0,2.5,0,4.1-0.1c0,0,9.8-0.2,14-7.8
		c1.1-2.1,3.3-9.2-5.2-18.2c0,0-10.7-12.7-35.1-14.4c0,0-6.6-3.1-19.1,7.3c0,0-4.7,3.8-2.1,4.6c1,0.4,2.1,0.4,3.2,0.1
		c0,0,20.3-6.9,45.7,7.6c0,0,10,6.3,3.8,12.6c0,0-2.5,2.7-8.8,3.7c0,0-1.5,0.3-4.4,0.6c0,0-1.5,0.1-3.5,0.2c0,0-2.5,0-2.8,0.7
		c-0.1,0.5,0.3,0.6,1.7,1.3c-2.6,0.3-3.6,0.7-4.2,1.4c-0.3,0.4-0.4,0.9-0.2,1.3C37,70.2,45.2,82.4,55.7,92.3
		c2.5-0.7,5.6-1.6,9.2-2.5C59.9,82.3,48.1,64.1,46.6,59.4z M72.4,102c0.6-0.6-1.3-3.3-4.2-7.2c-2.7,0.4-5.4,0.9-8.2,1.4
		C62.2,97.8,70.4,103.8,72.4,102z M64.9,89.9c-3.5,0.9-6.6,1.8-9.2,2.5c1.3,1.2,2.5,2.3,3.9,3.5l0.5,0.4c2.8-0.5,5.5-0.9,8.2-1.4
		l-1.2-1.6C67.1,93.3,66.2,92,64.9,89.9L64.9,89.9z M64.9,89.9c-3.5,0.9-6.6,1.8-9.2,2.5c1.3,1.2,2.5,2.3,3.9,3.5l0.5,0.4
		c2.8-0.5,5.5-0.9,8.2-1.4l-1.2-1.6C67.1,93.3,66.2,92,64.9,89.9L64.9,89.9z"/>
</g>
</svg>
