<?xml version="1.0" encoding="utf-8"?>
<!-- Generator: Adobe Illustrator 24.0.1, SVG Export Plug-In . SVG Version: 6.00 Build 0)  -->
<svg version="1.1" id="Layer_1" xmlns="http://www.w3.org/2000/svg" xmlns:xlink="http://www.w3.org/1999/xlink" x="0px" y="0px"
	 viewBox="0 0 334 118" style="enable-background:new 0 0 334 118;" xml:space="preserve">
<style type="text/css">
	.st0{fill:#231F20;}
</style>
<g>
	<path class="st0" d="M213.8,79.9c0-10.7-7.5-16.6-19.1-16.6c-7,0-13.8,2.2-19.5,6.2v5.2c2.9-3.3,8.9-7.7,16.1-7.7
		c9.9,0,13.8,4.2,13.8,12.9c0,0.7,0.2,2.9-0.5,3.3c-3.8,2.8-34.8,3.2-34.8,21.4c0,7.9,7.1,13.1,15.5,13.1c9.3,0,13.6-2.5,19.9-8.1
		c0.6,4.4,3.5,6.6,8.6,6.9C213.8,116.4,213.7,84.3,213.8,79.9 M205.1,106c-3.6,4.5-9.4,7.8-14.3,7.8c-7.4,0-11.3-3.3-11.3-10.8
		c0-11.9,16-14.4,25.6-17.2L205.1,106z M31.1,80.7c5.4,9.3,15.6,23.6,24.4,36.1h-3.2c-4.6,0-9.8-3.1-12.7-7.4
		c-2.9-4.5-18.9-29.2-18.9-29.2c11.2-2.3,17.7-10.4,17.7-19.5s-8.4-18.5-26.3-18H6.6l2.3,0.6v73.5l0,0c-5.3,0-8.8-4.3-8.8-9.5v0l0,0
		c0.1-18.9,0-67.7,0-67.7h18.6c19.6,0,28.7,10.2,28.7,20.5C47.5,70.5,41.7,77.8,31.1,80.7 M333.8,80c0-10.7-7.5-16.6-19.1-16.6
		c-7,0-13.8,2.2-19.5,6.2v5.2c2.9-3.3,8.9-7.7,16-7.7c9.9,0,13.8,4.2,13.8,12.9c0,0.7,0.2,2.9-0.5,3.3c-3.8,2.8-34.8,3.2-34.8,21.4
		c0,7.9,7.1,13.1,15.5,13.1c9.3,0,13.6-2.5,19.9-8.1c0.6,4.3,3.5,6.6,8.6,6.9C333.8,116.5,333.8,81.8,333.8,80 M325.2,106.1
		c-3.6,4.5-9.4,7.8-14.3,7.8c-7.4,0-11.3-3.3-11.3-10.8c0-11.9,16-14.4,25.6-17.2V106.1z M257.8,64.2c12.9,0,19.9,6.1,19.9,19.6
		c0,0,0,26.8,0,32.8l0,0c-4.4,0-8-3.3-8.5-7.7V84.6c0-7.4-1.9-16.6-14.8-16.6c-10.9,0-17.8,9.6-17.8,22.6c0,0-0.1,20-0.1,26l0,0
		c-4.3,0-7.9-3.2-8.4-7.4c0,0,0-38.8,0-43.4l0,0c4.4,0,8,3.3,8.5,7.7v3.3C240.6,69.2,247.5,64.2,257.8,64.2 M154.7,115.2
		c1.7-0.1,3.3-0.3,5-0.7v1.4c-3.2,1-6.6,1.4-10,1.5c-8.9,0-13.8-4.9-13.8-12.8v-36h-8.5v-2.8h8.6c0-4.4,0-8.7,0-12.7l0,0
		c4.4,0,8,3.3,8.5,7.7v5h13.1v2.8H142l2.4,0.7v31.3c0,6.9,0.5,14.7,10.2,14.7 M65.1,95.9c-2.2-1.3-4.6-2.4-7.1-3.1
		c1.1,10.9,9.9,19.8,21.5,23.2c-0.3-1.1-0.6-2.3-1-3.4C71.8,109.4,66.9,103.2,65.1,95.9L65.1,95.9z M113.5,95.8
		c-1.5,7.6-6.6,14-13.7,17.2c-0.4,1.2-0.7,2.2-0.9,2.9c11.5-3.4,20.1-12.3,21.3-23.1C117.8,93.6,115.6,94.6,113.5,95.8L113.5,95.8z
		 M89.8,66.3c3.8,0,7.5,1,10.8,2.8c1.6-1.3,2.9-2.3,3.6-2.9c-4.5-2.1-9.5-3.1-14.4-3c-5.2,0-10.4,1-15.2,3.1
		c0.8,0.6,2.1,1.6,3.6,2.9C81.8,67.3,85.8,66.3,89.8,66.3L89.8,66.3z M120.1,89.8c-0.2-1.5-0.4-3.1-0.8-4.6
		c-11.5,3.4-20.6,14.1-23.6,27.8c-0.2-2.5-0.4-4.9-0.9-7.4l0,0l0,0c0-0.1,0-0.1,0.1-0.2c0.7-1.8,7.3-17.8,23.7-22.4
		c-0.4-1.4-0.9-2.8-1.6-4.1c-10.2,3.7-18.5,12.5-22.8,23.8c-0.4-1.6-0.8-3.1-1.2-4.7l0,0l0,0c4.7-9,12.5-18.3,22.6-21.4
		c-0.8-1.3-1.6-2.6-2.6-3.7c-9,4.3-16.4,12.3-21,22.3c-0.5-1.3-1-2.7-1.6-3.9l0,0l0,0c4.5-8.8,11.6-15.9,20.4-20.4
		c-1.2-1.1-2.5-2.1-3.9-3C99.4,73,93.2,80.1,89.2,88.4C85.1,80.2,79,73.1,71.4,68c-1.4,0.8-2.8,1.8-4.1,2.9
		c14.2,6.9,20.4,20.4,20.4,20.4c-0.6,1.3-1.1,2.6-1.6,4c-4.6-10.1-12.1-18-21.1-22.4c-1.1,1.1-2.1,2.4-2.9,3.6
		c14.9,4.2,23.1,21.6,23.1,21.6c-0.5,1.6-0.9,3.1-1.2,4.8c-4.4-11.5-12.9-20.4-23.2-24c-0.7,1.3-1.2,2.6-1.7,4
		c17.9,4.6,24.4,22.7,24.4,22.7c-0.4,2.4-0.8,4.9-0.9,7.4c-3-13.8-12.3-24.7-24.1-27.9c-0.3,1.5-0.5,3.1-0.6,4.6
		c12.5,2.9,22.2,13.6,24.5,27.1l1.2,0.2c0.1-3,0.3-6,0.8-9c0,0.1,0,0.1,0,0.2v0c0.8,3,1.4,6.1,2,9.2l1.4,0.1c0.1-2.3,0.5-7.4,1.4-10
		c0.7,3.3,1.2,6.7,1.4,10.1h0.5l0,0l0.8-0.1c0.6-3.2,1.2-6.3,2-9.4c0.5,3,0.8,6,0.8,9l1.2-0.2C98.2,103.5,107.8,92.8,120.1,89.8
		L120.1,89.8z M87,115.9c-0.3-3.6-1.1-7.1-2.2-10.5c0.4-1.7,0.9-3.4,1.4-5c0.8,1.8,1.5,3.7,2.1,5.7C87.7,109.3,87.3,112.6,87,115.9
		L87,115.9z M87.3,97.7c0.6-1.4,1.2-2.7,1.8-4c0.7,1.3,1.3,2.7,1.8,4c-0.7,1.8-1.3,3.6-1.8,5.4C88.6,101.3,88,99.5,87.3,97.7
		L87.3,97.7z M91.2,115.9c-0.2-3.3-0.6-6.6-1.4-9.9c0.6-1.9,1.3-3.8,2.1-5.7c0.6,1.6,1,3.3,1.4,5C92.3,108.8,91.6,112.3,91.2,115.9
		L91.2,115.9z M314,29.3c-0.2-10.2-6.6-15.9-15.7-15.9c-9.6,0-16.3,6.2-16.3,13.9s7.4,13.8,16.3,13.8c4.7,0,9.8-2.8,11.3-5.2
		c0.4,5.5-4.4,12.6-12.7,12.9c-0.7-0.1-1.3,0.4-1.5,1.1C310.6,49.9,314.2,40.4,314,29.3L314,29.3z M298.3,39.6
		c-6.8,0-12.2-5.5-12.2-12.2c0-6.8,5.5-12.2,12.2-12.2l0,0c6.6,0.1,12,5.6,11.9,12.2c0.2,6.6-5,12.1-11.6,12.2
		C298.6,39.6,298.5,39.6,298.3,39.6L298.3,39.6z M333.7,13.1c0,2,0,19.1,0,19.1c0,15-10.7,17.7-18.5,17.7c0.1-0.7,0.8-1.2,1.5-1.1
		c7.1,0,12.9-5.8,12.9-12.9c0-0.2,0-0.3,0-0.5l0.1-18.7C330,14.6,331.7,13.1,333.7,13.1L333.7,13.1 M197.8,6c-1.6,0-2.9-1.3-2.9-2.9
		c0-1.6,1.3-2.9,2.9-2.9c1.5,0,2.8,1.2,2.8,2.7c0,0,0,0.1,0,0.1C200.7,4.6,199.4,5.9,197.8,6C197.9,6,197.9,6,197.8,6 M272.4,6
		c-1.6,0-2.9-1.3-2.9-2.9c0-1.6,1.3-2.9,2.9-2.9c1.6,0,2.9,1.3,2.9,2.9C275.3,4.7,274,6,272.4,6 M265,6c-1.6,0-2.9-1.3-2.9-2.9
		c0-1.6,1.3-2.9,2.9-2.9c1.5,0,2.8,1.2,2.8,2.7c0,0,0,0.1,0,0.1C267.8,4.6,266.6,5.9,265,6C265,6,265,6,265,6 M271.3,16.7
		c0-3.6,4-3.6,4-3.6v17.5c0,7.2-3.8,10.4-9.9,10.5h-56.2l0.1-40.9c2.3,0.7,3.9,2.8,3.9,5.2v33.6h51.1c5.5-0.3,7.1-5,7.1-8.9
		L271.3,16.7 M196.6,16.7c0-3.6,4-3.6,4-3.6v17.5c0,7.2-3.8,10.4-9.9,10.5h-55l0.1-40.9c2.3,0.7,3.9,2.8,3.9,5.2v33.6h49.8
		c5.5-0.3,7.1-5,7.1-8.9L196.6,16.7"/>
</g>
</svg>
