<svg width="2749" height="630" viewBox="0 0 2749 630" fill="none" xmlns="http://www.w3.org/2000/svg">
<g clip-path="url(#clip0_86_35)">
<path opacity="0.991" fill-rule="evenodd" clip-rule="evenodd" d="M451.5 -0.5C465.167 -0.5 478.833 -0.5 492.5 -0.5C535.07 2.36892 570.903 19.3689 600 50.5C619.436 75.7915 630.436 104.458 633 136.5C634.118 147.473 634.618 158.473 634.5 169.5C591.688 158.007 550.021 143.341 509.5 125.5C506.862 111.695 499.862 100.862 488.5 93C473.985 86.9598 460.652 88.7931 448.5 98.5C414.64 80.8682 379.64 65.5349 343.5 52.5C362.675 29.2055 387.008 13.7055 416.5 6C428.186 3.16605 439.853 0.99938 451.5 -0.5Z" fill="black"/>
<path opacity="0.983" fill-rule="evenodd" clip-rule="evenodd" d="M249.5 28.5001C200.298 24.3718 152.632 31.2051 106.5 49.0001C74.4212 61.3716 44.0878 76.8716 15.5 95.5001C18.673 61.6227 35.0063 36.4561 64.5 20.0001C86.5425 8.98905 109.876 2.65571 134.5 1.00008C172.624 -3.92683 208.291 3.07317 241.5 22.0001C244.355 24.0309 247.022 26.1976 249.5 28.5001Z" fill="black"/>
<path opacity="0.989" fill-rule="evenodd" clip-rule="evenodd" d="M778.5 182.5C739.124 187.843 700.124 185.843 661.5 176.5C661.5 119.833 661.5 63.1667 661.5 6.5C700.5 6.5 739.5 6.5 778.5 6.5C778.5 65.1667 778.5 123.833 778.5 182.5Z" fill="black"/>
<path opacity="0.995" fill-rule="evenodd" clip-rule="evenodd" d="M953.5 115.5C916.021 135.575 877.354 152.908 837.5 167.5C837.5 113.833 837.5 60.1667 837.5 6.5C876.167 6.5 914.833 6.5 953.5 6.5C953.5 42.8333 953.5 79.1667 953.5 115.5Z" fill="black"/>
<path opacity="0.981" fill-rule="evenodd" clip-rule="evenodd" d="M1280.5 37.5C1215.89 23.9132 1152.56 28.4132 1090.5 51C1062.48 62.1797 1035.15 74.6797 1008.5 88.5C1001.17 88.5 993.833 88.5 986.5 88.5C986.5 61.1667 986.5 33.8333 986.5 6.5C1084.5 6.5 1182.5 6.5 1280.5 6.5C1280.5 16.8333 1280.5 27.1667 1280.5 37.5Z" fill="black"/>
<path opacity="0.988" fill-rule="evenodd" clip-rule="evenodd" d="M1431.5 93.5C1393.75 74.7949 1354.75 59.1283 1314.5 46.5C1314.5 33.1667 1314.5 19.8333 1314.5 6.5C1353.5 6.5 1392.5 6.5 1431.5 6.5C1431.5 35.5 1431.5 64.5 1431.5 93.5Z" fill="black"/>
<path opacity="0.995" fill-rule="evenodd" clip-rule="evenodd" d="M1615.5 182.5C1573.51 167.339 1533.18 148.672 1494.5 126.5C1496.17 126.5 1497.83 126.5 1499.5 126.5C1499.5 86.5 1499.5 46.5 1499.5 6.5C1538.17 6.5 1576.83 6.5 1615.5 6.5C1615.5 65.1667 1615.5 123.833 1615.5 182.5Z" fill="black"/>
<path opacity="0.992" fill-rule="evenodd" clip-rule="evenodd" d="M2104.5 118.5C2052.31 144.618 1998.98 168.118 1944.5 189C1915.32 200.128 1885.32 208.128 1854.5 213C1841.52 214.166 1828.52 214.999 1815.5 215.5C1815.5 145.833 1815.5 76.1667 1815.5 6.5C1881.5 6.33334 1947.5 6.5 2013.5 7C2043.51 7.54792 2068.68 18.7146 2089 40.5C2105.88 64.0802 2111.04 90.0802 2104.5 118.5ZM1932.5 88.5C1948.54 88.0962 1964.54 88.5962 1980.5 90C1990.36 95.2162 1993.86 103.383 1991 114.5C1989.07 120.767 1984.9 124.601 1978.5 126C1963.17 126.5 1947.84 126.667 1932.5 126.5C1932.5 113.833 1932.5 101.167 1932.5 88.5Z" fill="black"/>
<path opacity="0.983" fill-rule="evenodd" clip-rule="evenodd" d="M2373.5 41.5C2317.35 42.9686 2262.69 52.6353 2209.5 70.5C2216.16 49.528 2222.82 28.528 2229.5 7.49996C2274.16 6.50003 2318.83 6.1667 2363.5 6.49996C2366.83 18.1667 2370.17 29.8333 2373.5 41.5Z" fill="black"/>
<path opacity="0.976" fill-rule="evenodd" clip-rule="evenodd" d="M2562.5 57.5C2522.59 44.2369 2481.59 38.2369 2439.5 39.5C2433.35 29.212 2427.69 18.5453 2422.5 7.50003C2461.16 6.33344 2499.83 6.16677 2538.5 7.00003C2546.92 23.6623 2554.92 40.4957 2562.5 57.5Z" fill="black"/>
<path opacity="0.984" fill-rule="evenodd" clip-rule="evenodd" d="M2748.5 6.49993C2748.5 7.49993 2748.5 8.49993 2748.5 9.49993C2729.47 45.2298 2710.8 81.2298 2692.5 117.5C2667.76 103.461 2642.42 90.461 2616.5 78.4999C2625.83 54.8571 2635.16 31.1904 2644.5 7.49993C2679.16 6.50005 2713.83 6.16672 2748.5 6.49993Z" fill="black"/>
<path opacity="0.994" fill-rule="evenodd" clip-rule="evenodd" d="M249.5 28.5001C256.753 33.0832 263.086 38.7498 268.5 45.5001C228.926 38.4561 189.926 40.9561 151.5 53.0001C101.839 68.1584 56.8393 91.6584 16.4999 123.5C14.2293 114.378 13.896 105.045 15.4999 95.5001C44.0877 76.8716 74.4211 61.3716 106.5 49.0001C152.632 31.2051 200.298 24.3718 249.5 28.5001Z" fill="black"/>
<path opacity="0.996" fill-rule="evenodd" clip-rule="evenodd" d="M1280.5 37.5C1280.5 54.5 1280.5 71.5 1280.5 88.5C1250.83 88.5 1221.17 88.5 1191.5 88.5C1191.5 99.5 1191.5 110.5 1191.5 121.5C1151.89 136.301 1113.23 153.301 1075.5 172.5C1075.5 144.5 1075.5 116.5 1075.5 88.5C1053.17 88.5 1030.83 88.5 1008.5 88.5C1035.15 74.6797 1062.48 62.1797 1090.5 51C1152.56 28.4132 1215.89 23.9132 1280.5 37.5Z" fill="black"/>
<path opacity="0.992" fill-rule="evenodd" clip-rule="evenodd" d="M2439.5 39.5C2481.59 38.2369 2522.59 44.2369 2562.5 57.5C2563.77 59.7128 2564.77 62.0462 2565.5 64.5C2524.99 52.8602 2483.66 46.1935 2441.5 44.5C2440.56 42.9505 2439.89 41.2838 2439.5 39.5Z" fill="black"/>
<path opacity="0.989" fill-rule="evenodd" clip-rule="evenodd" d="M268.5 45.5C275.882 53.8943 282.548 62.8943 288.5 72.5C287.975 73.1924 287.308 73.6924 286.5 74C255.161 84.1677 223.828 94.3344 192.5 104.5C188.298 99.1317 183.298 94.6317 177.5 91C165.801 84.8954 154.134 84.562 142.5 90C135.538 99.5151 137.205 107.515 147.5 114C170.865 123.122 194.531 131.455 218.5 139C238.339 145.914 256.339 155.914 272.5 169C293.177 188.026 301.343 211.526 297 239.5C292.776 281.144 271.276 309.644 232.5 325C200.448 336.377 167.448 340.377 133.5 337C74.8969 333.226 30.2303 306.726 -0.5 257.5C-0.5 256.833 -0.5 256.167 -0.5 255.5C29.1528 243.259 58.6528 230.592 88 217.5C103.425 245.951 127.258 256.785 159.5 250C170.814 244.718 173.314 236.551 167 225.5C165.167 223.667 163.333 221.833 161.5 220C135.167 210.333 108.833 200.667 82.5 191C63.1509 183.084 46.3175 171.584 32 156.5C23.6013 147.035 18.4346 136.035 16.5 123.5C56.8394 91.6583 101.839 68.1583 151.5 53C189.926 40.956 228.926 38.456 268.5 45.5Z" fill="black"/>
<path opacity="0.992" fill-rule="evenodd" clip-rule="evenodd" d="M2373.5 41.5C2374.17 43.1667 2374.83 44.8333 2375.5 46.5C2312.86 50.8258 2254.53 68.8258 2200.5 100.5C2203.81 90.6074 2206.81 80.6074 2209.5 70.5C2262.69 52.6353 2317.35 42.9686 2373.5 41.5Z" fill="black"/>
<path opacity="0.989" fill-rule="evenodd" clip-rule="evenodd" d="M2441.5 44.5C2483.66 46.1935 2524.99 52.8602 2565.5 64.5C2575.74 86.0215 2585.91 107.688 2596 129.5C2602.18 113.812 2608.35 98.1455 2614.5 82.5C2627.7 87.4299 2640.7 92.9299 2653.5 99C2666.06 105.781 2678.73 112.281 2691.5 118.5C2675.95 149.936 2660.12 181.269 2644 212.5C2643.5 251.165 2643.33 289.832 2643.5 328.5C2604.5 328.5 2565.5 328.5 2526.5 328.5C2526.67 288.499 2526.5 248.499 2526 208.5C2497.57 153.963 2469.4 99.2967 2441.5 44.5Z" fill="black"/>
<path opacity="0.991" fill-rule="evenodd" clip-rule="evenodd" d="M2375.5 46.5C2404.48 140.415 2433.14 234.415 2461.5 328.5C2421.17 328.5 2380.83 328.5 2340.5 328.5C2337.01 315.536 2333.68 302.536 2330.5 289.5C2301.5 289.5 2272.5 289.5 2243.5 289.5C2241.01 302.279 2238.01 314.946 2234.5 327.5C2199.83 328.833 2165.17 328.833 2130.5 327.5C2153.99 251.867 2177.32 176.2 2200.5 100.5C2254.53 68.8258 2312.86 50.8258 2375.5 46.5ZM2283.5 117.5C2291.77 147.238 2299.44 177.238 2306.5 207.5C2292.17 207.5 2277.83 207.5 2263.5 207.5C2269.85 177.425 2276.52 147.425 2283.5 117.5Z" fill="black"/>
<path opacity="0.991" fill-rule="evenodd" clip-rule="evenodd" d="M1314.5 46.5C1354.75 59.1283 1393.75 74.7949 1431.5 93.5C1431.5 102.167 1431.5 110.833 1431.5 119.5C1393.66 106.137 1354.66 99.1373 1314.5 98.5C1314.5 81.1667 1314.5 63.8333 1314.5 46.5Z" fill="black"/>
<path opacity="0.99" fill-rule="evenodd" clip-rule="evenodd" d="M343.5 52.5C379.64 65.5349 414.64 80.8682 448.5 98.5C440.804 107.931 435.804 118.597 433.5 130.5C401.672 107.074 368.005 86.4072 332.5 68.5C335.182 62.4628 338.849 57.1295 343.5 52.5Z" fill="black"/>
<path opacity="0.992" fill-rule="evenodd" clip-rule="evenodd" d="M332.5 68.5C368.005 86.4072 401.672 107.074 433.5 130.5C429.365 155.527 429.531 180.527 434 205.5C435.98 219.972 442.48 231.806 453.5 241C477.918 251.077 495.418 243.91 506 219.5C509.768 209.495 511.934 199.162 512.5 188.5C531.935 201.42 551.268 214.587 570.5 228C585.595 237.215 601.262 245.381 617.5 252.5C599.172 292.035 568.839 317.535 526.5 329C488.08 337.95 449.747 337.617 411.5 328C367.226 313.392 337.059 284.225 321 240.5C306.118 191.927 305.785 143.261 320 94.5C323.135 85.2211 327.301 76.5545 332.5 68.5Z" fill="black"/>
<path opacity="0.989" fill-rule="evenodd" clip-rule="evenodd" d="M2616.5 78.5C2642.42 90.4611 2667.76 103.461 2692.5 117.5C2692.5 118.167 2692.17 118.5 2691.5 118.5C2678.73 112.281 2666.06 105.781 2653.5 99C2640.7 92.9299 2627.7 87.4299 2614.5 82.5C2615.17 81.1667 2615.83 79.8333 2616.5 78.5Z" fill="black"/>
<path opacity="0.992" fill-rule="evenodd" clip-rule="evenodd" d="M1314.5 98.5C1354.66 99.1373 1393.66 106.137 1431.5 119.5C1431.5 121.833 1431.5 124.167 1431.5 126.5C1437.83 126.5 1444.17 126.5 1450.5 126.5C1492.65 146.24 1532.99 169.074 1571.5 195C1586.03 203.1 1600.7 210.934 1615.5 218.5C1615.5 255.167 1615.5 291.833 1615.5 328.5C1576.83 328.5 1538.17 328.5 1499.5 328.5C1499.5 288.5 1499.5 248.5 1499.5 208.5C1476.83 208.5 1454.17 208.5 1431.5 208.5C1431.5 248.5 1431.5 288.5 1431.5 328.5C1392.5 328.5 1353.5 328.5 1314.5 328.5C1314.5 251.833 1314.5 175.167 1314.5 98.5Z" fill="black"/>
<path opacity="0.995" fill-rule="evenodd" clip-rule="evenodd" d="M953.5 115.5C953.667 154.168 953.5 192.835 953 231.5C952.58 235.191 952.08 238.858 951.5 242.5C929.021 255.242 906.355 267.742 883.5 280C843.223 296.105 801.557 301.105 758.5 295C730.613 291.19 703.279 285.023 676.5 276.5C669.719 264.326 665.219 251.326 663 237.5C661.616 217.197 661.116 196.864 661.5 176.5C700.124 185.843 739.124 187.843 778.5 182.5C778.333 196.504 778.5 210.504 779 224.5C780.595 236.096 787.095 243.262 798.5 246C804.833 246.667 811.167 246.667 817.5 246C827.667 243.833 833.833 237.667 836 227.5C837.425 207.54 837.925 187.54 837.5 167.5C877.354 152.908 916.021 135.575 953.5 115.5Z" fill="black"/>
<path opacity="0.991" fill-rule="evenodd" clip-rule="evenodd" d="M2104.5 118.5C2098.73 136.785 2088.06 151.618 2072.5 163C2076.07 164.942 2079.4 167.108 2082.5 169.5C2053.95 186.946 2024.28 202.613 1993.5 216.5C1990.91 212.529 1987.24 210.029 1982.5 209C1965.84 208.5 1949.17 208.333 1932.5 208.5C1932.5 220.167 1932.5 231.833 1932.5 243.5C1912.49 250.42 1892.15 256.253 1871.5 261C1853.01 264.605 1834.34 266.439 1815.5 266.5C1815.5 249.5 1815.5 232.5 1815.5 215.5C1828.52 214.999 1841.52 214.166 1854.5 213C1885.32 208.128 1915.32 200.128 1944.5 189C1998.98 168.118 2052.31 144.618 2104.5 118.5Z" fill="black"/>
<path opacity="0.993" fill-rule="evenodd" clip-rule="evenodd" d="M1191.5 121.5C1191.5 190.5 1191.5 259.5 1191.5 328.5C1152.83 328.5 1114.17 328.5 1075.5 328.5C1075.5 276.5 1075.5 224.5 1075.5 172.5C1113.23 153.301 1151.89 136.301 1191.5 121.5Z" fill="black"/>
<path opacity="0.992" fill-rule="evenodd" clip-rule="evenodd" d="M509.5 125.5C550.021 143.341 591.688 158.007 634.5 169.5C634.471 194.874 630.304 219.541 622 243.5C620.96 246.823 619.46 249.823 617.5 252.5C601.262 245.381 585.595 237.215 570.5 228C551.268 214.587 531.935 201.42 512.5 188.5C514.488 167.352 513.488 146.352 509.5 125.5Z" fill="black"/>
<path opacity="0.994" fill-rule="evenodd" clip-rule="evenodd" d="M1450.5 126.5C1465.17 126.5 1479.83 126.5 1494.5 126.5C1533.18 148.672 1573.51 167.339 1615.5 182.5C1615.5 194.5 1615.5 206.5 1615.5 218.5C1600.7 210.934 1586.03 203.1 1571.5 195C1532.99 169.074 1492.65 146.24 1450.5 126.5Z" fill="black"/>
<path opacity="0.991" fill-rule="evenodd" clip-rule="evenodd" d="M2082.5 169.5C2107.52 187.116 2119.85 211.449 2119.5 242.5C2118.76 264.229 2110.43 282.396 2094.5 297C2071.55 316.545 2044.88 326.879 2014.5 328C1948.17 328.5 1881.83 328.667 1815.5 328.5C1815.5 307.833 1815.5 287.167 1815.5 266.5C1834.34 266.439 1853.01 264.605 1871.5 261C1892.15 256.253 1912.49 250.42 1932.5 243.5C1932.5 244.5 1932.5 245.5 1932.5 246.5C1949.88 246.928 1967.21 246.428 1984.5 245C1992.38 241.431 1996.38 235.264 1996.5 226.5C1995.75 223.065 1994.75 219.732 1993.5 216.5C2024.28 202.613 2053.95 186.946 2082.5 169.5Z" fill="black"/>
<path opacity="0.983" fill-rule="evenodd" clip-rule="evenodd" d="M951.5 242.5C944.814 275.393 926.814 299.893 897.5 316C878.937 325.558 859.271 331.558 838.5 334C803.022 338.682 768.355 335.348 734.5 324C709.86 314.516 690.527 298.683 676.5 276.5C703.279 285.023 730.613 291.19 758.5 295C801.557 301.105 843.223 296.105 883.5 280C906.355 267.742 929.021 255.242 951.5 242.5Z" fill="black"/>
<path opacity="0.917" fill-rule="evenodd" clip-rule="evenodd" d="M1929.5 392.5C1932.5 392.5 1935.5 392.5 1938.5 392.5C1938.5 412.5 1938.5 432.5 1938.5 452.5C1935.83 452.5 1933.17 452.5 1930.5 452.5C1930.66 451.127 1930.49 449.793 1930 448.5C1921.87 454.493 1913.37 454.993 1904.5 450C1897.03 441.909 1895.53 432.743 1900 422.5C1908.2 412.697 1917.86 411.031 1929 417.5C1929.5 409.173 1929.67 400.84 1929.5 392.5ZM1915.5 421.5C1927.94 423.258 1931.44 429.925 1926 441.5C1919.96 447.072 1914.3 446.738 1909 440.5C1905.35 431.937 1907.52 425.604 1915.5 421.5Z" fill="black"/>
<path opacity="0.889" fill-rule="evenodd" clip-rule="evenodd" d="M2071.5 392.5C2074.83 392.5 2078.17 392.5 2081.5 392.5C2081.5 412.5 2081.5 432.5 2081.5 452.5C2078.17 452.5 2074.83 452.5 2071.5 452.5C2071.5 432.5 2071.5 412.5 2071.5 392.5Z" fill="black"/>
<path opacity="0.887" fill-rule="evenodd" clip-rule="evenodd" d="M2391.5 392.5C2394.83 392.5 2398.17 392.5 2401.5 392.5C2401.33 400.84 2401.5 409.173 2402 417.5C2412.35 411.27 2421.68 412.603 2430 421.5C2433.55 429.987 2433.22 438.321 2429 446.5C2419.85 454.887 2410.19 455.554 2400 448.5C2399.69 449.766 2399.19 450.933 2398.5 452C2396.19 452.497 2393.86 452.663 2391.5 452.5C2391.5 432.5 2391.5 412.5 2391.5 392.5ZM2410.5 421.5C2421.83 423.482 2425.33 429.816 2421 440.5C2416.3 446.176 2410.96 446.842 2405 442.5C2399.51 433.454 2401.34 426.454 2410.5 421.5Z" fill="black"/>
<path opacity="0.907" fill-rule="evenodd" clip-rule="evenodd" d="M1846.5 395.5C1847.68 395.281 1848.68 395.614 1849.5 396.5C1858.03 414.749 1866.36 433.083 1874.5 451.5C1870.83 452.833 1867.17 452.833 1863.5 451.5C1862.17 448.5 1860.83 445.5 1859.5 442.5C1851.85 441.335 1844.19 441.169 1836.5 442C1834.67 445.324 1833.34 448.824 1832.5 452.5C1828.77 452.823 1825.11 452.489 1821.5 451.5C1830.23 432.976 1838.56 414.309 1846.5 395.5ZM1847.5 414.5C1850.38 420.957 1853.38 427.457 1856.5 434C1850.8 434.83 1845.14 434.663 1839.5 433.5C1842.45 427.26 1845.12 420.927 1847.5 414.5Z" fill="black"/>
<path opacity="0.873" fill-rule="evenodd" clip-rule="evenodd" d="M2352.5 402.5C2353.5 402.5 2354.5 402.5 2355.5 402.5C2355.5 406.5 2355.5 410.5 2355.5 414.5C2358.83 414.5 2362.17 414.5 2365.5 414.5C2365.5 417.167 2365.5 419.833 2365.5 422.5C2362.17 422.5 2358.83 422.5 2355.5 422.5C2355.33 429.175 2355.5 435.842 2356 442.5C2359.39 445.032 2362.89 445.032 2366.5 442.5C2367.78 445.372 2367.78 448.205 2366.5 451C2360.81 454.228 2355.15 454.228 2349.5 451C2348.3 450.097 2347.47 448.931 2347 447.5C2345.63 439.236 2345.13 430.903 2345.5 422.5C2343.5 422.5 2341.5 422.5 2339.5 422.5C2339.34 420.473 2339.5 418.473 2340 416.5C2342.33 415.5 2344.67 414.5 2347 413.5C2348.86 409.78 2350.69 406.114 2352.5 402.5Z" fill="black"/>
<path opacity="0.884" fill-rule="evenodd" clip-rule="evenodd" d="M1959.5 413.5C1975.68 412.009 1983.34 419.343 1982.5 435.5C1973.5 435.5 1964.5 435.5 1955.5 435.5C1957.53 443.923 1962.86 447.089 1971.5 445C1974.86 443.901 1978.03 442.401 1981 440.5C1982.15 444.598 1981.31 448.098 1978.5 451C1968.28 455.161 1958.78 453.995 1950 447.5C1944 438.167 1944 428.833 1950 419.5C1952.84 416.837 1956.01 414.837 1959.5 413.5ZM1964.5 420.5C1968.82 421.157 1971.82 423.49 1973.5 427.5C1967.53 428.664 1961.53 428.83 1955.5 428C1957.53 424.121 1960.53 421.621 1964.5 420.5Z" fill="black"/>
<path opacity="0.891" fill-rule="evenodd" clip-rule="evenodd" d="M2040.5 413.5C2056.68 412.009 2064.34 419.343 2063.5 435.5C2054.5 435.5 2045.5 435.5 2036.5 435.5C2036.77 440.61 2039.44 443.777 2044.5 445C2050.73 446.145 2056.23 444.645 2061 440.5C2061.67 443.5 2061.67 446.5 2061 449.5C2049.93 455.529 2039.6 454.529 2030 446.5C2026.64 440.243 2025.64 433.576 2027 426.5C2029.44 419.888 2033.94 415.555 2040.5 413.5ZM2045.5 420.5C2050.07 421.118 2053.07 423.618 2054.5 428C2048.5 428.667 2042.5 428.667 2036.5 428C2038.53 424.121 2041.53 421.621 2045.5 420.5Z" fill="black"/>
<path opacity="0.895" fill-rule="evenodd" clip-rule="evenodd" d="M2104.5 413.5C2123.79 412.618 2131.96 421.618 2129 440.5C2123.13 451.845 2113.96 455.678 2101.5 452C2093.37 448.608 2089.04 442.441 2088.5 433.5C2089.13 422.889 2094.46 416.222 2104.5 413.5ZM2106.5 421.5C2118.32 422.128 2122.49 428.128 2119 439.5C2112.75 447.322 2106.42 447.322 2100 439.5C2097.15 431.542 2099.32 425.542 2106.5 421.5Z" fill="black"/>
<path opacity="0.92" fill-rule="evenodd" clip-rule="evenodd" d="M2153.5 413.5C2171.15 411.98 2179.31 419.98 2178 437.5C2175.65 447.512 2169.32 452.846 2159 453.5C2154.64 453.164 2150.64 451.831 2147 449.5C2146.5 456.492 2146.33 463.492 2146.5 470.5C2143.5 470.5 2140.5 470.5 2137.5 470.5C2137.5 451.833 2137.5 433.167 2137.5 414.5C2139.86 414.337 2142.19 414.503 2144.5 415C2145.19 416.067 2145.69 417.234 2146 418.5C2148.48 416.686 2150.98 415.019 2153.5 413.5ZM2155.5 421.5C2168.16 423.139 2171.66 429.806 2166 441.5C2158.98 447.056 2152.98 446.056 2148 438.5C2145.68 430.489 2148.18 424.823 2155.5 421.5Z" fill="black"/>
<path opacity="0.885" fill-rule="evenodd" clip-rule="evenodd" d="M2202.5 413.5C2209.21 412.274 2214.71 414.274 2219 419.5C2225.22 412.954 2232.39 411.787 2240.5 416C2243.23 418.956 2244.73 422.456 2245 426.5C2245.5 435.16 2245.67 443.827 2245.5 452.5C2242.17 452.5 2238.83 452.5 2235.5 452.5C2235.67 444.16 2235.5 435.827 2235 427.5C2233.09 422.307 2229.59 420.807 2224.5 423C2222.96 424.579 2221.79 426.413 2221 428.5C2220.5 436.493 2220.33 444.493 2220.5 452.5C2217.17 452.5 2213.83 452.5 2210.5 452.5C2210.67 443.827 2210.5 435.16 2210 426.5C2207.95 422.708 2204.78 421.542 2200.5 423C2198.19 424.637 2196.69 426.804 2196 429.5C2195.5 437.159 2195.33 444.826 2195.5 452.5C2192.17 452.5 2188.83 452.5 2185.5 452.5C2185.5 439.833 2185.5 427.167 2185.5 414.5C2188.25 414.187 2190.91 414.52 2193.5 415.5C2194 416.5 2194.5 417.5 2195 418.5C2197.43 416.548 2199.93 414.881 2202.5 413.5Z" fill="black"/>
<path opacity="0.886" fill-rule="evenodd" clip-rule="evenodd" d="M2266.5 413.5C2282.46 412.131 2290.46 419.465 2290.5 435.5C2281.14 435.168 2271.81 435.502 2262.5 436.5C2266.6 445.373 2273.27 447.873 2282.5 444C2284.59 443.208 2286.42 442.041 2288 440.5C2288.67 443.5 2288.67 446.5 2288 449.5C2278.95 454.615 2269.78 454.782 2260.5 450C2249.62 438.373 2249.95 427.04 2261.5 416C2263.31 415.243 2264.98 414.41 2266.5 413.5ZM2271.5 420.5C2275.93 420.924 2278.93 423.257 2280.5 427.5C2274.83 428.833 2269.17 428.833 2263.5 427.5C2265.03 423.753 2267.7 421.419 2271.5 420.5Z" fill="black"/>
<path opacity="0.947" fill-rule="evenodd" clip-rule="evenodd" d="M2315.5 413.5C2322.09 412.64 2327.59 414.64 2332 419.5C2333.43 430.422 2333.93 441.422 2333.5 452.5C2330.5 452.5 2327.5 452.5 2324.5 452.5C2324.67 444.493 2324.5 436.493 2324 428.5C2322.28 422.102 2318.45 420.268 2312.5 423C2310.11 424.952 2308.61 427.452 2308 430.5C2307.5 437.826 2307.33 445.159 2307.5 452.5C2304.5 452.5 2301.5 452.5 2298.5 452.5C2298.5 439.833 2298.5 427.167 2298.5 414.5C2302.47 413.758 2305.3 415.091 2307 418.5C2309.68 416.415 2312.52 414.748 2315.5 413.5Z" fill="black"/>
<path opacity="0.895" fill-rule="evenodd" clip-rule="evenodd" d="M1984.5 414.5C1988.23 414.177 1991.89 414.511 1995.5 415.5C1998.94 422.045 2002.11 428.712 2005 435.5C2008.07 428.79 2011.24 422.124 2014.5 415.5C2018.17 414.167 2021.83 414.167 2025.5 415.5C2019.04 427.588 2012.71 439.755 2006.5 452C2005.22 452.684 2004.05 452.517 2003 451.5C1996.81 439.114 1990.64 426.78 1984.5 414.5Z" fill="black"/>
<path opacity="0.883" fill-rule="evenodd" clip-rule="evenodd" d="M2434.5 414.5C2437.83 414.5 2441.17 414.5 2444.5 414.5C2447.11 423.052 2450.28 431.385 2454 439.5C2457 431.5 2460 423.5 2463 415.5C2466.41 414.378 2469.91 414.211 2473.5 415C2465.54 433.093 2457.7 451.26 2450 469.5C2446.94 470.451 2443.78 470.784 2440.5 470.5C2442.73 463.531 2445.4 456.698 2448.5 450C2443.53 438.25 2438.86 426.416 2434.5 414.5Z" fill="black"/>
<path opacity="0.991" fill-rule="evenodd" clip-rule="evenodd" d="M2748.5 414.5C2748.5 470.5 2748.5 526.5 2748.5 582.5C2709.32 597.931 2670.32 613.597 2631.5 629.5C2629.83 629.5 2628.17 629.5 2626.5 629.5C2587.8 613.74 2548.96 598.073 2510 582.5C2509.5 526.501 2509.33 470.501 2509.5 414.5C2589.17 414.5 2668.83 414.5 2748.5 414.5Z" fill="black"/>
<path fill-rule="evenodd" clip-rule="evenodd" d="M2593.5 443.5C2594.5 443.5 2595.5 443.5 2596.5 443.5C2596.22 445.415 2596.55 447.081 2597.5 448.5C2603.98 449.491 2610.65 449.824 2617.5 449.5C2617.99 444.841 2616.15 443.508 2612 445.5C2609.97 442.359 2610.97 440.692 2615 440.5C2619.57 441.606 2621.73 444.606 2621.5 449.5C2626.18 449.666 2630.85 449.499 2635.5 449C2636.47 444.263 2636.8 439.43 2636.5 434.5C2637.5 434.5 2638.5 434.5 2639.5 434.5C2639.67 439.844 2639.5 445.177 2639 450.5C2638.63 451.416 2638.13 452.25 2637.5 453C2617.75 453.203 2598.08 453.369 2578.5 453.5C2578.62 455.484 2577.95 457.15 2576.5 458.5C2573.92 459.393 2571.25 459.726 2568.5 459.5C2568.5 458.167 2568.5 456.833 2568.5 455.5C2576.28 455.186 2576.28 454.02 2568.5 452C2565.43 447.675 2566.1 444.008 2570.5 441C2576.67 440.337 2579.33 443.17 2578.5 449.5C2583.5 449.5 2588.5 449.5 2593.5 449.5C2593.5 447.5 2593.5 445.5 2593.5 443.5Z" fill="black"/>
<path fill-rule="evenodd" clip-rule="evenodd" d="M2642.5 434.5C2643.5 434.5 2644.5 434.5 2645.5 434.5C2645.5 440.833 2645.5 447.167 2645.5 453.5C2644.5 453.5 2643.5 453.5 2642.5 453.5C2642.5 447.167 2642.5 440.833 2642.5 434.5Z" fill="black"/>
<path fill-rule="evenodd" clip-rule="evenodd" d="M2594.5 439.5C2596.34 439.639 2596.67 440.306 2595.5 441.5C2594.7 441.043 2594.37 440.376 2594.5 439.5Z" fill="black"/>
<path fill-rule="evenodd" clip-rule="evenodd" d="M2677.5 440.5C2679.83 440.5 2682.17 440.5 2684.5 440.5C2684.5 443.5 2684.5 446.5 2684.5 449.5C2688.51 449.666 2692.51 449.499 2696.5 449C2697.44 446.619 2697.77 444.119 2697.5 441.5C2698.5 441.5 2699.5 441.5 2700.5 441.5C2700.67 444.85 2700.5 448.183 2700 451.5C2699.5 452 2699 452.5 2698.5 453C2692.84 453.499 2687.18 453.666 2681.5 453.5C2681.5 450.5 2681.5 447.5 2681.5 444.5C2680.5 444.5 2679.5 444.5 2678.5 444.5C2678.5 447.5 2678.5 450.5 2678.5 453.5C2671.49 453.666 2664.49 453.5 2657.5 453C2654.88 450.847 2653.88 448.013 2654.5 444.5C2655.5 444.5 2656.5 444.5 2657.5 444.5C2657.29 446.144 2657.62 447.644 2658.5 449C2664.16 449.499 2669.82 449.666 2675.5 449.5C2675.07 446.162 2675.73 443.162 2677.5 440.5Z" fill="black"/>
<path fill-rule="evenodd" clip-rule="evenodd" d="M2716.5 440.5C2719.27 440.22 2721.77 440.887 2724 442.5C2724.5 446.152 2724.67 449.818 2724.5 453.5C2717.5 453.5 2710.5 453.5 2703.5 453.5C2703.5 452.167 2703.5 450.833 2703.5 449.5C2709.17 449.5 2714.83 449.5 2720.5 449.5C2720.5 447.833 2720.5 446.167 2720.5 444.5C2718.86 444.286 2717.36 444.62 2716 445.5C2713.99 443.604 2714.16 441.937 2716.5 440.5Z" fill="black"/>
<path fill-rule="evenodd" clip-rule="evenodd" d="M2560.5 443.5C2561.5 443.5 2562.5 443.5 2563.5 443.5C2563.5 446.167 2563.5 448.833 2563.5 451.5C2563.08 452.222 2562.42 452.722 2561.5 453C2553.17 453.667 2544.83 453.667 2536.5 453C2533.87 450.804 2532.87 447.97 2533.5 444.5C2534.5 444.5 2535.5 444.5 2536.5 444.5C2536.3 446.39 2536.96 447.89 2538.5 449C2545.83 449.5 2553.16 449.666 2560.5 449.5C2560.5 447.5 2560.5 445.5 2560.5 443.5Z" fill="black"/>
<path fill-rule="evenodd" clip-rule="evenodd" d="M2560.5 443.5C2561.57 442.566 2562.9 442.232 2564.5 442.5C2564.81 445.713 2564.48 448.713 2563.5 451.5C2563.5 448.833 2563.5 446.167 2563.5 443.5C2562.5 443.5 2561.5 443.5 2560.5 443.5Z" fill="black"/>
<path fill-rule="evenodd" clip-rule="evenodd" d="M2593.5 443.5C2594.57 442.566 2595.9 442.232 2597.5 442.5C2597.5 444.5 2597.5 446.5 2597.5 448.5C2596.55 447.081 2596.22 445.415 2596.5 443.5C2595.5 443.5 2594.5 443.5 2593.5 443.5Z" fill="black"/>
<path fill-rule="evenodd" clip-rule="evenodd" d="M2570.5 445.5C2573.95 444.756 2575.62 446.09 2575.5 449.5C2572.05 450.244 2570.38 448.91 2570.5 445.5Z" fill="black"/>
<path fill-rule="evenodd" clip-rule="evenodd" d="M2541.5 455.5C2542.68 455.281 2543.68 455.614 2544.5 456.5C2542.95 457.798 2541.95 457.465 2541.5 455.5Z" fill="black"/>
<path fill-rule="evenodd" clip-rule="evenodd" d="M2614.5 455.5C2616.34 455.639 2616.67 456.306 2615.5 457.5C2614.7 457.043 2614.37 456.376 2614.5 455.5Z" fill="black"/>
<path fill-rule="evenodd" clip-rule="evenodd" d="M2670.5 455.5C2672.6 455.201 2674.6 455.534 2676.5 456.5C2675.5 456.833 2674.5 457.167 2673.5 457.5C2671.97 457.36 2670.97 456.693 2670.5 455.5Z" fill="black"/>
<path fill-rule="evenodd" clip-rule="evenodd" d="M2697.5 455.5C2699.34 455.639 2699.67 456.306 2698.5 457.5C2697.7 457.043 2697.37 456.376 2697.5 455.5Z" fill="black"/>
<path fill-rule="evenodd" clip-rule="evenodd" d="M2684.5 469.5C2685.5 469.414 2686.33 469.748 2687 470.5C2693.5 484.167 2700 497.833 2706.5 511.5C2702.54 512.66 2698.54 512.827 2694.5 512C2693.71 510.915 2693.04 509.748 2692.5 508.5C2687.5 507.167 2682.5 507.167 2677.5 508.5C2676.75 509.736 2676.42 511.07 2676.5 512.5C2672.15 512.666 2667.82 512.499 2663.5 512C2670.41 497.777 2677.41 483.611 2684.5 469.5Z" fill="black"/>
<path fill-rule="evenodd" clip-rule="evenodd" d="M2551.5 470.5C2545.5 470.5 2539.5 470.5 2533.5 470.5C2533.5 484.5 2533.5 498.5 2533.5 512.5C2532.5 498.343 2532.17 484.01 2532.5 469.5C2539.02 469.177 2545.36 469.51 2551.5 470.5Z" fill="black"/>
<path fill-rule="evenodd" clip-rule="evenodd" d="M2551.5 470.5C2569.24 472.956 2575.74 482.956 2571 500.5C2568.83 505.333 2565.33 508.833 2560.5 511C2551.57 512.381 2542.57 512.881 2533.5 512.5C2533.5 498.5 2533.5 484.5 2533.5 470.5C2539.5 470.5 2545.5 470.5 2551.5 470.5Z" fill="black"/>
<path fill-rule="evenodd" clip-rule="evenodd" d="M2578.5 470.5C2582.83 470.5 2587.17 470.5 2591.5 470.5C2591.17 480.015 2591.51 489.348 2592.5 498.5C2595.73 504.591 2599.56 504.924 2604 499.5C2604.5 489.839 2604.67 480.172 2604.5 470.5C2608.83 470.5 2613.17 470.5 2617.5 470.5C2617.67 480.172 2617.5 489.839 2617 499.5C2614.38 509.109 2608.05 513.776 2598 513.5C2588.36 513.839 2582.02 509.506 2579 500.5C2578.5 490.506 2578.33 480.506 2578.5 470.5Z" fill="black"/>
<path fill-rule="evenodd" clip-rule="evenodd" d="M2578.5 470.5C2582.97 469.514 2587.64 469.181 2592.5 469.5C2592.5 479.167 2592.5 488.833 2592.5 498.5C2591.51 489.348 2591.17 480.015 2591.5 470.5C2587.17 470.5 2582.83 470.5 2578.5 470.5Z" fill="black"/>
<path fill-rule="evenodd" clip-rule="evenodd" d="M2648.5 470.5C2640.83 470.5 2633.17 470.5 2625.5 470.5C2625.5 484.5 2625.5 498.5 2625.5 512.5C2624.5 498.343 2624.17 484.01 2624.5 469.5C2632.68 469.174 2640.68 469.508 2648.5 470.5Z" fill="black"/>
<path fill-rule="evenodd" clip-rule="evenodd" d="M2648.5 470.5C2656.87 471.567 2660.04 476.234 2658 484.5C2657.17 486.167 2656.33 487.833 2655.5 489.5C2661.93 494.377 2663.09 500.377 2659 507.5C2657.27 509.617 2655.1 511.117 2652.5 512C2643.51 512.5 2634.51 512.666 2625.5 512.5C2625.5 498.5 2625.5 484.5 2625.5 470.5C2633.17 470.5 2640.83 470.5 2648.5 470.5Z" fill="black"/>
<path fill-rule="evenodd" clip-rule="evenodd" d="M2724.5 470.5C2720.5 470.5 2716.5 470.5 2712.5 470.5C2712.5 484.5 2712.5 498.5 2712.5 512.5C2711.5 498.343 2711.17 484.01 2711.5 469.5C2716.03 469.182 2720.37 469.515 2724.5 470.5Z" fill="black"/>
<path fill-rule="evenodd" clip-rule="evenodd" d="M2724.5 470.5C2724.5 484.5 2724.5 498.5 2724.5 512.5C2720.5 512.5 2716.5 512.5 2712.5 512.5C2712.5 498.5 2712.5 484.5 2712.5 470.5C2716.5 470.5 2720.5 470.5 2724.5 470.5Z" fill="black"/>
<path fill-rule="evenodd" clip-rule="evenodd" d="M2637.5 479.5C2640.19 479.336 2642.85 479.503 2645.5 480C2646.83 482 2646.83 484 2645.5 486C2642.85 486.497 2640.19 486.664 2637.5 486.5C2637.5 484.167 2637.5 481.833 2637.5 479.5Z" fill="black"/>
<path fill-rule="evenodd" clip-rule="evenodd" d="M2546.5 479.5C2558.28 480.032 2562.45 486.032 2559 497.5C2556.05 501.797 2551.89 503.797 2546.5 503.5C2546.5 495.5 2546.5 487.5 2546.5 479.5Z" fill="black"/>
<path fill-rule="evenodd" clip-rule="evenodd" d="M2684.5 491.5C2686.57 493.318 2687.9 495.651 2688.5 498.5C2686.24 499.647 2683.9 499.814 2681.5 499C2682.99 496.692 2683.99 494.192 2684.5 491.5Z" fill="black"/>
<path fill-rule="evenodd" clip-rule="evenodd" d="M2637.5 494.5C2640.52 494.335 2643.52 494.502 2646.5 495C2650.5 497.667 2650.5 500.333 2646.5 503C2643.52 503.498 2640.52 503.665 2637.5 503.5C2637.5 500.5 2637.5 497.5 2637.5 494.5Z" fill="black"/>
<path fill-rule="evenodd" clip-rule="evenodd" d="M2542.5 523.5C2548.65 522.919 2554.48 523.919 2560 526.5C2560.67 529.5 2560.67 532.5 2560 535.5C2555.82 532.998 2551.32 532.164 2546.5 533C2545.17 534.333 2545.17 535.667 2546.5 537C2550.17 538.667 2553.83 540.333 2557.5 542C2562.68 546.567 2563.85 552.067 2561 558.5C2559.05 560.894 2556.55 562.394 2553.5 563C2547.02 563.979 2540.68 563.479 2534.5 561.5C2533.17 558.167 2533.17 554.833 2534.5 551.5C2537.88 553.628 2541.55 554.961 2545.5 555.5C2552.55 554.577 2553.22 552.077 2547.5 548C2541.87 546.353 2537.37 543.186 2534 538.5C2533.21 535.366 2533.54 532.366 2535 529.5C2537.11 526.879 2539.61 524.879 2542.5 523.5Z" fill="black"/>
<path fill-rule="evenodd" clip-rule="evenodd" d="M2579.5 524.5C2587.21 523.665 2594.54 524.831 2601.5 528C2608.04 533.755 2610.2 540.922 2608 549.5C2606.05 557.114 2601.22 561.614 2593.5 563C2575.01 565.17 2566.17 557.003 2567 538.5C2569.64 532.369 2573.8 527.703 2579.5 524.5Z" fill="black"/>
<path fill-rule="evenodd" clip-rule="evenodd" d="M2675.5 533.5C2674.51 542.986 2674.17 552.652 2674.5 562.5C2670.83 562.5 2667.17 562.5 2663.5 562.5C2663.5 552.833 2663.5 543.167 2663.5 533.5C2659.83 533.5 2656.17 533.5 2652.5 533.5C2652.5 530.5 2652.5 527.5 2652.5 524.5C2663.5 524.5 2674.5 524.5 2685.5 524.5C2685.5 527.5 2685.5 530.5 2685.5 533.5C2682.17 533.5 2678.83 533.5 2675.5 533.5Z" fill="white"/>
<path fill-rule="evenodd" clip-rule="evenodd" d="M2613.5 525.5C2617.17 525.5 2620.83 525.5 2624.5 525.5C2624.17 533.684 2624.51 541.684 2625.5 549.5C2626.59 553.748 2629.25 555.248 2633.5 554C2635.14 552.871 2636.14 551.371 2636.5 549.5C2637.49 541.684 2637.83 533.684 2637.5 525.5C2641.17 525.5 2644.83 525.5 2648.5 525.5C2648.92 535.247 2648.42 544.914 2647 554.5C2643.65 561.612 2637.99 564.612 2630 563.5C2623.29 563.979 2618.29 561.312 2615 555.5C2613.6 545.566 2613.1 535.566 2613.5 525.5Z" fill="black"/>
<path fill-rule="evenodd" clip-rule="evenodd" d="M2613.5 525.5C2617.3 524.517 2621.3 524.183 2625.5 524.5C2625.5 532.833 2625.5 541.167 2625.5 549.5C2624.51 541.684 2624.17 533.684 2624.5 525.5C2620.83 525.5 2617.17 525.5 2613.5 525.5Z" fill="black"/>
<path fill-rule="evenodd" clip-rule="evenodd" d="M2648.5 525.5C2644.83 525.5 2641.17 525.5 2637.5 525.5C2637.83 533.684 2637.49 541.684 2636.5 549.5C2636.5 541.167 2636.5 532.833 2636.5 524.5C2640.7 524.183 2644.7 524.517 2648.5 525.5Z" fill="black"/>
<path fill-rule="evenodd" clip-rule="evenodd" d="M2701.5 525.5C2697.83 525.5 2694.17 525.5 2690.5 525.5C2690.5 537.833 2690.5 550.167 2690.5 562.5C2694.17 562.5 2697.83 562.5 2701.5 562.5C2697.7 563.483 2693.7 563.817 2689.5 563.5C2689.5 550.5 2689.5 537.5 2689.5 524.5C2693.7 524.183 2697.7 524.517 2701.5 525.5Z" fill="black"/>
<path fill-rule="evenodd" clip-rule="evenodd" d="M2701.5 525.5C2701.5 529.833 2701.5 534.167 2701.5 538.5C2705.17 538.5 2708.83 538.5 2712.5 538.5C2713.48 534.366 2713.82 530.032 2713.5 525.5C2717.17 525.5 2720.83 525.5 2724.5 525.5C2724.5 537.833 2724.5 550.167 2724.5 562.5C2720.83 562.5 2717.17 562.5 2713.5 562.5C2713.82 557.305 2713.49 552.305 2712.5 547.5C2708.83 547.5 2705.17 547.5 2701.5 547.5C2701.5 552.5 2701.5 557.5 2701.5 562.5C2697.83 562.5 2694.17 562.5 2690.5 562.5C2690.5 550.167 2690.5 537.833 2690.5 525.5C2694.17 525.5 2697.83 525.5 2701.5 525.5Z" fill="white"/>
<path fill-rule="evenodd" clip-rule="evenodd" d="M2724.5 525.5C2720.83 525.5 2717.17 525.5 2713.5 525.5C2713.82 530.032 2713.48 534.366 2712.5 538.5C2712.5 533.833 2712.5 529.167 2712.5 524.5C2716.7 524.183 2720.7 524.517 2724.5 525.5Z" fill="black"/>
<path fill-rule="evenodd" clip-rule="evenodd" d="M2584.5 533.5C2596.24 533.623 2600.07 539.29 2596 550.5C2592.95 554.13 2589.12 555.297 2584.5 554C2578.89 550.723 2577.06 545.89 2579 539.5C2580.36 536.977 2582.19 534.977 2584.5 533.5Z" fill="black"/>
<path fill-rule="evenodd" clip-rule="evenodd" d="M2675.5 533.5C2675.5 543.5 2675.5 553.5 2675.5 563.5C2671.3 563.817 2667.3 563.483 2663.5 562.5C2667.17 562.5 2670.83 562.5 2674.5 562.5C2674.17 552.652 2674.51 542.986 2675.5 533.5Z" fill="black"/>
<path fill-rule="evenodd" clip-rule="evenodd" d="M2712.5 547.5C2713.49 552.305 2713.82 557.305 2713.5 562.5C2717.17 562.5 2720.83 562.5 2724.5 562.5C2720.7 563.483 2716.7 563.817 2712.5 563.5C2712.5 558.167 2712.5 552.833 2712.5 547.5Z" fill="black"/>
</g>
<defs>
<clipPath id="clip0_86_35">
<rect width="2749" height="630" fill="white"/>
</clipPath>
</defs>
</svg>
