<?xml version="1.0" encoding="utf-8"?>
<!-- Generator: Adobe Illustrator 24.0.1, SVG Export Plug-In . SVG Version: 6.00 Build 0)  -->
<svg version="1.1" id="Layer_1" xmlns="http://www.w3.org/2000/svg" xmlns:xlink="http://www.w3.org/1999/xlink" x="0px" y="0px"
	 viewBox="0 0 370 99" style="enable-background:new 0 0 370 99;" xml:space="preserve">
<style type="text/css">
	.st0{fill:#231F20;}
</style>
<g>
	<path class="st0" d="M43.9,11.4H42C41.8,7.5,42,5,36.5,5H25.9v39.7c0,5,2.6,5,6.3,5.1v1.9c-3.3,0-6.3-0.1-9.4-0.1
		c-3.3,0-6.6,0.1-10.1,0.1v-1.9c3.7-0.1,6.3-0.1,6.3-5.1V5H10c-6.3,0-6.5,1.8-7.7,6.4H0.4L1.2,0.1h1.4C3.4,2,5.3,2,7,2h31.5
		c2.5,0,4.2-0.6,4.5-2h1.5L43.9,11.4z M91.8,28.2v16.5c0,5,2.6,5,6.3,5.1v1.9c-3.3,0-6.3-0.1-9.4-0.1c-3.3,0-6.6,0.1-10.1,0.1v-1.9
		c3.5,0.2,6.3-0.7,6.3-4.8V9c0-5-2.6-5.1-6.3-5.1V2.1c3.8,0.1,7.2,0.1,10.6,0.1c2.4,0,4.9-0.1,9.3-0.1c13.1,0,16.1,7.5,16.1,12.6
		c0,6-4.5,10.5-9.9,12.2c6.3,9.4,9.7,15.1,12.7,18.5c2.2,2.6,4.3,4.5,7.9,4.5v1.9c-1.7,0-3.5-0.1-5.2-0.1c-1.9,0-3.9,0.1-5.9,0.1
		c-6.3-7.1-11-15.4-16-23.5L91.8,28.2z M96,4.3c-1.4,0-2.8,0.2-4.2,0.4v20.8c1.2,0.2,2.4,0.3,3.7,0.4c8.6,0,11.9-5.8,11.9-10.9
		C107.4,8.9,104.2,4.3,96,4.3L96,4.3z M204.3,3.9c-5.6,0-5.5,2.8-5.5,11.4v20.5c0,9.7-5.9,16.9-18.2,16.9
		c-11.5,0-18.4-5.7-18.6-17.8V9.1c0-5-2.6-5.1-6.3-5.1V2.1c3.3,0.1,6.5,0.1,9.6,0.1c3.1,0,6.4-0.1,9.9-0.1v1.8
		c-3.7,0.1-6.3,0.1-6.3,5.1v24.2c0,8.5,2.7,16.6,13.6,16.6c11.5,0,12.7-9.1,12.7-14V15.6c0-11.7-0.4-11.4-6.6-11.7V2.1
		c2.9,0.1,5.8,0.1,8.8,0.1c2.4,0,4.7-0.1,7-0.1L204.3,3.9z M268.3,41.9c6.3-13.3,13-26.4,18.8-39.9c1.9,0.1,3.8,0.1,5.7,0.1
		c2,0,4.1-0.1,6.1-0.1v1.8c-2.4,0-3.9,0.1-4.9,0.9s-1.3,1.9-1.3,4.3c0,11.2,0.6,23.2,0.9,33.9c0.1,5.3,0.6,6.9,7.6,6.9v1.9
		c-3.8,0-7.7-0.1-11.5-0.1c-3.4,0-6.8,0.1-10.2,0.1v-1.9c2.4,0,4.2,0,5.4-0.6c1.2-0.6,1.8-2.1,1.8-4.8l-0.5-33.9h-0.1l-16.4,34.8
		c-0.8,1.7-2.2,5.2-2.7,7.1h-1.4c-5.9-13.6-12.6-26.9-19.2-40.3h-0.1l-0.6,25.7c0,0.9-0.1,3.5-0.1,4.5c0,3.5,0.4,5.4,1.5,6.4
		c1.1,1,2.9,1.2,5.6,1.2v1.9c-2.9,0-5.8-0.1-8.6-0.1c-3.1,0-6.2,0.1-9.2,0.1v-1.9c4.9,0,8-1.2,8.3-10.7c0.3-9.7,0.8-19.4,0.8-29.1
		c0-2.5-0.3-4.1-1.3-4.9c-1-0.9-2.5-1.1-4.8-1.1V2.1c2.4,0.1,4.9,0.1,7.4,0.1c1.5,0,3-0.1,4.5-0.1L268.3,41.9z M335,2.1
		c3.1,0.1,6.3,0.1,9.4,0.1c2.4,0,4.8-0.1,7.7-0.1c7.2,0,17.5,3.1,17.5,14.1c0,8.4-7.7,14.2-14.9,14.2c-1.4,0-2.5-0.1-3.6-0.1V28
		c0.9,0.1,1.8,0.2,2.6,0.1c6,0,8.6-6,8.6-11.2c0-9.9-6.7-12.6-11.3-12.6c-1,0-2,0.1-3.1,0.2v40.2c0,5,2.6,5,6.4,5.1v1.9
		c-3.4,0-6.4-0.1-9.4-0.1c-3.3,0-6.6,0.1-10.1,0.1v-1.9c3.7-0.1,6.3-0.1,6.3-5.1V10.9c0-5.5-0.9-7-6.1-7L335,2.1z M369.6,69.8H0.4
		v1.3h369.1V69.8z M369.6,97.6H0.4v1.3h369.1V97.6z M16.3,79.4h-0.7c-0.1-1.3,0-2.1-2-2.1H9.7v13.2c0,1.6,1,1.7,2.3,1.7v0.6
		c-1.2,0-2.3,0-3.4,0s-2.4,0-3.7,0v-0.6c1.3,0,2.3,0,2.3-1.7V77.3H3.9c-2.3,0-2.4,0.6-2.8,2.1H0.4l0.3-3.7h0.5
		c0.3,0.6,1,0.7,1.6,0.7h11.5c0.9,0,1.6-0.2,1.6-0.7h0.6L16.3,79.4z M32.6,83.8v-5.1c0-1.6-1-1.7-2.3-1.7v-0.6c1.3,0,2.5,0,3.8,0
		c1.1,0,2.2,0,3.4,0v0.6c-1.4,0-2.3,0-2.3,1.7v11.8c0,1.6,1,1.7,2.3,1.7v0.6c-1.1,0-2.3,0-3.4,0c-1.1,0-2.4,0-3.7,0v-0.6
		c1.3,0,2.3,0,2.3-1.7v-5.7H22.4v5.7c0,1.6,1,1.7,2.3,1.7v0.6c-1.2,0-2.3,0-3.4,0c-1.1,0-2.4,0-3.7,0v-0.6c1.3,0,2.3,0,2.3-1.7V78.6
		c0-1.6-1-1.7-2.3-1.7v-0.6c1.2,0,2.4,0,3.5,0s2.4,0,3.6,0v0.6c-1.4,0-2.3,0-2.3,1.7v5.2H32.6z M43.8,83.8h3.3c2.1,0,2.1-1.5,2.1-2
		h0.5c-0.1,0.5-0.1,1.8-0.1,2.6c0,0.8,0.1,1.9,0.1,2.6h-0.5c0-2.3-0.8-2.3-2.8-2.3h-2.7v4c0,2.6,0.1,3.3,2.6,3.3H48
		c2.5-0.1,3.6-0.4,4.6-2.9l0.6,0.1c-0.4,1.2-0.8,2.4-1,3.6c-2.5,0-5.1,0-7.6,0c-1.9,0-3.8,0-5.6,0v-0.6c2.2,0,2.4-0.4,2.4-2.7V79
		c0-1.9-0.4-2-2.4-2.1v-0.6c1.7,0,3.4,0,5.1,0c2.4,0,4.8,0,7.3,0v3.5l-0.5,0.1c-0.4-2.2-1.5-2.9-4.1-2.9h-3L43.8,83.8z M76.9,79.4
		h-0.7c-0.1-1.3,0-2.1-2-2.1h-3.8v13.2c0,1.6,1,1.7,2.3,1.7v0.6c-1.2,0-2.3,0-3.4,0s-2.4,0-3.7,0v-0.6c1.3,0,2.3,0,2.3-1.7V77.3
		h-3.3c-2.3,0-2.4,0.6-2.8,2.1H61l0.3-3.7h0.5c0.3,0.6,1,0.7,1.6,0.7h11.5c0.9,0,1.6-0.2,1.6-0.7h0.5L76.9,79.4z M83.2,85v5.5
		c0,1.6,1,1.7,2.3,1.7v0.6c-1.2,0-2.3,0-3.4,0c-1.1,0-2.4,0-3.7,0v-0.6c1.3,0.1,2.3-0.2,2.3-1.6v-12c0-1.6-1-1.7-2.3-1.7v-0.6
		c1.4,0,2.6,0,3.8,0c0.9,0,1.8,0,3.4,0c4.8,0,5.9,2.5,5.9,4.2c0,2-1.6,3.5-3.6,4c2.3,3.1,3.5,5,4.6,6.2c0.7,0.9,1.7,1.4,2.9,1.5v0.6
		c-0.6,0-1.3,0-1.9,0s-1.4,0-2.2,0c-2.3-2.4-4-5.1-5.8-7.8L83.2,85z M84.7,77.1c-0.5,0-1,0.1-1.5,0.1v6.9c0.4,0.1,0.9,0.1,1.3,0.1
		c3.1,0,4.3-1.9,4.3-3.6C88.9,78.6,87.7,77,84.7,77.1L84.7,77.1z M113.8,76.9c-2,0-2,0.9-2,3.8v6.8c0,3.2-2.2,5.6-6.6,5.6
		c-4.2,0-6.7-1.9-6.8-5.9v-8.6c0-1.6-1-1.7-2.3-1.7v-0.6c1.2,0,2.4,0,3.5,0s2.4,0,3.6,0v0.6c-1.4,0-2.3,0-2.3,1.7v8
		c0,2.8,1,5.5,4.9,5.5c4.2,0,4.6-3,4.6-4.6v-6.7c0-3.9-0.2-3.8-2.4-3.9v-0.6c1.1,0,2.1,0,3.2,0c0.9,0,1.7,0,2.6,0L113.8,76.9z
		 M126.9,89.5c2.3-4.4,4.7-8.7,6.8-13.2c0.7,0,1.4,0,2.1,0s1.5,0,2.2,0v0.6c-0.6-0.1-1.2,0-1.8,0.3c-0.3,0.2-0.5,0.6-0.5,1.4
		c0,3.7,0.2,7.7,0.3,11.2c0,1.8,0.2,2.3,2.8,2.3v0.6c-1.4,0-2.8,0-4.2,0c-1.2,0-2.5,0-3.7,0v-0.6c0.7,0.1,1.3,0,1.9-0.2
		c0.5-0.2,0.7-0.7,0.7-1.6L133.5,79h0l-6,11.5c-0.4,0.8-0.7,1.6-1,2.4h-0.5c-2.2-4.5-4.6-8.9-7-13.4h0l-0.2,8.5c0,0.3,0,1.2,0,1.5
		c0,1.1,0.1,1.8,0.5,2.1c0.6,0.4,1.3,0.5,2.1,0.4v0.6c-1,0-2.1,0-3.1,0c-1,0-2.3,0-3.4,0v-0.6c1.8,0,2.9-0.4,3-3.6
		c0.1-3.1,0.3-6.4,0.3-9.7c0-0.8-0.1-1.4-0.5-1.6c-0.5-0.3-1.1-0.4-1.8-0.4v-0.6c0.9,0,1.8,0,2.7,0c0.5,0,1.1,0,1.6,0L126.9,89.5z
		 M140.2,76.3c1.1,0,2.3,0,3.4,0c0.9,0,1.7,0,2.8,0c2.6,0,6.4,1,6.4,4.7c0,2.8-2.8,4.7-5.5,4.7c-0.5,0-0.9,0-1.3,0v-0.8
		c0.3,0,0.6,0.1,1,0c2.2,0,3.1-2,3.1-3.7c0.1-2.2-1.5-4-3.7-4.2c-0.2,0-0.3,0-0.5,0c-0.4,0-0.7,0-1.1,0.1v13.3c0,1.6,1,1.7,2.4,1.7
		v0.6c-1.2,0-2.4,0-3.4,0s-2.4,0-3.7,0v-0.6c1.3,0,2.3,0,2.3-1.7V79.2c0-1.8-0.3-2.3-2.2-2.3L140.2,76.3z M171.3,75.9
		c5.1,0,9.1,4,9.1,8.5c-0.1,4.9-4.2,8.8-9.1,8.6c0,0,0,0,0,0c-5.1,0-9.1-4-9.1-8.5C162.3,79.7,166.4,75.8,171.3,75.9
		C171.3,75.9,171.3,75.9,171.3,75.9L171.3,75.9z M171.5,92.3c3.7,0,6-3,6-7.2c0-3.6-2.2-8.4-6.6-8.4c-3.7,0-6,3-6,7.2
		C164.9,87.5,167.1,92.3,171.5,92.3L171.5,92.3z M187.5,84.9v5.5c0,1.6,1,1.7,2.3,1.7v0.6c-1.2,0-2.3,0-3.4,0s-2.4,0-3.7,0v-0.6
		c1.3,0.1,2.3-0.2,2.3-1.6v-12c0-1.6-1-1.7-2.3-1.7v-0.6c1.4,0,2.6,0,3.9,0c0.9,0,1.8,0,3.4,0c4.8,0,5.9,2.5,5.9,4.2
		c0,2-1.6,3.5-3.6,4c2.3,3.1,3.5,5,4.6,6.2c0.7,0.9,1.7,1.4,2.9,1.5v0.6c-0.6,0-1.3,0-1.9,0s-1.4,0-2.2,0c-2.3-2.4-4-5.1-5.8-7.8
		L187.5,84.9z M189,77c-0.5,0-1,0.1-1.5,0.1v6.9c0.4,0.1,0.9,0.1,1.3,0.1c3.1,0,4.3-1.9,4.3-3.6C193.2,78.6,192,77,189,77L189,77z
		 M218,80.5h-0.6c-0.7-2.7-3.1-3.8-6-3.8c-4.5,0-7.1,3.7-7.1,7.5c0,4.1,2.7,8.1,7.3,8.1c1.2,0.1,2.4-0.3,3.4-0.9v-3.5
		c0-1.7-1-1.7-2.3-1.7v-0.6c1.2,0,2.4,0,3.5,0c1.1,0,2.4,0,3.1,0v0.6c-0.8,0-1.8,0-1.8,1.7V91l0.4,0.4v0.4c-2.1,0.8-4.3,1.2-6.6,1.3
		c-7.1,0-9.7-5.2-9.7-8.5c0-4.9,4.1-8.6,9.4-8.6c2.2,0.1,4.4,0.5,6.5,1.3L218,80.5z M234.3,88c0.4,1.2,0.9,2.3,1.4,3.4
		c0.5,0.5,1.2,0.7,2,0.6v0.6c-1,0-2,0-2.9,0c-1.2,0-2.5,0-3.7,0v-0.6h0.5c0.6,0,1.4-0.1,1.4-0.8c-0.1-0.5-0.2-0.9-0.4-1.4l-1.3-3.4
		h-6l-0.6,1.6c-0.4,0.9-0.6,1.8-0.7,2.8c0,1.1,0.8,1.1,1.7,1.1h0.6v0.6c-1,0-2,0-3,0c-1,0-2.1,0-3.1,0v-0.6c1.6-0.2,1.8-0.4,2.5-1.7
		c0.4-0.8,0.7-1.8,1-2.6l3.2-8.4c0.3-0.7,0.5-1.4,0.5-2.1c0-0.2,0-0.4,0-0.6c0.6-0.2,1.1-0.6,1.5-1h0.4L234.3,88z M225.6,85.6h5.2
		l-2.7-6.9h0L225.6,85.6z M256.5,92.9h-0.6l-13.3-13.5v8.8c0,3.2,0.3,3.9,3,3.9v0.6c-1.1,0-2.3,0-3.4,0s-2.2,0-3.4,0v-0.6
		c1.6,0,2.7,0,2.7-3v-9.4c0-2-0.9-2.8-3.1-2.8v-0.6c0.8,0,1.6,0,2.4,0s1.4,0,2.1,0c1,1.4,3.4,3.6,6.3,6.5c2.2,2.2,4.5,4.5,6.3,6.3
		v-9.4c0-2.2-0.5-2.8-3.1-2.9v-0.6c1.2,0,2.4,0,3.5,0c1,0,1.9,0,2.9,0v0.6c-1.6,0-2.4,0.1-2.4,2.4L256.5,92.9z M262.2,78.6
		c0-1.6-1-1.7-2.3-1.7v-0.6c1.2,0,2.4,0,3.5,0s2.4,0,3.6,0v0.6c-1.3,0-2.3,0-2.3,1.7v11.8c0,1.6,1,1.7,2.3,1.7v0.6
		c-1.2,0-2.3,0-3.4,0s-2.4,0-3.7,0v-0.6c1.3,0,2.3,0,2.3-1.7L262.2,78.6z M284.2,92.7c-2.7,0-5.8,0-8,0c-2.6,0-5.3,0-8,0L281,77.3
		h-8.2c-2.3,0-2.8,1.3-3.1,2.5H269c0.4-1.2,0.6-2.5,0.8-3.8h0.7c0,0.1,0.1,0.2,0.3,0.3c0.1,0,0.3,0.1,0.4,0.1h13.6L272,91.8h7.4
		c3.6,0,4.4-0.7,5.4-3.1l0.6,0.1L284.2,92.7z M300.4,88c0.4,1.2,0.9,2.3,1.4,3.4c0.5,0.5,1.2,0.7,1.9,0.6v0.6c-1,0-1.9,0-2.9,0
		c-1.2,0-2.5,0-3.7,0v-0.6h0.5c0.6,0,1.4-0.1,1.4-0.8c-0.1-0.5-0.2-0.9-0.4-1.4l-1.3-3.4h-5.9l-0.6,1.6c-0.4,0.9-0.6,1.8-0.7,2.8
		c0,1.1,0.8,1.1,1.7,1.1h0.6v0.6c-1,0-2,0-3,0c-1,0-2.1,0-3.1,0v-0.6c1.6-0.2,1.8-0.4,2.5-1.7c0.4-0.8,0.7-1.8,1-2.6l3.2-8.4
		c0.3-0.7,0.5-1.4,0.5-2.1c0-0.2,0-0.4-0.1-0.6c0.6-0.2,1.1-0.6,1.5-1h0.4L300.4,88z M291.7,85.6h5.2l-2.7-6.9h-0.1L291.7,85.6z
		 M318.6,79.3h-0.7c-0.1-1.3,0-2.1-2-2.1H312v13.2c0,1.6,1,1.7,2.3,1.7v0.6c-1.2,0-2.3,0-3.4,0c-1.1,0-2.4,0-3.7,0v-0.6
		c1.3,0,2.3,0,2.3-1.7V77.3h-3.3c-2.3,0-2.4,0.6-2.8,2.1h-0.7l0.3-3.7h0.5c0.3,0.6,1,0.7,1.6,0.7h11.5c0.9,0,1.6-0.2,1.6-0.7h0.5
		L318.6,79.3z M322.2,78.6c0-1.6-1-1.7-2.3-1.7v-0.6c1.2,0,2.4,0,3.5,0s2.4,0,3.6,0v0.6c-1.4,0-2.4,0-2.4,1.7v11.8
		c0,1.6,1,1.7,2.4,1.7v0.6c-1.2,0-2.4,0-3.4,0c-1.1,0-2.4,0-3.7,0v-0.6c1.4,0,2.3,0,2.3-1.7V78.6z M338.3,75.9c5.1,0,9.1,4,9.1,8.5
		c-0.1,4.9-4.2,8.8-9.1,8.6c0,0,0,0,0,0c-5.1,0-9-4-9-8.5C329.3,79.6,333.4,75.8,338.3,75.9C338.3,75.9,338.3,75.9,338.3,75.9
		L338.3,75.9z M338.5,92.3c3.7,0,6-3,6-7.2c0-3.6-2.2-8.4-6.6-8.4c-3.7,0-6,3-6,7.2C332,87.5,334.2,92.3,338.5,92.3L338.5,92.3z
		 M367.1,92.9h-0.6l-13.3-13.5v8.8c0,3.2,0.3,3.9,3,3.9v0.6c-1.1,0-2.3,0-3.4,0c-1.1,0-2.3,0-3.4,0v-0.6c1.6,0,2.7,0,2.7-3v-9.4
		c0-2-0.9-2.8-3.1-2.8v-0.6c0.8,0,1.6,0,2.4,0s1.4,0,2.1,0c1,1.4,3.4,3.6,6.3,6.5c2.2,2.2,4.5,4.5,6.3,6.3v-9.4
		c0-2.2-0.5-2.8-3.1-2.9v-0.6c1.2,0,2.4,0,3.5,0c1,0,2,0,2.9,0v0.6c-1.6,0-2.4,0.1-2.4,2.4L367.1,92.9z"/>
</g>
</svg>
