<?xml version="1.0" encoding="utf-8"?>
<!-- Generator: Adobe Illustrator 27.0.1, SVG Export Plug-In . SVG Version: 6.00 Build 0)  -->
<svg version="1.1" id="Layer_1" xmlns="http://www.w3.org/2000/svg" xmlns:xlink="http://www.w3.org/1999/xlink" x="0px" y="0px"
	 viewBox="0 0 1080 198.1" style="enable-background:new 0 0 1080 198.1;" xml:space="preserve">
<style type="text/css">
	.st0{clip-path:url(#SVGID_00000090279984278662496240000015036769404000760719_);fill:#424242;}
	.st1{clip-path:url(#SVGID_00000103241842813362996960000017176568322881837737_);fill:#424242;}
	.st2{clip-path:url(#SVGID_00000059270761210959978670000014726049373694646956_);fill:#424242;}
	.st3{clip-path:url(#SVGID_00000090254722126559869650000004661649719877658243_);fill:#424242;}
	.st4{clip-path:url(#SVGID_00000062906398482186568610000011021970881488205470_);fill:#424242;}
	.st5{clip-path:url(#SVGID_00000127731450092863981630000008697956234735547836_);fill:#424242;}
	.st6{clip-path:url(#SVGID_00000173156139514938990110000009779215546635405489_);fill:#424242;}
	.st7{clip-path:url(#SVGID_00000072238992090141673030000000840761788295291575_);fill:#424242;}
	.st8{clip-path:url(#SVGID_00000175280223420688611730000013588258343903876508_);fill:#424242;}
	.st9{clip-path:url(#SVGID_00000175286924917449237100000010359365125418632862_);fill:#424242;}
	.st10{clip-path:url(#SVGID_00000062875018487474292650000017883906155560296331_);fill:#424242;}
</style>
<g>
	<g>
		<g>
			<defs>
				<polygon id="SVGID_1_" points="104.5,60.1 104.4,73.4 141.2,73.7 104,118.9 103.9,131.2 163.2,131.7 163.3,118.4 125.7,118.1 
					162.9,72.7 163,60.6 				"/>
			</defs>
			<clipPath id="SVGID_00000121967497094525236030000004168701638803385022_">
				<use xlink:href="#SVGID_1_"  style="overflow:visible;"/>
			</clipPath>
			<polygon style="clip-path:url(#SVGID_00000121967497094525236030000004168701638803385022_);fill:#424242;" points="81.5,67.9 
				156.8,41.5 185.7,123.9 110.4,150.3 			"/>
		</g>
	</g>
	<g>
		<g>
			<defs>
				<path id="SVGID_00000135665216248609924560000004126701249511617176_" d="M176.1,103.5c-0.1,17.5,11.2,29.8,34.9,30
					c23.7,0.2,35.2-11.7,35.4-29.4l0.4-42.7l-16.9-0.2l-0.4,42.2c-0.1,9.9-6.3,16.7-18.4,16.6c-12-0.1-18.3-7-18.2-16.9l0.4-42.2
					l-16.8-0.1L176.1,103.5z"/>
			</defs>
			<use xlink:href="#SVGID_00000135665216248609924560000004126701249511617176_"  style="overflow:visible;fill:#424242;"/>
			<clipPath id="SVGID_00000183223750515629240570000010073960449197481884_">
				<use xlink:href="#SVGID_00000135665216248609924560000004126701249511617176_"  style="overflow:visible;"/>
			</clipPath>
			<polygon style="clip-path:url(#SVGID_00000183223750515629240570000010073960449197481884_);fill:#424242;" points="153.1,68.7 
				239,38.6 269.5,125.7 183.6,155.7 			"/>
		</g>
	</g>
	<g>
		<g>
			<defs>
				<polygon id="SVGID_00000101069001321280309940000004654594043354282628_" points="261.4,132.6 278,132.7 278.2,102.9 315,103.2 
					314.7,133.1 331.4,133.2 332,62.1 315.3,61.9 315.1,89.9 278.3,89.5 278.6,61.6 262,61.4 				"/>
			</defs>
			<clipPath id="SVGID_00000088849569288395945470000003890955735948570780_">
				<use xlink:href="#SVGID_00000101069001321280309940000004654594043354282628_"  style="overflow:visible;"/>
			</clipPath>
			<polygon style="clip-path:url(#SVGID_00000088849569288395945470000003890955735948570780_);fill:#424242;" points="239,69.3 
				324.3,39.4 354.4,125.4 269.1,155.2 			"/>
		</g>
	</g>
	<g>
		<g>
			<defs>
				<path id="SVGID_00000152246623432547854280000003300614995139242931_" d="M367,108.1l12.4-30.5l11.9,30.7L367,108.1z
					 M338.4,133.3l18.9,0.2l5-12l33.4,0.3l4.7,12.1l18.9,0.2l-29.4-71.4l-20.8-0.2L338.4,133.3z"/>
			</defs>
			<clipPath id="SVGID_00000093171461059841782000000006668597913472414096_">
				<use xlink:href="#SVGID_00000152246623432547854280000003300614995139242931_"  style="overflow:visible;"/>
			</clipPath>
			<polygon style="clip-path:url(#SVGID_00000093171461059841782000000006668597913472414096_);fill:#424242;" points="316.1,70.2 
				410.5,37.1 441.6,126.1 347.3,159.2 			"/>
		</g>
	</g>
	<g>
		<g>
			<defs>
				
					<rect id="SVGID_00000041985772312043033990000014296574280118204072_" x="399.6" y="90.2" transform="matrix(8.895020e-03 -1 1 8.895020e-03 332.7826 532.7805)" width="71.2" height="16.6"/>
			</defs>
			<clipPath id="SVGID_00000008832597337002721090000009796504626174004125_">
				<use xlink:href="#SVGID_00000041985772312043033990000014296574280118204072_"  style="overflow:visible;"/>
			</clipPath>
			<polygon style="clip-path:url(#SVGID_00000008832597337002721090000009796504626174004125_);fill:#424242;" points="404.3,70.7 
				441.9,57.5 466,126.4 428.4,139.5 			"/>
		</g>
	</g>
	<g>
		<g>
			<defs>
				<path id="SVGID_00000078027993669906367430000005500703769543400335_" d="M492.9,96l-17.4-0.2l0.2-19.2l17.4,0.2
					c6.7,0.1,11.6,3.7,11.6,9.7c0,5.9-5,9.5-11.6,9.5C493,96,492.9,96,492.9,96 M458.5,134.3l16.6,0.1l0.2-25.3l12.1,0.1l15.1,25.4
					l19,0.2l-17.3-27.2c8.4-1.7,17.1-8.4,17.2-21c0.1-13.2-9.7-23-26-23.2l-36.4-0.3L458.5,134.3z"/>
			</defs>
			<use xlink:href="#SVGID_00000078027993669906367430000005500703769543400335_"  style="overflow:visible;fill:#424242;"/>
			<clipPath id="SVGID_00000016068015496322173690000008171045518443690160_">
				<use xlink:href="#SVGID_00000078027993669906367430000005500703769543400335_"  style="overflow:visible;"/>
			</clipPath>
			<polygon style="clip-path:url(#SVGID_00000016068015496322173690000008171045518443690160_);fill:#424242;" points="436.2,71 
				514.8,43.5 544,127 465.4,154.5 			"/>
		</g>
	</g>
	<g>
		<g>
			<defs>
				<polygon id="SVGID_00000137124856616831790510000004577561181715658148_" points="563.5,135.2 580.1,135.4 580.5,85.6 
					602,135.6 609.2,135.6 631.6,86 631.2,135.8 647.9,136 648.5,64.8 625.2,64.6 605.9,107.4 587.3,64.3 564.1,64.1 				"/>
			</defs>
			<use xlink:href="#SVGID_00000137124856616831790510000004577561181715658148_"  style="overflow:visible;fill:#424242;"/>
			<clipPath id="SVGID_00000013170245477608356680000007099468059929016724_">
				<use xlink:href="#SVGID_00000137124856616831790510000004577561181715658148_"  style="overflow:visible;"/>
			</clipPath>
			<polygon style="clip-path:url(#SVGID_00000013170245477608356680000007099468059929016724_);fill:#424242;" points="541.1,71.9 
				639.2,37.6 670.9,128.1 572.8,162.5 			"/>
		</g>
	</g>
	<g>
		<g>
			<defs>
				<path id="SVGID_00000124860091194201529850000015665756591365745074_" d="M663.5,107.7c-0.2,17.5,11.2,29.8,34.9,30
					c23.7,0.2,35.2-11.7,35.4-29.4l0.4-42.7l-16.9-0.2l-0.4,42.2c-0.1,9.9-6.3,16.7-18.3,16.6c-12-0.1-18.3-7-18.2-16.9l0.4-42.2
					l-16.8-0.2L663.5,107.7z"/>
			</defs>
			<use xlink:href="#SVGID_00000124860091194201529850000015665756591365745074_"  style="overflow:visible;fill:#424242;"/>
			<clipPath id="SVGID_00000041297217047823542770000018066079960810895020_">
				<use xlink:href="#SVGID_00000124860091194201529850000015665756591365745074_"  style="overflow:visible;"/>
			</clipPath>
			<polygon style="clip-path:url(#SVGID_00000041297217047823542770000018066079960810895020_);fill:#424242;" points="640.6,72.9 
				726.5,42.9 757,129.9 671.1,160 			"/>
		</g>
	</g>
	<g>
		<g>
			<defs>
				<path id="SVGID_00000044170007634595151880000000219553314697407655_" d="M783.2,98.5l-17.4-0.2l0.2-19.2l17.4,0.2
					c6.7,0.1,11.6,3.7,11.6,9.7c0,5.9-5,9.5-11.6,9.5C783.3,98.5,783.2,98.5,783.2,98.5 M748.9,136.8l16.6,0.1l0.2-25.3l12.1,0.1
					l15.1,25.4l19,0.2l-17.3-27.2c8.4-1.7,17.1-8.4,17.2-21c0.1-13.2-9.7-23-26-23.2l-36.4-0.3L748.9,136.8z"/>
			</defs>
			<use xlink:href="#SVGID_00000044170007634595151880000000219553314697407655_"  style="overflow:visible;fill:#424242;"/>
			<clipPath id="SVGID_00000013872293996176186220000005566703757747161997_">
				<use xlink:href="#SVGID_00000044170007634595151880000000219553314697407655_"  style="overflow:visible;"/>
			</clipPath>
			<polygon style="clip-path:url(#SVGID_00000013872293996176186220000005566703757747161997_);fill:#424242;" points="726.5,73.5 
				805.1,46 834.3,129.6 755.8,157.1 			"/>
		</g>
	</g>
	<g>
		<g>
			<defs>
				<path id="SVGID_00000005261639731641987190000017537036584960879782_" d="M844.2,112.3l12.4-30.5l11.9,30.7L844.2,112.3z
					 M815.6,137.4l18.9,0.2l5-12l33.4,0.3l4.7,12.1l18.9,0.2l-29.4-71.4l-20.8-0.2L815.6,137.4z"/>
			</defs>
			<use xlink:href="#SVGID_00000005261639731641987190000017537036584960879782_"  style="overflow:visible;fill:#424242;"/>
			<clipPath id="SVGID_00000147217623423516202410000013255261608351169471_">
				<use xlink:href="#SVGID_00000005261639731641987190000017537036584960879782_"  style="overflow:visible;"/>
			</clipPath>
			<polygon style="clip-path:url(#SVGID_00000147217623423516202410000013255261608351169471_);fill:#424242;" points="793.3,74.4 
				887.7,41.3 918.9,130.3 824.5,163.4 			"/>
		</g>
	</g>
	<g>
		<g>
			<defs>
				<path id="SVGID_00000065784871668025146510000013373660766611410588_" d="M934.6,125.1l-14.1-0.1l0.4-44.5l14.1,0.1
					c16,0.1,24.3,9.9,24.2,22.5c-0.1,12-9.1,22-24.3,22C934.8,125.1,934.7,125.1,934.6,125.1 M903.8,138.2l30.7,0.3
					c24.4,0.2,41.5-13.7,41.6-35.2v-0.7c-0.2-21.1-16.9-35.1-41-35.3L904.4,67L903.8,138.2z"/>
			</defs>
			<use xlink:href="#SVGID_00000065784871668025146510000013373660766611410588_"  style="overflow:visible;fill:#424242;"/>
			<clipPath id="SVGID_00000040575781647490726080000004160553825861321870_">
				<use xlink:href="#SVGID_00000065784871668025146510000013373660766611410588_"  style="overflow:visible;"/>
			</clipPath>
			<polygon style="clip-path:url(#SVGID_00000040575781647490726080000004160553825861321870_);fill:#424242;" points="881.4,74.9 
				968.2,44.5 998.5,130.8 911.7,161.2 			"/>
		</g>
	</g>
</g>
</svg>
