<?xml version="1.0" encoding="utf-8"?>
<!-- Generator: Adobe Illustrator 27.9.0, SVG Export Plug-In . SVG Version: 6.00 Build 0)  -->
<svg version="1.1" id="Layer_1" xmlns="http://www.w3.org/2000/svg" xmlns:xlink="http://www.w3.org/1999/xlink" x="0px" y="0px"
	 viewBox="0 0 500 500" style="enable-background:new 0 0 500 500;" xml:space="preserve">
<style type="text/css">
	.st0{fill:#1B008B;}
	.st1{fill:#FFFFFF;}
</style>
<rect class="st0" width="500" height="500"/>
<path class="st1" d="M111.48,414c-3.14-2.07-3.54-5.04-3.4-8.58c0.93-24.1,9.82-44.83,26.59-61.99
	c14.62-14.96,32.52-23.92,53.31-26.71c5.37-0.72,10.84-0.8,16.26-1.01c4.15-0.15,8.31-0.03,12.9-0.03c0-5.71,0.06-11.22-0.08-16.72
	c-0.02-0.7-1.03-1.52-1.76-2.02c-16.17-11.09-27.11-25.99-32.81-44.75c-0.28-0.93-0.9-2.22-1.65-2.47
	c-7.92-2.69-12.02-8.93-14.89-16.13c-3.16-7.95-5.03-16.24-1.93-24.59c1.32-3.57,3.95-6.66,6.1-10.17
	c-2.19-4.04-5.04-8.44-7.08-13.19c-17.77-41.48,5.21-87.48,49.17-97.63c24.49-5.65,46.24,0.78,64.68,17.88
	c2.13,1.98,4.04,2.85,6.97,2.66c20.39-1.36,35.95,6.81,46.75,24.11c9.9,15.84,8.44,39.62-3.32,54.15c-1.12,1.39-2.25,2.77-3.56,4.39
	c8.52,3.6,13.35,9.63,13.6,18.65c0.18,6.66-1.03,13.17-3.8,19.3c-2.77,6.15-6.38,11.53-12.84,14.5c-0.96,0.44-1.66,2.08-1.94,3.3
	c-3.56,15.22-10.64,28.52-21.73,39.54c-3.76,3.74-8.06,6.95-12.27,10.21c-1.51,1.17-2.19,2.3-2.14,4.22
	c0.13,4.77,0.04,9.55,0.04,14.78c1.92,0,3.48,0.01,5.04,0c12.17-0.07,24.3,0.02,36.16,3.47c25.58,7.46,44.68,22.91,57.35,46.28
	c6.82,12.59,10,26.19,10.72,40.45c0.18,3.54-0.66,6.26-3.75,8.12C295.94,414,203.71,414,111.48,414z M310.8,214.7
	c-0.26-0.02-0.52-0.05-0.78-0.07c0-5.97,0.05-11.95-0.03-17.92c-0.02-1.46-0.07-3.13-0.76-4.34c-2.52-4.42-4.65-9.36-8.15-12.88
	c-6.96-7.01-14.75-13.19-22.16-19.75c-1.46-1.29-2.43-0.49-3.59,0.39c-7.12,5.44-14.37,10.71-21.38,16.28
	c-15.4,12.22-32.82,18.63-52.49,19.09c-7.3,0.17-11.51,4.38-11.59,11.68c-0.1,8.53-0.34,17.1,0.33,25.58
	c2.39,30.46,18.1,51.4,46.32,62.84c5.05,2.05,10.31,4.18,16.05,3.11c10.12-1.87,19.34-5.9,27.63-11.96
	c14.61-10.68,24.48-24.72,27.83-42.56C309.84,234.54,309.93,224.55,310.8,214.7z M316.84,182.2c10.71-11.66,12.43-29.03,4.55-43.77
	c-7.09-13.25-23.69-21.51-38.69-18.78c-4.74,0.86-7.92-0.22-11.28-3.72c-14.01-14.63-31.43-20.62-51.38-18.08
	c-34.39,4.38-57.76,37.76-50.65,71.69c2,9.52,6,18.05,12.42,25.81c5.18-8.1,12.65-10.77,21.68-10.97
	c16.23-0.35,30.51-6.24,43.25-16.2c8.57-6.7,17.3-13.21,25.99-19.76c3.58-2.7,5.32-2.7,8.92-0.12
	C294.96,157.85,307.6,168.11,316.84,182.2z M119.14,402.92c35.04,0,69.66,0,104.42,0c3.03-16.7,5.96-33.28,9.11-49.81
	c0.47-2.49-0.07-4.17-1.49-6.09c-4.74-6.41-9.29-12.97-13.96-19.43c-0.35-0.48-1.17-0.9-1.77-0.89c-7.68,0.05-15.43-0.46-23.02,0.43
	c-27.37,3.21-48.37,16.74-62.55,40.44C123.43,378.33,119.97,390.12,119.14,402.92z M276.35,402.93c34.95,0,69.49,0,104.11,0
	c0-1.2,0.12-2.25-0.02-3.27c-3.87-29.33-19.01-50.8-45.17-64.53c-16-8.4-33.33-8.95-50.82-8.44c-0.63,0.02-1.48,0.36-1.82,0.84
	c-2.69,3.81-5.23,7.73-7.92,11.54c-2.52,3.57-6.44,6.74-7.39,10.66c-0.95,3.9,1.01,8.51,1.69,12.81c0.02,0.11,0.02,0.21,0.04,0.32
	C271.47,376.16,273.89,389.46,276.35,402.93z M228.07,303.67c0,4.75,0.35,8.52-0.08,12.19c-0.75,6.37,1.13,11.54,5.45,16.21
	c3.09,3.34,4.96,8.57,8.64,10.39c3.7,1.83,8.97,0.62,13.54,0.42c1.34-0.06,3.05-0.87,3.89-1.91c3.81-4.73,7.37-9.65,11-14.51
	c0.44-0.59,1.09-1.25,1.1-1.88c0.08-6.65,0.05-13.29,0.05-20.81C257.02,311.57,242.77,311.4,228.07,303.67z M265.22,402.94
	c-3-16.46-5.96-32.74-8.91-48.91c-4.52,0-8.55,0-12.75,0c-2.96,16.32-5.9,32.52-8.87,48.91
	C245.04,402.94,255.02,402.94,265.22,402.94z M321.08,228.21c4.34-6.52,6.39-13.51,4.49-21.24c-0.56-2.29-1.87-4.12-4.49-4.62
	C321.08,211.1,321.08,219.66,321.08,228.21z M178.66,234.44c0-9.11,0-17.73,0-26.6c-3.08,1.74-4.75,3.65-4.99,6.32
	C173.02,221.34,174.66,227.99,178.66,234.44z"/>
</svg>
