<svg width="683" height="683" viewBox="0 0 683 683" fill="none" xmlns="http://www.w3.org/2000/svg">
<path d="M565.6 2.66668C561.6 6.40001 560.934 9.86668 561.6 24.6667C562 36.9334 562.267 37.7334 565.734 40.8C570.267 44.6667 573.2 44.8 577.867 41.2C581.334 38.5334 581.334 38.2667 581.334 22C581.334 5.73335 581.334 5.46668 577.867 2.80001C573.334 -0.666653 569.334 -0.799986 565.6 2.66668Z" fill="#EC1F28"/>
<path d="M494.133 32.4C487.867 38.6667 489.2 42.1334 502.533 55.0667C509.333 61.8667 515.467 66.6667 516.933 66.6667C521.867 66.6667 526.667 61.6 526.667 56.4C526.667 52.2667 525.333 50.2667 516.4 41.2C504.133 28.8 499.6 26.9334 494.133 32.4Z" fill="#EC1F28"/>
<path d="M629.2 39.4667C617.066 51.2 615.066 54.6667 617.333 60.1334C619.066 64.2667 625.2 67.3334 629.066 66.1334C630.4 65.6 636.533 60.1334 642.666 54C652.933 43.4667 653.6 42.4 652.8 38.4C651.733 32.9334 649.733 30.9334 644.266 29.8667C640.4 29.0667 639.2 29.7334 629.2 39.4667Z" fill="#EC1F28"/>
<path d="M553.733 58.5333C535.067 65.4667 522 80.6667 517.867 100.133C510.267 136.8 542.8 171.2 579.733 165.467C598 162.667 613.867 150.8 622.267 133.6C625.733 126.667 626 124.667 626 111.333C626 97.7334 625.733 96.1334 621.867 88C615.733 75.3333 608.267 67.6 596.4 61.7333C587.067 57.2 585.2 56.6667 573.467 56.4C563.467 56.1333 559.067 56.6667 553.733 58.5333ZM586 78.5333C599.333 84.5333 606.667 96 606.667 110.533C606.533 130.933 591.867 145.867 572 145.733C561.733 145.733 555.733 143.467 548.267 136.667C540.4 129.6 536.8 121.333 536.8 110.667C537.067 90.8 552 76 571.867 76C577.467 76 582.667 76.9333 586 78.5333Z" fill="#EC1F28"/>
<path d="M221.334 94.8C122 103.067 36.4002 173.867 9.33353 270.133C2.8002 293.333 0.666862 310 0.800195 336.667C0.933529 364.667 2.66686 376.933 6.8002 380.267C10.5335 383.333 17.6002 383.333 21.4669 380.133C24.1335 378 24.5335 376.667 24.2669 369.867C23.7335 358.8 27.0669 348.933 33.7335 341.733C42.0002 332.8 48.0002 330.133 60.0002 330C68.6669 330 70.9335 330.533 77.2002 334C85.8669 338.8 92.6669 347.333 95.4669 356.933C98.6669 367.733 106.134 371.333 112.667 364.8C115.467 362 115.867 360.4 115.734 351.867C115.6 340.4 118 333.467 124.4 326.933C142.4 308.133 174.534 312.4 183.867 334.933C188.667 346.4 189.734 348.133 193.6 350.133C201.867 354.4 206.667 350.4 206.667 338.933C206.667 328.933 208.4 322.933 213.734 315.2C218 308.933 224.667 302.933 226 304.133C227.067 305.2 246.534 424.533 245.734 425.6C245.467 426.267 191.2 426.667 125.334 426.667H5.46686L2.8002 430.133C-0.666471 434.667 -0.666471 437.333 2.8002 441.867L5.46686 445.333L127.734 445.6L250 446L254.934 476.533C257.734 493.333 259.734 507.467 259.334 507.733C258.934 508.133 257.6 507.467 256.4 506.4C251.734 502.4 227.067 488 216 482.8C191.467 471.333 170.534 466.667 143.2 466.667C122.267 466.667 105.467 469.333 86.6669 475.467C59.0669 484.667 33.4669 500.8 14.0002 521.6C1.86686 534.533 -1.06647 539.733 0.800195 545.067C2.4002 549.6 8.26686 552.533 12.6669 551.067C14.4002 550.533 19.3335 545.867 23.6002 540.667C43.4669 517.067 71.2002 499.867 104 491.067C119.734 486.933 150.134 485.333 166.4 488C196.934 492.933 223.334 506.4 274 543.467C325.734 581.333 346.134 592.8 375.334 600.8C390.4 604.933 414.667 606.4 430.8 604.133C452.4 600.933 486 591.067 490 586.667C493.067 583.2 493.067 576.8 490 573.333C486.8 569.733 481.334 569.867 469.2 574.133C430.667 587.333 399.867 588.667 370.667 578.4C349.6 570.933 333.2 561.467 301.334 538.4L283.2 525.333L276.934 487.067C273.467 465.867 270.667 447.867 270.667 446.933C270.667 445.733 312.267 445.333 474 445.333H677.2L680 442.4C683.467 438.667 683.467 433.333 680 429.6L677.2 426.667H472.667C346.667 426.667 267.867 426.133 267.334 425.467C266.667 424.133 246.667 304.933 246.667 301.6C246.667 297.333 258.8 301.733 266.8 308.933C272.4 314 276.267 320.4 277.867 327.333C279.6 334.4 282.267 337.333 287.2 337.333C289.734 337.333 293.067 336.133 294.8 334.8C297.6 332.533 298 331.333 297.6 323.867C296.667 300 310.667 285.333 334.534 285.333C344.667 285.333 354.4 289.2 360.267 295.467C364.134 299.733 369.2 309.867 369.334 313.733C369.334 317.2 375.334 322.667 379.067 322.667C380.8 322.667 383.867 321.467 385.867 319.867C389.067 317.333 389.334 316.4 389.334 306.667C389.334 297.867 389.867 295.2 393.067 289.2C401.6 272.667 425.067 265.467 442.534 274.133C450.8 278.267 456.4 285.333 459.334 295.067C461.867 303.733 464.667 306.667 470.134 306.667C475.2 306.667 480 301.6 480 296.133C480 291.467 474.267 268.4 470.267 256.667C439.2 166.4 357.734 103.2 261.334 94.6666C244.4 93.2 239.867 93.2 221.334 94.8ZM213.734 122.533C229.6 140.133 249.467 193.733 265.2 261.867C268.267 274.8 270.667 285.6 270.667 286C270.667 286.4 269.067 285.867 267.067 284.8C256.667 279.467 238.934 278.267 226.134 281.867C222.134 283.067 214.8 286.8 209.867 290.133C205.067 293.467 200.934 296 200.667 295.733C200.534 295.467 199.334 285.467 198.134 273.333C191.867 208.533 192.8 154.133 200.934 128.667C205.067 115.333 206.667 114.667 213.734 122.533ZM312.267 125.333C359.867 141.2 404.667 176.8 430.667 219.333C436.534 228.8 448.134 252.267 447.467 252.933C447.2 253.2 443.6 252.533 439.2 251.333C420.4 246.4 400.934 251.467 386.534 264.933C382 269.067 379.867 270.4 379.467 269.2C379.067 268.133 376.267 259.867 373.334 250.667C355.6 197.067 324.934 150.267 288.667 121.867L283.334 117.6L292 119.6C296.8 120.667 305.867 123.2 312.267 125.333ZM256.667 126C271.867 133.467 283.6 142.4 296.8 156.4C315.2 175.867 331.067 200.533 343.6 229.2C349.2 242 359.067 269.333 358.134 269.333C357.867 269.333 355.2 268.4 352.134 267.333C333.334 260.8 311.334 265.333 296.534 278.933C290.934 284.133 290.8 284.133 290.134 281.067C274.934 211.867 260.534 166 244 133.467L236.267 118.4L240.534 119.2C242.8 119.6 250.134 122.667 256.667 126ZM177.867 138.667C174.534 158 173.2 193.067 174.667 223.6C175.867 248.933 178.667 282.667 180.8 296.933L181.6 302.667L173.867 299.067C167.867 296.267 163.334 295.333 154.534 294.933C139.867 294.267 131.067 296.667 119.2 304.8L110.267 310.933L111.2 284.4C111.6 269.867 112.4 254.4 112.8 249.867C113.6 242.533 113.334 241.467 110.534 238.8C106.8 235.333 101.334 235.2 97.4669 238.267C93.2002 241.733 92.0002 251.067 91.0669 286.267C90.6669 303.333 90.1335 317.333 90.0002 317.333C89.8669 317.333 86.1335 315.733 81.8669 313.733C74.9335 310.4 72.4002 310 60.6669 310C48.4002 310 46.5335 310.4 38.4002 314.267C33.3335 316.667 27.2002 320.133 24.5335 322.133L19.8669 325.733L20.6669 318.533C27.3335 259.867 48.4002 215.067 87.4669 177.067C101.6 163.2 127.067 144 131.2 144C131.6 144 129.467 147.733 126.534 152.267C120.134 162.267 110.534 181.733 107.334 191.867C105.067 198.8 105.067 199.067 107.6 202.533C109.867 205.333 111.334 206 116.134 206C122.8 206 121.6 207.6 132.534 183.733C143.067 160.667 155.867 143.733 171.2 132.4C175.467 129.2 179.2 126.8 179.467 127.067C179.734 127.2 178.934 132.533 177.867 138.667Z" fill="#EC1F28"/>
<path d="M464 104C460.667 107.333 460.534 113.467 463.867 117.467C466.267 120.533 467.2 120.667 482.534 120.667C497.2 120.667 498.8 120.4 501.467 117.733C505.334 113.867 505.2 106.933 501.2 103.733C498.934 101.733 495.6 101.333 482.534 101.333C468.4 101.333 466.4 101.6 464 104Z" fill="#EC1F28"/>
<path d="M641.467 104.8C637.733 109.6 638 112.8 642.533 117.467C646.4 121.2 646.8 121.333 660 121.333C669.2 121.333 674.667 120.667 677.2 119.333C683.333 116.267 684.4 110.533 679.867 104.8C677.2 101.333 676.933 101.333 660.667 101.333C644.4 101.333 644.133 101.333 641.467 104.8Z" fill="#EC1F28"/>
<path d="M501.601 167.2C489.467 179.6 488.267 183.067 494.001 188.667C499.601 194.4 503.067 193.2 515.467 181.067C525.467 171.333 526.667 169.733 526.667 165.333C526.667 159.2 523.334 156 517.067 156C513.067 156 511.067 157.333 501.601 167.2Z" fill="#EC1F28"/>
<path d="M618.8 159.467C617.2 161.467 616 164.267 616 165.733C616 167.2 620.8 173.333 627.6 180.133C640.533 193.333 644 194.667 650 188.667C655.867 182.933 654.533 179.467 642.267 167.067C632.4 157.333 630.667 156 626.4 156C622.667 156 620.8 156.933 618.8 159.467Z" fill="#EC1F28"/>
<path d="M564.533 181.467C562.4 183.867 562 186.4 562 200.267C562 215.467 562.133 216.4 565.2 218.8C569.2 222.133 575.333 222 578.667 218.667C581.067 216.267 581.333 214.267 581.333 200.267C581.333 181.6 580.133 178.667 572.133 178.667C568.667 178.667 566.267 179.6 564.533 181.467Z" fill="#EC1F28"/>
<path d="M438.133 477.2C434.8 480.8 434.933 487.6 438.533 491.067L441.467 494H531.2C617.733 494 621.2 493.867 623.867 491.467C627.2 488.4 627.6 481.867 624.533 477.6L622.533 474.667H531.467C443.733 474.667 440.267 474.8 438.133 477.2Z" fill="#EC1F28"/>
<path d="M381.067 518.667C377.867 522 377.2 523.467 377.867 526.4C378.4 528.4 380 531.067 381.6 532.267C384 534.4 388.267 534.667 426.533 534.667H468.933L471.733 531.6C475.6 527.467 475.467 522 471.333 518L468.133 514.667H426.667H385.067L381.067 518.667Z" fill="#EC1F28"/>
<path d="M570.667 544.8C550.267 547.733 540.4 550.133 537.733 552.933C533.6 556.933 533.733 562.667 538 566.667L541.333 569.867L556.4 567.2C597.067 560.267 631.333 567.067 658.933 587.733C663.733 591.467 668.933 594.8 670.4 595.2C675.733 596.933 682.667 590.933 682.667 584.667C682.667 577.333 655.067 559.2 631.867 551.2C615.2 545.6 586.667 542.533 570.667 544.8Z" fill="#EC1F28"/>
<path d="M212 550.667C208 554.667 208.4 561.733 212.8 565.2C214.8 566.8 217.334 568 218.667 568C220 568 222.534 566.8 224.534 565.2C231.467 559.733 227.6 548 218.667 548C216.4 548 213.467 549.2 212 550.667Z" fill="#EC1F28"/>
<path d="M39.4669 570.133C31.6002 577.867 38.9335 590.133 49.2002 586.533C58.9335 583.067 56.2669 568 45.8669 568C43.4669 568 40.5335 568.933 39.4669 570.133Z" fill="#EC1F28"/>
<path d="M598.266 607.6C595.066 608.4 591.6 615.467 592.8 619.067C595.2 627.333 604.266 629.467 609.2 623.2C612.933 618.533 612.666 614 608.666 610C605.6 606.8 603.333 606.267 598.266 607.6Z" fill="#EC1F28"/>
<path d="M176.934 626.4C173.867 629.733 174 637.733 177.067 640.4C178.4 641.733 181.734 642.667 184.4 642.667C189.867 642.667 193.334 639.067 193.334 633.333C193.334 631.467 192.4 628.533 191.2 626.933C188.534 623.2 180.134 622.8 176.934 626.4Z" fill="#EC1F28"/>
<path d="M477.6 664.933C471.067 670.533 475.067 682.667 483.333 682.667C487.733 682.667 493.333 677.067 493.333 672.933C493.333 664.667 483.6 659.867 477.6 664.933Z" fill="#EC1F28"/>
</svg>
