<?xml version="1.0" encoding="utf-8"?>
<!-- Generator: Adobe Illustrator 27.9.0, SVG Export Plug-In . SVG Version: 6.00 Build 0)  -->
<svg version="1.1" id="Layer_1" xmlns="http://www.w3.org/2000/svg" xmlns:xlink="http://www.w3.org/1999/xlink" x="0px" y="0px"
	 viewBox="0 0 500 500" style="enable-background:new 0 0 500 500;" xml:space="preserve">
<style type="text/css">
	.st0{fill:#EC1F28;}
</style>
<g>
	<path class="st0" d="M500,37.11c-7.48,16.92-14,34.34-22.6,50.68c-29.14,55.36-70.68,99.42-123.83,132.45
		c-17.85,11.1-36.43,20.86-56.25,27.89c-8.33,2.95-13.55,9.11-20.33,15.63c2.18-0.29,3.33-0.32,4.41-0.61
		c30.36-8.35,61.26-11.78,92.7-10.31c38.98,1.83,76.08,11.26,111.43,27.72c4.01,1.87,6.61,4.87,6.52,9.44
		c-0.09,4.54-2.76,7.37-6.81,9.24c-26.56,12.34-54.3,20.71-83.28,24.98c-1.28,0.19-2.59,0.36-3.88,0.34
		c-5.3-0.07-9.23-3.41-9.85-8.28c-0.63-4.91,2.18-9.37,7.39-10.53c9.83-2.18,19.85-3.58,29.62-6c10.49-2.6,20.77-5.99,31.01-9.74
		c-64.26-23.74-128.41-23.71-193.68-0.46c1.91,0.88,2.93,1.44,4.01,1.83c17.31,6.34,35.1,10.75,53.34,13.38
		c1.45,0.21,2.89,0.48,4.31,0.82c5.93,1.45,9.25,6.03,8.24,11.31c-1.06,5.56-5.9,8.58-12.13,7.7
		c-27.02-3.84-53.16-10.86-78.09-22.03c-3.72-1.67-5.96-1.01-8.85,1.59c-11.98,10.77-24.2,21.27-36.33,31.88
		c-1.19,1.04-2.35,2.12-3.21,4.03c2.41-0.46,4.84-0.83,7.23-1.38c66.23-15.19,130.15-8.24,191.89,19.88
		c4.17,1.9,7.18,4.68,7.26,9.47c0.08,5.02-3.01,7.88-7.35,9.89c-45.16,20.94-92.64,29.99-142.27,27.19
		c-34.55-1.95-67.86-9.74-99.5-23.9c-4.89-2.19-8.01-1.67-12.06,1.57c-10.66,8.54-21.74,16.57-32.63,24.82
		c-1.24,0.94-2.4,1.98-4.52,3.74c9.33-1.51,17.42-3.05,25.57-4.1c40.64-5.21,80.51-1.66,119.4,11.37
		c10.3,3.45,20.26,7.91,30.36,11.96c4.27,1.71,7.04,4.67,7.01,9.55c-0.03,4.89-2.97,7.58-7.13,9.5
		c-44.54,20.54-91.19,28.81-140.09,24.3c-29.73-2.74-58.23-10.11-85.4-22.46c-3.56-1.62-6.11-1.39-9.3,0.82
		c-8.42,5.83-17.08,11.32-25.7,16.86c-6.08,3.91-11.81,3.13-14.96-1.88c-3.22-5.13-1.72-10.41,4.38-14.47
		c9.61-6.38,19.3-12.63,29.15-19.06c-2.7-7.46-5.51-14.7-7.95-22.05c-13.44-40.53-17.06-81.93-10.97-124.22
		c3.76-26.1,11.27-51.03,22.17-75c2.02-4.44,4.6-8.09,9.86-8.19c5.51-0.1,8.17,3.64,10.3,8.25c16.55,35.83,24.91,73.54,25.06,112.92
		c0.1,25.97-3.4,51.57-10.87,76.53c-0.59,1.98-1.08,3.99-1.96,7.3c11.06-8.02,21.1-15.16,30.99-22.49
		c9.28-6.88,18.34-14.05,27.66-20.88c2.65-1.94,2.79-3.58,1.55-6.46c-12.38-28.89-20.14-59.05-23.41-90.27
		c-3.49-33.23-1.8-66.28,5.11-99.02c5.05-23.96,12.83-46.99,23.08-69.21c1.99-4.3,4.65-7.44,9.8-7.41c5.15,0.03,7.75,3.21,9.73,7.51
		c23.3,50.35,33.05,103.23,29.01,158.51c-1.65,22.57-5.68,44.82-12.4,66.5c-0.48,1.55-0.78,3.15-1.12,4.73
		c-0.06,0.27,0.15,0.59,0.38,1.38c3.86-3.23,7.62-6.28,11.27-9.45c13.99-12.18,27.88-24.48,41.98-36.55
		c2.71-2.32,3.04-4.12,1.6-7.33c-12.03-26.9-19.62-55.05-23.03-84.32c-4.95-42.48-0.99-84.12,12.3-124.75
		c3.83-11.71,8.87-23.02,13.43-34.49c1.68-4.24,4.52-7.13,9.43-7.2c5.13-0.07,7.87,2.95,9.88,7.29
		c22.59,48.79,31.76,99.99,26.01,153.41c-2.03,18.8-7.1,37.28-10.81,55.9c-0.37,1.88-0.99,3.7-1.71,6.36
		c5.39-4.51,9.52-8.57,11.69-14.8c12.53-35.95,31.06-68.63,54.68-98.46c0.9-1.14,1.86-2.28,2.96-3.22c3.78-3.22,8.87-3.27,12.5-0.21
		c3.48,2.94,4.58,7.84,2.17,11.92c-2.06,3.48-4.58,6.71-7.05,9.94c-16.47,21.55-29.78,44.91-40.85,70.94
		c40.3-16.95,74.92-40.53,105.08-70.69c30.07-30.07,53.49-64.66,70.02-103.8c-0.34-0.44-0.68-0.89-1.02-1.33
		c-14.41,7.69-29.17,14.8-43.11,23.25c-12.07,7.31-23.12,16.28-34.83,24.22c-2.66,1.81-6.15,3.27-9.28,3.31
		c-3.95,0.05-6.77-2.87-7.93-6.84c-1.25-4.29,0.36-7.83,3.64-10.37c8.36-6.47,16.69-13.01,25.42-18.96
		c24.16-16.48,50.13-29.46,77.68-39.28c8.65-3.09,11.08-2.45,16.68,4.62C500,33.2,500,35.15,500,37.11z M145.65,129.37
		c-13.82,34.19-20.15,69.75-20.13,106.46c0.02,36.67,6.34,72.18,20.15,106.27C172.09,271.13,172.14,200.26,145.65,129.37z
		 M363.97,368.23c-64.07-23.52-128.02-23.59-191.89,0.04C236.07,391.76,300.05,391.78,363.97,368.23z M238.47,64.06
		c-12.17,30.97-17.87,63.03-17.85,96.13c0.02,33.14,5.63,65.24,17.87,96.11C261.91,192.16,261.9,128.11,238.47,64.06z M48.73,239.22
		C26.08,297.1,30.1,369.44,48.96,412.98C68.96,355.04,68.95,297.84,48.73,239.22z M248.18,440.07
		c-57.34-20.49-114.76-20.49-172.17,0C133.33,460.51,190.69,460.56,248.18,440.07z"/>
	<path class="st0" d="M361.12,105.47c5.18,0,9.69,4.43,9.74,9.55c0.05,5.39-4.9,10.2-10.36,10.09c-5.25-0.11-9.52-4.52-9.42-9.75
		C351.17,110.1,355.86,105.47,361.12,105.47z"/>
	<path class="st0" d="M353.41,317.14c0.19-5.22,4.68-9.44,9.9-9.33c5.43,0.12,9.93,4.83,9.69,10.13c-0.24,5.23-4.69,9.34-10,9.26
		C357.41,327.12,353.2,322.7,353.41,317.14z"/>
</g>
</svg>
