<?xml version="1.0" encoding="utf-8"?>
<!-- Generator: Adobe Illustrator 27.9.0, SVG Export Plug-In . SVG Version: 6.00 Build 0)  -->
<svg version="1.1" id="Layer_1" xmlns="http://www.w3.org/2000/svg" xmlns:xlink="http://www.w3.org/1999/xlink" x="0px" y="0px"
	 viewBox="0 0 500 500" style="enable-background:new 0 0 500 500;" xml:space="preserve">
<style type="text/css">
	.st0{fill:#EC1F28;}
</style>
<g>
	<path class="st0" d="M500,174.87c0,8.79,0,17.58,0,26.37c-2.76,5.13-7.98,3.8-12.86,4.4c0,2.34,0,4.42,0,6.5
		c0,91.14,0,182.28,0,273.42c0,8.43-1.49,9.92-9.91,9.93c-37.91,0.01-75.83,0-113.74,0c-113.42,0-226.85,0-340.27,0
		c-9.07,0-10.36-1.31-10.36-10.45c0-91.14,0-182.28,0-273.42c0-2.02,0-4.04,0-5.98c-9.92-0.78-9.92-0.78-12.86-4.4
		c0-8.79,0-17.58,0-26.37c2.42-7.52,3.86-15.57,7.47-22.47c8.42-16.06,23.08-23.44,40.23-28c59.61-15.83,110.34-45.86,149.39-94.56
		c27.22-33.95,73.69-33.62,101.31,0.01c4.54,5.53,9.08,11.09,13.96,16.31c27.8,29.76,61.22,51.31,98.93,66.14
		c13.08,5.15,26.63,9.71,40.39,12.4c19.11,3.75,33.64,12.83,42.2,30.27C496.91,161.12,498.02,168.21,500,174.87z M82.23,483.27
		c15.38,0,29.94,0,44.83,0c0-12.85,0-25.36,0-37.87c0-19.53-0.02-39.06,0.02-58.6c0.01-6.01,1.9-7.84,7.86-7.93
		c2.37-0.03,4.74-0.01,7.55-0.01c0-8.99-0.29-17.28,0.06-25.54c0.85-20.52,10.88-35.44,29.64-43.27
		c18.98-7.91,36.81-4.35,51.97,9.72c10.32,9.58,14.83,21.91,14.94,35.9c0.06,7.59,0.01,15.17,0.01,22.81c7.57,0,14.46,0,21.66,0
		c0-8.82-0.18-17.27,0.03-25.72c0.76-29.59,29.67-52.02,58.52-45.53c22.52,5.07,37.76,23.69,38.2,46.85
		c0.15,8.08,0.02,16.18,0.02,24.49c2.03,0.11,3.45,0.25,4.88,0.27c9.62,0.1,10.52,1,10.52,10.67c0,29.46,0,58.92,0,88.38
		c0,1.74,0,3.48,0,5.27c15.21,0,29.87,0,44.88,0c0-17.99-0.16-35.55,0.04-53.11c0.27-23.38,8.5-43.8,23.59-61.54
		c2.15-2.52,4.42-4.95,7.28-8.15c-5.33,0-9.68,0.12-14.01-0.02c-9.12-0.29-15.24-6.42-15.59-15.45
		c-0.34-8.86,5.55-15.54,14.55-16.48c1.69-0.18,3.38-0.24,5.72-0.41c-0.96-1.12-1.44-1.72-1.97-2.27
		c-19.27-19.7-28.79-43.29-28.48-70.89c0.15-13.51,0.03-27.02,0.03-40.53c0-2.72,0-5.44,0-8.36c-33.45,0-66.35,0-99.59,0
		c0,7.07,0.13,13.73-0.06,20.38c-0.09,2.94,0.65,4.58,3.51,5.99c7.28,3.6,10.63,11.34,9.41,20.24c-1.07,7.78-6.59,13.65-14.38,15.27
		c-10.04,2.09-18.75-2.46-22.03-11.53c-3.53-9.75,0.28-19.84,9.14-24.67c1.19-0.65,2.72-2.09,2.76-3.21
		c0.25-7.44,0.13-14.89,0.13-22.58c-14.22,0-27.97,0-42.09,0c0,4.19-0.21,8.1,0.12,11.96c0.1,1.21,1.4,2.71,2.55,3.37
		c8.12,4.63,11.97,13.34,9.7,22.42c-2.19,8.77-9,14.13-18.06,14.22c-9.08,0.09-16.29-5.28-18.45-13.73
		c-2.41-9.42,1.36-18.21,9.62-22.91c1.18-0.67,2.56-2.14,2.66-3.34c0.34-3.85,0.13-7.75,0.13-11.97c-14.11,0-27.85,0-41.5,0
		c-0.18,0.62-0.35,0.93-0.35,1.24c-0.03,6.35,0.13,12.7-0.14,19.04c-0.14,3.18,0.83,4.82,3.76,6.31c7.06,3.6,10.37,11.73,8.99,20.48
		c-1.21,7.63-6.62,13.3-14.2,14.9c-9.76,2.05-18.52-2.4-21.86-11.12c-3.7-9.66-0.04-20,8.69-24.87c1.14-0.63,2.79-1.78,2.82-2.72
		c0.23-7.73,0.13-15.46,0.13-23.19c-33.48,0-66.26,0-99.37,0c0,2.17,0,3.95,0,5.72c-0.02,15.95,0.19,31.91-0.1,47.85
		c-0.46,24.83-9.67,46.18-26.5,64.33c-1.16,1.25-2.3,2.53-3.87,4.26c1.66,0.12,2.59,0.21,3.52,0.25
		c10.51,0.38,16.97,6.63,16.8,16.25c-0.17,9.67-6.75,15.68-17.28,15.76c-3.81,0.03-7.63,0-11.69,0c0.36,0.96,0.41,1.29,0.59,1.5
		c0.53,0.62,1.1,1.2,1.67,1.78c15.16,15.71,25.14,34.2,27.08,56c1.4,15.67,0.76,31.53,0.98,47.31
		C82.29,472.32,82.23,477.66,82.23,483.27z M487.5,193.37c0-7.08,0.69-13.65-0.13-20.02c-2.21-16.99-11.76-28.79-27.86-34.39
		c-6.12-2.13-13.06-2.62-19.62-2.63c-127.42-0.14-254.83-0.15-382.25,0.02c-6.22,0.01-12.86,0.83-18.57,3.12
		c-22.25,8.93-29.96,29.08-26.44,53.89C170.88,193.37,329.16,193.37,487.5,193.37z M405.32,124.28c0.03-0.3,0.07-0.59,0.1-0.89
		c-1.43-0.68-2.85-1.41-4.31-2.04c-44.27-19.02-81.9-46.63-112.22-84.44c-22.67-28.26-60.51-27.62-83.28,0.91
		c-29.91,37.47-67.34,64.65-111.19,83.4c-1.67,0.71-3.3,1.54-4.95,2.31c0.1,0.25,0.2,0.5,0.3,0.75
		C194.96,124.28,300.14,124.28,405.32,124.28z M361.1,419.42c-74.34,0-148.22,0-222.03,0c0,21.5,0,42.58,0,63.68
		c74.18,0,148.06,0,222.03,0C361.1,461.72,361.1,440.76,361.1,419.42z M474.48,336.13c0-43.73,0-86.78,0-130.06
		c-17.93,0-35.57,0-53.49,0c-0.11,1.34-0.27,2.43-0.27,3.53c0,16.27-0.3,32.54,0.17,48.8c0.21,7.4,1.11,15.01,3.16,22.1
		C431.69,306.92,448.46,325.4,474.48,336.13z M25.55,205.81c0,43.86,0,86.86,0,130.06c0.81-0.21,1.28-0.27,1.7-0.46
		c32.41-14.56,49.8-39.7,51.81-75.04c0.83-14.6,0.2-29.28,0.23-43.92c0.01-3.37,0-6.74,0-10.37c-2.13-0.11-3.71-0.25-5.3-0.25
		C57.94,205.8,41.88,205.81,25.55,205.81z M474.53,357.27c-24.29,10.76-44.1,41.32-44.81,69.24c-0.46,18.03-0.17,36.09-0.19,54.13
		c0,0.9,0.32,1.8,0.46,2.55c15.04,0,29.75,0,44.54,0C474.53,441.16,474.53,399.46,474.53,357.27z M25.41,483.21
		c15.27,0,29.99,0,45.04,0c0-18,0.37-35.71-0.09-53.4c-0.73-28.2-13.29-50.43-35.6-67.33c-2.76-2.09-5.86-3.72-9.35-5.91
		C25.41,399.38,25.41,441.14,25.41,483.21z M273.19,378.37c24.06,0,48.18,0,72.62,0c0-8.45,0.15-16.57-0.03-24.67
		c-0.42-18.95-14.51-33.87-33.4-35.58c-18.55-1.68-36.07,10.8-38.92,29.33C271.93,357.41,273.19,367.8,273.19,378.37z
		 M227.27,378.44c0-9.05,0.45-17.52-0.09-25.92c-1.16-18.11-14.51-32.24-31.69-34.21c-18.09-2.07-35.31,8.03-39.37,25.32
		c-2.61,11.12-1.89,23.02-2.68,34.81C178.81,378.44,202.78,378.44,227.27,378.44z M138.93,406.9c74.26,0,148.13,0,222.03,0
		c0-5.52,0-10.66,0-15.91c-74.14,0-148.01,0-222.03,0C138.93,396.39,138.93,401.41,138.93,406.9z M33.03,347.01
		c0.9,0.51,1.83,1.48,2.77,1.5c9.92,0.11,19.84,0.21,29.75-0.1c1.24-0.04,3.48-2.63,3.34-3.81c-0.19-1.59-2.18-4.17-3.5-4.24
		C54.18,339.82,42.61,338.02,33.03,347.01z M468.17,347.09c-7.55-4.22-13.62-8.15-21.51-6.92c-3.34,0.52-6.83,0.43-10.22,0.2
		c-3.07-0.21-5.4,0.49-5.53,3.82c-0.14,3.59,2.38,4.53,5.55,4.51c8.45-0.05,16.9,0.06,25.35-0.08
		C463.56,348.59,465.29,347.81,468.17,347.09z M249.69,231.46c-4.36,0.07-7.19,3.06-7.04,7.44c0.14,4.3,3.33,7.35,7.51,7.2
		c4.19-0.15,7.13-3.37,7.03-7.67C257.09,234,254.27,231.38,249.69,231.46z M303.51,242.05c-4.41-0.01-7.35,2.88-7.32,7.18
		c0.03,4.2,3.26,7.47,7.34,7.44c4.18-0.03,7.23-3.18,7.24-7.47C310.78,244.71,308.09,242.06,303.51,242.05z M196.13,242.05
		c-4.48,0.06-7.13,2.85-7,7.38c0.12,4.31,3.29,7.4,7.43,7.24c4.12-0.16,7.23-3.5,7.12-7.66
		C203.57,244.72,200.61,241.99,196.13,242.05z"/>
</g>
</svg>
