<svg width="534" height="619" viewBox="0 0 534 619" fill="none" xmlns="http://www.w3.org/2000/svg">
<path d="M259.289 3.33338L255.956 6.53338V35.7334V64.9334L250.356 65.8667C239.822 67.6001 223.822 76.4001 214.222 86.0001C199.022 101.067 191.956 119.333 191.956 143.867V155.2L172.889 136.267C156.222 119.733 153.156 117.333 149.422 117.333C143.689 117.333 138.622 122.4 138.622 128.133C138.622 132 141.556 135.467 165.289 159.333L191.956 186.133V263.733V341.333H159.956H127.956V306.667V272.133L147.022 257.867C157.422 250.133 167.022 242.533 168.356 241.067C171.689 237.2 171.289 231.2 167.289 227.333C161.822 221.733 157.956 222.8 142.356 234.533L128.356 245.067L127.689 234C126.489 215.733 117.956 202.8 102.356 195.733L95.9556 192.8V174.4C95.9556 156.533 95.8223 155.733 92.6223 152.667C88.3556 148.267 82.2223 148.267 77.9556 152.667C74.7556 155.733 74.6223 156.533 74.6223 174.4V192.8L67.689 196C52.6223 202.8 44.089 216 42.889 234.267L42.2223 245.067L28.2223 234.533C12.6223 222.8 8.75563 221.733 3.28896 227.333C-0.711036 231.2 -1.11104 237.2 2.35563 241.067C3.55563 242.533 13.1556 250.133 23.5556 257.867L42.6223 272.133V301.333V330.667L28.3556 320C12.6223 308.133 8.75563 307.067 3.28896 312.667C-0.711036 316.533 -1.11104 322.533 2.35563 326.4C3.55563 327.867 13.1556 335.467 23.5556 343.2L42.6223 357.467V378.133C42.6223 398.267 42.7556 398.933 45.9556 402L49.1556 405.333H120.622H191.956V448V490.667H131.289H70.489L67.289 494L63.9556 497.2V554.667V612.133L67.289 615.333L70.489 618.667H266.622H462.756L465.956 615.333L469.289 612.133V554.667V497.2L465.956 494L462.756 490.667H401.956H341.289V466.4V442.133L367.956 415.333C391.689 391.467 394.622 388 394.622 384.133C394.622 378.4 389.556 373.333 383.822 373.333C380.089 373.333 377.022 375.733 360.356 392.267L341.289 411.2V389.333V367.467L367.956 340.667C391.689 316.8 394.622 313.333 394.622 309.467C394.622 303.733 389.556 298.667 383.822 298.667C380.089 298.667 377.022 301.067 360.356 317.6L341.289 336.533V312.267V288H412.622H484.089L487.289 284.667C490.489 281.6 490.622 280.933 490.622 260.8V240.133L509.689 225.867C520.089 218.133 529.689 210.533 531.022 209.067C534.356 205.2 533.956 199.2 529.956 195.333C524.489 189.733 520.622 190.8 504.889 202.667L490.622 213.333V184V154.8L509.689 140.533C520.089 132.8 529.689 125.2 531.022 123.733C534.356 119.867 533.956 113.867 529.956 110C524.489 104.4 520.622 105.467 505.022 117.2L491.022 127.733L490.356 116.667C489.156 98.4001 480.622 85.4667 465.022 78.4001L458.622 75.4667V57.0667C458.622 39.2001 458.489 38.4001 455.289 35.3334C451.022 30.9334 444.889 30.9334 440.622 35.3334C437.422 38.4001 437.289 39.2001 437.289 57.0667V75.4667L430.356 78.6667C415.289 85.4667 406.756 98.6667 405.556 116.933L404.889 127.733L390.889 117.2C375.289 105.467 371.422 104.4 365.956 110C361.956 113.867 361.556 119.867 365.022 123.733C366.222 125.2 375.822 132.8 386.356 140.533L405.289 154.8V189.333V224H373.289H341.289V178.267C341.289 151.6 340.756 129.2 339.822 124.533C337.556 111.467 329.289 96.1334 319.156 86.1334C309.689 76.5334 293.556 67.6001 283.022 65.8667L277.289 64.9334V35.7334V6.53338L273.956 3.33338C271.956 1.20005 269.156 4.91142e-05 266.622 4.91142e-05C264.089 4.91142e-05 261.289 1.20005 259.289 3.33338ZM288.489 90.4001C300.622 96.0001 308.356 103.733 314.356 115.733L319.289 125.867L319.689 308.267L319.956 490.667H266.622H213.289L213.556 308.267L213.956 126L218.222 117.067C223.556 105.733 231.156 97.4667 241.156 92.2667C251.556 86.6667 257.422 85.3334 269.556 85.8667C277.689 86.2667 281.822 87.3334 288.489 90.4001ZM460.089 100.4C469.556 106.667 469.289 103.867 469.289 189.6V266.667H405.289H341.289V256V245.333H380.622H420.089L423.289 242L426.622 238.8V175.733C426.622 118.4 426.889 112.267 429.022 108C432.489 100.933 438.889 97.3334 447.956 97.3334C453.689 97.3334 456.756 98.1334 460.089 100.4ZM97.4223 217.733C106.756 223.867 106.622 222.8 106.622 293.067V356.133L109.956 359.333L113.156 362.667H152.622H191.956V373.333V384H127.956H63.9556V306.933C63.9556 236.4 64.089 229.6 66.3556 225.333C69.8223 218.267 76.2223 214.667 85.289 214.667C91.0223 214.667 94.089 215.467 97.4223 217.733ZM447.956 554.667V597.333H266.622H85.289V554.667V512H266.622H447.956V554.667Z" fill="#EC1F28"/>
</svg>
