<?xml version="1.0" encoding="utf-8"?>
<!-- Generator: Adobe Illustrator 27.9.0, SVG Export Plug-In . SVG Version: 6.00 Build 0)  -->
<svg version="1.1" id="Layer_1" xmlns="http://www.w3.org/2000/svg" xmlns:xlink="http://www.w3.org/1999/xlink" x="0px" y="0px"
	 viewBox="0 0 500 500" style="enable-background:new 0 0 500 500;" xml:space="preserve">
<style type="text/css">
	.st0{fill:#EC1F28;}
</style>
<g>
	<path class="st0" d="M442.38,0c0.87,0.37,1.72,0.79,2.62,1.09c10.89,3.63,18.28,12.7,17.62,24.2c-0.75,12.95,2.51,24.47,7.87,36.04
		c8.8,19,16.78,38.39,24.94,57.69c1.1,2.61,1.77,5.61,1.78,8.44c0.04,8.77,0.77,17.74-0.76,26.28
		c-3.57,19.91-15.66,33.05-35.42,37.84c-19.37,4.7-35.52-1.58-48.28-16.77c-0.82-0.97-1.58-1.99-2.73-3.44
		c-9.93,13.92-23.15,21.72-40.04,21.69c-16.74-0.03-29.91-7.64-39.92-21.78c-9.98,13.99-23.19,21.8-40.08,21.78
		c-16.75-0.02-29.91-7.65-39.95-21.74c-9.95,13.9-23.14,21.76-40.04,21.74c-16.76-0.02-29.94-7.6-39.96-21.77
		c-9.94,13.91-23.13,21.77-40.03,21.77c-16.78,0-29.94-7.62-39.87-21.56c-0.96,1.09-1.8,1.99-2.58,2.95
		c-12.62,15.3-28.73,21.79-48.12,17.26c-19.75-4.61-32.55-17.51-35.7-37.5c-2.27-14.41-2.84-29.1,4.01-43.38
		c9.69-20.19,18.11-41,26.76-61.67c1.63-3.9,2.14-8.37,2.59-12.63c0.43-4.02-0.02-8.13,0.14-12.19C37.65,13.75,44.15,5,54.09,1.42
		c1.19-0.43,2.35-0.95,3.53-1.42C185.87,0,314.13,0,442.38,0z M448.17,36.98c0-2.71,0-4.82,0-6.92c0-12.64-2.77-15.37-15.55-15.37
		c-121.91,0-243.81,0-365.72,0c-1.79,0-3.59-0.09-5.37,0.08c-5.28,0.52-9.15,4.15-9.55,9.44c-0.32,4.16-0.06,8.36-0.06,12.78
		C184.12,36.98,315.87,36.98,448.17,36.98z M478.88,117.42c-9.36-21.67-18.33-42.53-27.45-63.33c-0.44-1.01-2.12-2.1-3.23-2.11
		c-16.9-0.13-33.8-0.09-51.36-0.09c1.36,5,2.62,9.48,3.79,13.98c1.3,4.99-0.67,8.89-4.98,10.03c-3.92,1.04-7.53-1.33-9.01-6.1
		c-1.44-4.65-2.88-9.32-4.01-14.06c-0.74-3.09-2.25-4.06-5.42-3.94c-7.15,0.26-14.32,0.08-21.48,0.08c-9.41,0-18.81,0-28.4,0
		c0,1.43-0.12,2.39,0.02,3.32c2.77,19.15,5.74,38.27,8.25,57.45c0.54,4.1,2.02,4.91,5.78,4.87c17.9-0.18,35.8-0.08,53.7-0.08
		c1.54,0,3.08,0,5.13,0c-1.37-4.85-2.64-8.87-3.63-12.96c-1.18-4.86,0.85-8.71,4.86-9.73c4.22-1.07,7.68,1.02,9.21,5.81
		c1.48,4.64,2.6,9.4,4.19,14c0.4,1.17,2,2.73,3.07,2.74C437.91,117.46,457.92,117.42,478.88,117.42z M118.52,52.07
		c-6.24,21.71-12.42,43.21-18.59,64.65c0.7,0.33,0.99,0.59,1.28,0.59c19.85,0.05,39.71,0.05,59.56,0.16
		c2.7,0.01,3.08-1.37,3.39-3.58c1.81-13.04,3.78-26.07,5.66-39.1c1.08-7.48,2.07-14.96,3.13-22.71
		C154.59,52.07,136.88,52.07,118.52,52.07z M187.84,52.17c-3.12,21.73-6.21,43.27-9.31,64.86c21.8,0,42.82,0,63.83,0
		c0-21.8,0-43.19,0-64.86C224.11,52.17,206.17,52.17,187.84,52.17z M321.51,117.14c-3.16-21.91-6.27-43.48-9.35-64.84
		c-18.59,0-36.51,0-54.54,0c0,21.8,0,43.17,0,64.84C278.93,117.14,299.95,117.14,321.51,117.14z M21.48,117.01
		c0.89,0.19,1.36,0.37,1.84,0.38c19.33,0.03,38.66-0.05,57.99,0.13c3.2,0.03,3.7-1.76,4.35-4.01c5.02-17.62,10.08-35.24,15.1-52.86
		c0.78-2.74,1.49-5.51,2.37-8.76c-16.87,0-33.09,0.13-49.31-0.1c-3.62-0.05-5.04,1.36-6.33,4.42
		c-7.97,18.82-16.13,37.55-24.21,56.32C22.65,113.96,22.1,115.44,21.48,117.01z M16.56,132.32c0.9,8.5,0.55,16.7,2.8,24.12
		c5.23,17.23,24.26,26.27,41.19,20.16c17.77-6.42,25.18-22.66,21.23-44.27C60.55,132.32,39.3,132.32,16.56,132.32z M482.35,132.47
		c-21.89,0-43.24,0-64.5,0c0,6.36-0.59,12.41,0.11,18.29c1.86,15.68,16.16,27.75,32.13,27.73c15.94-0.03,30.35-12.23,32.14-27.81
		C482.92,144.78,482.35,138.73,482.35,132.47z M97.46,132.39c0,5.31-0.22,10.32,0.04,15.31c1.08,21.07,21.81,35.62,41.91,29.21
		c18.86-6.02,26.06-22.62,22.53-44.52C140.6,132.39,119.24,132.39,97.46,132.39z M337.66,132.37c0,5.85-0.49,11.53,0.08,17.1
		c2.48,24.01,29.82,36.99,49.93,23.66c14.14-9.37,16.53-22.04,14.36-40.76C380.71,132.37,359.35,132.37,337.66,132.37z
		 M177.52,132.08c0,5.82-0.27,11.01,0.05,16.16c1,15.87,13,28.02,29.4,30.06c14.61,1.82,30.07-8.02,33.95-22.74
		c1.74-6.61,1.35-13.81,1.56-20.75c0.03-0.87-2.17-2.54-3.39-2.6c-6-0.27-12.02-0.13-18.03-0.13
		C206.79,132.08,192.52,132.08,177.52,132.08z M322.27,132.38c-21.55,0-42.9,0-64.72,0c0,5.55-0.36,10.88,0.07,16.15
		c1.04,12.55,7.57,21.67,18.91,26.88c11.2,5.15,22.23,4.01,32.33-3.08C322.98,162.45,323.66,147.9,322.27,132.38z"/>
	<path class="st0" d="M196.29,500c-8.06-4.56-9.79-8.81-7.39-18.16c3.26-12.76,14-21.77,27.26-22.89c0.94-0.08,1.88-0.23,3.09-0.39
		c0.34-7.6,0.25-15.08,1.08-22.46c1.65-14.53,4.53-28.95,5.58-43.5c1.4-19.57,1.55-39.22,2.26-59.46c-2.81,0-4.55,0-6.28,0
		c-13.18,0-26.36,0.05-39.54-0.04c-4.97-0.03-8.08-2.97-8.11-7.22c-0.02-4.19,3.17-7.16,8.05-7.37c2.27-0.1,4.56-0.02,6.83-0.02
		c60.53,0,121.06,0,181.59,0c1.92,0,3.83,0,6.01,0c0-6.88,0-13.31,0-20.1c-84.4,0-168.74,0-253.39,0c0,6.53,0,12.95,0,20.1
		c7.38,0,14.81-0.32,22.19,0.17c2.73,0.18,6.17,1.6,7.81,3.64c3.33,4.13,0.07,10.46-5.42,10.66c-8.93,0.33-17.91,0.39-26.83-0.07
		c-6.73-0.35-12.35-6.57-12.6-13.43c-0.27-7.31-0.24-14.65-0.02-21.96c0.21-6.92,5.33-12.47,12.35-13.73
		c2.06-0.37,4.21-0.37,6.31-0.37c81.84-0.02,163.69-0.02,245.53-0.01c13.71,0,18.98,5.21,18.99,18.75c0,5.04,0.04,10.09-0.01,15.13
		c-0.1,9.73-6.08,15.81-15.87,15.84c-32.38,0.07-64.76,0.03-97.14,0.03c-1.78,0-3.55,0-5.55,0c-0.22,0.94-0.54,1.68-0.55,2.42
		c-0.36,27.5,0,54.91,4.85,82.17c2.16,12.1,2.13,24.58,3.1,36.89c0.1,1.26,0.21,2.52,0.32,3.8c3.11,0.53,6.03,0.76,8.8,1.55
		c11.45,3.29,18.65,10.9,21.61,22.34c2.36,9.12,0.49,13.17-7.48,17.69C267.9,500,232.1,500,196.29,500z M266.24,458.66
		c-0.65-10.43-0.36-20.47-2.06-30.15c-5.25-29.93-7.25-60.01-6.37-90.33c0.05-1.56-0.15-3.13-0.23-4.63c-5.35,0-10.28,0-15.4,0
		c0,3.33,0.08,6.26-0.01,9.18c-0.62,18.35-0.78,36.74-2.09,55.04c-0.94,13.1-3.75,26.05-5.08,39.14
		c-0.73,7.15-0.13,14.43-0.13,21.76C245.04,458.66,255.07,458.66,266.24,458.66z M296.17,485.04c-1.61-6.71-6.56-10.94-13.18-11.41
		c-2.92-0.21-5.85-0.12-8.78-0.12c-18.55,0-37.09-0.07-55.64,0.05c-7.96,0.05-13.73,4.76-14.5,11.47
		C234.66,485.04,265.22,485.04,296.17,485.04z"/>
	<path class="st0" d="M332.03,500c-7.48-3.92-10.08-9.73-9.08-18.36c2.99-25.83,5.3-51.73,7.85-77.61c0.27-2.74,0.4-5.49,0.59-8.09
		c-11.63-6.47-14.03-13.06-9.52-25.55c4.79-13.26,16.82-21.66,31.61-21.7c32.85-0.09,65.7-0.03,98.55-0.03c1.75,0,3.5,0,5.61,0
		c-1.01-14.13-1.96-27.72-2.97-41.29c-1.44-19.45-3.07-38.89-4.35-58.36c-0.91-13.84,7.43-25.09,19.79-27.34
		c13.46-2.46,24.46,4.48,29.1,18.35c0.15,0.43,0.52,0.79,0.78,1.19c0,48.18,0,96.35,0,144.53c-2.48,6.01-6.79,9.71-13.46,9.98
		c0.06,1.24,0.07,1.88,0.13,2.52c2.78,27.64,5.61,55.27,8.31,82.92c1.09,11.18-0.54,14.1-9.63,18.85c-4.23,0-8.46,0-12.7,0
		c-6.18-2.36-9.32-6.91-10.59-13.37c-3.84-19.45-7.95-38.85-12-58.26c-2.27-10.91-4.63-21.8-6.94-32.67c-22.97,0-45.4,0-67.96,0
		c-0.38,1.18-0.82,2.23-1.04,3.32c-5.94,28.48-11.97,56.93-17.7,85.46c-1.39,6.93-3.77,12.68-10.72,15.53
		C341.15,500,336.59,500,332.03,500z M485.35,379.84c0-1.92,0-2.72,0-3.53c0-42.77,0-85.54,0-128.32c0-0.98,0.03-1.96-0.09-2.92
		c-0.66-5.39-4.98-9.28-10.23-9.24c-5.49,0.04-9.85,4.2-10.12,9.83c-0.1,2.1,0.13,4.22,0.29,6.33c1.18,16.05,2.37,32.1,3.59,48.15
		c1.56,20.59,3.05,41.18,4.76,61.75C474.16,369.46,478.1,375.15,485.35,379.84z M458.02,363.32c-15.36,0-31.11,0-46.86,0
		c-19.35,0-38.7-0.09-58.05,0.04c-10.45,0.07-18.01,7.37-18.07,17.25c43.14,0,86.27,0,129.32,0
		C462.29,374.99,460.3,369.56,458.02,363.32z M346.29,395.75c-2.94,29.69-5.88,59.35-8.82,89.01c0.56,0.29,1.12,0.59,1.68,0.88
		c0.9-1.28,2.33-2.45,2.63-3.85c3.7-17.13,7.24-34.3,10.83-51.46c2.39-11.42,4.78-22.84,7.24-34.58
		C355.18,395.75,351,395.75,346.29,395.75z M480.6,484.8c-2.97-29.82-5.91-59.36-8.86-89.01c-4.68,0-8.97,0-13.54,0
		c1.92,9.21,3.79,18.09,5.63,26.98c4.03,19.38,8.03,38.78,12.14,58.14C476.4,482.9,475.96,486.38,480.6,484.8z"/>
	<path class="st0" d="M0,241.21c0.56-1.32,1.15-2.62,1.66-3.96c4.46-11.53,15.88-17.84,28.23-15.58
		c11.32,2.07,20.3,12.52,19.8,24.41c-0.68,15.91-2.17,31.78-3.33,47.67c-1.32,18.12-2.65,36.24-4.01,54.91c2.15,0,3.89,0,5.64,0
		c32.85,0,65.7-0.06,98.54,0.03c14.8,0.04,26.79,8.44,31.58,21.74c4.51,12.53,2.08,19.15-9.63,25.52
		c1.58,16.17,3.16,32.49,4.77,48.81c1.34,13.59,2.78,27.16,4.07,40.75c0.69,7.21-3.79,11.23-9.36,14.48c-4.56,0-9.11,0-13.67,0
		c-6.21-2.66-9.13-7.48-10.42-14.06c-4.13-21.02-8.65-41.96-13.03-62.93c-1.91-9.15-3.86-18.28-5.75-27.21c-23.19,0-45.71,0-68.35,0
		c-6.28,30.13-12.61,59.97-18.64,89.88c-1.36,6.73-4.14,11.82-10.76,14.32c-4.23,0-8.46,0-12.7,0c-7.86-3.21-10.82-8.95-9.84-17.39
		c1.72-14.69,2.99-29.43,4.45-44.15c1.41-14.2,2.81-28.39,4.24-42.85c-7.06-0.77-11-4.95-13.5-10.84C0,336.91,0,289.06,0,241.21z
		 M164.94,380.65c0.02-10.15-7.79-17.3-18.98-17.31c-34.96-0.05-69.93-0.02-104.89-0.02c-3.09,0-6.19-0.12-9.27,0.07
		c-9.67,0.63-17.15,8.48-16.52,17.26C65.17,380.65,115.05,380.65,164.94,380.65z M14.65,353.69c2.99-1.25,5.27-2.73,7.72-3.1
		c4.77-0.71,5.56-3.6,5.83-7.73c1.11-17.36,2.5-34.7,3.77-52.04c1.06-14.43,2.21-28.85,3.1-43.29c0.42-6.74-3.67-11.36-9.71-11.65
		c-6.16-0.29-10.55,4.28-10.7,11.24c-0.07,3.58-0.02,7.16-0.02,10.73C14.65,289.56,14.65,321.26,14.65,353.69z M19.4,484.73
		c0.65,0.36,1.31,0.72,1.96,1.07c0.88-1.57,2.21-3.04,2.57-4.72c5.77-27.14,11.41-54.31,17.06-81.48c0.26-1.27,0.3-2.6,0.43-3.78
		c-4.69,0-8.84,0-13.19,0C25.26,425.65,22.33,455.19,19.4,484.73z M161.06,485.75c0.48-0.37,0.96-0.74,1.44-1.11
		c-2.94-29.64-5.89-59.28-8.82-88.81c-4.82,0-8.95,0-13.06,0c-0.05,0.64-0.16,0.98-0.1,1.28c5.91,28.61,11.81,57.22,17.85,85.8
		C158.61,484,160.14,484.81,161.06,485.75z"/>
</g>
</svg>
