<svg width="683" height="683" viewBox="0 0 683 683" fill="none" xmlns="http://www.w3.org/2000/svg">
<g clip-path="url(#clip0_67_39)">
<path d="M313.2 1.73335C299.733 5.60002 286.8 16.6667 281.733 28.6667L279.333 34.5334H272.267C263.6 34.5334 257.067 36.5334 249.6 41.7334C243.067 46.1334 236.4 55.6 235.2 62.2667C234.533 66 233.333 67.2 227.867 69.4667C202.133 80.6667 203.733 117.867 230.267 127.467C238.133 130.267 306.667 130 315.067 127.2C326.267 123.333 336 110.133 336 98.5334C336 95.6 336.8 94.6667 340 94C346.933 92.5334 359.333 83.0667 364.4 75.6C374.533 60.8 376 44.5334 368.667 28.2667C359.467 7.86668 334.267 -4.26665 313.2 1.73335ZM333.467 21.4667C344.8 24.9334 353.333 36.2667 353.333 48C353.333 59.7334 344.667 71.4667 333.467 74.8C328.8 76.1334 327.867 76 324.267 73.4667C322 71.8667 318.267 69.8667 316 68.8C312.667 67.4667 311.067 65.3334 308.667 59.3334C306.933 55.0667 303.867 50 301.867 47.8667C296.933 42.6667 298.133 36.4 305.733 28.8C313.867 20.8 322.933 18.4 333.467 21.4667ZM285.467 59.4667C289.6 63.4667 292 69.8667 292 76.9334C292 83.0667 296 86.6667 302.8 86.6667C306.933 86.6667 309.067 87.4667 312.133 90.5334C317.2 95.6 317.2 100.4 312.133 105.467L308.267 109.333H273.333C231.467 109.333 229.333 108.8 229.333 97.2C229.333 91.2 234.533 86.6667 241.467 86.6667C249.467 86.6667 253.333 82.8 253.333 74.9334C253.333 68.2667 257.2 60.2667 261.733 57.3334C269.333 52.6667 279.333 53.6 285.467 59.4667Z" fill="#EC1F28"/>
<path d="M579.333 17.6001C568.267 21.4667 557.2 32.9334 554.4 43.2001C553.067 48.0001 552.133 49.2001 547.067 51.2001C539.733 54.2667 531.467 63.6001 529.333 71.3334C525.733 84.4001 531.467 98.6667 543.2 106C549.333 109.733 550.8 110 564.267 110.4C579.867 110.933 584.267 109.6 586 104C587.333 100 584.4 94.0001 580.533 92.1334C578.667 91.3334 572.267 90.6667 566.267 90.6667C554.933 90.5334 552.267 89.6001 549.6 84.4001C547.2 80.0001 547.6 76.5334 551.067 72.5334C553.467 69.7334 555.733 68.8001 561.067 68.2667C569.6 67.4667 572 64.9334 572.667 56.2667C573.6 43.6001 580.667 36.0001 591.333 36.0001C602.133 36.0001 610.667 44.9334 610.667 56.2667C610.667 64.2667 613.867 68.0001 620.8 68.0001C629.333 68.0001 634.533 72.4001 634.667 79.7334C634.667 85.2001 629.6 90.6667 624.667 90.6667C622.533 90.6667 619.467 92.2667 617.067 94.6667C613.867 98.0001 613.2 99.4667 613.867 102.4C616.533 113.2 631.733 113.467 644 103.067C661.067 88.4001 657.333 61.2001 636.667 51.3334C632.133 49.2001 629.333 47.0667 629.333 45.7334C629.333 41.6001 624 32.4001 618.4 26.8001C608.933 17.4667 591.467 13.3334 579.333 17.6001Z" fill="#EC1F28"/>
<path d="M125.2 113.867C112.533 117.2 100.667 126.933 95.1999 138.533C93.8665 141.2 79.1999 193.067 62.3999 253.867C45.5999 314.667 31.5999 364.933 31.1999 365.6C30.7999 366.133 24.7999 366.667 17.8665 366.667C7.06654 366.667 4.93321 367.067 2.66654 369.333C-0.66679 372.667 -0.800123 378.8 2.53321 382.8L5.06654 386L214.533 386.4L424 386.667L420.667 393.333C418.8 396.933 415.733 405.067 413.733 411.6C410.4 422.4 410.133 425.2 410.133 446C410.133 466.8 410.4 469.6 413.733 480.4C422.8 509.6 443.067 537.067 466.133 551.067C470.133 553.467 473.067 555.733 472.933 556.133C472.8 556.533 468.8 565.333 464 575.733L455.467 594.667H445.733C436.267 594.667 436 594.533 435.333 590.933C429.867 562.4 421.2 535.867 413.467 523.733C402.267 506.133 385.733 505.067 374 521.067C360.267 539.733 345.2 599.6 349.333 619.2C352.267 633.467 365.067 648.4 377.733 652.267L382.667 653.733V664.933C382.667 675.067 382.933 676.4 386 679.333C390 683.333 394.533 683.6 399.2 679.867C402.533 677.333 402.667 676.533 402.667 665.6V654L409.6 651.467C422.133 647.067 433.2 633.467 436.533 618.4L437.333 614.667L537.467 614.4L637.6 614L640.133 610.8C643.467 606.8 643.333 600.667 640 597.333C637.733 595.067 635.6 594.667 625.2 594.667H613.2L605.2 578C594.267 554.667 594.4 556.133 603.6 550C625.733 535.333 644.667 510 653.067 484C658 468.8 659.067 459.733 658.267 440.4C657.6 420.533 655.333 410.533 648.133 395.2L644.267 386.933L660.933 386.4C676.533 386 677.733 385.867 680.133 382.8C683.467 378.8 683.333 372.667 680 369.333C677.6 366.933 675.6 366.667 662.667 366.667H648V356.267V346L654.533 343.6C663.467 340.533 673.733 330.933 678.267 321.6C681.6 314.8 682 312.667 681.867 300.667C681.733 286.267 678.533 268.8 671.733 246.133C666.4 228.133 661.333 217.333 654.667 210.133C641.2 195.6 625.333 199.867 614.4 220.933C602.133 244.667 591.067 294.533 594.533 310.667C597.733 325.733 608.667 339.067 621.6 343.6L628 346V354.4V362.933L619.067 354.667C607.2 343.6 592.8 334.267 579.6 329.2L568.667 325.067L552.8 235.6C543.067 180.267 536 143.6 534.4 139.6C528.667 126.267 513.733 117.733 498.133 118.933C481.6 120.267 472 128.4 464.667 147.467C462 154.4 459.067 160 458 160C457.067 160 453.733 159.067 450.667 158C442.667 155.2 435.067 155.6 427.333 159.2C416.133 164.4 414 167.867 401.867 199.467C392.667 223.467 390.667 229.867 390.667 236C390.8 249.067 398.133 259.6 411.067 265.333L417.333 268.133L415.2 272.267C411.467 279.467 401.333 289.2 393.467 292.933C382.933 298 367.733 298.667 355.067 294.8C344.267 291.6 334.267 284.4 328.533 275.867C326.267 272.4 317.6 251.467 309.333 229.2C301.067 206.933 293.2 186.533 291.867 183.867C288.4 176.8 277.067 167.2 269.067 164.533C258.667 161.067 245.867 161.6 236.267 166C225.867 170.667 220.533 176.4 214 189.733C208.4 201.067 205.067 203.733 201.467 199.467C200.533 198.267 196.533 185.067 192.533 169.867C188.533 154.8 184.267 140.533 183.067 138.133C172.8 118 148.133 107.6 125.2 113.867ZM151.733 134.133L156 135.867V251.2V366.667H138.667H121.333V252.133C121.333 123.733 120.267 135.6 131.733 132.533C138.4 130.8 144.667 131.2 151.733 134.133ZM516.667 148.133C517.467 150.667 547.867 320.533 547.467 320.8C547.467 320.933 538.8 321.333 528.4 321.6L509.333 322.267V230.933V139.6L512.667 142.667C514.4 144.4 516.267 146.8 516.667 148.133ZM489.333 236.267V328.667L478.133 334.4C472 337.6 464.133 342.133 460.8 344.667C457.6 347.2 454.533 349.333 454.133 349.333C453.733 349.333 453.333 322.8 453.333 290.267V231.2L461.867 209.333C466.533 197.2 472.533 181.067 475.333 173.333C480.133 159.733 487.333 144 488.667 144C489.067 144 489.333 185.6 489.333 236.267ZM446.533 177.467C448.8 178.267 450.667 179.6 450.667 180.4C450.667 181.867 425.6 248 424.667 249.067C424 249.733 415.733 245.333 413.067 242.933C411.6 241.733 410.667 239.067 410.667 236.533C410.667 232.667 426.4 189.333 430.667 181.333C433.333 176.533 439.333 174.933 446.533 177.467ZM262.533 182.8L266.667 184.267V275.467V366.667H249.333H232V335.333C232 305.733 231.867 303.867 229.333 301.333C227.733 299.733 224.933 298.667 222 298.667C219.067 298.667 216.267 299.733 214.667 301.333C212.133 303.867 212 305.733 212 335.333V366.8L194.4 366.4L176.667 366L176.4 278C176.267 229.067 176.667 191.2 177.333 192.667C177.867 194.133 179.733 198.667 181.333 202.8C186 215.2 194.267 221.333 206.133 221.333H212V243.2V265.2L215.467 267.867C220.133 271.6 224.667 271.333 228.667 267.333L232 264.133V230.4C232 196.8 232 196.533 235.2 191.867C241.067 183.2 252.667 179.467 262.533 182.8ZM100.667 364.933C100.267 366.267 93.9999 366.667 75.9999 366.667C53.5999 366.667 51.8665 366.533 52.5332 364.267C52.9332 363.067 63.1999 326.267 75.1999 282.667C87.1999 239.067 97.8665 200.667 98.7999 197.333C100.4 192.133 100.667 202.667 101.067 277.333C101.2 324.667 101.067 364.133 100.667 364.933ZM643.333 228.133C649.733 238.267 660 275.467 662.133 296.267C662.8 303.333 662.533 306.667 660.8 311.333C658.667 316.8 652.133 324 649.2 324C648.533 324 648 316.667 648 307.333C648 291.067 647.867 290.4 644.533 287.067C641.867 284.4 640.4 283.867 636.933 284.533C629.2 286 628 288.933 628 307.467C628 318.933 627.467 324 626.533 324C623.6 324 616 314.533 614.533 309.067C612.8 302.267 614.667 287.733 620.133 265.333C626.4 239.6 633.467 222.667 638 222.667C639.067 222.667 641.467 225.067 643.333 228.133ZM297.333 254C306.533 279.067 310 285.867 317.6 294L322.667 299.6V333.2V366.8L305.067 366.4L287.333 366L286.933 297.333C286.8 259.6 287.2 229.333 287.733 230C288.4 230.8 292.667 241.467 297.333 254ZM433.333 324V366.667H416H398.667V339.6V312.4L404.267 309.867C411.2 306.8 426.533 292.533 430 286.133C431.467 283.467 432.8 281.333 432.933 281.333C433.2 281.333 433.333 300.533 433.333 324ZM354 316C359.733 317.467 367.6 318.667 371.6 318.667H378.667L378.4 342.267L378 366L360.4 366.4L342.667 366.8V340C342.667 325.333 342.933 313.333 343.067 313.333C343.333 313.333 348.267 314.533 354 316ZM553.6 343.2C567.067 345.867 577.733 349.867 588.133 356C602 364.267 602 364 591.2 374.8L581.867 384.133L571.867 378.8C559.067 371.867 548.933 369.333 534.267 369.333C519.467 369.333 508.933 372 496.133 378.8L486.133 384.133L476.8 374.667L467.333 365.2L471.333 361.867C480.667 354.267 498.8 346.267 513.2 343.333C525.067 340.933 541.733 340.933 553.6 343.2ZM467.2 407.2C461.333 418 458.8 425.333 457.2 436.533C455.6 447.867 457.6 464.667 460.933 468.267C464.267 472 472.933 471.067 476.267 466.533C478.533 463.6 478.667 462.267 477.467 454.533C475.733 443.867 477.467 431.733 482.133 421.733C484 417.867 486 414.667 486.4 414.667C486.933 414.667 491.467 418.8 496.4 423.733L505.467 432.933L503.867 439.2C502.667 444.133 502.667 447.2 504 452.933L505.6 460.4L479.867 486.133C465.6 500.4 453.467 511.867 452.8 511.6C450 510.667 441.2 496.133 437.2 486.133C427.867 462.133 426.8 437.467 434.267 414C436.933 405.333 444.4 390.4 448.933 384.4L452.4 379.867L462.133 389.467L471.733 399.067L467.2 407.2ZM621.6 388.133C644.533 421.467 644.267 470.8 621.067 504.933L615.333 513.333L605.467 503.467L595.6 493.6L599.733 487.067C606.933 475.867 610.933 461.467 610.8 446.8C610.8 431.2 608.4 421.333 601.2 408.133L595.867 398.267L604.933 389.067C609.867 384.133 614.533 380.133 615.333 380.4C616 380.667 618.933 384.133 621.6 388.133ZM551.333 391.467C555.067 392.4 560 394.533 562.533 396.133L567.067 398.933L557.733 408.267L548.4 417.6L541.067 416C535.2 414.667 532.267 414.667 526.667 416L519.733 417.6L510.533 408.533C505.6 403.6 501.867 398.933 502.267 398.267C503.733 395.867 517.733 390.533 525.2 389.467C533.867 388.267 542 388.8 551.333 391.467ZM588.133 426.4C593.867 441.067 591.2 465.733 582.933 476C580.667 478.8 580.533 478.667 571.733 469.733L562.667 460.667L564.267 453.067C565.6 446.933 565.467 444 564.133 438.533L562.4 431.733L571.467 422.533C580.533 413.333 580.667 413.2 582.933 416C584.133 417.467 586.533 422.267 588.133 426.4ZM541.467 438.533C543.733 440.933 545.333 443.867 545.333 446C545.333 448.133 543.733 451.067 541.467 453.467C539.067 455.733 536.133 457.333 534 457.333C529.333 457.333 522.667 450.667 522.667 446C522.667 441.333 529.333 434.667 534 434.667C536.133 434.667 539.067 436.267 541.467 438.533ZM531.333 476.8C534.4 477.333 539.2 476.933 542 476.133L547.333 474.667L556.267 483.6C561.333 488.533 565.333 493.067 565.333 493.733C565.333 495.733 551.467 501.2 542.533 502.667C530 504.8 514.267 501.733 504.133 495.067L501.067 493.067L510.133 483.733C517.867 476 519.867 474.667 522.667 475.333C524.533 475.733 528.4 476.4 531.333 476.8ZM496.267 513.2C510.133 520.667 519.2 522.933 534.533 522.933C549.333 522.8 562.933 519.2 574.267 512L580.667 508.133L590.4 517.733L600.133 527.333L595.733 531.067C589.333 536.667 571.333 544.933 559.333 548C545.067 551.6 522.933 551.6 508.533 548C496.533 544.933 478.8 536.533 472 530.8L467.333 526.8L476.667 517.467C481.733 512.267 486 508 486.133 508C486.4 508 490.8 510.4 496.267 513.2ZM397.733 536.267C404.933 548.667 414.667 583.467 416.8 604.267C417.467 611.333 417.2 614.667 415.467 619.333C413.333 624.8 406.8 632 403.867 632C403.2 632 402.667 624.667 402.667 615.333C402.667 599.333 402.533 598.4 399.333 595.333C397.6 593.467 394.533 592 392.667 592C390.8 592 387.733 593.467 386 595.333C382.8 598.4 382.667 599.333 382.667 615.333C382.667 625.2 382.133 632 381.333 632C378.4 632 371.067 622.667 369.467 617.067C367.467 610.133 368.8 598.667 374 576.533C379.467 553.2 388.667 530.667 392.667 530.667C393.6 530.667 395.867 533.2 397.733 536.267ZM504.667 567.733C510.8 569.467 517.867 570 534.667 570C553.467 570 558.133 569.6 566.533 567.067C572 565.333 576.667 564.267 576.8 564.4C577.333 564.933 588 588 589.467 591.6L590.667 594.667H534.667C494.4 594.667 478.667 594.267 478.667 593.2C478.667 592.4 481.467 585.467 484.933 577.733C490.4 565.733 491.6 564 494 564.667C495.467 565.067 500.267 566.4 504.667 567.733Z" fill="#EC1F28"/>
<path d="M290 409.067C280.533 414.933 274.8 424 267.6 444.933C259.733 467.333 255.6 487.867 255.467 504.667C255.333 518.133 255.6 520 259.067 526.933C263.6 536.267 274 545.867 282.8 548.933L289.333 551.333V562.8C289.333 572 289.733 574.667 291.733 576.267C297.2 581.2 305.067 580 307.867 573.733C308.667 572 309.333 566.133 309.333 560.8V551.2L316.4 548.267C327.2 543.733 336.8 533.6 340.8 522.533C348 502.267 332.667 435.867 315.867 415.6C308.8 407.067 297.867 404.267 290 409.067ZM306.667 439.333C314.533 456.4 322.667 490.133 322.8 506.133C322.933 515.6 320.8 520.667 314.4 526L310 529.733L309.333 512.133C308.667 495.6 308.533 494.267 305.467 491.867C301.467 488.533 295.333 488.667 292 492C289.6 494.4 289.333 496.4 289.333 512C289.333 521.467 288.933 529.333 288.533 529.333C286.133 529.333 279.6 523.067 277.333 518.667C273.867 512 274 503.867 277.333 486C282.267 460.8 290.8 435.733 296.933 428.933C299.2 426.533 299.333 426.533 301.067 428.933C302.133 430.267 304.667 434.933 306.667 439.333Z" fill="#EC1F28"/>
<path d="M76.6665 463.333C50.2665 481.333 27.3332 497.6 25.7332 499.467C22.7999 502.667 22.6665 503.733 22.6665 529.2C22.6665 553.733 22.7999 555.867 25.3332 559.067C27.7332 562.133 29.1999 562.533 37.0665 562.933L45.9999 563.333L46.2665 580.667C46.6665 601.733 47.0665 603.067 51.3332 605.067C56.5332 607.467 59.7332 607.067 63.3332 603.333C66.5332 600.267 66.6665 599.467 66.6665 581.333V562.667H73.3332H79.9999V594.667V626.667H59.3332C43.8665 626.667 37.1999 627.2 32.3999 628.8C14.9332 634.8 3.19985 650.267 2.39985 668.4C2.13318 674.133 2.53318 675.333 5.73318 678.133L9.46652 681.333H84.5332C158.533 681.333 159.733 681.333 163.2 678.533C165.867 676.4 166.667 674.667 166.667 670.8C166.667 660.933 170.133 661.333 92.6665 661.067L23.4665 660.667L27.9999 655.467C36.1332 646.267 31.8665 646.667 129.333 646.667C214.4 646.667 217.6 646.8 222.533 649.333C227.467 651.733 233.333 657.733 233.333 660.133C233.333 660.8 226.8 661.333 218.8 661.333C204.667 661.333 204.133 661.467 201.467 664.8C198.267 668.8 198 670.533 200.133 675.067C202.533 680.4 206.8 681.333 227.467 681.333C254.133 681.333 257.6 679.2 255.333 664.267C253.2 650.133 242.8 636.267 229.6 630.267C224.133 627.733 220.133 627.2 200.667 626.667L178 626V594.667V563.333H184.667H191.333L192 582.933C192.533 600.533 192.933 602.8 195.333 604.533C199.067 607.333 204.4 607.2 208.133 604.133C211.2 601.733 211.333 600.667 211.733 582.133L212.133 562.667H220.8C234.667 562.667 234.667 562.8 234.667 530.133C234.667 515.2 234.267 501.867 233.867 500.8C233.333 499.6 213.467 485.333 189.467 469.067C165.6 452.8 143.067 437.467 139.467 435.067C135.467 432.4 131.467 430.667 128.8 430.667C125.6 430.667 113.867 438.133 76.6665 463.333ZM173.2 482L214.533 510L214.667 526.267V542.667H128.667H42.5332L42.9332 526.4L43.3332 510.267L85.9999 481.333C109.467 465.333 129.333 452.667 130.267 453.2C131.067 453.6 150.4 466.533 173.2 482ZM118.667 581.333C118.667 599.467 118.8 600.267 122 603.333C126 607.333 130.533 607.6 135.2 603.867C138.667 601.2 138.667 601.067 138.667 581.867V562.667H148H157.333V594.667V626.667H128.667H99.9999V594.667V562.667H109.333H118.667V581.333Z" fill="#EC1F28"/>
</g>
<defs>
<clipPath id="clip0_67_39">
<rect width="682.667" height="682.667" fill="white"/>
</clipPath>
</defs>
</svg>
