<?xml version="1.0" encoding="utf-8"?>
<!-- Generator: Adobe Illustrator 27.9.0, SVG Export Plug-In . SVG Version: 6.00 Build 0)  -->
<svg version="1.1" id="Layer_1" xmlns="http://www.w3.org/2000/svg" xmlns:xlink="http://www.w3.org/1999/xlink" x="0px" y="0px"
	 viewBox="0 0 500 500" style="enable-background:new 0 0 500 500;" xml:space="preserve">
<style type="text/css">
	.st0{fill:#EC1F28;}
</style>
<g>
	<path class="st0" d="M500,243.16c0,4.56,0,9.11,0,13.67c-0.29,0.73-0.72,1.44-0.86,2.2c-4.59,24.9-24.43,43.37-49.61,43.69
		c-23.21,0.29-46.45-1.6-69.68-2.49c-2.9-0.11-5.81-0.02-9.32-0.02c9.46,8.34,18.46,16.07,27.24,24.05
		c8.91,8.09,17.57,16.45,26.38,24.64c10.96,10.2,17.38,22.63,18.1,37.66c1.06,22.31-11.58,42.44-31.94,51.36
		c-20.26,8.87-43.74,4.38-59.61-12.21c-14.72-15.39-28.86-31.34-43.23-47.06c-2.35-2.57-4.61-5.24-7.81-8.89
		c0.17,3.68,0.27,5.9,0.38,8.12c1.03,22.41,2.39,44.82,2.98,67.24c0.59,22.69-12.04,42.06-32.34,50.58
		c-4.43,1.86-9.22,2.87-13.85,4.27c-4.56,0-9.11,0-13.67,0c-0.73-0.29-1.44-0.72-2.2-0.86c-25.04-4.59-43.46-24.6-43.73-50.09
		c-0.24-23.05,1.6-46.13,2.52-69.2c0.12-2.92,0.26-5.84,0.41-9.04c-17.16,18.59-33.6,36.82-50.53,54.59
		c-13.84,14.54-31.09,19.92-50.69,15.41c-20.01-4.61-33.4-17.31-39.08-36.95c-5.81-20.07-0.89-38.13,14.02-52.8
		c12.74-12.54,26.14-24.42,39.32-36.51c5.2-4.78,10.6-9.35,16.53-14.56c-3.04,0-5.1-0.08-7.15,0.01
		c-21.93,1.03-43.84,2.24-65.77,3.08c-19.8,0.76-36.21-6.54-47.19-23.16C5.1,273.1,3.13,264.59,0,256.84c0-4.56,0-9.11,0-13.67
		c0.29-0.73,0.71-1.44,0.85-2.21c4.63-25.06,24.6-43.45,50.1-43.72c23.05-0.24,46.13,1.62,69.2,2.52c2.92,0.11,5.84,0.02,8.61,0.02
		c-18.16-16.77-36.26-33.35-54.2-50.1c-10.45-9.75-16.08-21.96-16.8-36.22c-1.12-22.25,11.56-42.46,31.9-51.38
		c20.26-8.88,43.79-4.24,59.66,12.11c9.96,10.27,19.63,20.83,29.29,31.39c7.07,7.73,13.91,15.68,21.37,24.11
		c0-2.98,0.08-5.04-0.01-7.1c-1.01-22.25-2.23-44.5-3.03-66.76c-0.69-19.28,6.67-35.2,22.73-45.91c6.94-4.63,15.61-6.68,23.49-9.9
		c4.56,0,9.11,0,13.67,0c0.73,0.29,1.44,0.71,2.2,0.85c25.08,4.62,43.43,24.57,43.71,50.1c0.26,22.89-1.57,45.81-2.48,68.72
		c-0.12,3.08-0.31,6.15-0.52,10.36c2.02-2.27,3.09-3.49,4.18-4.69c15.34-16.82,30.4-33.92,46.1-50.39
		c15.38-16.14,34.33-21.29,55.7-14.49c36.2,11.52,48.79,57.05,23.3,85.21c-10.44,11.54-22.42,21.71-33.87,32.31
		c-7.93,7.34-16.16,14.35-24.84,22.02c2.99,0,5.06,0.08,7.11-0.01c22.41-1.02,44.82-2.35,67.24-3.03
		c20.08-0.6,36.19,7.61,46.81,24.71C495.48,228.11,497.23,235.96,500,243.16z M228.72,421.76c0,6.7-0.01,15,0,23.29
		c0.02,13.41,8.9,22.89,21.38,22.85c12.24-0.05,21.49-9.49,21.05-22.59c-0.75-22.44-1.84-44.87-3.25-67.27
		c-1.18-18.67-3.09-37.28-4.56-55.93c-0.6-7.59,3.16-13.71,9.71-16.42c6.39-2.65,13.18-1.05,18.2,4.35c1.44,1.55,2.7,3.25,4.1,4.84
		c25.81,29.29,51.49,58.7,77.54,87.78c8.77,9.78,22.75,9.97,31.3,1.41c8.66-8.67,8.16-21.91-1.47-31.23
		c-9-8.71-18.02-17.43-27.47-25.65c-21.35-18.59-43-36.84-64.48-55.28c-6.14-5.27-7.89-12.1-5.1-18.83
		c2.79-6.72,8.91-10.31,16.91-9.68c10.54,0.83,21.05,2.05,31.6,2.69c30.36,1.83,60.73,3.71,91.11,5.05
		c13.14,0.58,22.55-8.77,22.59-21.02c0.04-12.3-9.33-21.75-22.37-21.24c-26.82,1.04-53.62,2.54-80.41,4.17
		c-14.45,0.88-28.84,2.61-43.28,3.61c-11.28,0.78-20.04-9.07-16.72-19.47c1.41-4.41,5.29-8.45,8.92-11.68
		c29.75-26.52,59.85-52.65,89.51-79.27c9.19-8.25,9.02-21.74,0.79-30.13c-8.26-8.43-21.91-8.34-30.66,0.35
		c-5.08,5.04-10.15,10.12-14.85,15.52c-22.22,25.52-44.31,51.16-66.44,76.76c-5.58,6.46-12.3,8.46-19.1,5.69
		c-7.12-2.9-10.56-9.04-9.84-17.73c1.58-18.97,3.51-37.91,4.71-56.9c1.37-21.59,2.33-43.22,3.02-64.85
		c0.43-13.39-8.84-22.88-21.31-22.83c-12.23,0.05-21.08,9.49-21.11,22.61c-0.01,4.07,0.01,8.14,0.29,12.2
		c2.49,36.68,5.02,73.35,7.57,110.03c0.58,8.34-2.86,14.6-9.67,17.4c-6.88,2.83-13.65,0.95-19.16-5.49
		c-4.44-5.19-8.63-10.61-13.16-15.72c-22.77-25.68-45.45-51.46-68.55-76.84c-8.1-8.91-22.07-8.57-30.24-0.36
		c-8.34,8.37-8.22,21.48,0.43,30.2c4.93,4.97,9.9,9.91,15.17,14.5c25.76,22.44,51.64,44.75,77.46,67.12
		c6.4,5.54,8.3,12.31,5.45,19.17c-2.84,6.83-9.03,10.32-17.4,9.64c-10.38-0.84-20.73-2.03-31.12-2.66
		c-30.36-1.83-60.74-3.5-91.11-5.08c-2.85-0.15-5.89,0.4-8.6,1.31c-9.81,3.31-15.5,13.29-13.78,23.62
		c1.69,10.11,10.55,17.73,21.65,17.38c22.44-0.71,44.87-1.72,67.28-3.13c18.83-1.18,37.6-3.19,56.42-4.64
		c11.1-0.86,19.52,7.46,17.42,18.02c-0.83,4.19-3.95,8.59-7.26,11.5c-15.5,13.65-31.65,26.58-47.15,40.23
		c-15.14,13.33-29.87,27.13-44.58,40.94c-6.24,5.86-7.88,13.35-5.35,21.51c2.5,8.04,8.2,12.8,16.42,14.2
		c7.76,1.33,14.59-0.95,19.84-6.89c26.81-30.36,53.57-60.78,80.29-91.21c5.96-6.79,12.41-8.94,19.4-6.1
		c7.22,2.93,10.53,9.03,9.81,18.22C233.96,355.9,231.4,388.01,228.72,421.76z"/>
	<path class="st0" d="M200.93,249.77c0.13-26.47,21.55-48.22,47.86-48.61c27.08-0.4,49.27,20.23,50.2,46.68
		c0.36,10.07-5.5,17.36-14.44,17.98c-9.57,0.66-16.29-5.33-17.26-15.72c-0.74-7.9-4.32-13.67-12-16.08
		c-6.92-2.17-13.24-0.62-18.18,4.93c-4.38,4.91-5.44,10.7-3.18,16.82c2.26,6.11,6.86,9.73,13.31,10.84c2.08,0.36,4.22,0.35,6.27,0.8
		c8.14,1.8,13.08,8.88,12.27,17.37c-0.75,7.83-7.38,13.86-15.48,14.08C223.55,299.58,200.79,276.95,200.93,249.77z"/>
</g>
</svg>
