<?xml version="1.0" encoding="utf-8"?>
<!-- Generator: Adobe Illustrator 27.9.0, SVG Export Plug-In . SVG Version: 6.00 Build 0)  -->
<svg version="1.1" id="Layer_1" xmlns="http://www.w3.org/2000/svg" xmlns:xlink="http://www.w3.org/1999/xlink" x="0px" y="0px"
	 viewBox="0 0 500 500" style="enable-background:new 0 0 500 500;" xml:space="preserve">
<style type="text/css">
	.st0{fill:#EC1F28;}
</style>
<g>
	<path class="st0" d="M132.74,500c-9.47-1.29-18.98-2.34-28.4-3.9c-23.72-3.93-46.38-11.34-68.01-21.79
		c-11.01-5.32-13.89-17.07-6.96-28.03c25.12-39.72,50.29-79.42,75.45-119.12c9.23-14.56,18.44-29.13,27.7-43.67
		c9.05-14.2,24.31-14.15,33.38,0.11c10.82,17.02,21.59,34.07,32.39,51.1c0.86,1.35,1.78,2.66,2.58,3.85
		c3.32-5.45,6.57-10.81,10.21-16.78c-9.26-9.41-8.81-23.13-10.82-35.97c-4.35-27.79-8.32-55.64-12.44-83.46
		c-0.07-0.48-0.17-0.96-0.23-1.45c-0.91-6.73,1.29-10.67,6.23-11.17c4.53-0.47,7.39,2.84,8.34,9.35
		c4.92,33.46,9.83,66.92,14.84,100.37c2.01,13.42,9.72,19.91,23.26,19.91c16.27,0.01,32.53,0,48.8,0c0.48-0.53,0.95-1.05,1.43-1.58
		c-1.35-0.74-2.9-1.27-4.03-2.26c-6.25-5.47-12.29-11.16-18.6-16.55c-4.71-4.02-8.81-8.23-8.43-15.33
		c-2.97,0.14-5.53,0.34-8.09,0.38c-8.39,0.15-14.43-5.12-14.95-13.47c-1.07-17.05-2-34.11-2.79-51.18
		c-0.41-8.87,5.24-14.75,14.17-15.25c16.25-0.91,32.5-1.8,48.75-2.7c10.77-0.6,16.52,4.6,16.98,15.33c0.03,0.65,0.05,1.3,0.08,1.95
		c0.77,16.05,0.82,16.15,14.39,26.31c3.34-7.83,6.63-15.59,9.96-23.32c4.34-10.08,11.12-12.84,21.19-8.58
		c14.52,6.14,29.02,12.3,43.52,18.49c10.29,4.39,13.1,11.27,8.75,21.54c-6.2,14.67-12.43,29.32-18.73,43.95
		c-4.19,9.74-11.08,12.44-20.91,8.31c-5.54-2.33-11.11-4.62-16.55-7.17c-2.41-1.13-3.93-1.09-5.8,1.11
		c-5.54,6.51-11.36,12.78-17.83,20.01c2.36,0,3.59,0,4.82,0c22.3,0,44.6,0.03,66.9-0.01c11.91-0.02,19.84-6.92,21.61-18.87
		c9.46-63.69,18.88-127.38,28.32-191.07c0.4-2.72,0.77-5.45,1.16-8.15c-10.95-2.17-62.54-0.86-65.55,1.97
		c4.91,2.75,9.72,5.39,14.47,8.12c9.41,5.41,11.75,13.65,6.6,23.12c-1.94,3.57-3.89,7.14-5.94,10.65
		c-2.85,4.91-6.91,6.38-10.86,4.06c-3.8-2.23-4.55-6.26-1.97-11.08c2.21-4.13,4.51-8.22,7.04-12.82
		c-6.55-3.65-12.73-7.18-19.03-10.47c-0.71-0.37-2.4,0.37-3.2,1.08c-2.55,2.27-4.81,4.85-7.33,7.16
		c-6.43,5.89-15.25,5.93-21.54-0.14c-5.85-5.64-11.43-11.56-17.53-17.76c-8.88,15.95-17.46,31.35-26.27,47.18
		c20.35,11.33,40.34,22.45,60.95,33.92c2.31-4.1,4.51-8.01,6.72-11.91c0.96-1.7,1.82-3.47,2.93-5.06c2.38-3.42,5.63-4.3,9.38-2.55
		c3.56,1.65,5.14,5.78,3.22,9.54c-3.18,6.22-6.47,12.43-10.34,18.22c-4.07,6.07-12.22,8.12-18.72,4.59
		c-20.57-11.18-41.04-22.54-61.36-34.17c-7.44-4.26-9.22-12.95-4.85-20.94c7.01-12.84,14.21-25.58,21.31-38.37
		c0.77-1.39,1.46-2.83,2.42-4.68c-42.66,0-84.84,0-127.25,0c2.71,18.36,5.4,36.52,8.08,54.69c0.26,1.77,0.53,3.54,0.7,5.32
		c0.49,5.19-1.65,8.49-5.84,9.1c-4.52,0.66-7.71-1.83-8.58-7.2c-1.56-9.63-2.89-19.3-4.31-28.95c-3.08-20.91-6.04-41.84-9.29-62.73
		c-2.5-16.04,6.65-27.1,22.95-27.11c36.95-0.04,73.9-0.07,110.85,0.08c3.94,0.02,6.62-1.18,9.32-3.95
		c10.67-10.96,21.48-21.8,32.46-32.45c3.08-2.99,6.95-5.16,10.46-7.71c2.28,0,4.56,0,6.84,0c3.41,2.41,7.2,4.43,10.16,7.3
		c11.44,11.1,22.54,22.57,33.99,33.66c1.73,1.68,4.69,2.88,7.12,2.93c13.34,0.28,26.69,0,40.03,0.18
		c13.49,0.18,23.43,11.22,21.59,23.98c-3.82,26.55-7.8,53.07-11.73,79.6c-6.69,45.18-13.24,90.39-20.19,135.53
		c-2.1,13.63-1.27,28.28-11.87,39.26c20,21.06,21.74,57.03,4.83,86.77c1.84,4.57,3.71,8.7,5.18,12.98
		c10.21,29.78,10.22,27.61,0.25,57.72c-3.18,9.59-7.92,16.89-17.82,20.08c-67.71,0-135.43,0-203.14,0
		c-8.04-5.48-16.36-6.65-26.05-4.1c-9.26,2.44-19.07,2.81-28.64,4.1C154.22,500,143.48,500,132.74,500z M321.09,333.98
		c-31.57,0-63.14,0.02-94.71-0.03c-3.79-0.01-7.36,0.3-8.81,4.47c-2.88,8.28-6.08,16.51-8.13,25.01c-0.97,4.02-0.17,8.76,0.88,12.91
		c1.67,6.59,4.38,12.92,6.36,19.44c1.45,4.8,4.32,6.68,9.33,6.63c16.76-0.18,33.52-0.07,50.28-0.07c21.97,0,43.94-0.02,65.91,0.01
		c5.74,0.01,9.11,2.69,9.23,7.15c0.12,4.63-3.38,7.44-9.37,7.49c-4.07,0.03-8.14,0.01-12.21,0.01c-34.5,0-69,0.02-103.5-0.03
		c-3.58,0-7.21,0.14-8.59,4.03c-3.1,8.72-6.26,17.46-8.53,26.41c-0.9,3.54-0.08,7.81,0.92,11.49c1.87,6.89,4.51,13.56,6.68,20.37
		c1.38,4.33,4.11,6.15,8.7,6.14c63.63-0.07,127.26-0.08,190.89,0.01c4.81,0.01,7.54-1.9,8.99-6.42
		c10.47-32.69,10.86-22.48,0.42-54.14c-0.1-0.31-0.18-0.63-0.26-0.94c-1.24-4.99-4.27-7.1-9.56-6.99
		c-11.87,0.25-23.76,0.24-35.63-0.05c-2.49-0.06-5.67-1.15-7.19-2.91c-1.35-1.56-1.92-5.45-0.88-7c1.46-2.17,4.69-4.3,7.24-4.4
		c12.35-0.45,24.73-0.26,37.1-0.17c3.55,0.02,6.68-0.72,7.92-4.32c2.96-8.6,6.11-17.17,8.27-25.98c0.9-3.69,0.02-8.08-0.97-11.91
		c-1.63-6.27-4.01-12.35-6.09-18.51c-2.31-6.87-3.37-7.66-10.46-7.66C383.9,333.98,352.49,333.98,321.09,333.98z M61.1,423.56
		c16.33,6.86,32.63,11.59,49.49,14.5c27.54,4.74,55.01,4.33,82.45-0.87c2.81-0.53,4.33-1.69,5.32-4.62
		c2.48-7.35,5.58-14.49,8.29-21.77c0.31-0.83-0.15-2.04-0.48-3c-3.84-11.18-8.06-22.25-11.41-33.57c-1.14-3.86,0.06-8.38-0.15-12.58
		c-0.13-2.57-0.26-5.53-1.54-7.6c-12.87-20.7-25.98-41.25-39.04-61.84c-3.84-6.06-5.85-6.09-9.63-0.12
		c-11.4,17.98-22.78,35.97-34.18,53.96C93.96,371.71,77.69,397.37,61.1,423.56z M53.5,436.37c-0.62,0.57-0.91,0.75-1.08,1.01
		c-3.08,4.79-6.15,9.58-9.2,14.38c-4.55,7.17-4.45,7.6,3.06,11.05c43.41,19.91,88.84,26.43,136.12,20.31
		c6.33-0.82,12.59-2.16,18.86-3.26c-2.85-9.76-5.43-18.6-8.13-27.84C145.4,460.6,98.71,455.53,53.5,436.37z M294.88,58.67
		c-2.34,0-4.11,0-5.89,0c-27.5,0-55,0-82.51,0c-5.53,0-11.07-0.11-16.6,0.05c-5.02,0.14-7.78,2.95-7.26,7.71
		c0.69,6.43,1.84,12.81,2.78,19.12c41.41,0,82.43,0,123.45,0c0.22-0.35,0.44-0.7,0.66-1.05c-3.81-3.52-7.81-6.87-11.39-10.62
		C294.25,69.81,293.44,64.74,294.88,58.67z M248.28,218.81c0.94,17.12,1.85,33.73,2.77,50.53c17.14-0.95,33.64-1.86,50.52-2.8
		c-0.95-17.1-1.87-33.7-2.8-50.52C281.6,216.97,265.11,217.88,248.28,218.81z M308.87,64.18c6.88,6.85,13.71,13.8,20.75,20.53
		c0.98,0.94,2.94,1.17,4.45,1.18c15.95,0.08,31.89,0.07,47.84,0.01c1.37-0.01,3.17-0.14,4.04-0.98c7.1-6.86,14.03-13.9,20.93-20.81
		c-2.36-4.12-5.32-5.57-9.78-5.54c-26.19,0.2-52.39,0.21-78.59-0.01C313.98,58.52,311.15,60.13,308.87,64.18z M398.6,245.84
		c-15.76-6.7-31.05-13.2-46.58-19.81c-4.07,9.54-7.98,18.44-11.57,27.46c-0.44,1.1,0.46,3.34,1.46,4.31
		c4.3,4.19,8.83,8.15,13.35,12.11c3.76,3.29,5.76,7.28,5.8,12.36c0.01,1.12,0.85,2.81,1.78,3.25c5.09,2.4,10.32,4.48,15.9,6.85
		C385.38,276.83,391.85,261.66,398.6,245.84z M273.66,284.41c13.5,12.13,25.85,23.23,38.49,34.57
		c11.44-12.75,22.54-25.12,33.81-37.68c-10.14-9.09-19.84-17.8-30.42-27.3c0.29,4.73,0.57,8.08,0.68,11.44
		c0.29,9.53-5.08,15.33-14.53,15.8c-7.13,0.36-14.28,0.63-21.4,1.15C278.45,282.53,276.68,283.46,273.66,284.41z M456.7,85.76
		c1.01-6.59,2.09-12.82,2.89-19.07c0.53-4.16-1.48-7.56-5.58-7.72c-10.93-0.43-21.88-0.15-33.09-0.15
		c1.42,5.94,0.49,10.93-3.25,15.07c-3.51,3.89-7.3,7.54-11.54,11.87C423.48,85.76,439.83,85.76,456.7,85.76z M386,43.85
		c-9.52-9.62-18.94-19.12-27.58-27.86c-9.19,9.2-18.69,18.72-27.82,27.86C348.46,43.85,367.24,43.85,386,43.85z M357.54,111.92
		c3.8-3.59,7.7-7.27,11.63-10.99c-7.62,0-15.12,0-22.82,0C350.41,104.92,354.19,108.63,357.54,111.92z"/>
	<path class="st0" d="M249.94,157.71c0.11,3.97-2.87,7.22-6.82,7.44c-4.16,0.22-7.64-2.94-7.75-7.04c-0.1-4.04,3.35-7.59,7.35-7.56
		C246.57,150.57,249.83,153.81,249.94,157.71z"/>
	<path class="st0" d="M261.49,131.52c4.25-0.01,7.32,3.17,7.2,7.47c-0.11,4-3.23,7.1-7.16,7.09c-4.06-0.01-7.44-3.5-7.31-7.55
		C254.34,134.6,257.54,131.52,261.49,131.52z"/>
	<path class="st0" d="M268.66,360.91c6.66,0,13.33-0.08,19.99,0.03c5.48,0.08,8.53,2.75,8.56,7.19c0.03,4.45-3.03,7.32-8.45,7.37
		c-13.33,0.12-26.66,0.11-39.98,0.01c-5.85-0.04-8.87-2.79-8.76-7.51c0.1-4.53,2.99-6.99,8.65-7.07
		C255.33,360.84,261.99,360.91,268.66,360.91z"/>
	<path class="st0" d="M268.99,443.92c6.5,0,13-0.06,19.5,0.02c5.54,0.07,8.6,2.62,8.72,7.03c0.13,4.6-3.04,7.51-8.77,7.55
		c-13.33,0.11-26.66,0.12-39.98-0.01c-5.54-0.05-8.45-2.81-8.44-7.34c0.01-4.57,2.91-7.13,8.49-7.22
		C255.33,443.84,262.16,443.92,268.99,443.92z"/>
	<path class="st0" d="M156.39,377.19c-0.04,5.06-3.1,8.53-7.4,8.42c-4.31-0.11-7.29-3.72-7.23-8.72c0.06-4.97,3.23-8.49,7.54-8.4
		C153.66,368.58,156.44,372,156.39,377.19z"/>
	<path class="st0" d="M133.88,401.78c-0.02,5.18-2.87,8.45-7.33,8.4c-4.42-0.05-7.33-3.46-7.3-8.55c0.03-5.09,2.98-8.39,7.46-8.35
		C131.26,393.32,133.9,396.45,133.88,401.78z"/>
	<path class="st0" d="M171.68,412.18c0.05-5.18,2.93-8.39,7.43-8.28c4.39,0.11,7.28,3.58,7.2,8.66c-0.08,5.03-3.16,8.42-7.57,8.31
		C174.34,420.77,171.63,417.44,171.68,412.18z"/>
	<path class="st0" d="M259.61,248.66c0.07-5.04,3.19-8.47,7.53-8.29c4.32,0.18,7.21,3.78,7.11,8.83c-0.1,4.97-3.32,8.46-7.65,8.28
		C262.22,257.29,259.53,253.9,259.61,248.66z"/>
	<path class="st0" d="M361.3,258.7c-4.51,0.01-7.92-3.29-7.8-7.53c0.13-4.42,3.7-7.24,9.19-7.26c4.72-0.01,7.9,3.01,7.76,7.4
		C370.31,255.75,366.67,258.7,361.3,258.7z"/>
</g>
</svg>
