<?xml version="1.0" encoding="utf-8"?>
<!-- Generator: Adobe Illustrator 27.9.0, SVG Export Plug-In . SVG Version: 6.00 Build 0)  -->
<svg version="1.1" id="Layer_1" xmlns="http://www.w3.org/2000/svg" xmlns:xlink="http://www.w3.org/1999/xlink" x="0px" y="0px"
	 viewBox="0 0 500 500" style="enable-background:new 0 0 500 500;" xml:space="preserve">
<style type="text/css">
	.st0{fill:#EC1F28;}
</style>
<g>
	<path class="st0" d="M216.77,80.23c0-12.28,0.05-23.85-0.02-35.42c-0.06-10.08-0.2-20.15-0.42-30.23c-0.04-1.63-0.4-3.36-1.07-4.84
		c-2.37-5.24,0.06-9.23,5.93-9.09c7,0.16,13.99,1,20.97,0.88c17.17-0.31,34.34-1.03,51.51-1.5c2.17-0.06,4.55-0.13,6.49,0.66
		c4.14,1.69,4.3,6.31,0.83,9.63c-1.18,1.13-2.63,2.8-2.63,4.23c0.02,20.49,0.25,40.99,0.46,61.48c0.01,0.65,0.25,1.3,0.45,2.34
		c2.26,0,4.44,0.02,6.61,0c17.93-0.23,35.86-0.51,53.79-0.69c8.67-0.09,9.33,0.76,10.64,9.33c8.52,55.3,15.9,110.82,26.02,165.83
		c12.61,68.58,27.48,136.75,41.44,205.09c1.43,7.01,3.29,13.94,5.02,20.89c1.97,7.89-2.52,14.27-10.65,14.91
		c-80.28,6.37-160.68,7.26-241.14,5.44c-38.58-0.87-77.14-2.91-115.73-3.54c-16.64-0.27-21-10.81-17.36-23.55
		c7.22-25.24,14.38-50.5,21.33-75.82c23.82-86.88,43.86-174.64,60.9-263.09c1.87-9.7,2.63-19.63,4.66-29.29
		c1.42-6.77,3.72-13.46,6.52-19.78c0.81-1.83,4.73-3.14,7.26-3.2c16.73-0.44,33.47-0.49,50.2-0.65
		C211.15,80.21,213.49,80.23,216.77,80.23z M367.72,153.95c-8.39,0-17.59-0.04-26.79,0.01c-61.64,0.33-123.28,0.69-184.92,0.97
		c-3.36,0.02-5.52,0.18-6.32,4.46c-15.04,80.66-33.36,160.57-55.12,239.69c-0.56,2.03-0.87,4.13-1.47,7.01
		c38.53,0.97,76.33,1.93,113.99,2.88c0-11.22,0.01-21.59-0.03-31.96c0-0.62-0.46-1.25-0.74-1.85c-2.75-5.79-0.18-9.74,6.2-9.47
		c8.7,0.37,17.39,0.78,26.09,1.18c3.91,0.18,7.84,0.68,11.73,0.47c12.59-0.66,25.16-1.77,37.75-2.2c1.92-0.07,4.86,2.17,5.62,4.03
		c0.62,1.54-1.14,4.17-2.13,6.19c-0.54,1.09-2.39,1.89-2.41,2.84c-0.18,10.35-0.11,20.71-0.11,32.19
		c42.46-1.58,83.67-3.1,124.24-4.61C397.98,321.23,382.88,237.72,367.72,153.95z M299.52,92.41c0,9.75,0.03,18.44-0.01,27.13
		c-0.02,3.66-1.98,5.78-5.61,5.99c-3.61,0.2-5.82-1.8-6.49-5.24c-0.35-1.82-0.17-3.74-0.18-5.62c-0.01-7.28-0.01-14.55-0.01-21.87
		c-7.51,0-14.27,0-21.61,0c0,2.43,0.06,4.6-0.01,6.77c-0.24,6.82-0.11,13.7-1.05,20.43c-0.29,2.06-3.54,5.14-5.44,5.15
		c-1.9,0.01-4.17-3.01-5.58-5.16c-0.79-1.2-0.17-3.32-0.17-5.03c0-7.28,0-14.56,0-22.14c-8.44,0-17.07,0-26.2,0
		c-0.1,1.83-0.22,3.49-0.27,5.16c-0.18,6.49-0.2,12.98-0.55,19.46c-0.2,3.58-2.04,6.36-5.98,6.41c-4.15,0.05-5.47-3.01-5.62-6.54
		c-0.12-2.89,0.24-5.8,0.27-8.7c0.05-5.55,0.01-11.1,0.01-16.25c-17.08,0-33.8,0.04-50.52-0.04c-2.96-0.01-4.14,1.08-4.56,4.07
		c-1.09,7.77-2.6,15.47-3.88,23.22c-1.24,7.49-2.39,14.99-3.57,22.42c71.68,0,142.65,0,214.17,0c-2.13-17.14-4.17-33.62-6.16-49.61
		C340.01,92.41,320.08,92.41,299.52,92.41z M289.32,421.7c0,19.51,0,38.99,0,59.47c47.06-1.75,93.67-3.49,140.79-5.25
		c-4.9-20.96-9.47-40.46-13.93-59.51C373.55,418.19,331.52,419.94,289.32,421.7z M70.36,478.66c45.3,0.75,89.89,1.49,135.09,2.25
		c0.57-20.58,1.11-40.25,1.66-60.49c-3.78,0-6.82,0.07-9.86-0.01c-34.45-0.91-68.91-1.77-103.35-2.89c-4.07-0.13-5.64,1.22-6.61,4.9
		c-1.82,6.91-4.04,13.72-6.11,20.57C77.68,454.53,74.18,466.07,70.36,478.66z M254.23,79.19c0-21.64,0-42.85,0-64.25
		c-9.03-0.56-17.46-1.08-26.04-1.61c0,21.94,0,43.81,0,65.86C237.02,79.19,245.51,79.19,254.23,79.19z M218.04,481.04
		c8.26,0,16.54,0,25.33,0c0.56-19.78,1.1-39.27,1.65-58.76c-9.32,0-17.74,0-26.98,0C218.04,442.01,218.04,461.37,218.04,481.04z
		 M285.66,79.1c0-22.17,0-44.04,0-66.28c-7.34,0.37-13.92,0.7-19.92,1c0,22.26,0,43.82,0,65.28C272.98,79.1,279.42,79.1,285.66,79.1
		z M256.63,421.38c-0.55,19.92-1.08,39.26-1.62,58.84c7.63,0,14.66,0,21.95,0c0-19.81,0-39.26,0-58.84
		C269.86,421.38,263.44,421.38,256.63,421.38z M218.52,378.49c0,10.46,0,20.93,0,31.67c8.97,0,17.4,0,25.61,0
		c0-10.59,0-20.86,0-31.67C235.09,378.49,226.8,378.49,218.52,378.49z M256.3,378.86c0,10.74,0,20.91,0,31.55
		c7.15,0,13.71,0,20.08,0c0-10.65,0-21.41,0-32.47C269.18,378.28,262.74,378.57,256.3,378.86z"/>
	<path class="st0" d="M291.92,275.27c-18.56,0.01-33.88-15.32-33.87-33.89c0.01-18.63,15.25-33.87,33.86-33.86
		c18.58,0.01,34,15.35,34.01,33.85C325.92,259.79,310.41,275.26,291.92,275.27z M307.84,225.94c-9.29-9.31-23.4-9.09-32.08-0.04
		c-8.29,8.65-8.32,22.79,0.21,30.27C282.73,242.25,293.39,232.37,307.84,225.94z M312.36,232.24c-13.86,5.78-25.36,13.5-29.62,28.8
		c8.71,4.11,17.79,2.52,24.52-3.95C314.12,250.5,316.15,241.28,312.36,232.24z"/>
	<path class="st0" d="M294.57,287.95c1.26-1.27,2.89-4.23,4.54-4.25c2.38-0.02,6.06,1.53,6.9,3.43c1.74,3.94,2.61,8.55,2.55,12.86
		c-0.03,2.07-2.71,5.24-4.75,5.78c-1.66,0.44-5.28-1.83-6.06-3.72C296.1,298.03,295.73,293.5,294.57,287.95z"/>
	<path class="st0" d="M330.79,290.94c-1.7,1.87-2.79,4.13-4.31,4.48c-1.79,0.41-4.83-0.19-5.81-1.49
		c-2.93-3.92-5.52-8.23-7.39-12.73c-0.63-1.52,0.68-4.91,2.16-5.95c1.48-1.04,5.54-1.1,6.28-0.05
		C325.07,280,327.66,285.34,330.79,290.94z"/>
	<path class="st0" d="M335.57,277.17c-3.52-0.11-11.43-8.49-11.35-12.03c0.1-4.37,5.78-7.26,9.58-4.42c2.79,2.08,5.3,4.92,7.06,7.94
		C343.25,272.75,340.14,277.31,335.57,277.17z"/>
</g>
</svg>
