<?xml version="1.0" encoding="utf-8"?>
<!-- Generator: Adobe Illustrator 27.9.0, SVG Export Plug-In . SVG Version: 6.00 Build 0)  -->
<svg version="1.1" id="Layer_1" xmlns="http://www.w3.org/2000/svg" xmlns:xlink="http://www.w3.org/1999/xlink" x="0px" y="0px"
	 viewBox="0 0 500 500" style="enable-background:new 0 0 500 500;" xml:space="preserve">
<style type="text/css">
	.st0{fill:#EC1F28;}
</style>
<g>
	<path class="st0" d="M500,64.45c0,56.32,0,112.63,0,168.95c-3.06,8.07-9.23,11.27-17.78,10.67c0,61.4,0,122.3,0,183.39
		c6.2,1.25,13.57-1.97,17.78,5.16c0,22.46,0,44.92,0,67.38c-166.67,0-333.33,0-500,0c0-22.46,0-44.92,0-67.38
		c4.21-7.14,11.59-3.9,17.61-5.13c0-61.25,0-122.26,0-183.57C8.86,244.7,3.03,241.27,0,233.4c0-56.32,0-112.63,0-168.95
		c3.66-7.66,9.73-10.03,18.12-9.98c49.73,0.29,99.47,0.19,149.2,0.01c2.94-0.01,6.4-1.18,8.74-2.96
		c18.61-14.18,36.92-28.75,55.53-42.93c4.44-3.38,9.65-5.76,14.5-8.59c2.93,0,5.86,0,8.79,0c4.37,2.7,9.01,5.04,13.06,8.15
		C286.4,22.3,304.72,36.6,322.98,51c3.22,2.53,6.4,3.71,10.57,3.7c49.44-0.13,98.88,0.06,148.32-0.23
		C490.27,54.42,496.36,56.76,500,64.45z M14.9,69.5c0,53.39,0,106.37,0,159.87c1.98,0,3.73,0,5.47,0
		c11.39,0.01,22.78-0.05,34.17,0.06c4.16,0.04,6.68,2.34,7.13,6.53c0.44,4.01-2.14,7.24-6.31,7.89c-1.91,0.3-3.89,0.16-5.85,0.17
		c-5.48,0.02-10.96,0.01-16.41,0.01c0,61.6,0,122.51,0,183.44c37.73,0,75.06,0,112.72,0c0-5.86-0.01-11.38,0-16.89
		c0.01-4.88-0.17-9.78,0.16-14.64c0.29-4.22,3.64-7.21,7.42-6.87c4.04,0.36,6.63,2.57,6.94,6.81c0.16,2.27,0.11,4.55,0.11,6.83
		c0.01,8.25,0,16.5,0,24.78c4.15,0,7.64,0,11.13,0c0-37.32,0-74.32,0-111.73c-1.95,0-3.58,0.23-5.14-0.04
		c-5.15-0.88-6.22,1.42-6.1,6.21c0.32,12.85,0.15,25.71,0.09,38.56c-0.03,5.87-2.68,8.91-7.39,8.82c-4.49-0.08-7.09-3.07-7.2-8.63
		c-0.12-6.34-0.03-12.69-0.03-19.04c0-8.43,0-16.86,0-25.89c-3.74,0-6.95,0-10.16,0c-13.34-0.01-17.23-3.84-17.23-17.02
		c0-16.44,0.01-32.87-0.01-49.31c0-1.71-0.14-3.42-0.21-4.87c-0.72-0.29-0.87-0.4-1.01-0.4c-8.95-0.05-17.89-0.11-26.84-0.14
		c-4.11-0.01-7.4-1.28-8.61-5.63c-1.38-4.96,2.04-8.93,7.89-8.99c9.4-0.1,18.79-0.03,28.79-0.03c0-2.42,0-4.32,0-6.22
		c0-22.62-0.03-45.24,0.01-67.86c0.02-10.58,4.57-15.04,15.22-15.1c3.87-0.02,7.74,0,12.13,0c0-7.2,0.11-13.83-0.12-20.46
		c-0.04-1.03-1.49-2.31-2.59-2.97c-14.91-8.98-15.99-26.87-2.21-37.73c3.75-2.95,7.51-5.88,12.18-9.54
		C106.26,69.5,60.79,69.5,14.9,69.5z M366.91,300.9c0-2.09,0-3.68,0-5.28c0-45.07-0.07-90.13,0.1-135.2
		c0.02-4.54-1.28-5.68-5.71-5.67c-74.19,0.13-148.37,0.09-222.56,0.1c-1.73,0-3.46,0.16-5.26,0.26c0,48.85,0,97.21,0,145.78
		C211.28,300.9,288.67,300.9,366.91,300.9z M381.56,244.28c0,2.05,0,3.81,0,5.56c0,17.08,0.05,34.16-0.02,51.25
		c-0.04,9.99-4.68,14.54-14.68,14.66c-4.03,0.05-8.06,0.01-12.38,0.01c0,37.55,0,74.54,0,112.06c1.97,0,3.72,0,5.46,0
		c18.55,0,37.09,0,55.64,0.01c1.62,0,3.31-0.13,4.86,0.23c3.77,0.88,6.07,3.43,5.93,7.29c-0.15,4.04-2.5,6.61-6.7,7.04
		c-1.45,0.15-2.93,0.07-4.39,0.07c-27.17,0-54.34,0-81.5,0c-1.74,0-3.48,0-5.72,0c0,2.75,0,4.99,0,7.22c0,2.21,0,4.42,0,6.52
		c10.83,1.48,11.65,2.46,11.65,13.19c0,5.16,0,10.32,0,15.56c48.84,0,97.17,0,145.32,0c0-14.32,0-28.24,0-42.49
		c-10.23,0-20.13,0.03-30.03-0.01c-5.8-0.02-8.92-2.67-8.86-7.35c0.06-4.59,3.27-7.2,9.06-7.27c3.86-0.05,7.72-0.01,11.79-0.01
		c0-61.46,0-122.37,0-183.53C438.59,244.28,410.5,244.28,381.56,244.28z M485.02,229.1c0-53.36,0-106.45,0-159.4
		c-45.86,0-91.39,0-137.82,0c4.61,3.6,8.48,6.57,12.28,9.61c13.4,10.73,12.14,28.59-2.56,37.44c-1.1,0.66-2.56,1.93-2.6,2.97
		c-0.24,6.63-0.12,13.27-0.12,20.47c4.05,0,7.59-0.01,11.13,0c12,0.02,16.21,4.17,16.22,16.06c0.01,22.29,0,44.58,0,66.87
		c0,1.9,0,3.8,0,5.97C416.39,229.1,450.62,229.1,485.02,229.1z M339.52,139.92c0-6.45,0.21-12.45-0.13-18.42
		c-0.1-1.66-1.47-3.67-2.86-4.76c-9.7-7.64-19.66-14.96-29.32-22.66c-3.21-2.56-3.47-6.26-0.92-9.61c2.53-3.32,5.92-3.73,9.56-1.82
		c1,0.52,1.87,1.29,2.77,1.99c7.07,5.49,14.12,10.98,21.19,16.47c5.51,4.28,9.78,4.46,12.74,0.53c2.93-3.88,1.69-7.85-3.9-12.21
		c-30.67-23.89-61.35-47.76-92.03-71.62c-5.63-4.38-7.64-4.32-13.33,0.11c-28.76,22.37-57.52,44.74-86.27,67.11
		c-2.82,2.2-5.74,4.3-8.4,6.68c-3.17,2.83-3.49,6.99-1.07,10.06c2.43,3.09,6.39,3.63,10.04,1.31c0.96-0.61,1.83-1.36,2.73-2.05
		c27.73-21.57,55.46-43.15,83.19-64.72c5.43-4.23,7.52-4.26,12.94-0.07c7.46,5.77,14.89,11.59,22.33,17.39
		c3.34,2.6,6.72,5.13,9.99,7.82c3.81,3.14,4.58,7.38,2.1,10.69c-2.69,3.6-6.87,3.9-11.19,0.74c-2.1-1.54-4.11-3.2-6.16-4.79
		c-7.8-6.06-15.6-12.11-23.47-18.22c-1.74,1.33-3.15,2.42-4.56,3.5c-27.87,21.35-55.75,42.7-83.59,64.09
		c-0.67,0.51-1.31,1.56-1.32,2.36c-0.11,6.61-0.06,13.22-0.06,20.01c21.2,0,41.74,0,62.76,0c0-2.13-0.01-3.89,0-5.65
		c0.04-10.09-0.25-20.19,0.19-30.26c0.62-14.17,12.11-24.87,26.19-24.99c14.42-0.12,26.17,10.46,26.87,24.78
		c0.46,9.41,0.17,18.87,0.21,28.3c0.01,2.54,0,5.09,0,7.9C297.83,139.92,318.26,139.92,339.52,139.92z M186.83,427.51
		c5.19,0,9.98,0,15.22,0c0-1.88,0-3.46,0-5.05c0.01-11.87-0.14-23.75,0.07-35.62c0.43-24.57,19.55-45.01,43.66-46.91
		c24.8-1.96,47.51,14.59,51.02,39.07c1.99,13.88,0.88,28.21,1.15,42.34c0.04,2.05,0.01,4.1,0.01,6.13c5.49,0,10.28,0,15.09,0
		c0-37.31,0-74.29,0-111.39c-42.24,0-84.12,0-126.21,0C186.83,353.29,186.83,390.16,186.83,427.51z M160.31,485.09
		c0-6.72-0.07-13.18,0.02-19.64c0.09-5.87,2.44-8.29,8.12-8.74c1.09-0.09,2.16-0.3,3.25-0.46c0-4.61,0-8.94,0-13.37
		c-52.46,0-104.66,0-156.75,0c0,14.32,0,28.23,0,42.22C63.45,485.09,111.65,485.09,160.31,485.09z M324.84,471.75
		c-50.16,0-99.82,0-149.54,0c0,4.69,0,8.98,0,13.26c50.02,0,99.69,0,149.54,0C324.84,480.51,324.84,476.34,324.84,471.75z
		 M186.76,456.25c42.48,0,84.43,0,126.3,0c0-4.77,0-9.08,0-13.37c-42.3,0-84.26,0-126.3,0C186.76,447.5,186.76,451.71,186.76,456.25
		z M242.43,355.26c-12.88,3.79-21.02,11.5-24.48,23.67c-1.09,3.83-1.15,8.02-1.2,12.06c-0.14,12.14-0.05,24.27-0.05,36.47
		c8.94,0,17.3,0,25.73,0C242.43,403.41,242.43,379.72,242.43,355.26z M257.72,355.71c0,24.16,0,47.94,0,71.69
		c8.73,0,17.07,0,25.59,0c0-2.19,0-3.97,0-5.75c-0.03-12.19,0.25-24.4-0.18-36.57C282.64,371.16,271.43,358.41,257.72,355.71z
		 M328.36,316.44c0,37.05,0,74.04,0,111.03c3.8,0,7.27,0,11.16,0c0-2.26,0-4.18,0-6.11c0-32.02,0-64.05,0-96.07
		c0-10.35,0-10.35-10.39-9.35C328.98,315.95,328.86,316.11,328.36,316.44z M262.07,139.92c0-11.42,0.13-22.58-0.05-33.73
		c-0.12-7.66-4.97-12.55-11.93-12.59c-7.18-0.04-12.01,4.92-12.13,12.89c-0.16,10.22-0.05,20.45-0.02,30.67
		c0,0.9,0.34,1.79,0.53,2.76C246.35,139.92,253.92,139.92,262.07,139.92z"/>
	<path class="st0" d="M48.26,328.61c0-12.69-0.04-25.38,0.01-38.07c0.03-7.36,2.32-9.66,9.64-9.7c11.88-0.06,23.75-0.07,35.63,0
		c7.09,0.05,9.36,2.31,9.38,9.42c0.05,25.54,0.05,51.08-0.01,76.63c-0.01,6.75-2.45,9.13-9.09,9.15c-12.2,0.04-24.4,0.04-36.6,0
		c-6.34-0.02-8.88-2.46-8.93-8.87C48.19,354.32,48.26,341.47,48.26,328.61z M63.21,361.02c8.48,0,16.64,0,24.66,0
		c0-8.55,0-16.71,0-24.86c-8.44,0-16.46,0-24.66,0C63.21,344.65,63.21,352.83,63.21,361.02z M87.99,295.91c-8.43,0-16.55,0-24.72,0
		c0,8.63,0,16.82,0,25.01c8.42,0,16.46,0,24.72,0C87.99,312.44,87.99,304.26,87.99,295.91z"/>
	<path class="st0" d="M296.98,259.65c-0.34,8.78-5.05,17.26-14.59,22.64c-9.54,5.38-19.35,5.16-28.72-0.43
		c-2.76-1.64-4.43-1.81-7.26-0.07c-12.44,7.69-28.13,4.75-37.24-6.6c-8.88-11.08-8.34-26.9,1.6-37.43
		c6.91-7.32,14.04-14.45,21.35-21.39c10.29-9.77,25.3-9.83,35.66-0.08c7.45,7.01,14.61,14.34,21.7,21.72
		C294.65,243.39,297.05,250.02,296.98,259.65z M217.49,255.54c0.41,7.52,2.86,11.84,8.01,14.35c5.55,2.7,10.69,1.68,15.44-2.05
		c7.3-5.73,10.86-5.72,18.08-0.03c6.49,5.11,14.55,4.68,19.71-1.05c5.13-5.69,4.88-13.84-0.85-19.74
		c-6.33-6.52-12.75-12.96-19.28-19.29c-5.54-5.38-11.69-5.38-17.19-0.02c-6.63,6.45-13.32,12.87-19.53,19.71
		C219.54,250.02,218.43,253.74,217.49,255.54z"/>
	<path class="st0" d="M196.33,209.09c0-2.6-0.17-5.21,0.04-7.79c0.34-4.14,3.51-7,7.37-6.94c3.86,0.06,6.96,2.96,7.13,7.17
		c0.2,5.02,0.2,10.07,0,15.09c-0.17,4.28-3.15,7.05-7.11,7.12c-4.16,0.07-7.14-2.81-7.42-7.35c-0.15-2.43-0.03-4.87-0.03-7.3
		C196.32,209.09,196.33,209.09,196.33,209.09z"/>
	<path class="st0" d="M303.66,209.06c0,2.6,0.17,5.21-0.04,7.79c-0.35,4.23-3.37,6.94-7.36,6.89c-3.94-0.05-6.97-2.86-7.14-7.09
		c-0.2-5.02-0.19-10.07,0-15.09c0.16-4.2,3.23-7.11,7.1-7.19c3.86-0.08,7.04,2.76,7.4,6.91
		C303.84,203.85,303.66,206.47,303.66,209.06z"/>
	<path class="st0" d="M225.34,187.32c0-2.75-0.24-5.53,0.06-8.25c0.43-3.91,2.88-6.12,6.82-6.25c3.93-0.13,6.89,1.89,7.18,5.77
		c0.44,5.95,0.46,11.99-0.06,17.92c-0.34,3.87-3.47,5.8-7.34,5.57c-3.64-0.22-6.12-2.32-6.54-6.02c-0.33-2.88-0.07-5.82-0.07-8.73
		C225.37,187.32,225.36,187.32,225.34,187.32z"/>
	<path class="st0" d="M274.72,187.08c0,2.75,0.19,5.53-0.04,8.26c-0.35,4.13-2.79,6.6-6.92,6.73c-4.14,0.14-7.01-2.18-7.29-6.28
		c-0.38-5.64-0.36-11.35,0.06-16.98c0.29-3.88,3.06-6.03,7.01-6c4.18,0.03,6.67,2.35,7.1,6.49c0.26,2.57,0.05,5.18,0.05,7.77
		C274.7,187.08,274.71,187.08,274.72,187.08z"/>
	<path class="st0" d="M397.06,328.55c0-12.69-0.04-25.38,0.01-38.07c0.03-7.4,2.22-9.6,9.64-9.64c11.88-0.06,23.75-0.07,35.63,0.01
		c7.01,0.05,9.36,2.4,9.38,9.48c0.05,25.38,0.05,50.76,0,76.14c-0.01,7.32-2.37,9.57-9.71,9.58c-11.88,0.02-23.75,0.03-35.63,0
		c-6.94-0.02-9.27-2.33-9.31-9.42C397.02,353.93,397.06,341.24,397.06,328.55z M436.71,361.16c0-8.68,0-16.84,0-25.01
		c-8.43,0-16.47,0-24.7,0c0,8.45,0,16.61,0,25.01C420.36,361.16,428.4,361.16,436.71,361.16z M412.14,295.75c0,8.8,0,16.97,0,25.14
		c8.45,0,16.46,0,24.63,0c0-8.51,0-16.7,0-25.14C428.41,295.75,420.38,295.75,412.14,295.75z"/>
</g>
</svg>
