<?xml version="1.0" encoding="utf-8"?>
<!-- Generator: Adobe Illustrator 27.9.0, SVG Export Plug-In . SVG Version: 6.00 Build 0)  -->
<svg version="1.1" id="Layer_1" xmlns="http://www.w3.org/2000/svg" xmlns:xlink="http://www.w3.org/1999/xlink" x="0px" y="0px"
	 viewBox="0 0 500 500" style="enable-background:new 0 0 500 500;" xml:space="preserve">
<style type="text/css">
	.st0{fill:#EC1F28;}
</style>
<g>
	<path class="st0" d="M500,292.95c-1.14,3.35-2,6.83-3.47,10.03c-6.43,14.02-17,23.13-32.24,26.49c-1.4,0.31-2.79,0.61-4.28,0.93
		c9.29,28.1,18.52,56,27.74,83.91c0.51,1.54,1.19,3.11,1.24,4.69c0.11,3.64-1.69,6.86-5.22,7.17c-2.6,0.23-5.63-1.37-8-2.88
		c-1.22-0.78-1.53-3.12-2.09-4.81c-8.49-25.59-16.95-51.18-25.42-76.78c-3.11-9.39-6-11.46-16.04-11.46
		c-7.97-0.01-15.94-0.03-23.92,0.01c-7.81,0.04-11.2,2.37-13.93,9.7c-9.7,26.02-19.35,52.07-29.01,78.1
		c-0.34,0.91-0.65,1.84-1.03,2.74c-2.03,4.8-5.95,6.92-9.92,5.38c-4.08-1.59-5.61-5.57-3.78-10.55
		c7.57-20.58,15.21-41.13,22.83-61.69c2.81-7.58,5.61-15.16,8.47-22.9c-3.97-0.63-7.69-0.83-11.17-1.85
		c-11.88-3.51-18.21-13.47-16.39-25.28c1.67-10.87,11.08-18.71,22.76-18.74c23.92-0.07,47.83-0.02,71.75-0.02c1.77,0,3.54,0,5.99,0
		c0-2.22,0-4.11,0-5.99c0-39.7-0.13-79.4,0.16-119.1c0.04-4.97,1.33-10.45,3.72-14.76c4.19-7.55,11.61-10.84,20.2-10.2
		c8.78,0.65,15.21,5.26,19.01,13.29c0.76,1.6,1.35,3.28,2.02,4.92C500,199.84,500,246.4,500,292.95z M485.31,223.12
		c0-21.48,0.04-42.96-0.03-64.44c-0.02-5.49-3.49-9.16-8.13-9.01c-4.53,0.15-7.43,3.58-7.57,9c-0.04,1.46-0.01,2.93-0.01,4.39
		c0,40.19,0.02,80.39-0.01,120.58c-0.01,10.89-5.32,16.14-16.19,16.18c-8.62,0.03-17.25,0.01-25.87,0.01
		c-16.43,0-32.87-0.03-49.3,0.02c-5.9,0.02-9.12,2.88-9.13,7.82c-0.02,5.03,3.09,7.84,9,7.85c25.38,0.04,50.77,0.04,76.15,0.01
		c18.45-0.03,31.07-12.78,31.1-31.39C485.34,263.8,485.32,243.46,485.31,223.12z"/>
	<path class="st0" d="M0,153.29c3.18-9.66,9.03-16.42,19.59-18.11c12.01-1.92,24.29,7.38,25.28,19.54
		c0.49,5.98,0.31,12.04,0.15,18.05c-0.12,4.38-3.03,7.04-7.1,7.08c-4,0.04-7.08-2.6-7.37-6.91c-0.3-4.54-0.08-9.11-0.14-13.67
		c-0.07-6.06-3.1-9.69-7.95-9.6c-4.64,0.09-7.76,3.72-7.77,9.36c-0.03,42.32-0.1,84.64,0.03,126.95
		c0.05,16.67,12.77,29.38,29.41,29.49c25.88,0.16,51.75,0.07,77.63,0.04c6.09-0.01,9.54-3.02,9.42-8.02
		c-0.12-4.78-3.52-7.66-9.34-7.66c-24.9-0.03-49.8,0-74.7-0.02c-11.56-0.01-16.7-5.12-16.71-16.64c-0.02-24.25-0.02-48.5,0.02-72.75
		c0-1.92,0.09-3.96,0.71-5.74c1.22-3.54,4.28-5.55,7.63-4.34c2.45,0.89,4.46,3.6,6.08,5.9c0.78,1.11,0.24,3.16,0.24,4.79
		c0.01,22.79,0.01,45.57,0.01,68.36c0,1.75,0,3.5,0,5.75c2.27,0,4.01,0,5.75,0c23.44,0,46.87-0.01,70.31,0
		c14.35,0.01,24.45,8.97,24.79,21.96c0.34,12.75-9.67,22.61-23.74,23.35c-1.24,0.07-2.48,0.01-4.36,0.01
		c3.02,8.2,5.8,15.77,8.61,23.34c7.51,20.26,15.1,40.49,22.44,60.81c0.87,2.4,1.23,5.57,0.4,7.87c-1.77,4.94-8.12,5.74-11.53,1.67
		c-1.41-1.69-2.3-3.9-3.08-6c-9.53-25.58-18.99-51.18-28.47-76.77c-3.37-9.1-6.28-11.13-15.92-11.14
		c-7.97-0.01-15.95-0.03-23.92,0.01c-8.25,0.04-11.75,2.55-14.36,10.45c-8.54,25.75-17.04,51.51-25.56,77.27
		c-0.46,1.39-0.81,2.83-1.42,4.15c-1.78,3.84-5.63,5.51-9.26,4.13c-3.7-1.4-5.66-5.05-4.38-9.09c3.73-11.77,7.65-23.48,11.53-35.21
		c5.65-17.12,11.33-34.23,17.1-51.66c-11.01-1.62-20.53-6.02-28.2-14.14C5.35,309.29,2.16,300.9,0,291.98
		C0,245.75,0,199.52,0,153.29z"/>
	<path class="st0" d="M273.01,188.33c15.77,0,30.71,0,46.38,0c0-7.14,0.09-14.22-0.11-21.29c-0.02-0.89-1.39-2-2.39-2.55
		c-8.35-4.64-12.24-11.78-12.18-21.22c0.02-3.25-0.13-6.52,0.08-9.76c0.4-6.1,4.5-10.41,10.63-10.63c7.64-0.28,15.3-0.26,22.93,0.01
		c5.55,0.19,9.89,4.07,10.25,9.29c0.38,5.5,0.55,11.12-0.17,16.56c-0.92,6.99-5.2,12.02-11.29,15.68c-1.43,0.86-2.8,3.06-2.88,4.71
		c-0.34,6.28-0.14,12.59-0.14,19.38c8.63,0,16.72-0.14,24.82,0.03c18.8,0.39,32.68,8.9,40.89,25.86
		c6.75,13.95-2.01,27.73-17.47,27.8c-21.15,0.1-42.31,0.04-63.46,0.01c-5.72-0.01-9.1-2.7-9.21-7.16c-0.12-4.63,3.4-7.49,9.37-7.5
		c20.34-0.02,40.68,0,61.02-0.02c7.54-0.01,9.15-2.73,5.3-9.26c-5.64-9.57-14.16-14.97-25.22-15
		c-73.72-0.15-147.43-0.15-221.15,0.01c-11.26,0.02-19.86,5.61-25.44,15.44c-3.38,5.95-1.63,8.8,5.2,8.8
		c53.21,0.01,106.43,0.01,159.64,0.01c8.92,0,10.82,1.91,10.83,10.89c0.01,6.84,0.09,13.67-0.03,20.51
		c-0.23,12.54-9.03,21.32-21.62,21.64c-3.38,0.09-6.76,0.01-10.44,0.01c-0.1,2.14-0.23,3.72-0.23,5.3
		c-0.01,29.62,0.05,59.24-0.09,88.86c-0.02,3.29,1.04,5.34,3.56,7.32c10,7.82,19.87,15.79,29.73,23.78
		c5.39,4.37,6.76,8.37,4.88,13.52c-1.89,5.17-5.53,7.36-12.35,7.37c-21.97,0.02-43.94,0.03-65.91,0.03c-6.96,0-10.73-2.19-12.5-7.18
		c-1.87-5.28-0.3-9.58,5.08-13.91c10.14-8.16,20.32-16.27,30.34-24.57c1.28-1.06,2.43-3.13,2.44-4.74
		c0.14-31.08,0.1-62.17,0.09-93.25c0-0.63-0.17-1.26-0.34-2.51c-3.39,0-6.76,0.07-10.13-0.01c-12.79-0.31-21.64-9.24-21.79-22.02
		c-0.06-5.19-0.01-10.39-0.01-16.34c-1.96,0-3.67,0-5.37,0c-28.8,0-57.61,0.02-86.41-0.01c-17.06-0.02-25.99-14.4-18-29.45
		c8.13-15.33,21.18-23.45,38.53-24.18c8.43-0.36,16.89-0.06,25.97-0.06c0-7.28,0.11-14.24-0.12-21.18
		c-0.03-1.02-1.55-2.29-2.68-2.93c-7.57-4.3-11.59-10.75-11.92-19.42c-0.15-3.9-0.23-7.83,0.1-11.7c0.54-6.3,4.5-10.22,10.78-10.43
		c7.47-0.26,14.97-0.22,22.45,0c5.31,0.16,9.83,3.22,10.11,8.14c0.42,7.34,0.54,15.08-1.41,22.04c-1.23,4.37-6.51,7.59-9.92,11.37
		c-0.98,1.09-2.46,2.32-2.51,3.54c-0.25,6.64-0.12,13.29-0.12,20.24c15.43,0,30.49,0,46.34,0c0-1.63,0-3.33,0-5.03
		c0-14.32,0.39-28.66-0.13-42.96c-0.39-10.95,3.4-19.85,11.28-26.9c4.19-3.75,5.67-7.73,5.3-13.16c-0.42-6.16-0.15-12.36-0.07-18.55
		c0.06-4.99,2.81-8.16,6.99-8.33c4.4-0.17,7.56,3.08,7.63,8.24c0.12,7.65-0.13,15.3,0.15,22.94c0.07,2,1.18,4.2,2.42,5.87
		c3.09,4.16,7.21,7.7,9.64,12.18c2.22,4.12,3.74,9.11,3.88,13.77c0.47,15.45,0.17,30.92,0.17,46.38
		C273.01,184.38,273.01,186.14,273.01,188.33z M224.61,242.42c0,5.76-0.07,10.95,0.02,16.14c0.08,4.4,2.37,7.19,6.84,7.24
		c12.02,0.16,24.05,0.09,36.07,0.05c3.49-0.01,6.4-1.75,6.67-5.19c0.48-6.05,0.13-12.16,0.13-18.24
		C257.53,242.42,241.34,242.42,224.61,242.42z M258.24,188.24c0-17.64,0.26-34.71-0.2-51.75c-0.1-3.76-2.23-7.78-4.36-11.08
		c-2.44-3.79-6.55-3.73-8.65,0.25c-2.21,4.16-4.21,8.98-4.38,13.58c-0.55,14.77-0.2,29.58-0.2,44.37c0,1.54,0,3.08,0,4.64
		C246.73,188.24,252.2,188.24,258.24,188.24z M249.57,392.17c-7.97,6.42-15.78,12.7-24.35,19.6c16.72,0,32.16,0,48.8,0
		C265.38,404.84,257.61,398.61,249.57,392.17z M319.44,137.7c0.14,5.36-1.56,10.97,4.19,13.41c2.17,0.92,5.99,0.39,7.91-1.03
		c4.31-3.19,2.27-8.09,2.52-12.38C328.84,137.7,324.36,137.7,319.44,137.7z M179.36,137.84c-5.09,0-9.8,0-14.7,0
		c0.13,5-1.57,10.31,3.63,13.04c2.02,1.06,5.63,0.98,7.6-0.16C180.87,147.84,179.29,142.66,179.36,137.84z"/>
</g>
</svg>
