<?xml version="1.0" encoding="utf-8"?>
<!-- Generator: Adobe Illustrator 27.9.0, SVG Export Plug-In . SVG Version: 6.00 Build 0)  -->
<svg version="1.1" id="Layer_1" xmlns="http://www.w3.org/2000/svg" xmlns:xlink="http://www.w3.org/1999/xlink" x="0px" y="0px"
	 viewBox="0 0 500 500" style="enable-background:new 0 0 500 500;" xml:space="preserve">
<style type="text/css">
	.st0{fill:#EC1F28;}
</style>
<g>
	<path class="st0" d="M109.34,0c11.17,1.94,22.32,3.95,33.5,5.8c12.19,2.02,24.42,3.8,36.6,5.85c8.11,1.36,12.85,5.99,14.05,14.05
		c1.77,11.9,3.01,23.88,4.9,35.76c0.43,2.72,2.22,5.49,4.06,7.67c3.44,4.09,7.86,7.4,11.02,11.67c9.04,12.21,5.3,25.56-9.03,30.47
		c-5.97,2.05-7.45,4.92-7.98,10.76c-2.8,30.83-22.42,54.03-52.42,62.83c-0.92,0.27-1.81,0.66-3.02,1.11
		c5.43,8.69,8.98,17.82,9.68,27.96c0.07,0.98,1.28,2.26,2.28,2.75c24.46,11.78,50.04,19.89,77.15,23.54
		c4.05-10.78,7.8-21.48,12.05-31.97c18.84-46.5,44.56-88.52,80.99-123.49c14.49-13.91,30.34-26.07,47.51-36.51
		c3.03-1.84,5.96-3.41,9.53-1.48c3.79,2.05,3.97,5.56,3.97,9.27c-0.02,58.27-0.01,116.53-0.01,174.8c0,58.75,0,117.51,0,176.26
		c0,2.1,0,4.19,0,6.53c8.9,0.82,17.44,1.35,25.92,2.43c16.67,2.13,33.08,5.57,48.14,13.38c5.27,2.74,10.45,6.15,14.7,10.26
		c10.55,10.21,10.32,23.73-0.05,34.13c-7.66,7.68-17.28,12.05-27.37,15.43c-29.35,9.85-59.58,11.28-90.16,9.26
		c-2.76-0.18-5.53-0.34-8.26-0.77c-4.57-0.71-7.41-3.94-7.14-7.83c0.29-4.18,3.66-6.87,8.55-6.71c12.19,0.41,24.38,1.33,36.56,1.18
		c20.76-0.26,41.19-3.17,60.62-10.93c4.78-1.91,9.45-4.45,13.63-7.45c8.91-6.4,8.89-12.49-0.17-18.79
		c-4.62-3.21-9.8-5.82-15.05-7.88c-19-7.46-38.97-9.77-59.91-10.64c0,5.96,0.01,11.6,0,17.24c0,2.12,0.08,4.24-0.1,6.34
		c-0.4,4.42-3.15,7.05-7.19,7.07c-3.99,0.01-7.01-2.61-7.27-7c-0.31-5.35-0.13-10.74-0.16-16.11c-0.01-2.27,0-4.53,0-7.78
		c-8.22,0.74-16.11,1.22-23.93,2.19c-15.07,1.85-29.82,5.07-43.51,11.91c-3.31,1.65-6.52,3.73-9.34,6.12
		c-6.54,5.53-6.79,11.12,0.26,16.03c6.31,4.4,13.62,7.39,20.58,10.81c2.31,1.13,4.99,1.49,7.37,2.51c3.86,1.64,5.66,5.55,4.16,9.23
		c-1.54,3.78-4.6,5.68-8.61,4.58c-11.18-3.07-21.99-7.09-31.31-14.25c-16.2-12.45-16.24-29.68,0.1-41.94
		c13.63-10.22,29.66-14.67,46.06-17.54c12.44-2.18,25.06-3.26,37.89-4.86c0-114.99,0-230.27,0-346.73
		c-63.28,43.5-99.64,104.62-123.67,174.93c3.63,0.66,6.56,0.92,9.33,1.74c11.33,3.33,18.67,14.42,17.54,26.18
		c-1.12,11.66-10.66,21.08-22.57,21.86c-5.66,0.37-11.36,0.06-17.69,0.06c-1.2,7.06-2.33,14.24-3.68,21.38
		c-0.41,2.18-0.77,5.09-2.25,6.16c-2.09,1.51-5.74,2.86-7.71,1.99c-2.2-0.97-4.7-4.58-4.57-6.91c0.43-7.76,1.97-15.45,3.19-23.92
		c-27.48-2.94-54.67-7.95-81.3-17.56c-2.63,7.63-5.17,14.95-7.67,22.3c-4.91,14.46-9.55,29.02-14.79,43.36
		c-2.85,7.81-3.53,15.78-3.9,23.91c-0.24,5.36-0.41,10.74-0.85,16.08c-0.39,4.62-3.53,7.53-7.5,7.36c-3.97-0.16-7.34-3.45-7.03-7.88
		c1.16-16.28-0.39-32.97,6.87-48.4c0.73-1.56,1.06-3.31,1.69-5.37c-19.6,0-38.72,0-58.67,0c2.79,5.39,5.68,10.4,7.99,15.66
		c1.4,3.17,2.55,6.7,2.73,10.13c1.81,33.31,3.39,66.63,5.06,99.95c0.08,1.61,0.31,3.21,0.5,5.13c9.87,0,19.54,0,29.88,0
		c0.5-9.09,1.02-18.28,1.52-27.48c0.34-6.34,0.58-12.68,0.97-19.01c0.32-5.14,3.02-7.94,7.39-7.89c4.49,0.06,7.46,3.32,7.22,8.56
		c-0.97,21.13-1.88,42.27-3.21,63.38c-0.95,15.09-9.96,23.71-23.97,27.79c-3.26,0-6.51,0-9.77,0c-18.71-7.07-23.58-14.3-24.46-34.54
		c-1.55-35.59-3.55-71.15-5.06-106.74c-0.32-7.53-2.14-14.26-5.94-20.7c-3.3-5.59-6.24-11.4-9.1-17.24
		c-6.81-13.87-8.7-28.43-3.42-43.05c9.14-25.35,18.78-50.52,28.6-75.61c3.98-10.17,9.53-19.61,17.41-27.4
		c2.49-2.46,5.25-4.64,7.91-6.96c-19.22-19.95-25.97-43.15-19.36-69.73c1.25-5.03,0.52-7.45-3.51-10.6
		c-11.73-9.18-11.39-22.76,0.69-31.51c4.54-3.29,10.04-5.25,14.9-8.14c2.05-1.22,4.23-2.96,5.27-5.02
		c4.99-9.85,9.83-19.79,14.26-29.9C91.17,6.66,95.11,2.2,101.52,0C104.13,0,106.73,0,109.34,0z M121.95,267.22
		c-5.82-2.92-11.57-5.28-16.76-8.52c-9.77-6.1-19.33-12.55-28.73-19.19c-3.99-2.82-4.29-7.36-1.53-10.66
		c2.6-3.11,6.68-3.43,10.5-0.82c0.54,0.37,1.04,0.78,1.55,1.18c13.88,11.25,29.37,19.7,45.88,26.38c4,1.62,8.08,3.04,12.44,4.67
		c3.61-8.9,6.98-17.24,10.44-25.77c-2.46-1.17-4.34-2.09-6.24-2.98c-18.02-8.44-35.03-18.53-50.66-30.88
		c-5.34-4.22-6.35-8.04-3.37-11.92c2.98-3.88,7.01-3.76,12.32,0.27c3.49,2.65,6.99,5.33,10.63,7.77c4.86,3.26,9.86,6.32,15.45,9.87
		c-2.07-11.07-8.68-18.61-17.94-21.37c-6.84-2.04-13.78-3.83-20.5-6.22c-4.34-1.54-7.89-0.67-11.4,1.76
		c-7.44,5.15-13.01,12.12-16.28,20.3c-10.97,27.41-21.81,54.9-31.68,82.72c-2.28,6.44-0.65,14.35-0.38,21.56
		c0.04,1.18,2.31,3.25,3.57,3.26c21.95,0.2,43.91,0.18,65.87,0.05c1.19-0.01,3.06-1.23,3.44-2.3
		C113.13,293.39,117.5,280.34,121.95,267.22z M71.62,99.39c-3.08,8.97-3.75,18.86-1.25,28.61c4.93,19.18,14.78,34.17,35.67,39
		c5.68,1.32,11.2,3.33,16.84,4.87c1.84,0.51,3.83,0.84,5.73,0.74c25.99-1.4,47.9-20.64,52.66-46.28c0.63-3.4,0.78-6.88,1.2-10.8
		c-8.74,0-16.47,0-24.22,0c3.6,9.04,2.63,14.74-3.16,18.67c-4.69,3.18-11.3,2.93-15.27-1.13c-1.83-1.87-3.91-4.69-3.83-7
		c0.17-4.35,1.82-8.65,2.73-12.44C117.27,109.08,94.79,104.31,71.62,99.39z M173.69,100.91c1.14,0,2.29,0.13,3.41-0.02
		c7.52-1.03,15.14-1.64,22.5-3.36c4.44-1.03,5.06-4.14,2.28-7.85c-2.03-2.71-4.64-4.99-6.97-7.47c-2.61-2.79-5.55-3.55-9.53-3.21
		c-36.8,3.15-72.19-2.59-106.13-17.28c-1.41-0.61-3.51-0.57-4.95,0c-3.61,1.43-7.18,3.08-10.48,5.11c-5.45,3.35-5.77,6.54-0.48,9.93
		c5.14,3.3,10.72,6.25,16.49,8.17C110.27,95.09,141.78,99.24,173.69,100.91z M87.44,49.52c31.24,12.28,62.88,17.53,96.37,15.17
		c-0.45-3.38-0.81-6.04-1.24-9.19c-6.09,0-11.92,0.07-17.76-0.04c-2.1-0.04-4.29-0.18-6.26-0.81c-3.72-1.19-5.61-4.07-4.96-7.9
		c0.72-4.29,3.72-6.25,8.05-6.23c6.26,0.03,12.53,0.01,19.02,0.01c-0.41-3.47-0.95-6.68-1.11-9.91c-0.16-3.15-1.59-4.5-4.68-4.98
		c-22.64-3.49-45.26-7.13-67.91-10.57c-1.21-0.18-3.23,0.68-3.85,1.69c-1.82,2.98-3.11,6.27-5.1,10.47c11.46,3.11,22.2,6.14,33,8.91
		c5.82,1.5,8.58,4.59,7.62,9.3c-0.89,4.33-4.76,6.51-10.41,5.18c-8.05-1.89-16.04-4.11-24-6.38c-4.13-1.18-8.15-2.77-12.3-4.2
		C90.43,43.21,89.12,45.98,87.44,49.52z M159.5,264.41c1.66,0.55,2.7,0.96,3.78,1.24c27.16,7.03,54.78,10.62,82.83,11
		c7.05,0.1,11.49-3.64,11.66-9.62c0.16-5.89-4-9.82-11.09-10.33c-25.23-1.81-49.81-6.72-73.59-15.42c-1.15-0.42-2.38-0.64-3.75-1
		C166.03,248.37,162.86,256.16,159.5,264.41z M89.2,469.93c-9.59,0-18.81,0-28.02,0c0,8.94,5.57,15.14,13.59,15.36
		C82.9,485.51,88.74,479.43,89.2,469.93z"/>
</g>
</svg>
