<?xml version="1.0" encoding="utf-8"?>
<!-- Generator: Adobe Illustrator 27.9.0, SVG Export Plug-In . SVG Version: 6.00 Build 0)  -->
<svg version="1.1" id="Layer_1" xmlns="http://www.w3.org/2000/svg" xmlns:xlink="http://www.w3.org/1999/xlink" x="0px" y="0px"
	 viewBox="0 0 500 500" style="enable-background:new 0 0 500 500;" xml:space="preserve">
<style type="text/css">
	.st0{fill:#EC1F28;}
</style>
<g>
	<path class="st0" d="M0,350.57c6.65-31.91,30.12-48.96,56.44-63.12c26.26-14.12,54.63-22.44,83.7-28.47
		c3.59-0.74,4.73-1.97,4.71-5.64c-0.15-29.95-0.14-59.9-0.01-89.85c0.02-3.38-0.92-4.68-4.3-5.55c-6.89-1.77-11.55-7.93-11.75-15.1
		c-0.24-8.62-0.18-17.25-0.06-25.88c0.07-4.63,3.06-7.61,7.14-7.63c4.08-0.02,7.2,2.87,7.35,7.53c0.24,7.48,0.05,14.97,0.11,22.46
		c0.04,5.04,0.79,5.62,5.41,4.04c31.34-10.75,62.69-21.49,93.95-32.48c2.14-0.75,4.57-3.33,5.09-5.49c0.84-3.47-2.37-4.82-5.28-5.82
		c-31.18-10.71-62.36-21.46-93.54-32.17c-4.95-1.7-5.58-1.21-5.64,4.2c-0.04,3.91,0.09,7.82-0.05,11.72
		c-0.19,5.28-3.18,8.49-7.57,8.36c-4.17-0.12-6.89-3.27-7.02-8.29c-0.09-3.42-0.03-6.84-0.02-10.25
		c0.01-13.46,2.98-17.59,16.11-21.84c0-2.9-0.14-5.97,0.03-9.03c0.26-4.8,3.47-8.03,7.58-7.87c4.03,0.15,6.72,3.19,7,7.86
		c0.27,4.45-0.97,10.11,1.3,13.02c2.36,3.03,8.11,3.46,12.4,4.94c24.88,8.58,49.79,17.05,74.63,25.72
		c12.12,4.23,17.72,15.01,13.83,26.1c-2.4,6.84-7.55,10.65-14.24,12.93c-27.52,9.38-54.96,19-82.53,28.22
		c-4.36,1.46-5.52,3.48-5.49,7.91c0.21,29.3,0.11,58.59,0.11,87.89c0,1.77,0,3.54,0,6.02c4.22-0.51,7.98-1.08,11.77-1.41
		c20.41-1.8,40.81-3.63,61.23-5.24c5.43-0.43,8.67,2.36,8.92,6.8c0.27,4.72-2.67,7.26-8.49,7.79c-23.15,2.13-46.28,4.38-69.43,6.52
		c-2.64,0.24-4.08,0.96-4.06,4.08c0.12,20.67,0.08,41.34,0.1,62.01c0,0.47,0.18,0.93,0.4,1.94c1.52-0.09,3.05-0.17,4.59-0.27
		c19.16-1.24,38.11-0.23,56.23,6.66c5.69,2.16,11.28,5.22,16.06,8.96c11.34,8.86,11.12,22.52,0,31.68
		c-9.33,7.68-20.49,11.15-32.1,13.26c-24.24,4.42-48.33,4.03-71.67-4.47c-6.55-2.39-12.99-6.24-18.23-10.84
		c-9.04-7.93-8.69-19.48-0.11-27.95c6.91-6.82,15.54-10.65,24.83-12.81c4.31-1,5.5-2.88,5.43-7.26
		c-0.28-18.55-0.12-37.11-0.12-55.66c0-1.75,0-3.5,0-6.28c-11.57,3.02-22.46,5.54-33.15,8.71c-25.21,7.47-49.54,17.02-70.6,33.24
		c-5.75,4.43-11.13,9.6-15.7,15.22c-14.47,17.81-14.19,36.88,0.34,54.68c11.58,14.18,26.7,23.67,42.9,31.55
		c30.39,14.79,62.74,23.07,95.94,28.37c47.02,7.49,94.26,8.61,141.58,3.79c44.54-4.53,88.01-13.5,128.51-33.67
		c4.87-2.43,8.84-1.37,10.93,2.58c2.17,4.08,0.51,8.05-4.6,10.62c-29.3,14.72-60.51,23.5-92.61,29.33
		c-43.1,7.84-86.57,10.19-130.26,7.7c-48.46-2.76-95.96-10.52-141.22-28.95c-16.94-6.9-32.99-15.39-47.32-26.89
		C14.89,397.11,4.23,382.8,0,364.24C0,359.68,0,355.12,0,350.57z M159.71,384.77c20.87,2.09,41.27,1.51,60.71-7.13
		c4.19-1.86,10.35-4.12,9.43-9.08c-0.65-3.53-5.82-7.06-9.75-9.01c-12.14-6.03-25.4-7.73-38.8-7.96c-7.2-0.12-14.41,0.36-21.89,0.57
		c0,10.47-0.01,19.88,0.01,29.29C159.43,382.4,159.58,383.35,159.71,384.77z M144.4,382.97c0-10.22,0-18.72,0-28.72
		c-6.72,3.49-12.82,6.11-18.29,9.68c-4.44,2.9-4.44,6.46-0.01,9.35C131.58,376.85,137.68,379.47,144.4,382.97z"/>
	<path class="st0" d="M500,363.26c-3.66,18.39-13.85,32.65-28.06,44.35c-4.28,3.53-8.71,3.39-11.54-0.27
		c-2.45-3.16-1.81-7.03,1.52-10.42c4.89-4.97,10.26-9.61,14.41-15.16c12.2-16.28,12.03-33.49,0-50.04
		c-8.79-12.09-20.64-20.62-33.42-27.97c-20.29-11.67-42.16-19.34-64.65-25.43c-0.61-0.16-1.27-0.15-2.12-0.24
		c-9.59,21.58-25.64,32.52-49.57,28.11c-18.92-3.48-29.38-17.08-33.53-41.79c-5.57-0.31-11.34-0.64-17.11-0.97
		c-2.92-0.17-5.85-0.3-8.77-0.53c-5.27-0.41-8.41-3.46-8.08-7.77c0.33-4.3,3.83-7.03,9.06-6.79c7.63,0.34,15.28,0.66,22.89,1.36
		c3.66,0.34,5.61-0.39,7.45-4.03c8.34-16.45,26.18-25.03,44.5-21.98c17.35,2.9,31.52,17.24,34,35.04c0.56,3.98,2.67,4.92,5.84,5.74
		c24.77,6.48,48.66,15.22,70.73,28.43c11.65,6.97,22.24,15.24,31.15,25.59c7.8,9.07,12.41,19.63,15.3,31.08
		C500,354.15,500,358.71,500,363.26z M335.72,237.76c-15.05-0.09-27.29,11.95-27.52,27.07c-0.23,15.19,12.11,27.82,27.26,27.9
		c15.02,0.09,27.72-12.61,27.65-27.64C363.04,250.16,350.71,237.85,335.72,237.76z"/>
	<path class="st0" d="M80.95,353.78c0.22-1.41,0.44-4.01,1.06-6.5c1.01-4.04,3.85-5.96,7.93-5.48c4.17,0.5,6.23,3.32,6.29,7.34
		c0.04,2.56-0.38,5.17-0.92,7.69c-0.89,4.16-3.53,6.54-7.91,6.29C83.39,362.91,80.84,359.51,80.95,353.78z"/>
	<path class="st0" d="M356.39,390.2c-0.42,2.83-0.56,5.62-1.29,8.25c-1.03,3.71-3.8,5.76-7.64,5.36c-4.02-0.42-6.56-2.95-6.55-7.11
		c0.01-3.04,0.36-6.19,1.21-9.1c1.15-3.92,4.18-5.71,8.27-4.97C354.55,383.38,356.18,386.33,356.39,390.2z"/>
	<path class="st0" d="M275.43,314.99c-0.2,1.27-0.42,3.7-1,6.04c-1,4.04-3.85,6.01-7.89,5.53c-4.09-0.48-6.28-3.25-6.37-7.31
		c-0.05-2.4,0.38-4.83,0.81-7.21c0.87-4.79,4.16-7.31,8.48-6.69C273.54,305.96,275.66,308.95,275.43,314.99z"/>
	<path class="st0" d="M383.57,347.05c0.09,3.96-2.57,7.21-6.41,7.65c-4.04,0.46-7.2-1.8-8.04-5.99c-0.51-2.53-0.89-5.12-0.96-7.69
		c-0.12-4.22,2.61-7.45,6.5-7.66c4.1-0.22,6.82,1.91,7.8,5.85C383.08,341.7,383.2,344.32,383.57,347.05z"/>
	<path class="st0" d="M58.53,352.08c-0.36-6.61,1.83-9.79,6.03-10.31c4.45-0.56,7.57,2.11,8.42,7.37c0.36,2.23,0.7,4.5,0.65,6.75
		c-0.09,4.13-2.41,6.75-6.45,7.21c-3.83,0.44-6.58-1.53-7.64-5.28C58.89,355.5,58.7,353.05,58.53,352.08z"/>
	<path class="st0" d="M318.26,390.51c0.18-4.51,2.02-7.23,6.17-7.94c3.94-0.68,7.34,1.62,8.27,5.71c0.57,2.51,0.92,5.1,1.06,7.68
		c0.22,4.05-2.58,7.36-6.39,7.88c-3.79,0.52-7.2-1.99-8.03-6.08C318.82,395.23,318.57,392.65,318.26,390.51z"/>
	<path class="st0" d="M253,317.82c-0.01,5.32-2.41,8.3-6.33,8.82c-3.78,0.5-7.2-1.97-8.08-6.08c-0.54-2.52-0.99-5.12-0.98-7.68
		c0.01-4,1.98-6.79,6.14-7.49c4-0.67,7.29,1.61,8.2,5.73C252.51,313.63,252.76,316.22,253,317.82z"/>
	<path class="st0" d="M390.66,345.93c0.26-1.74,0.5-4.16,0.99-6.53c0.85-4.04,4.35-6.58,8.1-6.02c3.83,0.57,6.53,3.83,6.33,7.94
		c-0.11,2.25-0.5,4.5-0.88,6.73c-0.77,4.5-3.9,7.06-8.04,6.69C393.07,354.36,390.53,351.18,390.66,345.93z"/>
</g>
</svg>
