<?xml version="1.0" encoding="utf-8"?>
<!-- Generator: Adobe Illustrator 27.9.0, SVG Export Plug-In . SVG Version: 6.00 Build 0)  -->
<svg version="1.1" id="Layer_1" xmlns="http://www.w3.org/2000/svg" xmlns:xlink="http://www.w3.org/1999/xlink" x="0px" y="0px"
	 viewBox="0 0 500 500" style="enable-background:new 0 0 500 500;" xml:space="preserve">
<style type="text/css">
	.st0{fill:#EC1F28;}
</style>
<g>
	<path class="st0" d="M92.18,325.13c0-2.34,0-3.99,0-5.64c0-19.73-0.04-39.46,0.01-59.19c0.04-13.59,8.67-23.99,21.39-25.96
		c15.22-2.36,27.54,4.4,31.59,17.99c12.67,42.56,25.12,85.18,37.59,127.79c0.62,2.11,0.75,4.42,0.76,6.64
		c0.06,15.37,0.03,30.75,0.03,46.75c5.31,0,10.27-0.05,15.23,0.01c6.11,0.08,8.74,2.32,9.79,8.43c2.69,15.67,5.37,31.35,7.95,47.05
		c1.15,7.01-2.48,10.96-10.07,10.96c-39.45,0.03-78.91,0.01-118.36,0.02c-25.26,0-50.53,0.01-75.79,0c-9.46,0-12.41-3.61-10.82-12.9
		c2.56-15,4.99-30.01,7.55-45.01c1.08-6.36,3.68-8.47,10.2-8.54c3.62-0.04,7.23-0.01,11.48-0.01c-2.18-6.69-4.16-12.91-6.22-19.09
		c-7.37-22.13-14.82-44.23-22.1-66.39c-0.95-2.89-1.49-6.06-1.5-9.11c-0.1-39.46-0.1-78.93,0-118.39c0.01-2.87,0.53-5.87,1.48-8.58
		c14.64-41.74,29.38-83.44,44.11-125.14c6.65-18.82,31.34-25.92,47.15-13.58c8.36,6.53,11.46,16.77,8.17,28.01
		c-10.97,37.47-22.06,74.91-32.99,112.4c-0.95,3.26-1.43,6.77-1.46,10.16c-0.14,18-0.1,36-0.02,54c0.01,2,0.21,4.25,1.13,5.95
		c7.26,13.37,14.71,26.63,22.12,39.92C90.77,324.04,91.22,324.28,92.18,325.13z M166.92,433.51c0-16.43,0.02-32.15-0.04-47.88
		c-0.01-1.34-0.53-2.7-0.92-4.02c-11.99-40.76-23.98-81.52-36-122.27c-2.2-7.46-5.64-9.58-13.49-8.56
		c-5.43,0.7-7.67,4.03-7.67,11.47c-0.01,31.14-0.05,62.29,0.05,93.43c0.02,5.11-0.86,9.58-6.41,11c-5.33,1.36-8.17-2.02-10.54-6.31
		c-12.85-23.3-25.9-46.5-38.65-69.86c-1.57-2.88-2.44-6.5-2.48-9.79c-0.22-20.07-0.16-40.14-0.06-60.21
		c0.02-2.89,0.45-5.87,1.26-8.65c5.58-19.24,11.31-38.44,16.98-57.65c5.57-18.88,11.1-37.78,16.7-56.66
		c1.33-4.48,1.48-8.64-2.88-11.58c-6.92-4.66-18.06-0.95-20.83,6.87c-14.45,40.87-28.91,81.73-43.27,122.63
		c-0.84,2.38-1.18,5.05-1.19,7.58c-0.07,37.89-0.07,75.78,0,113.67c0,2.54,0.36,5.19,1.16,7.6c9.31,28.21,18.8,56.35,28.03,84.59
		c1.18,3.61,2.84,4.68,6.56,4.66c33.73-0.15,67.46-0.09,101.19-0.09C158.37,433.51,162.32,433.51,166.92,433.51z M193.12,450.35
		c-56.62,0-112.45,0-168.68,0c-1.8,10.95-3.58,21.74-5.38,32.69c60.2,0,119.63,0,179.53,0
		C196.73,471.95,194.94,461.25,193.12,450.35z"/>
	<path class="st0" d="M408.91,324.68c7.63-13.74,15.3-27.44,22.81-41.25c0.84-1.55,0.95-3.63,0.97-5.47
		c0.1-8.48-0.47-16.99,0.14-25.43c1.67-23.13-2.56-45.18-9.67-67.13c-9.04-27.92-16.84-56.25-25.02-84.45
		c-4.43-15.29,3.71-29.98,18.79-32.36c16.84-2.66,30.56-0.16,37.7,20.83c13.9,40.88,28.61,81.48,42.86,122.23
		c1.06,3.02,1.61,6.38,1.61,9.58c0.11,39.1,0.11,78.21,0,117.31c-0.01,3.21-0.56,6.56-1.56,9.61
		c-8.63,26.25-17.44,52.44-26.17,78.66c-0.65,1.95-1.18,3.94-2,6.68c4.28,0,8.15-0.06,12.03,0.01c5.78,0.11,8.54,2.42,9.52,8.13
		c2.7,15.67,5.33,31.35,7.94,47.03c1.25,7.5-2.35,11.28-10.74,11.28c-61.93,0.01-123.86,0.01-185.78,0.01
		c-3.29,0-6.58,0.08-9.86-0.02c-6.47-0.2-10.07-4.18-9.06-10.45c2.6-16.21,5.36-32.4,8.15-48.57c0.86-4.98,4.07-7.41,9.11-7.41
		c5,0,10,0,15.76,0c0-3.27,0.19-6.32-0.03-9.35c-2.05-27.79,2.44-54.46,11.27-80.91c9.78-29.3,17.65-59.25,26.4-88.9
		c4.61-15.62,17.76-23.26,33.74-19.71c11.83,2.62,19.86,12.28,19.94,24.51c0.14,20.07,0.04,40.14,0.05,60.21c0,1.68,0,3.36,0,5.05
		C408.18,324.5,408.55,324.59,408.91,324.68z M333.1,433.2c1.21,0.16,1.71,0.28,2.22,0.28c37.54,0.01,75.07-0.05,112.61,0.13
		c3.91,0.02,4.48-2.18,5.36-4.82c9.32-28.02,18.7-56.03,27.95-84.08c0.85-2.57,1.27-5.39,1.28-8.1c0.08-37.89,0.08-75.78,0-113.67
		c-0.01-2.53-0.38-5.2-1.22-7.58c-14.24-40.58-28.58-81.12-42.91-121.66c-2.92-8.26-4.25-9.15-13.27-9.14
		c-10.3,0.02-13.28,4.06-10.35,14.08c7.19,24.53,13.62,49.32,21.81,73.51c9.76,28.83,14.06,57.94,13.26,88.47
		c-0.46,17.5-3.19,32.94-12.64,47.88c-10.8,17.06-19.82,35.23-29.68,52.88c-2.92,5.22-7.16,6.87-11.53,4.75
		c-4.01-1.95-4.83-5.42-4.82-9.51c0.06-31.49,0.04-62.98,0.03-94.47c0-8.89-3.14-11.77-11.94-11.44c-5.77,0.22-7.89,3.83-9.32,8.73
		c-8.75,30.01-17.64,59.98-26.45,89.97c-3.5,11.93-8.61,23.69-9.96,35.87C331.79,400.97,333.1,417,333.1,433.2z M301.43,483.11
		c60.1,0,119.55,0,179.57,0c-1.87-11.15-3.68-21.97-5.49-32.82c-56.42,0-112.28,0-168.62,0C305.07,461.19,303.27,472,301.43,483.11z
		"/>
	<path class="st0" d="M181.11,159.13c-20.75-16.04-25.39-38.69-26.62-62.77c-0.26-5.09,2.48-7.99,7.1-9.54
		c14.65-4.9,29.61-6.69,44.97-4.65c1.51,0.2,3.04,0.25,5.12,0.42c-0.83-4.68-1.57-8.99-2.36-13.3
		c-2.99-16.17,1.07-30.81,11.18-43.28c6.8-8.38,14.98-15.72,22.99-23.03c4.51-4.12,8.21-3.79,13.08-0.1
		c12.54,9.51,23.24,20.59,30.18,35c6.3,13.09,5.45,26.47,2.39,40.04c-0.3,1.33-0.63,2.66-1.12,4.72c3.13-0.35,5.8-0.71,8.47-0.93
		c14.13-1.16,27.95,0.27,41.38,4.97c6.07,2.13,8.35,4.52,7.49,10.67c-1.6,11.41-3.25,22.92-6.37,33.96
		c-3.2,11.31-10.08,20.75-20.52,27.76c6.77,1.79,12.95,3.23,19.02,5.07c6.66,2.02,8.74,4.45,7.87,11.37
		c-1.34,10.58-2.39,21.44-5.69,31.48c-11.12,33.81-47.15,50.06-81.13,36.99c0,7.65,0,15.13,0,22.99c-5.71,0-10.95,0-16.65,0
		c0-7.52,0-15.06,0-21.62c-8.18,1.26-16.14,3.9-23.92,3.44c-33.8-2.02-55.26-21.54-61.29-54.8c-1.17-6.44-1.59-13.02-2.15-19.56
		c-0.45-5.19,1.95-8.59,7.06-9.98C168.03,162.7,174.48,160.94,181.11,159.13z M170.25,102.27c2.72,9.41,4.5,19.36,8.42,28.37
		c7.09,16.25,30.7,27.32,47.83,23.63c10.33-2.23,16.15-10.1,13.32-20.27C231.15,102.87,204.2,89.78,170.25,102.27z M329.7,100.81
		c-8.22-1.19-15.12-2.52-22.1-3.15c-21.62-1.94-43.88,15.36-47.64,36.76c-1.77,10.09,3.34,17.66,13.4,19.85
		c19.39,4.22,43.27-9.13,50.13-28.61C326.16,118.08,327.45,110.02,329.7,100.81z M251.32,18.43c-0.92,0.01-1.85,0.02-2.77,0.03
		c-6.24,7.75-13.07,15.1-18.58,23.34c-10.66,15.95-2.13,42.9,7.46,52.11c7.98,7.66,17.26,7.62,25.22-0.09
		c9.45-9.15,18.23-36.36,7.07-52.59C264.2,33.2,257.49,26,251.32,18.43z M195.56,174.8c-3.26,0.33-6.57,0.44-9.78,1.04
		c-17.64,3.27-15.5,0.08-12.33,17.09c4.7,25.23,26.08,41.71,49.83,39.4c13.17-1.28,19.6-10.46,16.29-23.25
		C234.62,190.04,215.14,174.94,195.56,174.8z M304.95,174.45c-19.83,0.12-40.16,15.95-44.62,35.24c-2.9,12.54,3.27,21.26,16,22.59
		c20.71,2.17,41.92-11.56,48.1-31.53c1.83-5.91,2.57-12.14,3.93-18.2c0.62-2.73-0.02-4.2-3.02-4.66
		C318.52,176.86,311.74,175.61,304.95,174.45z M258.62,166.37c0,4.54,0,8.52,0,13.16c3.51-3.32,6.52-6.16,9.68-9.14
		C264.9,168.98,262.06,167.8,258.62,166.37z M241.29,179.42c0-4.71,0-8.7,0-13.04c-3.39,1.43-6.3,2.66-9.62,4.06
		C234.92,173.47,237.89,176.24,241.29,179.42z"/>
	<path class="st0" d="M283.22,342.12c0,8.35,0.07,15.95-0.02,23.55c-0.07,6.49-3.1,9.63-9.51,9.66c-15.74,0.08-31.48,0.08-47.22,0
		c-6.68-0.03-9.63-3.14-9.68-10.01c-0.06-7.56-0.01-15.13-0.01-23.2c-7.88,0-15.27-0.11-22.66,0.04c-4.8,0.1-8.7-1.19-10.17-6.13
		c-1.42-4.76,1.31-7.75,4.97-10.34c18.19-12.9,36.37-25.82,54.43-38.92c4.6-3.33,8.58-3.45,13.19-0.12
		c18.21,13.17,36.52,26.21,54.84,39.23c3.7,2.63,6.17,5.75,4.58,10.47c-1.56,4.65-5.3,5.89-9.89,5.8
		C298.65,342.02,291.25,342.12,283.22,342.12z M218.65,324.92c14.56,1.9,14.74,2.11,14.74,16.23c0,5.8,0,11.6,0,17.31
		c11.45,0,22.11,0,33.23,0c0-6.45,0.26-12.65-0.06-18.81c-0.54-10.68,2-14.96,13.41-14.28c0.18,0.01,0.38-0.44,0.77-0.91
		c-9.54-6.84-19.03-13.73-28.67-20.38c-0.98-0.68-3.33-0.51-4.38,0.22C238.16,310.87,228.79,317.67,218.65,324.92z"/>
	<path class="st0" d="M132.82,129.48c-12.07,29.18-9.46,56.85,7.58,83.39c-4.47,3.09-8.7,6.01-12.91,8.91
		c-19.35-23.22-25.58-66.84-9.3-98.92C122.95,125.02,127.75,127.19,132.82,129.48z"/>
	<path class="st0" d="M372.87,222c-4.45-3.07-8.68-5.98-13.25-9.13c16.94-26.46,19.65-54.11,7.55-83.34
		c4.98-2.25,9.78-4.42,14.55-6.59C396.55,151.45,394.11,193.26,372.87,222z"/>
	<path class="st0" d="M158.71,18.17c0-5.32,0-10.64,0-16.32c5.42,0,10.65,0,16.45,0c0,5.43,0,10.88,0,16.32l0.15-0.14
		c-5.59,0-11.17,0-16.76,0L158.71,18.17z"/>
	<path class="st0" d="M324.84,18.17c0-5.32,0-10.64,0-16.32c5.42,0,10.65,0,16.45,0c0,5.43,0,10.88,0,16.32l0.15-0.14
		c-5.59,0-11.17,0-16.76,0L324.84,18.17z"/>
	<path class="st0" d="M158.7,34.64c-5.32,0-10.64,0-16.32,0c0-5.43,0-10.66,0-16.47c5.44,0,10.88,0,16.33,0c0,0-0.15-0.14-0.15-0.14
		c0,5.59,0,11.17,0,16.76L158.7,34.64z"/>
	<path class="st0" d="M175.16,18.17c5.32,0,10.64,0,16.33,0c0,5.43,0,10.66,0,16.47c-5.43,0-10.87,0-16.32,0l0.14,0.15
		c0-5.59,0-11.17,0-16.76L175.16,18.17z"/>
	<path class="st0" d="M324.82,34.64c-5.32,0-10.64,0-16.32,0c0-5.43,0-10.65,0-16.47c5.44,0,10.88,0,16.33,0
		c0,0-0.15-0.14-0.15-0.14c0,5.59,0,11.17,0,16.76L324.82,34.64z"/>
	<path class="st0" d="M341.29,18.17c5.32,0,10.64,0,16.33,0c0,5.43,0,10.66,0,16.47c-5.43,0-10.87,0-16.32,0l0.14,0.15
		c0-5.59,0-11.17,0-16.76L341.29,18.17z"/>
	<path class="st0" d="M175.17,34.64c0,5.32,0,10.65,0,16.33c-5.43,0-10.66,0-16.47,0c0-5.44,0-10.88,0-16.33
		c0,0-0.14,0.15-0.14,0.15c5.59,0,11.17,0,16.76,0L175.17,34.64z"/>
	<path class="st0" d="M341.3,34.64c0,5.32,0,10.65,0,16.33c-5.43,0-10.66,0-16.47,0c0-5.44,0-10.88,0-16.33c0,0-0.14,0.15-0.14,0.15
		c5.59,0,11.17,0,16.76,0L341.3,34.64z"/>
</g>
</svg>
