<?xml version="1.0" encoding="utf-8"?>
<!-- Generator: Adobe Illustrator 27.9.0, SVG Export Plug-In . SVG Version: 6.00 Build 0)  -->
<svg version="1.1" id="Layer_1" xmlns="http://www.w3.org/2000/svg" xmlns:xlink="http://www.w3.org/1999/xlink" x="0px" y="0px"
	 viewBox="0 0 500 500" style="enable-background:new 0 0 500 500;" xml:space="preserve">
<style type="text/css">
	.st0{fill:#EC1F28;}
</style>
<g>
	<path class="st0" d="M135.07,89.34c0-7.35-0.05-13.9,0.01-20.44c0.26-26.83,25.56-41.25,48.85-27.86c0.48,0.28,1,0.49,2.69,1.3
		c0-4.57-0.17-8.57,0.03-12.55c0.79-15.72,12.84-28.4,28.05-29.66c16.36-1.35,30.66,8.68,33.82,24.36
		c1.14,5.63,0.76,11.57,1.11,17.82c1.1-0.5,2.12-0.81,2.98-1.37c10.92-7.07,22.09-6.6,33.18-0.73
		c11.05,5.85,14.96,15.81,14.96,27.75c0.01,45-0.12,90,0.1,135c0.06,11.45,0.76,22.95,2,34.33c0.85,7.79,3.15,15.42,5.98,23.21
		c1.53-4.51,3.05-9.03,4.59-13.54c5.93-17.36,13.24-34.03,25.29-48.15c18.25-21.39,50.22-23.84,71.32-5.56
		c8.52,7.38,8.76,16.82-0.05,24.08c-22.35,18.41-35.27,42.15-40.63,70.3c-1.23,6.46-1.79,13.08-3.46,19.42
		c-5.01,18.99-17.12,33.22-31.72,45.59c-4.16,3.52-8.55,6.8-13.04,9.89c-13.96,9.6-20.73,22.63-20.55,39.71
		c0.3,28.62,0.08,57.24,0.08,85.86c0,1.32-0.01,2.64,0,3.95c0.03,4.14-0.92,7.9-5.88,7.96c-4.93,0.05-6.06-3.59-6.03-7.8
		c0.03-4.52,0-9.04,0-13.56c0-25.61,0.06-51.21-0.02-76.82c-0.06-20.57,8.24-36.71,25.15-48.43c11.83-8.2,23.38-16.96,30.87-29.38
		c4.86-8.05,7.64-17.37,11.15-26.2c0.56-1.42,0.48-3.46-0.1-4.9c-4.53-11.39-20.14-21.88-32.19-21.39
		c-2.78,0.11-5.83,1.21-8.19,2.74c-7.83,5.05-14.08,3.12-17.05-5.75c-6.32-18.89-9.41-38.33-9.53-58.23
		c-0.07-11.49-0.18-22.97,0.08-34.45c0.09-3.76-1.29-5.79-4.44-7.54c-10.48-5.82-20.72-5.71-31.1,0.24
		c-2.92,1.68-4.68,3.57-4.13,7.11c0.17,1.1-0.02,2.26,0.03,3.38c0.16,4.17-1.45,7.37-5.89,7.28c-4.4-0.09-5.87-3.34-5.73-7.49
		c0.12-3.57-0.43-7.22,0.12-10.72c0.97-6.16-1.96-9.23-7.18-11.54c-9.93-4.38-19.32-3.63-28.61,1.77c-2.71,1.58-4.17,3.31-3.9,6.68
		c0.33,4.12,0.2,8.28,0.01,12.42c-0.17,3.72-2.38,6.6-6.02,5.72c-2.18-0.52-5.39-3.89-5.22-5.7c0.6-6.37-3.22-8.66-7.82-10.74
		c-9.88-4.48-19.49-3.67-28.47,2.18c-1.79,1.16-3.36,4.03-3.45,6.19c-0.38,9.02-0.16,18.07-0.17,27.11c0,1.32,0.04,2.64-0.05,3.95
		c-0.24,3.63-1.91,6.34-5.76,6.41c-3.8,0.07-6.17-2.49-5.92-6.11c0.3-4.24-1.93-5.97-5.11-7.71c-10.57-5.8-20.96-5.43-30.95,1.05
		c-1.79,1.16-3.49,4.02-3.5,6.11c-0.21,32.57-0.24,65.15-0.08,97.72c0.06,12.13,3.33,23.54,10.45,33.43
		c11.1,15.44,15.58,32.53,15.36,51.44c-0.4,33.89-0.11,67.78-0.12,101.67c0,1.69,0.55,3.87-0.28,4.97c-1.51,2-3.78,4.45-5.91,4.64
		c-1.63,0.15-4.08-2.61-5.18-4.61c-0.89-1.62-0.36-4.04-0.36-6.11c-0.01-34.27-0.15-68.54,0.05-102.8
		c0.09-15.17-3.61-28.91-12.47-41.37c-9.34-13.14-13.28-27.95-13.24-44.09c0.14-60.44,1.04-120.9-0.38-181.31
		C82.86,92.16,109.09,72.44,135.07,89.34z M237.43,120.55c0.14-1.84,0.29-2.91,0.29-3.98c0.01-28.2,0.08-56.41-0.02-84.61
		c-0.04-11.67-8.58-20.32-19.66-20.36c-11.3-0.04-19.8,8.79-19.81,20.76c-0.03,27.64-0.01,55.28,0.01,82.92
		c0,1.56,0.24,3.12,0.42,5.35C211.8,113.93,224.5,114.21,237.43,120.55z M287.88,130.44c0.51-0.79,0.87-1.09,0.87-1.39
		c0-21.63,0.23-43.26-0.19-64.88c-0.17-8.72-6.08-14.83-13.86-16.29c-9.74-1.83-18.47,1.51-22.1,9.51c-1.95,4.3-3,9.36-3.09,14.1
		c-0.35,17.87-0.15,35.74-0.13,53.61c0,1.61,0.21,3.23,0.38,5.71C262.82,124.32,275.51,124.17,287.88,130.44z M186.52,131.04
		c0-20.8,0-40.17,0-59.54c0-1.69,0.03-3.39-0.1-5.08c-0.48-6.35-3.07-11.63-8.37-15.29c-6.23-4.31-13-4.92-19.8-1.71
		c-7.26,3.43-11.16,9.43-11.21,17.51c-0.11,20.13-0.06,40.26-0.04,60.39c0,0.88,0.27,1.75,0.53,3.35
		C160.37,124.18,173.06,124.28,186.52,131.04z M135.06,161.66c0-16.37,0.09-31.58-0.03-46.78c-0.09-11.69-8.58-20.37-19.61-20.39
		c-10.97-0.02-19.58,8.64-19.85,20.31c-0.21,8.64-0.05,17.29-0.05,25.94c0,6.68,0,13.35,0,20.95
		C108.88,155.15,121.59,154.9,135.06,161.66z M368.96,250.94c8.7-17.23,19.8-31.46,34.16-43.07c2.71-2.19,1.16-4.28-0.99-6.01
		c-8.27-6.69-17.75-9.95-28.31-8.93c-18.13,1.76-35.28,18.04-40.87,38.74C348.53,230.72,359.91,238.04,368.96,250.94z
		 M321.87,258.99c20.75,2.98,22.41,4.7,38,18.34c1.06-4.84,3.64-9.67,2.7-13.67c-3.08-13.07-19.77-22.86-32.69-20.07
		c-1.4,0.3-3.16,1.54-3.69,2.79C324.53,250.31,323.37,254.45,321.87,258.99z M185.51,156.91c0.63-0.3,1.27-0.6,1.9-0.91
		c-1.07-4.25-0.76-10.2-3.48-12.44c-8.17-6.68-18.02-8-28.14-3.85c-9.15,3.74-10.62,6.87-7.84,17.08
		C160.43,150.95,172.98,150.81,185.51,156.91z M249.96,157c12.73-6.17,25.57-6.2,38.35-0.03c1.55-12.51,0.27-14.65-10.77-18.08
		c-2.48-0.77-5.12-1.3-7.71-1.41C255.38,136.84,247.83,144.09,249.96,157z M237.27,146.85c1.28-13.02-0.91-16.1-12.99-18.83
		c-1.65-0.37-3.33-0.72-5.01-0.78c-7.45-0.27-14.67,1.7-19.66,6.88c-2.31,2.39-1.31,7.97-1.95,13.25
		C211.53,140.43,224.43,140.61,237.27,146.85z M136.09,186.95c-1.14-4.38-0.86-10.49-3.68-12.82c-7.98-6.59-17.74-7.67-27.65-3.72
		c-9.51,3.79-10.9,6.68-8.24,17.31C109.14,181.47,121.86,181.71,136.09,186.95z"/>
	<path class="st0" d="M260.29,352.08c7,5.2,13.91,10.53,21.03,15.55c6.27,4.42,6.98,7.11,2.79,13.41
		c-6.18,9.29-16.37,13.5-27.53,10.73c-4.68-1.16-9.29-3.1-13.5-5.46c-4.03-2.26-7.5-5.52-12.6-9.4c1.29,9.18,1.82,17.32,3.66,25.16
		c2.95,12.54-2.11,12.79-10.78,13.81c-8.87,1.05-16.16-2.69-21.73-9.61c-5.87-7.3-8.35-15.88-9.05-25.07
		c-0.12-1.61-0.15-3.24-1.56-5.57c-5.2,6.99-10.56,13.86-15.56,20.99c-4.65,6.64-7.02,7.24-13.74,2.57
		c-10.59-7.35-14.32-19.39-8.91-32.52c2.87-6.97,7.51-13.21,11.87-20.66c-8.7,1.23-17.49,2.28-26.2,3.76
		c-7.18,1.21-9.1,0.21-10.81-6.82c-2.75-11.31,1.47-22.59,12.47-28.2c8-4.08,17.13-5.94,26.23-8.95
		c-5.64-4.29-11.94-9.44-18.6-14.05c-8.72-6.04-9.27-8.74-2.44-16.87c7.35-8.75,18.27-11.77,30.24-6.98
		c7.15,2.86,13.59,7.5,21.28,11.86c-1.21-8.59-2.22-17.22-3.7-25.77c-1.3-7.5-0.29-9.37,7.22-10.98
		c11.57-2.48,22.44,1.77,28.01,12.85c3.95,7.87,5.74,16.83,8.69,25.89c4.3-5.61,9.35-11.71,13.85-18.19c6.46-9.3,9.66-9.87,18.06-2
		c8.54,7.99,10.39,17.99,6.31,28.43c-2.94,7.54-7.74,14.36-12.03,22.1c6.9-0.85,14.35-1.73,21.79-2.71c2.04-0.27,4.05-0.84,6.06-1.3
		c4.29-0.99,6.75,0.86,8.13,4.88c3.43,9.99,0.6,20.67-7.51,27.66c-7.44,6.42-16.39,8.93-25.94,9.81c-1.6,0.15-3.21,0.16-4.81,0.23
		C260.75,351.15,260.52,351.61,260.29,352.08z M250.41,329.23c0.09-19.9-15.78-36.12-35.51-36.31
		c-20.41-0.19-36.99,15.99-36.99,36.12c0,19.97,16.25,36.26,36.25,36.32C234.29,365.44,250.33,349.45,250.41,329.23z M183.58,366.44
		c-3.46-3.76-6.59-7.17-9.71-10.57c-12.03,10.61-15.13,24.19-7.28,31.69C172.21,380.59,177.81,373.62,183.58,366.44z M186.74,289.24
		c-9.62-11.62-23.83-14.97-31.51-7.31c7.06,5.69,14.11,11.36,21.14,17.03C179.95,295.59,183.35,292.41,186.74,289.24z
		 M138.83,337.05c9.11-0.96,18.13-1.92,27.51-2.91c0-4.71,0-9.31,0-13.89C152.49,318.09,139.84,325.64,138.83,337.05z
		 M204.35,376.56c-0.61,16.27,7.27,28.18,17.32,26.94c-0.94-8.68-1.87-17.35-2.82-26.15C213.95,377.09,209.34,376.84,204.35,376.56z
		 M222.95,281.38c0.73-16.24-7.67-28.75-17.21-26.27c1.01,8.7,2.02,17.4,3.05,26.27C213.64,281.38,218.09,281.38,222.95,281.38z
		 M241.09,369.47c9.93,11.55,23.97,14.56,31.13,6.83c-6.84-5.44-13.67-10.88-20.55-16.35C248.28,363,244.81,366.12,241.09,369.47z
		 M261.71,338.51c14.62,0.9,29.64-8.35,26.35-17.12c-7.96,0.77-15.93,1.53-23.89,2.32c-0.52,0.05-1.02,0.38-1.66,0.63
		C262.25,328.96,261.99,333.56,261.71,338.51z M254.15,301.77c11.4-9.83,14.44-23.86,6.54-31.16c-2.59,3.47-5.09,6.98-7.77,10.36
		c-2.77,3.5-5.7,6.88-8.56,10.3C247.77,294.93,250.95,298.35,254.15,301.77z"/>
	<path class="st0" d="M111.49,273.11c-1.16-0.91-3.45-1.82-4.02-3.37c-0.66-1.8-0.6-4.82,0.53-6.15c3.61-4.29,7.58-8.39,11.99-11.83
		c1.49-1.16,5.45-1.03,6.92,0.17c1.45,1.2,2.43,5.49,1.46,6.69c-3.99,4.92-8.75,9.21-13.34,13.63
		C114.45,272.79,113.26,272.7,111.49,273.11z"/>
	<path class="st0" d="M255.91,441.27c-2.28-2.31-4.67-3.69-5.23-5.6c-0.49-1.7,0.42-4.97,1.8-5.84c5.05-3.2,10.42-6.02,15.98-8.22
		c1.58-0.63,4.9,0.78,6.11,2.3c1.03,1.29,1.03,5.31,0.02,6.01C268.81,433.94,262.6,437.31,255.91,441.27z"/>
	<path class="st0" d="M176.44,230.7c-1.52-1.33-4.58-2.76-4.84-4.58c-0.3-2.15,1.26-5.94,3.03-6.73c5.26-2.35,10.96-4,16.64-4.98
		c1.73-0.3,5.11,2.1,5.69,3.91c0.58,1.8-0.83,5.75-2.39,6.44C189.12,227.17,183.22,228.58,176.44,230.7z"/>
	<path class="st0" d="M221.9,221.79c-2.43,0-5.19,0.71-7.21-0.2c-2.14-0.96-4.69-3.31-5-5.36c-0.25-1.67,2.31-5.15,4.05-5.46
		c5.67-1.02,11.57-1.44,17.3-1.03c1.92,0.14,4.91,3.39,5.02,5.35c0.11,1.83-2.62,4.71-4.73,5.55c-2.83,1.12-6.26,0.73-9.43,0.98
		C221.9,221.68,221.9,221.74,221.9,221.79z"/>
	<path class="st0" d="M161.07,235.29c-0.57,0.74-1.39,2.57-2.8,3.49c-4.4,2.87-8.98,5.47-13.57,8.03c-3.22,1.8-6.42,0.84-7.49-2.32
		c-0.7-2.08-0.02-6.01,1.53-7.21c4.4-3.43,9.4-6.22,14.47-8.62C157.41,226.67,161.44,229.83,161.07,235.29z"/>
	<path class="st0" d="M221.33,449.25c-4.02,0.1-8.02,0.03-8.55-5.1c-0.55-5.34,3.23-6.36,7.59-6.77c3.91-0.36,7.77-1.2,11.65-1.81
		c3.67-0.58,6.45,0.71,7.3,4.42c0.86,3.75-1.12,6.21-4.73,7C230.22,447.93,225.76,448.51,221.33,449.25z"/>
	<path class="st0" d="M253.8,220.48c-1.45-1.44-4.43-3.08-5.19-5.44c-1.15-3.56,1.51-5.92,5.08-6.65c4.76-0.98,9.55-1.86,14.35-2.64
		c3.37-0.55,6.08,0.6,6.89,4.13c0.86,3.74-1.03,6.26-4.6,7.15C265.44,218.24,260.46,219.11,253.8,220.48z"/>
	<path class="st0" d="M156.98,438.61c-6.3-3.9-12.08-7.04-17.23-11c-1.21-0.93-1.22-5.36-0.07-6.85c1.16-1.5,4.92-2.44,6.73-1.68
		c4.98,2.08,9.8,4.83,14.13,8.05c1.59,1.18,2.66,4.74,2.1,6.67C162.09,435.69,159.16,436.89,156.98,438.61z"/>
	<path class="st0" d="M178.61,433.85c6.93,1.34,12.45,1.85,17.5,3.66c1.98,0.71,4.13,4.44,3.94,6.6c-0.14,1.67-3.88,4.38-5.89,4.27
		c-5.37-0.29-10.85-1.32-15.9-3.15c-1.99-0.72-4.04-4.37-3.99-6.64C174.31,436.75,177.47,434.99,178.61,433.85z"/>
	<path class="st0" d="M279.37,457.46c-3.84,2.7-5.91,5.25-8.27,5.56c-3.58,0.47-6.39-2.43-5.57-5.91c0.52-2.18,3.63-5.02,5.76-5.18
		C273.32,451.78,275.59,454.71,279.37,457.46z"/>
	<path class="st0" d="M217.95,462.49c2.62,3.9,5.45,6.27,5.23,8.29c-0.24,2.14-3.14,5.21-5.32,5.63c-3.46,0.68-6.34-2.14-5.7-5.78
		C212.58,468.27,215.14,466.28,217.95,462.49z"/>
	<path class="st0" d="M251.77,467.81c-2.17,1.57-4.19,4.11-6.55,4.49c-3.6,0.57-6.44-2.31-5.73-5.76c0.44-2.14,3.56-4.94,5.72-5.16
		c2.02-0.21,4.35,2.59,6.55,4.06C251.76,466.22,251.77,467.02,251.77,467.81z"/>
	<path class="st0" d="M162.14,470.28c-1.54-2.11-4-4.07-4.4-6.38c-0.63-3.61,2.04-6.46,5.6-5.72c2.15,0.45,4.99,3.38,5.25,5.49
		c0.25,2-2.45,4.36-3.86,6.57C163.88,470.25,163.01,470.27,162.14,470.28z"/>
	<path class="st0" d="M191.58,463.16c1.45,2.22,4.23,4.6,3.99,6.62c-0.25,2.15-3.13,5.22-5.29,5.62c-3.42,0.64-6.33-2.06-5.57-5.81
		c0.48-2.37,2.9-4.34,4.45-6.49C189.97,463.13,190.78,463.14,191.58,463.16z"/>
	<path class="st0" d="M144.73,453.75c-2.18,1.47-4.21,3.72-6.59,4.21c-3.41,0.69-5.63-1.68-5.72-5.21c-0.1-3.77,2.12-6.4,5.77-5.82
		c2.35,0.37,4.38,2.83,6.55,4.35C144.73,452.1,144.73,452.93,144.73,453.75z"/>
	<path class="st0" d="M218.95,88.16c1.61,2.12,4.2,4.06,4.6,6.38c0.62,3.54-2.05,6.58-5.61,5.92c-2.21-0.41-5.17-3.39-5.47-5.54
		c-0.28-2,2.52-4.43,3.96-6.67C217.28,88.22,218.11,88.19,218.95,88.16z"/>
	<path class="st0" d="M267.73,111.85c-1.41-2.22-4.12-4.59-3.88-6.61c0.25-2.1,3.09-5.04,5.26-5.51c3.6-0.79,6.3,2.05,5.63,5.69
		c-0.43,2.35-2.93,4.33-4.5,6.48C269.41,111.88,268.57,111.87,267.73,111.85z"/>
	<path class="st0" d="M165.37,111.88c-1.49-2.19-3.89-4.23-4.25-6.59c-0.56-3.67,2.05-5.89,5.85-5.76c3.54,0.12,5.9,2.37,5.19,5.79
		c-0.49,2.38-2.76,4.4-4.23,6.58C167.07,111.89,166.22,111.88,165.37,111.88z"/>
	<path class="st0" d="M122.03,137.32c-2.23,1.44-4.33,3.78-6.71,4.11c-3.78,0.53-6.3-2.45-5.35-5.93c0.58-2.14,3.7-4.86,5.79-4.97
		c2.05-0.11,4.25,2.78,6.38,4.35C122.11,135.7,122.07,136.51,122.03,137.32z"/>
	<path class="st0" d="M360.52,213.03c2.48,0.11,5.44-0.57,7.28,0.57c1.64,1.01,2.03,4.03,2.97,6.17c-0.49,0.37-0.98,0.75-1.48,1.12
		c-3-1.87-6-3.74-9-5.61C360.37,214.53,360.45,213.78,360.52,213.03z"/>
	<path class="st0" d="M237.97,329.08c0.02,13.21-10.4,23.79-23.45,23.81c-13.3,0.03-24.16-10.79-24.07-23.97
		c0.09-12.92,10.88-23.54,23.92-23.54C227.43,305.38,237.95,315.96,237.97,329.08z M202.41,328.91c-0.09,6.7,5.38,12.34,11.98,12.35
		c6.24,0.01,11.76-5.47,11.97-11.88c0.22-6.62-5.38-12.33-12.03-12.26C207.87,317.17,202.5,322.49,202.41,328.91z"/>
</g>
</svg>
