<svg width="192" height="192" viewBox="0 0 192 192" fill="none" xmlns="http://www.w3.org/2000/svg">
<path d="M153 138C150.613 138 148.324 137.052 146.636 135.364C144.948 133.676 144 131.387 144 129V127.5C144 127.102 143.842 126.721 143.561 126.439C143.279 126.158 142.898 126 142.5 126C140.511 126 138.603 125.21 137.197 123.803C135.79 122.397 135 120.489 135 118.5V114H3C2.20435 114 1.44129 113.684 0.87868 113.121C0.316071 112.559 0 111.796 0 111V99C0 98.2044 0.316071 97.4413 0.87868 96.8787C1.44129 96.3161 2.20435 96 3 96H189C189.796 96 190.559 96.3161 191.121 96.8787C191.684 97.4413 192 98.2044 192 99V111C192 111.796 191.684 112.559 191.121 113.121C190.559 113.684 189.796 114 189 114H162V129C162 131.387 161.052 133.676 159.364 135.364C157.676 137.052 155.387 138 153 138ZM6 108H138C138.796 108 139.559 108.316 140.121 108.879C140.684 109.441 141 110.204 141 111V118.5C141 118.898 141.158 119.279 141.439 119.561C141.721 119.842 142.102 120 142.5 120C144.489 120 146.397 120.79 147.803 122.197C149.21 123.603 150 125.511 150 127.5V129C150 129.796 150.316 130.559 150.879 131.121C151.441 131.684 152.204 132 153 132C153.796 132 154.559 131.684 155.121 131.121C155.684 130.559 156 129.796 156 129V111C156 110.204 156.316 109.441 156.879 108.879C157.441 108.316 158.204 108 159 108H186V102H6V108Z" fill="#EC1F28"/>
<path d="M189 192H3C2.20435 192 1.44129 191.684 0.87868 191.121C0.316071 190.559 0 189.796 0 189V177C0 176.204 0.316071 175.441 0.87868 174.879C1.44129 174.316 2.20435 174 3 174H189C189.796 174 190.559 174.316 191.121 174.879C191.684 175.441 192 176.204 192 177V189C192 189.796 191.684 190.559 191.121 191.121C190.559 191.684 189.796 192 189 192ZM6 186H186V180H6V186Z" fill="#EC1F28"/>
<path d="M6 111H12V177H6V111Z" fill="#EC1F28"/>
<path d="M180 111H186V177H180V111Z" fill="#EC1F28"/>
<path d="M96 66C90.4324 65.9936 85.0947 63.7791 81.1578 59.8422C77.2209 55.9053 75.0064 50.5676 75 45V30C75 29.2044 75.3161 28.4413 75.8787 27.8787C76.4413 27.3161 77.2044 27 78 27C78.12 27 90 26.802 90 21C90 20.2044 90.3161 19.4413 90.8787 18.8787C91.4413 18.3161 92.2044 18 93 18C93.7956 18 94.5587 18.3161 95.1213 18.8787C95.6839 19.4413 96 20.2044 96 21C96 21 96.948 27 114 27C114.796 27 115.559 27.3161 116.121 27.8787C116.684 28.4413 117 29.2044 117 30V45C116.994 50.5676 114.779 55.9053 110.842 59.8422C106.905 63.7791 101.568 65.9936 96 66ZM81 32.841V45C81 48.9782 82.5804 52.7936 85.3934 55.6066C88.2064 58.4196 92.0218 60 96 60C99.9782 60 103.794 58.4196 106.607 55.6066C109.42 52.7936 111 48.9782 111 45V32.937C101.538 32.529 96.333 30.18 93.477 27.663C90.0451 30.7848 85.6339 32.6155 81 32.841Z" fill="#EC1F28"/>
<path d="M126 33H120V30C120 23.6348 117.471 17.5303 112.971 13.0294C108.47 8.52856 102.365 6 96 6C89.6348 6 83.5303 8.52856 79.0294 13.0294C74.5286 17.5303 72 23.6348 72 30V33H66V30C66 22.0435 69.1607 14.4129 74.7868 8.7868C80.4129 3.16071 88.0435 0 96 0C103.956 0 111.587 3.16071 117.213 8.7868C122.839 14.4129 126 22.0435 126 30V33Z" fill="#EC1F28"/>
<path d="M117 48H114V42H117C117.796 42 118.559 41.6839 119.121 41.1213C119.684 40.5587 120 39.7956 120 39V36H114V30H123C123.796 30 124.559 30.3161 125.121 30.8787C125.684 31.4413 126 32.2044 126 33V39C126 41.3869 125.052 43.6761 123.364 45.364C121.676 47.0518 119.387 48 117 48Z" fill="#EC1F28"/>
<path d="M78 48H75C72.6131 48 70.3239 47.0518 68.636 45.364C66.9482 43.6761 66 41.3869 66 39V33C66 32.2044 66.3161 31.4413 66.8787 30.8787C67.4413 30.3161 68.2044 30 69 30H78V36H72V39C72 39.7956 72.3161 40.5587 72.8787 41.1213C73.4413 41.6839 74.2044 42 75 42H78V48Z" fill="#EC1F28"/>
<path d="M66 99H60V75C59.9994 74.317 60.2319 73.6543 60.659 73.1214C61.0861 72.5885 61.6823 72.2172 62.349 72.069L87 66.6V60H93V69C93.0006 69.683 92.7681 70.3457 92.341 70.8786C91.9139 71.4115 91.3177 71.7828 90.651 71.931L66 77.4V99Z" fill="#EC1F28"/>
<path d="M132 99H126V77.4L101.349 71.925C100.683 71.777 100.088 71.4067 99.6609 70.875C99.2339 70.3433 99.0008 69.6819 99 69V60H105V66.6L129.651 72.075C130.317 72.223 130.912 72.5933 131.339 73.125C131.766 73.6567 131.999 74.3181 132 75V99Z" fill="#EC1F28"/>
<path d="M75 87H81V99H75V87Z" fill="#EC1F28"/>
<path d="M111 87H117V99H111V87Z" fill="#EC1F28"/>
<path d="M135 99H141V111H135V99Z" fill="#EC1F28"/>
<path d="M156 99H162V111H156V99Z" fill="#EC1F28"/>
<path d="M9 153H183V159H9V153Z" fill="#EC1F28"/>
<path d="M9 129H138V135H9V129Z" fill="#EC1F28"/>
<path d="M165 129H183V135H165V129Z" fill="#EC1F28"/>
<path d="M153 75H147C147 73.314 146.349 72.6 144.879 71.121C143.668 70.1424 142.691 68.9052 142.019 67.5C141.348 66.0948 141 64.5573 141 63C141 61.4427 141.348 59.9052 142.019 58.5C142.691 57.0948 143.668 55.8576 144.879 54.879C146.349 53.409 147 52.686 147 51C147 49.314 146.349 48.6 144.879 47.121C143.681 46.1307 142.713 44.8911 142.043 43.4885C141.374 42.086 141.017 40.5542 141 39H147C147 40.686 147.651 41.4 149.121 42.879C150.332 43.8576 151.309 45.0948 151.981 46.5C152.652 47.9052 153 49.4427 153 51C153 52.5573 152.652 54.0948 151.981 55.5C151.309 56.9052 150.332 58.1424 149.121 59.121C147.651 60.6 147 61.314 147 63C147 64.686 147.651 65.4 149.121 66.879C150.319 67.8693 151.287 69.1089 151.957 70.5115C152.627 71.914 152.983 73.4458 153 75Z" fill="#EC1F28"/>
<path d="M174 87H168C168 85.314 167.349 84.6 165.879 83.121C164.668 82.1424 163.691 80.9052 163.019 79.5C162.348 78.0948 162 76.5573 162 75C162 73.4427 162.348 71.9052 163.019 70.5C163.691 69.0948 164.668 67.8576 165.879 66.879C167.349 65.409 168 64.686 168 63C168 61.314 167.349 60.6 165.879 59.121C164.681 58.1307 163.713 56.8911 163.043 55.4885C162.374 54.086 162.017 52.5542 162 51H168C168 52.686 168.651 53.4 170.121 54.879C171.332 55.8576 172.309 57.0948 172.981 58.5C173.652 59.9052 174 61.4427 174 63C174 64.5573 173.652 66.0948 172.981 67.5C172.309 68.9052 171.332 70.1424 170.121 71.121C168.651 72.6 168 73.314 168 75C168 76.686 168.651 77.4 170.121 78.879C171.319 79.8693 172.287 81.1089 172.957 82.5115C173.627 83.914 173.983 85.4458 174 87Z" fill="#EC1F28"/>
<path d="M45 75H39C39.0175 73.4458 39.3735 71.914 40.0435 70.5115C40.7134 69.1089 41.6811 67.8693 42.879 66.879C44.349 65.409 45 64.686 45 63C45 61.314 44.349 60.6 42.879 59.121C41.6677 58.1424 40.6906 56.9052 40.0194 55.5C39.3481 54.0948 38.9998 52.5573 38.9998 51C38.9998 49.4427 39.3481 47.9052 40.0194 46.5C40.6906 45.0948 41.6677 43.8576 42.879 42.879C44.349 41.409 45 40.686 45 39H51C50.9826 40.5542 50.6265 42.086 49.9566 43.4885C49.2867 44.8911 48.319 46.1307 47.121 47.121C45.651 48.6 45 49.314 45 51C45 52.686 45.651 53.4 47.121 54.879C48.3324 55.8576 49.3095 57.0948 49.9807 58.5C50.652 59.9052 51.0003 61.4427 51.0003 63C51.0003 64.5573 50.652 66.0948 49.9807 67.5C49.3095 68.9052 48.3324 70.1424 47.121 71.121C45.651 72.6 45 73.314 45 75Z" fill="#EC1F28"/>
<path d="M24 87H18C18.0175 85.4458 18.3735 83.914 19.0435 82.5115C19.7134 81.1089 20.6811 79.8693 21.879 78.879C23.349 77.4 24 76.686 24 75C24 73.314 23.349 72.6 21.879 71.121C20.6677 70.1424 19.6906 68.9052 19.0194 67.5C18.3481 66.0948 17.9998 64.5573 17.9998 63C17.9998 61.4427 18.3481 59.9052 19.0194 58.5C19.6906 57.0948 20.6677 55.8576 21.879 54.879C23.349 53.4 24 52.686 24 51H30C29.9826 52.5542 29.6265 54.086 28.9566 55.4885C28.2867 56.8911 27.319 58.1307 26.121 59.121C24.651 60.6 24 61.314 24 63C24 64.686 24.651 65.4 26.121 66.879C27.3324 67.8576 28.3095 69.0948 28.9807 70.5C29.652 71.9052 30.0003 73.4427 30.0003 75C30.0003 76.5573 29.652 78.0948 28.9807 79.5C28.3095 80.9052 27.3324 82.1424 26.121 83.121C24.651 84.6 24 85.314 24 87Z" fill="#EC1F28"/>
</svg>
