<?xml version="1.0" encoding="utf-8"?>
<!-- Generator: Adobe Illustrator 27.9.0, SVG Export Plug-In . SVG Version: 6.00 Build 0)  -->
<svg version="1.1" id="Layer_1" xmlns="http://www.w3.org/2000/svg" xmlns:xlink="http://www.w3.org/1999/xlink" x="0px" y="0px"
	 viewBox="0 0 500 500" style="enable-background:new 0 0 500 500;" xml:space="preserve">
<style type="text/css">
	.st0{fill:#EC1F28;}
</style>
<g>
	<path class="st0" d="M122.38,500c-2.01-1.58-5.05-2.78-5.81-4.83c-1.14-3.06-1.61-7-0.68-10.06c1.36-4.47,5.57-5.89,10.21-5.88
		c21.8,0.05,43.61,0.02,65.41,0.02c1.91,0,3.82,0,6.02,0c0-48.96,0-97.37,0-145.39c-10.44-2.39-20.92-3.99-30.88-7.22
		c-56.47-18.31-93.41-69.44-93.8-129.57c-0.22-33.51-0.06-67.03-0.03-100.54c0.01-9.49,3.82-13.27,13.37-13.27
		c49.3-0.02,98.6-0.01,147.9-0.01c1.91,0,3.82,0,5.15,0c2.43-8.44,3.94-16.5,7.04-23.9c13.93-33.25,38.9-52.77,74.58-58.48
		c0.93-0.15,1.81-0.58,2.71-0.87c4.56,0,9.12,0,13.67,0c5.35,3.57,6.93,8.46,6.75,14.91c-0.45,16.42-0.16,32.87-0.14,49.3
		c0,0.92,0.13,1.84,1.36,3.62c3.83-4.08,7.53-8.29,11.52-12.2c4.55-4.45,10.15-4.74,14.5-1.12c4.82,4.02,5.09,10.44,0.54,15.55
		c-1.94,2.18-4.06,4.22-6.18,6.24c-1.99,1.89-4.09,3.68-7.24,6.49c16.59,0,31.55,0,46.95,0c-2.81-17.78-10.72-32.72-24.48-44.08
		c-6.06-5-13.34-8.55-20.2-12.53c-4.54-2.64-7.15-6.63-6.42-11.03c0.81-4.85,3.69-8.17,8.5-8.82c2.55-0.35,5.5,0.42,7.94,1.45
		c36.67,15.52,59.5,53.55,56.3,93.56c-3.18,39.83-31.98,73.79-70.66,83.25c-3.92,0.96-7.89,1.67-13.03,2.75
		c0,6.92,0.38,14.05-0.06,21.14c-3.25,51.76-39.53,99.54-88.32,116.6c-6.64,2.32-12.29,0.11-14.54-5.67
		c-2.24-5.77,0.53-11.12,7.17-13.82c0.75-0.31,1.52-0.58,2.27-0.89c33.32-13.52,55.79-37.34,67.49-71.29
		c4.78-13.86,5.75-28.24,5.64-42.82c-0.2-26.68-0.06-53.37-0.06-80.05c0-1.91,0-3.82,0-6.02c-76.43,0-152.35,0-228.76,0
		c-0.09,1.58-0.25,3.13-0.26,4.69c-0.01,29.45-0.18,58.91,0.03,88.36c0.41,55.34,36.98,100.57,90.91,112.35
		c7.26,1.58,14.81,2.01,22.25,2.46c8.05,0.48,11.96,4.5,11.95,12.63c-0.09,50.12-0.11,100.24-0.13,150.35c0,1.1,0.21,2.2,0.39,3.86
		c2.06,0,3.97,0,5.88,0c21.97,0.01,43.94-0.03,65.91,0.05c5.74,0.02,9.64,3.1,10.81,8.03c1.08,4.55-1.16,9-5.89,11.7
		c-0.56,0.32-1.11,0.65-1.66,0.98C236.98,500,179.68,500,122.38,500z M308.3,82.93c-4.98-4.75-9.33-8.19-12.72-12.41
		c-2.05-2.55-3.98-6.56-3.43-9.44c0.58-3.07,3.65-6.35,6.51-8.15c3.59-2.27,7.63-0.73,10.71,2.14c4.3,4.02,8.43,8.21,13.07,12.75
		c0-15.95,0-30.94,0-45.98c-31.38,4.33-58.58,31.7-60.85,61.08C276.6,82.93,291.6,82.93,308.3,82.93z M404.95,104.65
		c-14.98,0-29.94,0-44.9,0c-0.3,0.43-0.6,0.86-0.9,1.3c2.24,1.83,4.57,3.58,6.71,5.53c2.16,1.97,4.25,4.04,6.17,6.25
		c4.05,4.63,4,10.47,0.03,14.53c-3.91,4-10.2,4.39-14.51,0.31c-4.31-4.07-8.1-8.67-12.12-13.04c-0.42,0.34-0.84,0.67-1.26,1.01
		c0,14.99,0,29.99,0,45.02C377.04,161.52,402.31,132.69,404.95,104.65z"/>
	<path class="st0" d="M291.28,135.5c-2.13,0-4.03,0-5.93,0c-41.66,0-83.32,0.01-124.97-0.03c-2.42,0-4.92-0.1-7.24-0.71
		c-4.43-1.16-7.31-5.31-7.28-9.83c0.03-4.55,2.93-8.56,7.41-9.74c2.01-0.53,4.17-0.66,6.27-0.66c46.38-0.04,92.75-0.03,139.13-0.02
		c10.25,0,13.96,3.61,13.9,13.73c-0.15,26.35,0.65,52.76-0.81,79.04c-2.56,46.22-40.39,86.38-86.31,93.41
		c-56.06,8.58-107.14-26.32-118.99-81.62c-1.62-7.57-2.18-15.48-2.29-23.24c-0.29-22.45-0.11-44.91-0.09-67.36
		c0-1.78,0.03-3.6,0.36-5.34c0.98-5,5.03-8.42,9.89-8.54c4.98-0.13,9.35,3.4,10.35,8.57c0.36,1.9,0.37,3.88,0.37,5.82
		c0.03,22.94-0.13,45.89,0.06,68.83c0.34,40.95,27.73,73.92,67.89,82.01c48.69,9.81,96.82-27.91,98.36-77.53
		c0.66-21.3,0.18-42.63,0.21-63.94C291.57,137.58,291.42,136.8,291.28,135.5z"/>
</g>
</svg>
