<svg width="683" height="683" viewBox="0 0 683 683" fill="none" xmlns="http://www.w3.org/2000/svg">
<path d="M331.066 2.80005C328 4.26671 324.133 7.60005 322.666 10.1334C319.2 15.6 294.666 102 294.666 108.267C294.666 115.733 300.666 126.133 310.266 135.867C315.2 140.8 321.066 146.133 323.333 147.6L327.2 150.4L320.133 175.467C316.266 189.333 312.933 200.8 312.666 201.067C312.533 201.2 310.266 200.4 307.6 199.333C304.933 198.267 299.6 197.333 295.6 197.333C282.933 197.333 278.133 200.8 248.933 231.867C227.333 254.8 221.866 260 218.266 260.533C207.066 262.4 158.266 266.667 157.466 265.867C157.066 265.333 157.466 264.667 158.4 264.4C163.6 262.533 173.333 254.133 177.6 247.867C190.666 229.067 188.533 205.067 172.533 188.533C163.466 179.333 153.866 175.467 140 175.333C130.266 175.333 127.466 175.867 120.4 179.2C110.666 183.6 101.2 192.933 96.933 202.4C92.7997 211.333 92.7997 231.333 96.933 240.267C100.666 248.4 110.666 259.067 117.733 262.533L123.333 265.333H118C105.733 265.333 96.2664 270.8 91.8664 280.667C89.5997 285.6 89.333 290.4 89.333 338.8V391.6L83.733 392.533C80.533 393.067 73.5997 395.6 68.2664 398.133C51.1997 406.4 38.2664 422.267 32.6664 441.867C29.8664 451.2 30.3997 470.8 33.5997 479.6C35.9997 486.133 35.1997 486.8 30.533 481.867C23.733 474.533 15.0664 472.667 7.86636 476.933C-0.266974 481.733 -0.133641 479.467 0.266359 573.6C0.666359 658.533 0.666359 659.333 3.59969 664.667C6.93303 670.933 12.133 676 18.6664 679.467C23.0664 681.867 29.8664 682 172.4 682.4L321.466 682.667L324.666 679.467C328.666 675.467 328.933 670.8 325.466 666.533C322.933 663.333 322.8 663.333 285.066 662.667L247.2 662L255.866 631.333C260.533 614.4 264.533 600.533 264.666 600.4C264.8 600.133 269.733 600.8 275.733 601.6C296 604.533 317.066 598.133 332.533 584.133C336.666 580.4 340.666 577.333 341.333 577.333C342 577.333 346 580.267 350 584C364.133 596.8 383.066 603.467 401.333 602.267C406.8 601.867 412.4 601.2 413.6 600.667C415.6 599.867 415.466 601.2 412.533 611.6C403.2 645.2 403.6 643.067 405.2 648.933C406 652 408.266 656.4 410.133 658.667L413.6 662.667H387.333C361.333 662.667 361.2 662.667 358 666C353.733 670.133 353.733 675.2 358 679.467L361.2 682.667L510.266 682.4C652.8 682 659.6 681.867 664 679.467C670.533 676 675.733 670.933 679.066 664.667C682 659.333 682 658.533 682.4 573.6C682.8 479.467 682.933 481.733 674.8 476.933C670.266 474.267 663.733 474 659.6 476.267C658 477.067 654 480 650.8 482.8C647.733 485.6 641.733 489.2 637.6 490.667C630.533 493.333 613.333 495.867 613.333 494.267C613.333 493.867 617.2 489.733 622 485.2C646.666 461.467 646.933 427.333 622.666 404.933C609.866 393.067 604.533 391.6 573.066 390.933C549.733 390.533 546.666 390.133 544.666 388C542.533 385.6 544.266 378.8 574.933 270.667C592.666 207.467 608 155.6 608.666 155.333C609.466 155.2 615.333 154 622 152.8C636.533 150 646.266 145.467 652.266 138.933C656.266 134.533 657.866 129.867 667.733 95.3334C683.066 40.6667 683.2 40.1334 682.133 34.2667C680.133 23.8667 667.866 15.3334 643.333 7.33338C632 3.73338 612.133 4.57764e-05 603.333 4.57764e-05C596.933 4.57764e-05 587.066 4.66671 583.733 9.33338C580.266 14.1334 556 100.533 556 108.133C556 117.067 561.2 126.133 572.4 136.8C577.6 141.867 583.466 146.933 585.066 148L588.266 150L581.333 174.667C577.466 188.267 574.133 199.733 573.866 200.133C573.6 200.667 571.066 200.267 568.4 199.2C560.533 196.4 550.933 196.933 543.2 200.533C537.866 202.933 531.066 209.333 510 231.867C489.066 254.133 482.666 260.133 479.466 260.667C477.2 261.067 465.466 262.267 453.333 263.333C441.2 264.4 428.533 265.733 425.066 266.133C417.466 267.067 416.933 265.6 423.466 262C430.8 258.133 440.8 246.267 443.866 238C455.866 206 430.133 172 396.4 175.067C364 178.133 344.533 212.8 358.8 242.267C362.266 249.333 371.333 258.933 378.133 262.533L383.333 265.2L378.666 265.333C367.2 265.467 356.133 272 352.533 280.933C351.066 284.267 350.666 296.667 350.666 338V390.667H318.933C287.6 390.667 287.066 390.667 284.4 387.733L281.733 384.667L313.466 272.667C330.933 211.067 345.466 159.333 346 157.6C346.533 155.467 347.733 154.667 350.4 154.667C364.133 154.533 386.933 145.733 392.533 138.267C395.733 134.133 402.666 112.8 402.666 107.333C402.666 103.2 397.2 98.6667 392.4 98.6667C386.8 98.6667 384.266 102.133 380.533 114.8C378.666 121.333 376.4 126.533 374.933 127.333C370.266 130.133 359.066 133.467 351.733 134.267C345.2 134.933 343.066 134.533 336.8 131.467C329.2 127.733 316.533 115.067 315.2 109.867C314.533 107.467 335.333 30.4 338.666 22.8C340 19.8667 340.533 19.7334 348.666 20.5334C364.666 22.1334 391.2 30.2667 398.533 36L401.866 38.4L398.933 49.4667C395.066 64 395.2 67.2 399.466 70.5334C406.266 75.8667 413.333 72.6667 415.866 62.9334C416.666 60.2667 418.133 54.9334 419.333 51.3334C424.266 34.6667 420.4 24.6667 405.6 16.9334C393.733 10.6667 375.6 4.66671 360.8 2.00005C344.8 -0.666621 337.733 -0.533288 331.066 2.80005ZM618.8 22C635.466 24.9334 662.666 35.0667 662.666 38.4C662.666 38.9334 657.2 58.5334 650.666 82.0001C641.6 114.133 638 125.2 635.866 126.933C632.266 130 621.2 133.333 611.733 134.267C605.733 134.933 603.066 134.4 598.266 132.133C591.2 128.667 577.866 115.067 576.533 110C575.733 106.8 584.8 71.8667 598.266 26.2667C600.4 18.9334 600.933 18.8 618.8 22ZM150 197.2C160.8 202 168 214.667 166 225.2C163.733 237.333 154.666 246.133 143.066 247.6C126.666 249.467 113.333 237.733 113.333 221.333C113.333 202 132.666 189.2 150 197.2ZM410.4 196.667C421.6 201.467 427.2 210.8 426.4 223.467C426 230.4 425.2 232.8 421.866 236.933C411.466 250 394 251.467 382.266 240.267C376.533 234.8 374.266 229.467 374.266 221.333C374.266 213.2 376.533 207.867 382.266 202.4C390 194.933 400.933 192.8 410.4 196.667ZM304 219.733L306.933 222.133L303.866 233.333C300.4 246 303.333 242.267 266.666 281.067C255.333 293.067 245.2 303.333 243.866 304C241.2 305.467 201.6 309.733 196.533 309.067C193.333 308.667 192.266 307.2 187.866 296.667C185.2 290 183.066 284.533 183.066 284.533C183.2 284.4 193.866 283.333 206.666 282C219.466 280.8 230.666 279.333 231.6 278.8C232.533 278.4 245.333 265.067 260.133 249.333C274.8 233.6 288.266 220 289.733 219.067C294 216.667 300.666 216.933 304 219.733ZM563.2 218.8C565.066 219.733 566.8 221.067 567.066 221.867C567.333 222.667 566.133 228.4 564.4 234.4L561.2 245.6L533.733 274.8C518.666 290.8 505.333 304.267 504.133 304.667C501.2 305.6 464.8 309.333 458.8 309.333C454 309.333 454 309.333 448.933 297.2C446.133 290.533 444 284.8 444.266 284.667C444.533 284.4 454.933 283.2 467.333 282C480.666 280.667 491.2 279.067 492.8 278C494.4 276.933 507.866 263.2 522.666 247.467C537.466 231.733 550.4 218.533 551.2 218.133C554 216.933 559.866 217.333 563.2 218.8ZM120.266 295.867L119.733 306.4L136.666 346.133C146 368.133 153.866 387.067 154.266 388.267C154.933 390.533 153.2 390.667 132.133 390.667H109.333V340.133C109.333 284.667 109.2 285.333 117.2 285.333H120.933L120.266 295.867ZM159.333 287.733C162.8 289.867 165.6 295.467 178.666 326.133C186.933 345.867 194.8 363.067 195.866 364.533C197.066 365.867 201.6 368.667 206 370.667C210.4 372.667 226.933 380.667 242.666 388.4C273.2 403.2 274.666 404.4 274.666 413.467C274.666 419.2 268.266 425.333 262.4 425.333C257.466 425.333 180.133 388.8 175.866 384.4C172.133 380.667 140 304 140 298.933C140 293.2 141.866 289.867 146.4 287.467C151.2 284.8 154.533 284.8 159.333 287.733ZM381.733 288.933C381.066 291.067 380.666 296 380.8 300C380.8 306.267 383.2 312.8 397.866 347.333C407.333 369.333 415.2 388.133 415.6 388.933C416.133 390.267 411.2 390.667 393.466 390.667H370.666V339.6C370.666 301.6 371.066 288.133 372.266 286.933C373.2 286 375.866 285.333 378.266 285.333C382.533 285.333 382.666 285.467 381.733 288.933ZM422.4 289.733C424 291.467 432.4 309.2 441.066 329.333L456.666 365.867L492.8 383.2C512.8 392.8 530.266 401.733 531.866 403.2C539.866 410.533 534.133 425.2 523.066 425.333C518.4 425.333 441.333 388.8 436.933 384.533C435.6 383.067 426.666 363.733 417.066 341.333C403.066 308.533 400 300 400.533 296.533C401.333 292.533 405.333 287.733 409.333 286.267C412.8 284.933 419.2 286.667 422.4 289.733ZM275.866 332.133C269.2 355.867 263.6 375.467 263.333 375.733C263.2 375.867 251.466 370.4 237.066 363.467L211.2 350.933L206.666 340.8C204.266 335.2 202.533 330.267 202.933 330C203.2 329.6 212.533 328.4 223.466 327.333C234.4 326.133 245.466 324.667 248.133 324C254.533 322.267 260.133 317.6 274.8 301.867C281.733 294.4 287.466 288.533 287.733 288.667C287.866 288.8 282.533 308.4 275.866 332.133ZM547.333 294.267C546.4 297.867 540.933 317.2 535.2 337.333C529.6 357.467 524.533 374.4 524.133 374.933C523.733 375.333 511.6 370 497.333 362.933L471.333 350L467.066 339.6C464.666 334 463.2 329.333 463.733 329.333C464.266 329.333 474 328.4 485.333 327.2C513.2 324.4 515.466 323.333 534 303.6C542 294.933 548.666 288 548.933 288C549.066 288 548.4 290.8 547.333 294.267ZM213.066 425.867C230.4 434.267 244.666 441.467 244.533 442C244.4 442.4 242.666 449.067 240.533 456.8C236.8 470.533 236.666 470.8 233.2 470C226.8 468.533 219.333 471.733 209.733 479.733C196.666 490.667 188.8 493.867 174.666 493.867C164.666 494 162.266 493.467 154.666 489.867C149.866 487.6 142.533 482.667 138.266 478.933C131.466 472.933 124.4 469.333 118.8 469.333C113.333 469.333 105.6 473.333 98.2664 479.733C89.5997 487.6 79.9997 492.533 71.1997 494C65.9997 494.8 65.4664 494.533 61.4664 489.467C53.5997 479.6 51.333 472.667 51.333 458.667C51.333 447.467 51.733 445.067 55.0664 438.4C61.333 425.6 73.9997 415.333 87.5997 412.133C90.3997 411.467 112.666 410.933 137.066 410.8L181.466 410.667L213.066 425.867ZM473.866 425.867C491.2 434.267 505.333 441.6 505.333 442.267C505.333 444 492.133 489.6 491.466 490.4C490 491.867 481.866 487.2 473.066 479.867C464.933 472.933 457.733 469.333 452.133 469.333C446.8 469.333 438.933 473.2 431.866 479.6C422.266 488.133 416.4 491.2 405.733 493.467C390.266 496.667 375.6 491.867 361.466 479.333C346.8 466.267 335.866 466.267 321.2 479.333C307.066 492 292 496.667 276.4 493.467C267.6 491.6 254.666 484.933 254.666 482.267C254.666 481.467 256.8 472.8 259.466 463.2L264.266 445.733L271.066 444C283.333 440.933 294.666 426.533 294.666 414.133V410.667H368.533H442.4L473.866 425.867ZM602.133 414.267C613.6 420.4 620.133 431.467 620.266 444.933C620.266 456.8 616.8 463.067 603.466 475.2C597.333 480.8 591.866 485.333 591.333 485.333C590.8 485.333 587.2 482.4 583.333 478.933C577.2 473.2 569.2 469.333 563.866 469.333C558.266 469.333 551.2 472.933 544.4 478.933C540.133 482.667 533.066 487.333 528.666 489.333C520.4 493.2 512 495.333 512 493.6C512 493.067 515.066 482.133 518.666 469.333C522.4 456.533 525.333 445.867 525.333 445.733C525.333 445.467 526.4 445.333 527.733 445.333C532.4 445.333 543.6 438.933 547.733 433.867C552.133 428.533 556 419.067 556 413.6V410.4L576.4 410.933C594.133 411.333 597.333 411.733 602.133 414.267ZM124.8 493.467C130.933 500 143.2 507.467 152.933 510.8C159.866 513.2 164.933 514 174.666 514C193.466 514 205.6 509.333 220.8 496.533C225.6 492.4 229.866 489.467 230.266 489.867C230.666 490.267 228.666 498.8 225.866 508.933L220.666 527.2L210 528.8C191.066 531.6 177.6 537.467 172.133 545.067C170.666 547.2 167.466 555.867 165.066 564.533C160.8 579.733 160.533 580.133 157.333 579.333C152.533 578.133 145.6 573.6 137.733 566.4C124.133 554.133 112.133 554.933 96.933 568.933C93.4664 572.133 87.1997 576.4 82.933 578.4C76.533 581.467 73.5997 582 63.333 582C53.1997 582 50.133 581.467 43.733 578.4C35.4664 574.533 24.7997 565.6 21.8664 559.867C20.3997 556.933 19.9997 549.733 19.9997 528.267V500.267L31.5997 506.267C58.533 519.733 87.333 516.133 109.6 496.4C113.866 492.533 118.133 489.333 119.2 489.333C120.133 489.333 122.533 491.2 124.8 493.467ZM350.266 496.133C367.333 511.067 388.4 517.067 409.333 512.933C423.066 510.267 431.466 506.267 442.933 496.667C447.866 492.667 452.266 489.333 452.8 489.333C453.2 489.333 456.933 492.4 461.066 496.133C465.333 499.733 472.4 504.667 477.066 506.933C481.6 509.2 485.333 511.733 485.333 512.667C485.333 513.467 484.4 517.333 483.333 521.067C481.333 527.867 481.066 528 476.133 528C469.066 528 452.133 532.533 444.266 536.533C433.466 542 430.933 546 424.8 568.133C422.8 575.333 422.4 575.867 415.733 578.8C410.133 581.2 406.266 581.867 397.333 581.867C382.533 581.867 374 578.533 362.133 568.133C356 562.667 351.466 559.867 347.333 558.8C337.866 556.4 331.066 558.8 320.533 568.133C307.466 579.733 290.933 584.8 276.666 581.733C271.466 580.533 271.333 580.4 270.533 573.867C270.133 570.267 268.4 564.667 266.666 561.467C263.733 555.6 249.066 539.733 242.8 535.6L239.6 533.467L243.333 520.133C245.466 512.8 247.466 506.267 247.866 505.467C248.4 504.667 251.466 505.467 255.866 507.467C259.866 509.333 267.733 511.867 273.466 513.067C293.6 517.2 315.733 510.933 332.4 496.133C336.666 492.4 340.666 489.333 341.333 489.333C342 489.333 346 492.4 350.266 496.133ZM572.8 496.133C594.8 516 624.8 519.733 651.6 506L662.666 500.267V528.267C662.666 549.733 662.266 556.933 660.8 559.867C657.866 565.6 647.2 574.533 638.933 578.4C632.533 581.467 629.466 582 619.333 582C609.066 582 606.133 581.467 599.733 578.4C595.466 576.4 589.2 572.133 585.733 568.933C570.4 554.8 558.533 554.133 544.666 566.667C540.8 570.267 536.266 573.733 534.8 574.533C532.533 575.867 532.133 575.467 531.333 571.6C529.066 561.2 519.6 548 508 539.2C504.266 536.4 501.333 533.333 501.333 532.4C501.333 531.467 502.266 527.067 503.466 522.8L505.733 514.933L514 514.133C529.6 512.533 542.666 506.667 555.733 495.467C559.733 492.133 563.466 489.333 564.133 489.333C564.8 489.333 568.666 492.4 572.8 496.133ZM229.066 551.467C236.266 555.067 248.933 567.867 250.133 572.8C250.8 575.2 230 652.133 226.666 659.6C225.066 663.333 221.866 663.467 206.933 660.667C188.8 657.2 166 648.533 164.4 644.533C164 643.6 168.666 625.2 174.666 603.733C180.8 582.267 186.266 562.8 186.933 560.533C188.133 555.733 193.466 552.667 204.666 549.867C215.333 547.2 221.466 547.6 229.066 551.467ZM488.666 550.533C494.4 553.2 509.733 568.4 511.066 572.667C511.466 574.133 506.533 594 499.6 618.667L487.2 662L478.133 661.733C462.933 661.2 426.8 649.733 424.933 644.8C424.666 644 429.866 623.867 436.533 600.133C450.266 551.6 448.8 554.4 463.866 550.4C475.333 547.467 482.133 547.467 488.666 550.533ZM127.6 584.133C131.733 587.733 139.6 592.933 144.933 595.6C150.266 598.267 154.666 600.667 154.666 600.933C154.666 601.333 152.266 609.867 149.333 620C146.4 630.133 144 641.067 144 644.267C144 650 147.6 657.733 151.733 660.933C155.066 663.733 31.9997 663.467 26.7997 660.667C20.3997 657.467 19.8664 654.133 20.2664 619.6L20.6664 588L25.9997 591.6C39.5997 600.8 61.1997 604.667 77.733 600.8C90.6664 597.733 99.8664 593.067 109.2 584.667C113.733 580.667 118 577.333 118.666 577.333C119.333 577.333 123.333 580.4 127.6 584.133ZM573.466 584.667C582.8 593.067 592 597.733 604.933 600.8C621.466 604.667 643.066 600.8 656.666 591.6L662 588L662.4 619.6C662.666 641.467 662.266 652.533 661.2 655.067C658 662.8 658.666 662.667 580 662.667C511.866 662.667 507.866 662.533 508.533 660.267C509.733 656.533 522.266 611.867 523.866 605.6C524.8 602.533 526.266 600 527.2 600C531.066 600 548 590.4 555.2 584C559.333 580.4 563.333 577.333 564 577.333C564.666 577.333 568.933 580.667 573.466 584.667Z" fill="#EC1F28"/>
<path d="M618.133 47.0667C616 49.2001 613.2 57.2001 608.266 74.8001C604.4 88.2667 601.333 100.4 601.333 101.733C601.333 105.2 607.333 110.667 611.066 110.667C618 110.667 619.866 107.2 627.466 80.6667C631.333 66.6667 634.666 54.2667 634.666 52.9334C634.666 49.4667 628.666 44.0001 624.666 44.0001C622.8 44.0001 619.866 45.3334 618.133 47.0667Z" fill="#EC1F28"/>
<path d="M208.4 574.933C205.6 578 192 622.933 192 629.067C192 633.067 197.733 638.667 201.733 638.667C208.533 638.667 210.4 635.333 218 608C222.267 592.8 224.933 580.8 224.533 579.067C222.8 572.133 213.2 569.733 208.4 574.933Z" fill="#EC1F28"/>
<path d="M469.333 574.667C467.999 576 465.866 580.4 464.799 584.267C463.733 588.133 460.666 598.8 457.999 608C452.266 628.267 452.133 632.133 456.799 635.867C461.333 639.467 464.399 639.333 468.533 635.6C471.199 633.333 473.333 627.467 478.666 609.067C482.266 596.133 485.333 583.733 485.333 581.6C485.333 573.6 474.933 569.067 469.333 574.667Z" fill="#EC1F28"/>
<path d="M357.466 46.2667C353.999 49.2001 339.599 98.8001 340.799 103.6C342.533 110.533 352.133 112.933 356.933 107.6C359.733 104.667 373.333 59.7334 373.333 53.6001C373.333 49.6001 367.599 44.0001 363.599 44.0001C361.733 44.0001 359.066 45.0667 357.466 46.2667Z" fill="#EC1F28"/>
</svg>
