<svg width="248" height="248" viewBox="0 0 248 248" fill="none" xmlns="http://www.w3.org/2000/svg">
<path d="M151.831 144.936H88.0673V101.495C88.0673 91.8472 80.2157 83.993 70.5683 83.993C60.9235 83.993 53.0774 91.8472 53.0774 101.495C53.0774 104.01 55.1132 106.049 57.6287 106.049C60.1441 106.049 62.1799 104.01 62.1799 101.495C62.1799 96.8645 65.9435 93.1008 70.5683 93.1008C75.1985 93.1008 78.9648 96.8645 78.9648 101.495V122.648H35.8047V101.495C35.8047 91.8472 27.9531 83.993 18.3029 83.993C8.65275 83.993 0.803955 91.8472 0.803955 101.495C0.803955 104.01 2.83974 106.049 5.35516 106.049C7.87332 106.049 9.90637 104.01 9.90637 101.495C9.90637 96.8645 13.6727 93.1008 18.3029 93.1008C22.9332 93.1008 26.6995 96.8645 26.6995 101.495V144.936H10.5386C8.02048 144.936 5.98198 146.971 5.98198 149.49C5.98198 152.008 8.02048 154.046 10.5386 154.046H26.6968V188.548C26.6968 191.066 28.7326 193.102 31.248 193.102C33.7662 193.102 35.8019 191.066 35.8019 188.548V177.832H78.9594V188.548C78.9594 191.066 80.9952 193.102 83.5106 193.102C86.0287 193.102 88.0618 191.066 88.0618 188.548V154.046H151.825C154.343 154.046 156.382 152.008 156.382 149.49C156.382 146.971 154.349 144.936 151.831 144.936ZM35.8047 131.753H78.9621V144.936H35.8047V131.753ZM78.9621 168.725H35.8047V154.043H78.9621V168.725Z" fill="#EC1F28"/>
<path d="M242.55 154.043H221.374C218.859 154.043 216.82 152.005 216.82 149.487C216.82 146.969 218.859 144.933 221.374 144.933H242.55C245.068 144.933 247.103 146.969 247.103 149.487C247.103 152.005 245.068 154.043 242.55 154.043Z" fill="#EC1F28"/>
<path d="M212.283 118.38C212.839 117.928 225.966 107.122 232.398 93.199C238.704 79.5072 237.611 73.3726 227.708 66.93C223.099 63.9322 219.071 64.1203 216.504 64.7934C211.541 66.1124 207.113 70.4647 203.346 77.7412C202.057 80.2375 200.618 82.3224 199.22 84.0884C196.394 80.134 192.816 77.7248 189.418 76.2559C198.174 68.5679 203.564 57.3425 203.564 45.087C203.564 22.2273 184.967 3.63007 162.108 3.63007C139.24 3.63007 120.643 22.2273 120.643 45.087C120.643 57.1354 125.902 68.3472 134.623 76.0897C130.26 77.7167 125.077 80.5755 120.482 85.6036C111.894 95.0031 108.087 108.837 109.161 126.72C109.793 137.22 108.651 140.891 108.188 141.919C106.755 142.682 105.773 144.194 105.773 145.938C105.773 148.457 107.809 150.492 110.325 150.492C111.867 150.492 113.461 149.743 114.691 148.432C116.666 146.334 119.187 141.742 118.25 126.169C117.334 110.924 120.307 99.3826 127.093 91.8636C134.544 83.6114 144.355 83.05 144.587 83.0364C144.772 83.0337 144.927 82.9383 145.11 82.9138C145.159 82.9383 145.208 82.971 145.257 82.9955C147.566 84.0175 150.25 82.9819 151.269 80.6818C152.286 78.3816 151.256 75.6918 148.955 74.6698C137.289 69.4863 129.748 57.8712 129.748 45.087C129.748 27.25 144.26 12.7379 162.105 12.7379C179.939 12.7379 194.451 27.25 194.451 45.087C194.451 59.8361 184.501 72.7158 170.253 76.4113C167.82 77.0435 166.359 79.529 166.991 81.9626C167.517 84.0093 169.37 85.372 171.39 85.372C171.771 85.372 172.156 85.3284 172.54 85.2248C174.717 84.6607 176.81 83.9194 178.824 83.0337C178.841 83.0337 178.854 83.0419 178.873 83.0419C179.012 83.05 188.055 83.0337 192.543 90.7162C190.644 92.1633 190.132 94.8287 191.475 96.8399C192.873 98.9302 195.697 99.4889 197.79 98.1017C198.117 97.8783 205.9 92.6103 211.424 81.9299C214.752 75.5037 217.493 73.9531 218.831 73.5988C219.57 73.4053 220.78 73.2854 222.745 74.5635C227.724 77.8039 229.059 78.676 224.124 89.3836C219.281 99.8677 209.516 108.738 207.083 110.845C204.728 111.575 195.241 113.508 186.093 101.481C185.046 100.113 183.302 99.4535 181.634 99.7614C179.942 100.075 178.571 101.318 178.091 102.972C178.004 103.282 175.895 110.643 175.895 118.247C175.895 118.664 176.028 119.043 176.132 119.427C175.974 119.931 175.868 120.46 175.897 121.019C176.036 123.537 178.157 125.401 180.691 125.322C180.787 125.314 190.551 124.804 197.547 125.447C203.161 125.957 212.569 126.807 214.981 147.037C217.278 166.269 216.826 182.945 216.679 186.82C215.975 188.112 213.901 190.865 208.884 190.445C202.559 190.009 199.738 187.093 199.738 180.983C199.738 175.966 199.738 162.644 197.106 148.647C197.018 148.176 196.855 147.718 196.626 147.296C196.269 146.65 193.219 141.57 184.635 139.798C182.34 124.283 169.907 117.653 163.165 116.307C162.873 116.249 162.571 116.219 162.271 116.219H156.074C153.556 116.219 151.523 118.255 151.523 120.771C151.523 123.286 153.556 125.322 156.074 125.322H161.734C164.04 125.938 175.412 129.677 175.9 143.96C176.565 163.11 175.906 185.929 175.897 186.292C175.897 187.262 175.554 192.14 168.864 192.334C163.672 192.511 160.421 191.799 158.698 190.175C157.041 188.608 156.177 185.613 156.055 181.015C155.722 168.659 156.363 154.191 156.341 154.191C156.442 153.458 157.191 147.018 152.934 141.87C150.065 138.403 145.808 136.504 140.273 136.226C139.324 136.179 139.025 135.877 138.793 135.572C135.751 131.533 139.142 117.012 140.423 111.543C141.058 108.804 141.398 107.324 141.485 106.231C141.673 103.735 139.823 101.587 137.332 101.375C134.724 101.211 132.636 103.037 132.405 105.523C132.356 106.038 131.909 107.943 131.555 109.472C128.824 121.155 126.347 134.19 131.522 141.058C133.498 143.676 136.362 145.154 139.82 145.325C142.665 145.467 144.701 146.246 145.881 147.634C147.669 149.748 147.315 152.956 147.282 153.368C147.258 153.978 146.606 168.463 146.95 181.263C147.14 188.502 148.887 193.44 152.444 196.8C156.608 200.738 162.396 201.471 167.376 201.471C167.972 201.471 168.558 201.458 169.133 201.444C180.773 201.104 185.003 192.2 185.005 186.428C185.011 186.221 185.553 167.375 185.163 149.402C186.91 150.084 187.908 150.896 188.347 151.345C190.636 164.143 190.636 176.325 190.636 180.988C190.636 192.001 197.062 198.76 208.268 199.539C208.767 199.569 209.255 199.588 209.737 199.588C219.257 199.588 224.176 193.072 225.476 189.453C225.628 189.039 225.716 188.6 225.743 188.156C225.784 187.368 226.738 168.651 224.031 145.966C222.167 130.404 216.281 123.063 209.778 119.536C210.29 119.37 210.811 119.206 211.244 119.021C211.615 118.852 211.966 118.637 212.283 118.38ZM188.461 116.026C187.265 116.029 186.153 116.042 185.131 116.067C185.18 115.29 185.185 114.5 185.27 113.758C186.333 114.628 187.401 115.345 188.461 116.026Z" fill="#EC1F28"/>
<path d="M161.947 60.7927C167.4 60.7927 172.009 58.5689 174.415 56.6775C176.396 55.1214 176.731 52.2571 175.181 50.284C173.63 48.3137 170.774 47.9676 168.784 49.5182C168.719 49.57 162.334 54.4701 155.248 49.3956C153.199 47.924 150.362 48.4009 148.895 50.4421C147.427 52.4861 147.898 55.334 149.939 56.7974C154.043 59.738 158.197 60.7927 161.947 60.7927Z" fill="#EC1F28"/>
<path d="M172.254 42.3154C175.13 42.3154 177.462 39.9837 177.462 37.1074C177.462 34.2311 175.13 31.8994 172.254 31.8994C169.377 31.8994 167.046 34.2311 167.046 37.1074C167.046 39.9837 169.377 42.3154 172.254 42.3154Z" fill="#EC1F28"/>
<path d="M157.15 37.1073C157.15 34.2376 154.812 31.9048 151.94 31.9048C149.081 31.9048 146.756 34.2376 146.756 37.1073C146.756 39.977 149.083 42.3126 151.94 42.3126C154.812 42.3099 157.15 39.9743 157.15 37.1073Z" fill="#EC1F28"/>
<path d="M245.762 185.33C243.983 183.55 241.099 183.55 239.323 185.33C226.547 198.106 205.744 198.106 192.963 185.33C191.183 183.55 188.303 183.55 186.526 185.33C180.334 191.527 172.101 194.942 163.345 194.942C154.588 194.942 146.358 191.527 140.163 185.33C138.387 183.55 135.503 183.55 133.726 185.33C127.535 191.527 119.304 194.942 110.551 194.942C101.8 194.942 93.5695 191.527 87.3749 185.33C85.5953 183.55 82.7174 183.55 80.9378 185.33C74.7351 191.527 66.4993 194.942 57.7512 194.942C49.003 194.942 40.77 191.527 34.5781 185.33C32.7985 183.55 29.9179 183.55 28.1383 185.33C26.3614 187.101 26.3614 189.99 28.1383 191.767C36.0498 199.686 46.5721 204.049 57.7539 204.049C67.4777 204.049 76.7 200.738 84.1536 194.666C91.5963 200.741 100.824 204.049 110.553 204.049C120.283 204.049 129.502 200.738 136.95 194.666C144.393 200.741 153.613 204.049 163.35 204.049C173.079 204.049 182.307 200.738 189.75 194.672C197.413 200.899 206.783 204.02 216.15 204.02C226.876 204.02 237.606 199.937 245.771 191.769C247.539 189.99 247.539 187.106 245.762 185.33Z" fill="#EC1F28"/>
<path d="M213.959 224.623C201.166 237.404 180.367 237.393 167.588 224.628C165.811 222.851 162.93 222.851 161.154 224.628C148.378 237.393 127.576 237.404 114.799 224.628C113.911 223.74 112.745 223.295 111.575 223.295C110.412 223.295 109.243 223.74 108.351 224.628C95.5862 237.399 74.8169 237.404 62.0218 224.661C62.0163 224.65 62.0163 224.636 62.0081 224.628C61.117 223.74 59.9478 223.295 58.7841 223.295C57.615 223.295 56.4513 223.74 55.5547 224.628C55.5492 224.634 55.5492 224.634 55.5492 224.636C42.765 237.399 21.9793 237.391 9.20592 224.628C7.42632 222.851 4.5457 222.851 2.7661 224.628C0.986495 226.405 0.986495 229.291 2.7661 231.065C10.931 239.222 21.655 243.302 32.3817 243.302C41.7512 243.302 51.1152 240.187 58.7814 233.968C66.4476 240.192 75.8116 243.31 85.1811 243.31C94.5506 243.31 103.92 240.192 111.581 233.962C119.244 240.192 128.608 243.31 137.978 243.31C147.347 243.31 156.711 240.192 164.378 233.962C172.041 240.192 181.405 243.31 190.777 243.31C201.504 243.31 212.233 239.227 220.407 231.068C222.183 229.291 222.183 226.41 220.412 224.628C218.624 222.848 215.735 222.854 213.959 224.623Z" fill="#EC1F28"/>
</svg>
