<svg width="683" height="619" viewBox="0 0 683 619" fill="none" xmlns="http://www.w3.org/2000/svg">
<path d="M342.8 1.46671C316.666 6.53337 294.266 22.6667 281.333 45.4667L276.533 54L266.8 54.9334C243.466 56.9334 222.8 75.3334 217.466 98.8C212.933 118.4 220 140.4 235.066 154.133C252.266 169.6 276.8 173.2 298.266 163.467L305.733 160L311.866 163.867C327.066 173.6 344.8 178 363.866 176.933C378.8 176.133 390 172.8 403.2 165.2L412.4 160L419.333 163.2C451.066 178.267 488.266 162 498.666 128.267C509.333 93.8667 485.6 58 450.133 54.8L440.666 54L436 45.3334C433.2 40.1334 427.066 32.2667 420.533 25.8667C412 17.2 407.6 13.8667 398.533 9.60004C380.933 1.06671 360 -1.86663 342.8 1.46671ZM372.133 21.3334C381.466 23.0667 394.933 29.4667 402.4 35.6C410 41.8667 419.066 54.1334 422.133 62.2667C426.133 73.4667 427.733 74.4 442.4 74.9334C456.933 75.4667 462.8 77.6 470.133 84.9334C476.666 91.3334 480.266 99.3334 481.066 108.8C482.533 127.6 470.133 143.867 451.2 148.133C441.733 150.267 431.733 148.133 422.533 141.867C413.733 136 409.466 136 402.266 141.867C376.933 162.267 342.133 162.4 315.6 142.133C307.6 136 303.6 136 294.8 141.867C285.6 148.133 275.6 150.267 266.133 148.133C247.066 143.867 234.666 127.067 236.4 107.867C237.2 99.0667 240.666 91.7334 247.333 85.0667C255.066 77.4667 260.266 75.6 275.733 74.6667C290.933 73.8667 290.4 74.2667 295.066 62.8C307.333 32.6667 339.733 15.2 372.133 21.3334Z" fill="#EC1F28"/>
<path d="M37.3333 231.467C22.6666 235.467 9.33331 247.2 3.73331 261.2L0.666647 268.667L0.266647 416.667C-1.97905e-05 519.067 0.39998 566.8 1.33331 571.6C4.79998 587.733 17.0666 604.4 30.6666 611.333C46 619.067 27.0666 618.667 340.933 618.667C546.8 618.667 631.2 618.267 636.267 617.2C658.133 612.667 676.667 593.733 681.333 571.467C682.267 566.8 682.667 545.333 682.4 507.2L682 450L678.267 442.4C671.733 429.2 660 421.333 645.2 420.267C634.133 419.467 629.867 420.933 611.733 430.933C604 435.333 593.733 440.133 589.067 441.6C578.267 444.933 557.867 446.133 546.133 444.133C538.267 442.8 536.667 442.8 533.867 444.667C526.267 449.6 527.2 458.667 535.6 462.133C542.267 464.933 567.467 466.133 579.867 464.133C594.267 461.867 604.133 458.133 621.733 448.4C636.267 440.267 637.867 439.733 643.867 440.267C651.6 441.067 657.6 444.933 660.533 451.2C662.4 455.2 662.667 462.667 662.667 510.267C662.667 575.067 662.667 574.8 650.8 586.8C637.733 599.867 668.667 598.667 341.333 598.667C14 598.667 44.9333 599.867 31.8666 586.8C20 574.8 20 575.067 20 510.267C20 462.667 20.2666 455.2 22.1333 451.2C25.0666 444.933 31.0666 441.067 38.8 440.267C44.8 439.733 46.4 440.267 61.0666 448.4C86.4 462.4 101.6 466.267 126.667 464.933C148.267 463.733 156.667 460.933 190.533 442.8C202.933 436.133 214.933 433.333 231.067 433.333C249.333 433.333 261.067 436.8 281.333 448C290.533 453.067 300.667 458.133 304 459.333C326.533 467.467 358.533 467.2 380 458.667C384 457.067 394.267 452 402.667 447.333C425.067 435.067 428.933 434 452 434C470 434 472 434.267 481.333 437.867C495.067 443.067 500 443.6 503.2 440.133C506.933 436 506.533 429.6 502.267 425.867C494 418.8 472.4 413.333 452.267 413.333C429.867 413.333 421.333 415.733 394.533 429.2C369.733 441.733 361.333 445.067 361.333 442.133C361.333 441.2 372.533 405.067 386.267 361.867C409.6 288 411.067 282.667 411.2 272.667C411.333 264.4 410.667 260.533 408.4 255.733C404.4 246.933 395.6 238 386.8 233.733L379.333 230L256.667 229.6C189.2 229.467 132.667 229.6 130.933 230C126.667 231.067 122.667 235.467 122.667 239.2C122.667 240.933 123.867 243.867 125.467 245.867L128.133 249.333H250.4C366.933 249.333 372.933 249.467 378.133 251.867C381.2 253.2 385.333 256.533 387.333 259.2C392.933 266.533 393.067 272.933 388 289.333C384.4 301.067 382.933 304.133 378.667 308.133C372.667 313.6 365.867 316 355.867 316C346.533 315.867 338.4 312.133 330.267 304.267C324.933 298.933 323.2 298 318.667 298C314.133 298 312.4 298.933 307.067 304.267C298.933 312.133 290.8 315.867 281.467 316C270.667 316 264.4 313.6 256.133 305.867C252 302.133 247.333 298.667 245.6 298.133C241.067 296.667 234.4 299.467 230.4 304.533C224.8 311.6 214.533 316 204.133 316C193.333 316 186.667 313.067 179.333 305.6C169.333 295.2 163.467 295.067 153.6 304.933C145.2 313.2 138.8 316 127.867 316C117.467 316 107.2 311.467 101.867 304.667C97.8667 299.333 92 296.667 87.0667 298C85.0667 298.4 80.2667 301.733 76.5333 305.333C68 313.467 61.8666 316 51.3333 316C40.6666 316 30.6666 311.067 24.4 302.8C20.2666 297.333 20 296.533 20 285.6C20 271.733 23.6 262.533 31.2 256.667C39.4666 250.4 44.1333 249.467 68.1333 249.333C89.4667 249.333 90.2667 249.2 93.0667 246.267C96.6667 242.4 96.8 237.333 93.4667 233.2C90.9333 230.133 90.2667 230 67.7333 229.733C50.6666 229.467 42.8 230 37.3333 231.467ZM109.867 333.467C125.733 338.933 145.2 336.133 159.6 326.133L166 321.733L172.4 326.133C191.867 339.6 217.333 339.6 236 326.133L242.667 321.333L248.533 325.867C258.133 333.2 265.467 335.333 280.667 335.333C295.867 335.333 303.2 333.2 312.8 325.867L318.667 321.333L324.533 325.867C334.533 333.467 341.333 335.333 358.4 335.333C366.533 335.333 373.333 335.333 373.333 335.467C373.333 335.467 365.6 360.133 356.267 390.133L339.067 444.667L335.067 445.067C327.867 445.733 312.267 441.6 301.733 436C261.867 415.2 253.067 412.533 225.467 413.733C205.6 414.533 193.333 417.867 176.667 427.333C149.067 443.067 138.667 446 115.333 444.933C97.7333 444.133 90.4 441.733 70.6667 430.8C62.9333 426.533 54.2666 422.267 51.4666 421.333C44.9333 419.2 30 420.267 24.2666 423.2L20 425.467V376.133V326.933L28.4 331.067C35.2 334.533 38.6666 335.333 48.1333 335.733C62.2666 336.4 71.3333 334 82.1333 326.8L89.7333 321.6L96.1333 326.267C99.6 328.8 105.867 332 109.867 333.467Z" fill="#EC1F28"/>
<path d="M573.6 238.267C570.8 239.333 567.866 246.4 568.8 249.867C569.2 251.867 573.2 255.867 578.8 260C583.866 263.733 591.333 270.667 595.6 275.467C602.266 283.067 603.733 284 608 284C612.266 284 613.733 283.067 620.533 275.333C624.666 270.667 632 263.867 636.666 260.4C646.933 252.8 649.2 248.8 646.133 242.8C641.466 234 632.933 236.4 616.933 250.8L607.866 258.933L600.8 252.267C588.4 240.533 579.466 235.867 573.6 238.267Z" fill="#EC1F28"/>
<path d="M480.4 276.667C472.267 282.4 473.467 288.8 483.867 296.267C488 299.333 495.867 306.4 501.467 312.133C508.533 319.467 512.533 322.667 514.8 322.667C516.933 322.667 520.667 319.733 526.667 313.467C531.467 308.4 539.333 301.2 544.133 297.467C554 289.867 556.133 285.733 552.667 280.4C547.2 272 541.067 273.6 524.667 287.6L514.533 296.133L507.6 289.867C492.933 276.667 485.467 273.067 480.4 276.667Z" fill="#EC1F28"/>
</svg>
