<svg width="512" height="512" viewBox="0 0 512 512" fill="none" xmlns="http://www.w3.org/2000/svg">
<path d="M103.176 172.218C95.4182 165.236 90.7636 155.152 90.7636 145.067C90.7636 123.345 110.158 106.279 134.206 106.279C158.255 106.279 177.648 124.121 177.648 145.067C177.648 155.152 173.77 163.685 166.788 170.667" stroke="#EC1F28" stroke-width="15.5152" stroke-miterlimit="10" stroke-linecap="round" stroke-linejoin="round"/>
<path d="M166.788 169.115C197.818 159.03 231.176 173.77 242.036 201.697C252.897 229.624 236.606 259.879 205.576 269.964" stroke="#EC1F28" stroke-width="15.5152" stroke-miterlimit="10" stroke-linecap="round" stroke-linejoin="round"/>
<path d="M103.176 172.218C72.1455 162.133 38.7879 176.873 27.9273 204.8C17.8424 232.727 33.3576 263.758 64.3879 273.067" stroke="#EC1F28" stroke-width="15.5152" stroke-miterlimit="10" stroke-linecap="round" stroke-linejoin="round"/>
<path d="M223.418 288.582C219.539 281.6 213.333 275.394 205.576 269.964" stroke="#EC1F28" stroke-width="15.5152" stroke-miterlimit="10" stroke-linecap="round" stroke-linejoin="round"/>
<path d="M65.1636 273.067C38.0121 289.358 31.0303 322.715 49.6485 347.539C68.2667 372.364 104.727 378.57 131.103 361.503L137.309 357.624C151.273 366.158 167.564 369.261 183.079 366.158" stroke="#EC1F28" stroke-width="15.5152" stroke-miterlimit="10" stroke-linecap="round" stroke-linejoin="round"/>
<path d="M137.309 205.576V494.158" stroke="#EC1F28" stroke-width="15.5152" stroke-miterlimit="10" stroke-linecap="round" stroke-linejoin="round"/>
<path d="M141.188 297.115L175.321 262.206" stroke="#EC1F28" stroke-width="15.5152" stroke-miterlimit="10" stroke-linecap="round" stroke-linejoin="round"/>
<path d="M134.982 314.958L96.1939 276.17" stroke="#EC1F28" stroke-width="15.5152" stroke-miterlimit="10" stroke-linecap="round" stroke-linejoin="round"/>
<path d="M110.933 291.685L95.4182 307.2" stroke="#EC1F28" stroke-width="15.5152" stroke-miterlimit="10" stroke-linecap="round" stroke-linejoin="round"/>
<path d="M137.309 262.206L121.794 231.952" stroke="#EC1F28" stroke-width="15.5152" stroke-miterlimit="10" stroke-linecap="round" stroke-linejoin="round"/>
<path d="M469.333 330.473H197.042C189.285 330.473 183.079 324.267 183.079 316.509V302.545C183.079 294.788 189.285 288.582 197.042 288.582H469.333C477.091 288.582 483.297 294.788 483.297 302.545V316.509C483.297 324.267 477.091 330.473 469.333 330.473Z" stroke="#EC1F28" stroke-width="15.5152" stroke-miterlimit="10" stroke-linecap="round" stroke-linejoin="round"/>
<path d="M469.333 372.364H197.042C189.285 372.364 183.079 366.158 183.079 358.4V344.436C183.079 336.679 189.285 330.473 197.042 330.473H469.333C477.091 330.473 483.297 336.679 483.297 344.436V358.4C483.297 366.158 477.091 372.364 469.333 372.364Z" stroke="#EC1F28" stroke-width="15.5152" stroke-miterlimit="10" stroke-linecap="round" stroke-linejoin="round"/>
<path d="M487.176 437.527H179.2C173.77 437.527 169.891 433.648 169.891 428.218V412.703C169.891 407.273 173.77 403.394 179.2 403.394H487.176C492.606 403.394 496.485 407.273 496.485 412.703V428.218C496.485 433.648 492.606 437.527 487.176 437.527Z" stroke="#EC1F28" stroke-width="15.5152" stroke-miterlimit="10" stroke-linecap="round" stroke-linejoin="round"/>
<path d="M214.885 372.364H277.721V403.394H214.885V372.364Z" stroke="#EC1F28" stroke-width="15.5152" stroke-miterlimit="10" stroke-linecap="round" stroke-linejoin="round"/>
<path d="M387.879 372.364H450.715V403.394H387.879V372.364Z" stroke="#EC1F28" stroke-width="15.5152" stroke-miterlimit="10" stroke-linecap="round" stroke-linejoin="round"/>
<path d="M211.006 494.158C200.145 494.158 191.612 485.624 191.612 474.764V437.527H231.176V474.764C230.4 485.624 221.867 494.158 211.006 494.158Z" stroke="#EC1F28" stroke-width="15.5152" stroke-miterlimit="10" stroke-linecap="round" stroke-linejoin="round"/>
<path d="M455.37 494.158C444.509 494.158 435.976 485.624 435.976 474.764V437.527H475.539V474.764C474.764 485.624 466.23 494.158 455.37 494.158Z" stroke="#EC1F28" stroke-width="15.5152" stroke-miterlimit="10" stroke-linecap="round" stroke-linejoin="round"/>
<path d="M463.903 85.3333C463.903 101.624 450.715 114.812 434.424 114.812C418.133 114.812 404.945 101.624 404.945 85.3333C404.945 69.0424 418.133 55.8545 434.424 55.8545C451.491 55.8545 463.903 69.0424 463.903 85.3333Z" stroke="#EC1F28" stroke-width="15.5152" stroke-miterlimit="10" stroke-linecap="round" stroke-linejoin="round"/>
<path d="M435.2 23.2727V31.806" stroke="#EC1F28" stroke-width="15.5152" stroke-miterlimit="10" stroke-linecap="round" stroke-linejoin="round"/>
<path d="M435.2 138.085V146.618" stroke="#EC1F28" stroke-width="15.5152" stroke-miterlimit="10" stroke-linecap="round" stroke-linejoin="round"/>
<path d="M373.139 85.3333H381.673" stroke="#EC1F28" stroke-width="15.5152" stroke-miterlimit="10" stroke-linecap="round" stroke-linejoin="round"/>
<path d="M487.952 85.3333H496.485" stroke="#EC1F28" stroke-width="15.5152" stroke-miterlimit="10" stroke-linecap="round" stroke-linejoin="round"/>
<path d="M390.982 41.8909L397.188 47.3212" stroke="#EC1F28" stroke-width="15.5152" stroke-miterlimit="10" stroke-linecap="round" stroke-linejoin="round"/>
<path d="M472.436 122.57L478.642 128.776" stroke="#EC1F28" stroke-width="15.5152" stroke-miterlimit="10" stroke-linecap="round" stroke-linejoin="round"/>
<path d="M390.982 128.776L397.188 122.57" stroke="#EC1F28" stroke-width="15.5152" stroke-miterlimit="10" stroke-linecap="round" stroke-linejoin="round"/>
<path d="M472.436 47.3212L478.642 41.8909" stroke="#EC1F28" stroke-width="15.5152" stroke-miterlimit="10" stroke-linecap="round" stroke-linejoin="round"/>
<path d="M222.642 55.8545C220.315 55.0788 217.212 54.303 214.109 54.303C200.921 54.303 190.836 65.1636 190.836 77.5757C190.836 89.9879 201.697 100.848 214.109 100.848H310.303C323.491 100.848 333.576 89.9879 333.576 77.5757C333.576 65.1636 322.715 54.303 310.303 54.303C311.079 51.2 311.855 48.8727 311.855 45.7697C311.855 30.2545 299.442 17.8424 283.927 17.8424C268.412 17.8424 256 30.2545 256 45.7697V41.8909C252.121 35.6848 245.139 32.5818 237.382 32.5818C224.97 32.5818 215.661 42.6667 215.661 54.303" stroke="#EC1F28" stroke-width="15.5152" stroke-miterlimit="10" stroke-linecap="round" stroke-linejoin="round"/>
<path d="M39.5636 46.5454C38.0121 45.7697 35.6848 44.9939 32.5818 44.9939C23.2727 44.9939 15.5151 52.7515 15.5151 62.0606C15.5151 71.3697 23.2727 79.1273 32.5818 79.1273H103.952C113.261 79.1273 121.018 71.3697 121.018 62.0606C121.018 52.7515 113.261 44.9939 103.952 44.9939C104.727 42.6667 104.727 40.3394 104.727 38.7879C104.727 27.1515 95.4182 17.8424 83.7818 17.8424C72.1454 17.8424 62.8364 27.1515 62.8364 38.7879V36.4606C60.5091 31.0303 55.8545 28.703 50.4242 28.703C41.1151 28.703 34.1333 35.6848 34.1333 44.9939" stroke="#EC1F28" stroke-width="15.5152" stroke-miterlimit="10" stroke-linecap="round" stroke-linejoin="round"/>
<path d="M268.412 156.703C268.412 156.703 300.994 161.358 303.321 183.855" stroke="#EC1F28" stroke-width="15.5152" stroke-miterlimit="10" stroke-linecap="round" stroke-linejoin="round"/>
<path d="M337.455 156.703C337.455 156.703 305.649 159.03 302.545 183.855" stroke="#EC1F28" stroke-width="15.5152" stroke-miterlimit="10" stroke-linecap="round" stroke-linejoin="round"/>
<path d="M311.855 223.418C311.855 223.418 344.436 228.073 346.764 250.57" stroke="#EC1F28" stroke-width="15.5152" stroke-miterlimit="10" stroke-linecap="round" stroke-linejoin="round"/>
<path d="M381.673 223.418C381.673 223.418 349.867 225.745 346.764 250.57" stroke="#EC1F28" stroke-width="15.5152" stroke-miterlimit="10" stroke-linecap="round" stroke-linejoin="round"/>
<path d="M414.255 186.958C414.255 186.958 446.836 191.612 449.164 214.109" stroke="#EC1F28" stroke-width="15.5152" stroke-miterlimit="10" stroke-linecap="round" stroke-linejoin="round"/>
<path d="M483.297 186.958C483.297 186.958 451.491 189.285 448.388 214.109" stroke="#EC1F28" stroke-width="15.5152" stroke-miterlimit="10" stroke-linecap="round" stroke-linejoin="round"/>
</svg>
