<?xml version="1.0" encoding="utf-8"?>
<!-- Generator: Adobe Illustrator 27.9.0, SVG Export Plug-In . SVG Version: 6.00 Build 0)  -->
<svg version="1.1" id="Layer_1" xmlns="http://www.w3.org/2000/svg" xmlns:xlink="http://www.w3.org/1999/xlink" x="0px" y="0px"
	 viewBox="0 0 500 500" style="enable-background:new 0 0 500 500;" xml:space="preserve">
<style type="text/css">
	.st0{fill:#EC1F28;}
</style>
<g>
	<path class="st0" d="M500,391.6c-2.84,5.34-7.27,6.94-13.26,6.93c-157.83-0.12-315.65-0.12-473.48,0c-5.99,0-10.42-1.58-13.26-6.93
		c0-1.95,0-3.91,0-5.86c16.74-28.9,33.14-58.01,50.46-86.55c4.71-7.76,5.15-13.44-0.16-20.71c-4.78-6.54-8.31-13.99-12.7-21.56
		c-6.28,10.85-12.11,20.96-17.98,31.05c-5.77,9.92-13.72,9.96-19.62,0.12c0-1.95,0-3.91,0-5.86c8.93-15.24,17.87-30.47,26.8-45.71
		c0.66-1.12,1.26-2.28,1.95-3.38c4.66-7.47,13.14-7.6,17.66-0.05c6.17,10.32,12.06,20.81,18.09,31.22c0.8,1.38,1.66,2.72,2.85,4.65
		c1.16-1.84,2.12-3.25,2.97-4.71c40.72-70.52,81.44-141.04,122.15-211.56c0.57-0.99,1.13-1.98,1.72-2.94
		c4.8-7.77,13.26-7.87,17.88,0.01c9.54,16.26,18.89,32.64,28.32,48.96c15.2,26.32,30.4,52.64,45.61,78.95
		c0.96,1.65,1.98,3.27,3.31,5.46c1.7-2.89,3.09-5.21,4.44-7.54c10.89-18.86,21.75-37.74,32.66-56.59
		c5.56-9.61,13.85-9.59,19.42,0.05c17.66,30.53,35.26,61.09,52.93,91.62c2.29,3.96,3.11,7.9,0.43,11.91
		c-2.31,3.45-5.96,5.33-9.68,3.86c-3.02-1.19-6.16-3.73-7.8-6.52c-14.45-24.5-28.58-49.19-42.81-73.82
		c-0.79-1.36-1.65-2.69-2.69-4.38c-0.77,1.07-1.39,1.79-1.86,2.6c-10.74,18.57-21.52,37.12-32.09,55.79
		c-0.81,1.43-0.79,4.14,0.04,5.58c32.63,56.8,65.39,113.52,98.23,170.19c0.8,1.38,2.84,2.88,4.31,2.89
		c22.45,0.18,44.9,0.13,68.22,0.13c-1.03-1.98-1.75-3.5-2.59-4.94c-14.29-24.78-28.62-49.54-42.89-74.33
		c-3.75-6.52-2.18-12.73,3.67-15.27c4.71-2.05,9.55-0.47,12.53,4.43c3.55,5.83,6.87,11.8,10.29,17.7
		c15.31,26.42,30.61,52.84,45.92,79.25C500,387.7,500,389.65,500,391.6z M27.09,378.63c117.55,0,234.55,0,352.36,0
		c-34.98-60.58-69.63-120.61-104.51-181.03c-1.5,1.4-2.7,2.46-3.82,3.59c-9.22,9.19-18.4,18.42-27.63,27.6
		c-6.23,6.2-10.97,6.24-17.13,0.12c-8.65-8.6-17.27-17.25-25.89-25.89c-5.96-5.97-11.91-11.96-17.86-17.93
		c-0.96,0.43-1.57,0.63-2.1,0.96c-21,12.7-42.03,25.37-62.95,38.2c-1.81,1.11-3.29,3.1-4.39,4.99
		c-27.86,48.11-55.65,96.25-83.44,144.4C28.87,375.13,28.12,376.69,27.09,378.63z M264.55,179.6
		c-20.25-35.06-40.64-70.36-61.41-106.32c-22.59,39.14-44.6,77.28-66.61,115.41c13.72-7.19,26.62-15,39.51-22.81
		c7.46-4.53,10.66-4.2,16.73,1.86c12.77,12.75,25.55,25.5,38.24,38.33c1.21,1.23,1.8,3.07,2.55,4.41
		C244.7,199.37,254.47,189.63,264.55,179.6z"/>
	<path class="st0" d="M406.25,0c6.7,2.73,13.99,4.53,19.98,8.37c18.32,11.72,25.54,34.89,18.13,55.33
		c-7.55,20.83-27.69,33.22-50.38,31.01c-20.33-1.98-37.92-18.93-41.23-39.73c-3.99-25.03,12.53-48.76,37.59-54.02
		c1.09-0.23,2.15-0.63,3.22-0.96C397.79,0,402.02,0,406.25,0z M399.71,75.44c15.48,0.01,27.95-12.36,28.01-27.76
		c0.06-15.35-12.42-28.01-27.73-28.13c-15.63-0.12-28.21,12.42-28.17,28.09C371.86,63.15,384.17,75.43,399.71,75.44z"/>
	<path class="st0" d="M97.66,500c-0.69-0.41-1.38-0.81-2.05-1.24c-4.16-2.63-6.03-6.86-4.64-11.25c1.43-4.52,4.73-6.99,9.46-7
		c35.4-0.05,70.81-0.04,106.21-0.01c4.97,0,8.31,2.55,9.78,7.27c1.4,4.52-0.67,8.27-6.45,12.23C172.53,500,135.09,500,97.66,500z"/>
	<path class="st0" d="M290.04,500c-0.51-0.37-0.99-0.78-1.52-1.11c-4.18-2.59-6.12-6.25-4.94-11.13c1.1-4.54,4.91-7.25,10.26-7.27
		c15.92-0.06,31.83-0.03,47.75-0.03c18.35,0,36.7,0,55.06,0c7.19,0,11.12,2.24,12.43,7.02c1.39,5.1-0.61,8.81-6.73,12.51
		C364.91,500,327.47,500,290.04,500z"/>
	<path class="st0" d="M0,436.52c2.87-5.29,7.26-6.98,13.26-6.94c32.35,0.22,64.71,0.1,97.06,0.11c1.46,0,2.94-0.08,4.38,0.11
		c5.08,0.67,8.51,4.62,8.51,9.65c0,5.04-3.42,8.98-8.51,9.66c-1.44,0.19-2.92,0.11-4.38,0.11c-32.35,0-64.71-0.11-97.06,0.11
		c-6,0.04-10.39-1.66-13.27-6.94C0,440.43,0,438.48,0,436.52z"/>
	<path class="st0" d="M500,442.38c-2.88,5.27-7.26,6.98-13.27,6.94c-32.35-0.22-64.71-0.1-97.06-0.11c-1.46,0-2.94,0.08-4.38-0.11
		c-5.08-0.68-8.51-4.63-8.51-9.66c0-5.03,3.44-8.99,8.51-9.65c1.44-0.19,2.92-0.11,4.38-0.11c32.35,0,64.71,0.11,97.06-0.11
		c6-0.04,10.39,1.67,13.26,6.94C500,438.48,500,440.43,500,442.38z"/>
	<path class="st0" d="M413.36,264.82c-5.4,0.09-9.75-3.99-9.94-9.31c-0.19-5.36,4.43-10.1,9.81-10.06c5.24,0.04,9.6,4.42,9.64,9.68
		C422.9,260.5,418.75,264.73,413.36,264.82z"/>
	<path class="st0" d="M250.51,429.69c16.42,0,32.84-0.02,49.26,0.01c7.58,0.01,11.89,3.67,11.8,9.9c-0.09,6.01-4.36,9.61-11.61,9.61
		c-33.33,0.02-66.66,0.02-99.98,0c-7.24-0.01-11.5-3.64-11.56-9.66c-0.06-6.07,4.2-9.83,11.37-9.84
		C216.7,429.66,233.61,429.69,250.51,429.69z"/>
</g>
</svg>
