<svg width="306" height="306" viewBox="0 0 306 306" fill="none" xmlns="http://www.w3.org/2000/svg">
<g clip-path="url(#clip0_7_8)">
<path d="M303.665 156.825C312.433 122.248 295.486 92.2226 260.407 69.7298C230.18 50.4913 187.346 40.3566 145.459 41.8096V24.3515C144.233 -7.93114 97.9442 -7.91979 96.7249 24.3521C96.7249 24.3515 96.7249 48.47 96.7249 48.47C91.8754 49.6893 87.1269 51.0663 82.4962 52.5993V41.684C81.2709 9.40136 34.9824 9.41212 33.7625 41.6846C33.7625 41.684 33.7625 78.0739 33.7625 78.0739C6.77344 99.6505 -5.4669 126.932 2.33512 156.824C-0.771581 168.055 -0.770386 179.93 2.29149 191.124C-5.78008 222.595 8.25447 250.831 38.0616 272.87C40.2849 274.278 42.372 273.947 44.3222 271.875C45.7769 269.871 45.3311 267.068 43.3277 265.614C24.562 251.994 8.61367 231.53 8.97646 207.32C61.2513 293.577 244.724 293.604 297.025 207.32C297.435 234.669 277.515 256.612 255.636 270.367C205.22 303.346 116.661 305.489 62.2811 277.073C56.9726 274.593 52.9909 282.172 58.2516 285.082C115.347 315.039 207.354 312.54 260.407 277.957C295.394 255.503 312.362 225.632 303.709 191.124C306.771 179.932 306.772 168.052 303.665 156.825ZM105.69 24.3515C106.467 3.94222 135.724 3.95776 136.493 24.3515V42.2572C125.948 42.9726 115.636 44.3682 105.69 46.4176V24.3515ZM136.493 51.242V63.2833C116.877 64.8152 98.4014 69.067 82.4962 75.7119V62.0611C99.0768 56.2679 117.36 52.588 136.493 51.242ZM82.4962 102.813L136.493 87.9487V97.9639L82.4962 112.829V102.813ZM136.493 78.6501L82.4962 93.5148V85.4863C98.0775 78.4206 116.625 73.8878 136.493 72.2711V78.6501ZM42.7276 41.684C43.5046 21.2765 72.7601 21.2879 73.5311 41.684V55.8208C62.7676 60.0003 52.3603 65.2001 42.7276 71.5808V41.684ZM40.7577 83.9825C51.3138 76.826 61.6804 70.3538 73.5317 65.4696V79.8514C49.724 91.5204 32.9605 111.511 33.5498 131.232C36.5441 181.061 104.961 199.838 152.999 199.823C184.461 199.822 214.107 192.952 236.479 180.478C288.167 152.414 282.381 102.124 228.677 78.001C223.194 75.6707 219.612 83.4572 224.883 86.124C271.927 107.489 277.477 147.87 232.111 172.648C211.054 184.39 182.958 190.857 153 190.857C123.042 190.857 94.9463 184.39 73.8885 172.648C32.4919 150.292 32.2307 112.53 73.5311 90.0184V128.975C73.5311 131.45 75.5375 133.457 78.0136 133.457C80.4898 133.457 82.4962 131.45 82.4962 128.975V122.127L136.493 107.262V112.837C136.493 115.313 138.5 117.32 140.976 117.32C143.452 117.32 145.459 115.313 145.459 112.837V71.7458C165.289 70.9802 185.773 73.2184 203.641 78.313C206.025 78.9866 208.5 77.6 209.173 75.2171C209.846 72.8347 208.46 70.358 206.077 69.6856C187.409 64.3675 166.13 62.0091 145.459 62.7771V50.7806C206.71 48.3451 293.58 74.9505 297.04 139.549C297.039 162.893 282.335 184.993 255.635 201.779C201.963 237.07 104.035 237.073 50.3647 201.778C0.251037 171.396 -5.62588 118.633 40.7577 83.9825ZM255.635 236.229C201.963 271.523 104.036 271.523 50.3653 236.228C28.411 222.427 8.41763 200.338 8.98184 172.881C61.2656 259.124 244.709 259.15 297.019 172.881C297.577 200.339 277.593 222.425 255.635 236.229Z" fill="#EC1F28"/>
<path d="M198.485 165.057C195.249 165.057 193.884 164.2 191.816 162.903C184.611 158.381 176.167 158.374 168.949 162.903C166.882 164.2 165.516 165.057 162.281 165.057C159.044 165.057 157.678 164.2 155.611 162.903C148.404 158.381 139.959 158.374 132.74 162.903C130.673 164.2 129.306 165.057 126.07 165.057C120.156 165.253 120.12 173.813 126.07 174.022C131.886 174.022 135.002 172.067 137.505 170.497C140.405 168.677 147.946 168.677 150.845 170.497C153.348 172.067 156.464 174.022 162.281 174.022C168.096 174.022 171.211 172.067 173.714 170.497C176.613 168.677 184.152 168.677 187.051 170.497C189.554 172.067 192.669 174.022 198.485 174.022C204.395 173.828 204.437 165.268 198.485 165.057Z" fill="#EC1F28"/>
<path d="M205.157 142.15C203.089 143.447 201.723 144.304 198.488 144.304C195.251 144.304 193.885 143.447 191.818 142.15C184.611 137.628 176.166 137.621 168.947 142.15C166.88 143.447 165.513 144.304 162.277 144.304C156.344 144.508 156.344 153.064 162.277 153.269C168.093 153.269 171.209 151.314 173.712 149.744C176.613 147.924 184.152 147.924 187.052 149.744C193.488 154.444 203.505 154.433 209.922 149.744C212.822 147.924 220.359 147.924 223.259 149.744C225.762 151.315 228.876 153.269 234.692 153.269C240.625 153.064 240.625 144.509 234.692 144.304C231.457 144.304 230.091 143.447 228.024 142.15C220.819 137.627 212.375 137.621 205.157 142.15Z" fill="#EC1F28"/>
</g>
<defs>
<clipPath id="clip0_7_8">
<rect width="306" height="306" fill="white"/>
</clipPath>
</defs>
</svg>
