<?xml version="1.0" encoding="utf-8"?>
<!-- Generator: Adobe Illustrator 27.9.0, SVG Export Plug-In . SVG Version: 6.00 Build 0)  -->
<svg version="1.1" id="Layer_1" xmlns="http://www.w3.org/2000/svg" xmlns:xlink="http://www.w3.org/1999/xlink" x="0px" y="0px"
	 viewBox="0 0 500 500" style="enable-background:new 0 0 500 500;" xml:space="preserve">
<style type="text/css">
	.st0{fill:#EC1F28;}
</style>
<g>
	<path class="st0" d="M78.28,499.67c-10.86-13.33-22.21-26.3-32.48-40.07c-17.56-23.52-32.89-48.42-41.24-76.91
		c-10.88-37.09-0.48-72.24,28.52-93.34c27.59-20.08,57.62-22.71,87.67-6.58c30.04,16.12,44.49,42.56,43.15,76.69
		c-0.78,19.85-8.71,37.87-17.81,55.23c-15.71,29.98-35.84,56.88-58.03,82.31c-0.72,0.83-1.31,1.78-1.97,2.67
		C83.49,499.67,80.88,499.67,78.28,499.67z M81.74,485.19c18.98-22.43,35.72-44.76,49.43-69.24c8.2-14.64,15.26-29.75,18.85-46.29
		c6.09-28.02-5.52-56.86-29.4-72.74c-23.84-15.86-55.01-15.43-78.4,1.07c-25.46,17.96-35.28,48.26-25.89,80.58
		c7.64,26.29,21.82,49.21,37.74,71.1C62.74,461.59,72.18,472.96,81.74,485.19z"/>
	<path class="st0" d="M500,117.89c-15.26,21.09-38.16,24.46-58.89,8.66c-0.37-0.28-0.81-0.48-1.21-0.71
		c-17.37,14.29-37.15,13.78-52.66,1c-7.77,3.15-14.65,7.18-22.03,8.66c-14.99,3-27.37-2.75-36.98-14.46
		c-3.06-3.73-2.89-7.51,0.11-9.87c2.96-2.34,6.41-1.56,9.65,2.18c12.21,14.08,29.6,14.09,42.13,0.03c4.21-4.72,7.61-4.73,11.72-0.04
		c12.3,14.07,29.89,14.09,42.13,0.05c4.22-4.84,7.72-4.76,12.04,0.29c11.55,13.52,30.21,13.58,41.51,0.12
		c4.6-5.48,7.99-5.43,12.48,0.18C500,115.29,500,116.59,500,117.89z"/>
	<path class="st0" d="M500,64.19c-2.8,2.86-5.37,6.01-8.45,8.53c-12.92,10.62-33.2,13.87-51.7-1.7
		c-7.61,6.63-16.46,10.67-26.8,10.67c-10.2,0-19.01-3.75-25.62-9.56c-7.89,3.18-14.89,7.3-22.42,8.77
		c-15.24,2.97-27.67-3.07-37.25-15.06c-2.45-3.06-2.63-6.32,0.41-9.15c2.67-2.49,6.69-2.04,9.32,1.5
		c10.94,14.73,32.62,14.41,43.24-0.02c3.15-4.28,7.47-4.23,10.64,0.07c10.77,14.56,32.7,14.42,43.24-0.11
		c3.09-4.26,7.47-4.16,10.65,0.12c10.95,14.71,32.76,14.26,43.21-0.15c3.35-4.62,7.34-3.94,11.52,1.2C500,60.93,500,62.56,500,64.19
		z"/>
	<path class="st0" d="M500,9.51c-5.25,4.47-9.89,10.11-15.86,13.17c-15.68,8.05-30.53,5.04-44.25-6.29
		c-7.65,6.53-16.46,10.65-26.81,10.65c-10.21,0-19.01-3.75-25.67-9.56c-7.85,3.18-14.86,7.32-22.38,8.78
		c-15.22,2.95-27.67-3.06-37.26-15.06c-2.46-3.07-2.63-6.31,0.38-9.15c2.67-2.52,6.67-2.08,9.31,1.48
		c10.92,14.78,32.74,14.36,43.24,0.02c3.16-4.32,7.44-4.3,10.63,0.04c10.59,14.43,32.58,14.55,43.26-0.08
		c3.12-4.28,7.47-4.21,10.65,0.09c10.85,14.67,32.79,14.3,43.22-0.12c3.36-4.64,7.29-3.98,11.53,1.14C500,6.25,500,7.88,500,9.51z"
		/>
	<path class="st0" d="M500,277.05c-2.2,2.41-4.41,4.92-8.17,3.67c-3.92-1.31-4.24-4.65-4.73-8.18c-0.62-4.46-1.71-8.88-2.97-13.2
		c-1.14-3.92-0.17-6.79,3.47-8.41c3.44-1.54,7.04,0.28,8.31,4.41c1.61,5.21,2.75,10.57,4.09,15.86C500,273.14,500,275.1,500,277.05z
		"/>
	<path class="st0" d="M126.79,218.4c-3.07,0-6.16,0.17-9.21-0.04c-3.52-0.24-5.78-2.34-5.96-5.86c-0.19-3.81,2.12-6.3,5.79-6.49
		c6.45-0.32,12.94-0.3,19.39,0c3.45,0.16,5.74,2.53,5.74,6.07c0,3.75-2.29,6.02-6.05,6.27C133.27,218.58,130.03,218.4,126.79,218.4z
		"/>
	<path class="st0" d="M213.73,218.4c-3.07,0-6.16,0.18-9.21-0.04c-3.75-0.27-6.04-2.5-6.04-6.27c0-3.56,2.28-5.91,5.73-6.07
		c6.45-0.3,12.94-0.33,19.39,0c3.66,0.18,5.99,2.69,5.8,6.48c-0.18,3.5-2.44,5.63-5.97,5.86
		C220.21,218.56,216.96,218.4,213.73,218.4z"/>
	<path class="st0" d="M387.62,218.41c-3.07,0-6.15,0.14-9.22-0.04c-3.75-0.22-6.12-2.35-6.18-6.13c-0.05-3.81,2.36-6.12,6.05-6.27
		c6.3-0.26,12.62-0.27,18.91,0.01c3.68,0.17,6.09,2.59,5.95,6.36c-0.13,3.72-2.52,5.87-6.3,6.04
		C393.77,218.52,390.69,218.41,387.62,218.41z"/>
	<path class="st0" d="M301.11,218.41c-3.23-0.01-6.48,0.17-9.7-0.05c-3.75-0.25-6.05-2.46-6.07-6.24c-0.01-3.56,2.25-5.93,5.7-6.09
		c6.45-0.31,12.94-0.33,19.39-0.02c3.67,0.18,6.04,2.67,5.83,6.46c-0.21,3.72-2.64,5.79-6.42,5.93
		C306.94,218.5,304.02,218.41,301.11,218.41z"/>
	<path class="st0" d="M246.24,357.28c-2.93,0-5.85,0.02-8.78-0.01c-4.07-0.03-6.62-2.11-6.68-6.15c-0.06-3.82,2.42-6.05,6.18-6.17
		c6.17-0.19,12.36-0.2,18.53,0c3.74,0.12,6.23,2.29,6.19,6.15c-0.05,4.08-2.6,6.11-6.65,6.16
		C252.1,357.31,249.17,357.28,246.24,357.28z"/>
	<path class="st0" d="M333.04,357.25c-3.09,0-6.18,0.09-9.27-0.03c-3.88-0.15-6.11-2.41-6.13-6.17c-0.02-3.56,2.21-5.91,5.77-6.03
		c6.49-0.23,13.01-0.24,19.49,0.03c3.54,0.15,5.73,2.53,5.65,6.12c-0.09,3.8-2.39,5.94-6.24,6.07
		C339.23,357.34,336.13,357.26,333.04,357.25z"/>
	<path class="st0" d="M419.92,357.25c-3.09,0-6.18,0.1-9.27-0.02c-3.88-0.15-6.11-2.4-6.14-6.17c-0.02-3.57,2.21-5.88,5.76-6.04
		c6.33-0.3,12.68-0.42,19.01-0.22c3.68,0.11,6.21,2.37,6.14,6.23c-0.07,3.79-2.41,5.94-6.24,6.11c-3.08,0.13-6.18,0.03-9.27,0.03
		C419.92,357.19,419.92,357.22,419.92,357.25z"/>
	<path class="st0" d="M344.23,218.42c-2.92,0-5.85,0.07-8.77-0.02c-4.02-0.11-6.54-2.14-6.58-6.25c-0.04-3.89,2.4-6.07,6.13-6.2
		c6.17-0.22,12.35-0.23,18.52,0.01c3.7,0.14,6.14,2.3,6.09,6.23c-0.06,4.17-2.62,6.09-6.6,6.22
		C350.08,218.49,347.15,218.42,344.23,218.42z"/>
	<path class="st0" d="M257.05,218.41c-2.92,0-5.86,0.11-8.77-0.03c-3.77-0.19-6.15-2.18-6.26-6.06c-0.11-3.9,2.22-6.2,5.95-6.35
		c6.33-0.26,12.68-0.28,19,0.03c3.71,0.18,5.95,2.57,5.77,6.49c-0.16,3.67-2.42,5.62-5.94,5.86c-3.24,0.22-6.5,0.05-9.75,0.05
		C257.05,218.4,257.05,218.41,257.05,218.41z"/>
	<path class="st0" d="M170.66,218.41c-3.09,0-6.18,0.12-9.26-0.03c-3.77-0.18-6.15-2.18-6.26-6.07c-0.11-3.91,2.23-6.19,5.95-6.34
		c6.33-0.26,12.68-0.28,19,0.03c3.71,0.18,5.95,2.57,5.77,6.49c-0.17,3.67-2.42,5.62-5.94,5.86c-3.07,0.21-6.17,0.04-9.26,0.04
		C170.66,218.4,170.66,218.41,170.66,218.41z"/>
	<path class="st0" d="M83.49,218.39c-3.09,0-6.19,0.17-9.26-0.04c-3.52-0.24-5.78-2.19-5.96-5.85c-0.18-3.91,2.03-6.32,5.76-6.5
		c6.32-0.31,12.68-0.28,19-0.03c3.71,0.15,6.06,2.41,5.96,6.33c-0.1,3.9-2.48,5.88-6.24,6.07c-3.08,0.16-6.17,0.03-9.26,0.03
		C83.49,218.41,83.49,218.4,83.49,218.39z"/>
	<path class="st0" d="M452.89,352.02c-1.77-1.47-4.49-2.65-5.01-4.46c-0.59-2.06-0.02-5.76,1.46-6.86
		c5.43-4.05,11.29-7.63,17.35-10.66c1.7-0.85,5.48,0.08,6.8,1.55c1.31,1.45,1.84,5.58,0.75,6.87
		C468.8,344.91,461.3,348.47,452.89,352.02z"/>
	<path class="st0" d="M446.36,212.28c0.13,5.29-2.93,8.1-6.94,7.76c-5.98-0.51-11.95-1.04-17.91-1.68
		c-3.54-0.38-5.69-2.44-5.79-6.06c-0.1-3.64,2.06-6.33,5.49-6.22c7.1,0.23,14.22,0.99,21.22,2.2
		C444.21,208.59,445.56,211.41,446.36,212.28z"/>
	<path class="st0" d="M289.57,357.26c-3.08,0-6.17,0.1-9.24-0.03c-3.59-0.15-5.79-2.1-5.99-5.73c-0.22-3.9,1.95-6.3,5.72-6.47
		c6.31-0.28,12.65-0.24,18.97-0.04c3.77,0.12,6.1,2.33,6.01,6.23c-0.09,3.85-2.38,5.91-6.22,6.03
		C295.73,357.34,292.65,357.26,289.57,357.26z"/>
	<path class="st0" d="M376.45,357.26c-3.08,0-6.17,0.1-9.24-0.03c-3.59-0.15-5.8-2.09-6-5.72c-0.22-3.89,1.92-6.31,5.71-6.48
		c6.31-0.28,12.65-0.24,18.97-0.05c3.76,0.12,6.1,2.31,6.02,6.22c-0.08,3.86-2.37,5.91-6.2,6.04
		C382.61,357.34,379.53,357.26,376.45,357.26z"/>
	<path class="st0" d="M0,138.08c1.68-6.09,3.21-12.22,5.08-18.24c1.17-3.75,3.94-5.59,7.94-4.41c3.62,1.07,4.85,4.44,3.71,8.78
		c-1.36,5.17-2.64,10.36-3.8,15.58c-0.88,3.97-3.15,6.08-7.22,5.5C1.79,144.73,0.5,141.89,0,138.08z"/>
	<path class="st0" d="M499.55,299.14c-3.51,7.78-6.31,14.85-9.98,21.42c-0.8,1.44-4.99,2.01-7.18,1.4c-3.11-0.87-4.22-4-3.04-7.19
		c2.25-6.07,4.36-12.25,7.34-17.96c0.93-1.78,4.59-3.27,6.73-2.96C495.45,294.14,497.14,296.93,499.55,299.14z"/>
	<path class="st0" d="M456.86,224.17c0.42-5.89,5.41-8.73,9.41-5.87c5.51,3.94,10.61,8.52,15.51,13.22
		c2.54,2.44,2.26,5.74-0.33,8.28c-2.77,2.73-5.79,2.51-8.7,0.03c-4.43-3.8-8.97-7.49-13.24-11.46
		C458.11,227.06,457.38,225.02,456.86,224.17z"/>
	<path class="st0" d="M23.73,107.07c-1.33-1.02-3.77-2-4.53-3.73c-0.77-1.75-0.73-5.15,0.43-6.23c5.32-4.94,10.95-9.63,16.98-13.65
		c1.4-0.94,5.59,0.37,7.01,1.96c1.22,1.37,1.35,5.73,0.15,6.87c-5.25,5.01-11.14,9.35-16.86,13.87
		C26.33,106.62,25.38,106.62,23.73,107.07z"/>
	<path class="st0" d="M56.22,206.37c-0.03,5.19-3.89,8.62-7.64,6.98c-6.49-2.84-12.73-6.38-18.76-10.13
		c-2.73-1.7-3.12-4.92-1.22-7.81c1.97-3,4.83-3.88,8.05-2.22c5.61,2.9,11.22,5.84,16.61,9.14
		C54.82,203.29,55.62,205.51,56.22,206.37z"/>
	<path class="st0" d="M23.12,182.04c-0.95,1.04-2.24,3.65-4.06,4.09c-2.08,0.51-5.95-0.16-6.76-1.6c-3.54-6.31-6.61-12.95-9-19.77
		c-0.56-1.61,1.73-5.55,3.57-6.3c1.86-0.76,6.08,0.37,7.01,1.98c3.47,5.99,6.01,12.51,8.87,18.84
		C22.95,179.71,22.9,180.24,23.12,182.04z"/>
	<path class="st0" d="M62.46,85.89c-3.45,0.23-6.01-1.3-6.55-4.89c-0.53-3.56,1.21-6.43,4.69-6.86c6.74-0.84,13.57-1.22,20.36-1.36
		c3.65-0.08,5.7,2.53,5.68,6.03c-0.01,3.49-2.03,5.81-5.72,6.05C74.77,85.27,68.61,85.55,62.46,85.89z"/>
	<path class="st0" d="M114.27,84.88c-3.09,0-6.18,0.11-9.25-0.03c-3.69-0.17-5.75-2.45-5.83-5.93c-0.08-3.49,1.89-6.03,5.56-6.16
		c6.49-0.23,12.99-0.26,19.47-0.04c3.8,0.13,5.98,2.53,5.79,6.41c-0.18,3.62-2.39,5.6-6,5.74c-3.24,0.13-6.49,0.03-9.74,0.03
		C114.27,84.89,114.27,84.89,114.27,84.88z"/>
	<path class="st0" d="M201.21,84.89c-3.09,0-6.18,0.09-9.26-0.03c-3.69-0.15-5.78-2.39-5.9-5.87c-0.12-3.48,1.82-6.09,5.49-6.22
		c6.65-0.23,13.31-0.26,19.96,0.03c3.58,0.16,5.55,2.65,5.39,6.26c-0.16,3.62-2.33,5.64-5.93,5.8
		C207.71,85.01,204.46,84.9,201.21,84.89z"/>
	<path class="st0" d="M157.73,84.89c-3.09,0-6.18,0.14-9.25-0.04c-3.61-0.21-5.71-2.29-5.8-5.92c-0.09-3.64,1.94-6.02,5.52-6.15
		c6.64-0.25,13.31-0.25,19.95,0.03c3.67,0.15,5.52,2.84,5.35,6.32c-0.15,3.24-2.1,5.51-5.55,5.7c-3.4,0.19-6.82,0.04-10.23,0.04
		C157.73,84.87,157.73,84.88,157.73,84.89z"/>
	<path class="st0" d="M206.94,357.18c-1.79,0-3.6,0.21-5.35-0.04c-3.35-0.48-5.18-2.6-5.22-5.98c-0.04-3.43,1.86-5.68,5.16-6.01
		c3.69-0.37,7.48-0.4,11.17-0.01c3.54,0.37,5.46,2.8,5.21,6.44c-0.23,3.37-2.23,5.32-5.61,5.63c-1.77,0.16-3.57,0.03-5.36,0.03
		C206.94,357.2,206.94,357.19,206.94,357.18z"/>
	<path class="st0" d="M240.33,84.91c-1.46,0-2.92,0.04-4.38-0.01c-3.8-0.12-6.22-1.96-6.38-5.86c-0.17-3.9,2.08-6.08,5.87-6.35
		c3.23-0.23,6.5-0.22,9.73,0c3.79,0.26,6.06,2.43,5.91,6.32c-0.14,3.89-2.55,5.77-6.36,5.89C243.25,84.95,241.79,84.91,240.33,84.91
		z"/>
	<path class="st0" d="M82.05,318.03c18.33-0.05,33.26,14.79,33.27,33.06c0.01,18.2-15.08,33.27-33.25,33.19
		c-17.97-0.07-32.92-14.97-33.03-32.93C48.93,333.09,63.79,318.08,82.05,318.03z M81.98,330.59c-11.35,0.08-20.34,9.12-20.35,20.48
		c-0.02,11.49,9.3,20.77,20.75,20.67c11.24-0.1,20.35-9.3,20.36-20.57C102.75,339.6,93.58,330.51,81.98,330.59z"/>
</g>
</svg>
