<?xml version="1.0" encoding="utf-8"?>
<!-- Generator: Adobe Illustrator 27.9.0, SVG Export Plug-In . SVG Version: 6.00 Build 0)  -->
<svg version="1.1" id="Layer_1" xmlns="http://www.w3.org/2000/svg" xmlns:xlink="http://www.w3.org/1999/xlink" x="0px" y="0px"
	 viewBox="0 0 500 500" style="enable-background:new 0 0 500 500;" xml:space="preserve">
<style type="text/css">
	.st0{fill:#EC1F28;}
</style>
<g>
	<path class="st0" d="M483.4,500c-155.61,0-311.22,0-466.82,0c0-55.41,0-110.83,0-166.87c5.87,0,11.12,0,16.07,0
		c0.35-0.77,0.47-0.91,0.47-1.06c0.05-50.26,0.11-100.53,0.03-150.79c0-1.43-1.2-3.32-2.42-4.23c-9.6-7.16-14.09-16.74-14.11-28.57
		c-0.02-12.2-0.18-24.41,0.1-36.6c0.08-3.42,0.84-7.12,2.35-10.17c15.84-32.04,31.9-63.97,47.86-95.94c0.93-1.86,1.6-3.85,2.38-5.78
		c120.45,0,240.9,0,361.35,0c0.65,1.64,1.17,3.34,1.96,4.9c16.25,32.56,32.56,65.09,48.77,97.67c0.98,1.97,1.86,4.24,1.89,6.39
		c0.16,13.83,0.26,27.66,0,41.48c-0.2,10.69-4.68,19.57-13.33,25.92c-2.63,1.93-3.27,3.9-3.27,6.87
		c0.07,48.31,0.05,96.63,0.06,144.94c0,1.57,0.14,3.15,0.24,5.31c5.64,0,10.9,0,16.42,0C483.4,389.4,483.4,444.7,483.4,500z
		 M466.6,350.37c-144.65,0-288.86,0-433.07,0c0,44.46,0,88.5,0,132.6c144.5,0,288.72,0,433.07,0
		C466.6,438.68,466.6,394.76,466.6,350.37z M225.17,172.11c-15.2,14.92-35.51,14.78-50.27-0.08c-6.8,7.06-15.03,11.19-25.01,11.21
		c-9.96,0.02-18.07-4.33-24.96-11.3c-7.13,7.35-15.27,11.29-25.08,11.29c-9.96,0.01-18.1-4.3-24.52-10.87
		c-4.22,2.86-7.72,5.94-11.78,7.79c-4.18,1.9-8.91,2.6-13.36,3.82c0,49.63,0,99.2,0,148.95c8.13,0,15.97,0,24.72,0
		c-7.21-9.99-8.77-20.75-8.33-31.98c0.43-10.88,7.11-17.45,17.99-17.66c2.14-0.04,4.29-0.01,7.39-0.01
		c-7.74-10.38-9.12-21.23-8.69-32.47c0.34-8.94,5.29-15.88,13.28-16.95c11.96-1.59,23.74-0.69,34.22,6.4
		c1.29,0.88,2.63,1.69,2.72,1.74c4.69-3.03,8.26-7,12.4-7.72c16.34-2.83,31.42,0.07,43.26,12.96c8.43,9.18,11.13,20.31,10.92,32.41
		c-0.04,2.41-0.36,4.47,3.01,5.59c19.62,6.47,30.1,21.12,30.27,41.72c0.02,2.03,0,4.06,0,6c11.48,0,22.15,0,33.34,0
		c0-22.17,0-44.04,0-66.45c8.54,0,16.58,0,25.1,0c0-8.8-0.21-17.08,0.05-25.34c0.33-10.6,5.69-17.92,15.21-22.55
		c1.87-0.91,3.62-3.01,4.43-4.97c2.14-5.19,3.74-10.61,5.66-16.25c5.47,1.84,10.46,3.51,15.65,5.26
		c-1.86,5.84-3.56,11.17-5.23,16.42c2.3,1.51,4.05,2.66,5.85,3.84c1.75-1.12,3.26-2.68,5.04-3.12c4.89-1.21,6.35-4.78,7.52-9.04
		c1.22-4.47,2.97-8.79,4.56-13.39c5.54,1.9,10.52,3.6,15.65,5.35c-1.62,4.86-3.25,9.12-4.37,13.5c-0.32,1.26,0.41,3.39,1.41,4.26
		c3.34,2.89,13.02-0.94,14.69-5.69c1.98-5.64,3.82-11.33,5.86-17.39c5.39,1.79,10.41,3.46,15.73,5.23
		c-1.56,4.75-3.2,9.16-4.34,13.69c-0.31,1.23,0.45,3.43,1.46,4.17c7.94,5.82,11.94,13.43,11.69,23.35
		c-0.18,7.43-0.04,14.87-0.04,22.84c8.56,0,16.6,0,25.2,0c0,22.4,0,44.27,0,66.16c5.82,0,11.06,0,16.35,0c0-49.98,0-99.54,0-149.44
		c-9.75-0.66-18.06-4.21-24.69-11.51c-7.09,7.11-15.13,11.29-24.95,11.34c-9.97,0.06-18.18-4.08-24.96-11.11
		c-13.62,13.18-33.08,16.41-50.33,0.19c-14.56,14.31-34.71,14.98-49.93-0.09C258.64,188.29,237.87,185.5,225.17,172.11z
		 M416.5,283.69c-44.7,0-88.86,0-132.95,0c0,16.63,0,32.85,0,49.21c44.43,0,88.57,0,132.95,0
		C416.5,316.34,416.5,300.14,416.5,283.69z M183.66,16.89c0,33.28,0,66.22,0,99.4c11.05,0,21.82,0,32.79,0c0-33.28,0-66.21,0-99.4
		C205.53,16.89,194.86,16.89,183.66,16.89z M233.53,116.22c11.24,0,22.02,0,32.77,0c0-33.36,0-66.3,0-99.22
		c-11.12,0-21.91,0-32.77,0C233.53,50.2,233.53,83.02,233.53,116.22z M283.54,16.89c0,33.3,0,66.23,0,99.4c11.05,0,21.83,0,32.78,0
		c0-33.28,0-66.22,0-99.4C305.39,16.89,294.71,16.89,283.54,16.89z M97.25,16.63c-4.76,0-8.66,0.21-12.53-0.06
		c-3.36-0.24-5.13,0.89-6.67,4.02C63.83,49.41,49.36,78.1,35.12,106.9c-1.34,2.7-1.61,5.93-2.59,9.73c11.3,0,21.34-0.2,31.36,0.1
		c3.85,0.12,5.32-1.28,6.3-4.81c5.45-19.7,11.13-39.34,16.73-58.99C90.28,41.1,93.65,29.27,97.25,16.63z M467.08,116.62
		c-0.47-3.14-0.25-5.75-1.25-7.76c-14.83-29.96-29.8-59.85-44.83-89.71c-0.54-1.08-1.98-2.33-3.07-2.39
		c-4.82-0.26-9.67-0.11-15.2-0.11c2.88,10.07,5.59,19.55,8.29,29.03c6.31,22.16,12.59,44.32,18.94,66.46
		c0.58,2.01,0.5,4.58,3.93,4.54C444.61,116.53,455.32,116.62,467.08,116.62z M148.86,16.82c-4.76,33.39-9.46,66.28-14.2,99.5
		c10.87,0,21.18,0,31.64,0c0-33.36,0-66.4,0-99.5C160.37,16.82,154.87,16.82,148.86,16.82z M365.33,116.3
		c-4.78-33.42-9.5-66.45-14.2-99.33c-6.24,0-11.84,0-17.54,0c0,33.28,0,66.21,0,99.33C344.24,116.3,354.56,116.3,365.33,116.3z
		 M86.07,116.64c9.73,0,18.63-0.13,27.54,0.07c3.3,0.07,4.34-1.03,4.79-4.32c3.32-24.14,6.9-48.25,10.36-72.38
		c1.1-7.64,2.09-15.29,3.17-23.18c-6.08,0-11.57,0-17.36,0C105.11,49.92,95.69,82.93,86.07,116.64z M413.95,116.61
		c-9.68-33.84-19.12-66.86-28.52-99.72c-6.06,0-11.54,0-17.42,0c0.71,4.94,1.38,9.58,2.04,14.22c3.91,27.35,7.78,54.7,11.82,82.03
		c0.19,1.27,1.85,3.29,2.87,3.32C394.14,116.72,403.56,116.61,413.95,116.61z M266.41,133.73c-11.11,0-21.89,0-32.92,0
		c0,6.35-0.39,12.38,0.1,18.33c0.68,8.24,8.05,14.51,16.3,14.59c8.01,0.07,15.53-5.86,16.39-13.9
		C266.95,146.52,266.41,140.16,266.41,133.73z M33.51,133.68c0,6.44-0.52,12.63,0.13,18.7c0.87,8.11,7.53,13.74,15.58,14.23
		c7.41,0.45,15.06-4.38,16.42-11.82c1.26-6.88,0.85-14.06,1.18-21.1C55.11,133.68,44.44,133.68,33.51,133.68z M433.47,133.67
		c0,5.87-0.18,11.37,0.04,16.86c0.36,8.97,7.02,15.61,15.82,16.09c8.32,0.45,16.07-5.63,17.02-14.26
		c0.67-6.06,0.13-12.25,0.13-18.69C455.53,133.67,444.86,133.67,433.47,133.67z M316.34,133.67c-11.2,0-21.88,0-33.07,0
		c0,4.97-0.03,9.64,0.02,14.32c0.02,1.62,0.04,3.27,0.35,4.85c1.56,8.16,8.53,13.94,16.55,13.81c7.87-0.12,15.28-6.02,16.04-13.7
		C316.83,146.7,316.34,140.35,316.34,133.67z M183.69,133.66c0,6.75-0.55,13.26,0.14,19.64c0.79,7.34,7.72,12.81,15.36,13.29
		c7.18,0.45,14.94-4.2,16.34-11.31c1.38-7.01,1.09-14.34,1.53-21.63C205.27,133.66,194.6,133.66,183.69,133.66z M383.66,133.7
		c0,6.49-0.41,12.65,0.1,18.74c0.65,7.86,7.47,13.72,15.53,14.17c7.8,0.44,15.61-4.99,16.64-12.79c0.85-6.49,0.17-13.18,0.17-20.12
		C405.53,133.7,394.88,133.7,383.66,133.7z M133.58,133.39c0,6.74-0.35,12.61,0.08,18.41c0.62,8.37,7.6,14.58,15.95,14.83
		c8.04,0.24,15.41-5.48,16.51-13.62c0.75-5.59,0.54-11.34,0.46-17.01c-0.01-0.88-1.64-2.48-2.54-2.5
		C154.02,133.32,143.99,133.39,133.58,133.39z M83.85,133.62c0,7.12-0.62,13.65,0.16,20.01c0.92,7.48,7.86,12.71,15.52,13
		c7.35,0.28,15.2-4.87,16.24-12.1c0.97-6.76,0.21-13.77,0.21-20.9C105.23,133.62,94.58,133.62,83.85,133.62z M333.84,133.64
		c0,7-0.62,13.53,0.16,19.89c0.95,7.67,8.18,13.07,15.93,13.12c7.41,0.05,15.04-5.29,15.98-12.5c0.86-6.64,0.18-13.48,0.18-20.51
		C355.33,133.64,344.68,133.64,333.84,133.64z M100.45,250.29c-3.22,21.82,11.53,36.41,32.4,32.4
		C136.09,262.81,123.43,247.32,100.45,250.29z M216.37,332.79c2.19-22.29-11.62-35.91-32.42-32.34
		C180.17,321.64,194.29,335.87,216.37,332.79z M183.07,282.78c2.03-22.48-11.4-35.67-32.5-32.27
		C147,271.89,161.06,285.99,183.07,282.78z M116.06,332.91c3.54-21.42-11.75-36.59-32.3-32.36
		C80.52,319.41,92.39,336.16,116.06,332.91z M133.97,300.46c-4.28,20.8,12.73,37.6,32.37,31.97
		C168.9,310.83,154.66,296.77,133.97,300.46z M325.08,266.39c0-5.7,0.08-11.16-0.03-16.62c-0.07-3.54,0-7.17-0.76-10.59
		c-0.88-3.93-4.03-5.86-8.01-5.67c-3.98,0.19-7.25,2.46-7.46,6.38c-0.46,8.8-0.15,17.65-0.15,26.5
		C314.29,266.39,319.41,266.39,325.08,266.39z M358.32,266.42c0-8.52,0.18-16.61-0.07-24.68c-0.15-4.85-3.63-8.13-7.93-8.31
		c-4.13-0.17-8.2,2.9-8.36,7.18c-0.32,8.52-0.09,17.07-0.09,25.8C347.42,266.42,352.55,266.42,358.32,266.42z M375.11,266.36
		c5.83,0,10.96,0,16.42,0c0-8.66,0.21-17.06-0.09-25.44c-0.15-4.36-4.03-7.51-8.13-7.5c-4.1,0.01-7.95,3.14-8.11,7.54
		C374.89,249.35,375.11,257.74,375.11,266.36z"/>
	<path class="st0" d="M335.15,360.7c4.33,4.5,7.92,8.22,11.95,12.4c-5.76,5.5-11.91,11.36-18.05,17.22
		c0.22,0.41,0.44,0.81,0.65,1.22c6.54,0,13.09,0,19.93,0c0,5.68,0,10.82,0,16.55c-5.2,0-10.47,0-16.06,0
		c-0.28,2.59-0.36,4.67-0.74,6.69c-1.94,10.1-6.89,18.49-16.04,23.32c-17.37,9.18-34.3,20.16-52.79,26.03
		c-31.76,10.07-70.6-3.98-79.34-44.43c-1.35-6.27-1.22-12.93-1.17-19.41c0.07-9.94,6.45-16.26,16.48-16.86
		c22.38-1.35,41.33,5.38,55.64,24.32c3.31-4.62,6.69-8.75,9.43-13.27c11.64-19.19,32.2-24.45,51.8-14.74
		C322.82,373.52,328.89,367.2,335.15,360.7z M249.66,449.43c3.45-32.29-21.66-53.28-49.1-48.77
		C196.2,429.92,220.38,454.14,249.66,449.43z M267.34,444.75c14.29-7.41,28.66-14.45,42.59-22.28c6.04-3.4,7.98-11.96,5.76-18.67
		c-2.19-6.63-6.85-10.62-13.61-11.8c-7.71-1.34-14.66,0.41-19.56,6.96c-5.73,7.67-11.25,15.51-16.71,23.38
		c-0.83,1.19-1.28,3.02-1.11,4.46C265.38,432.54,266.36,438.25,267.34,444.75z"/>
	<path class="st0" d="M400.06,300.19c0,4.5,0.02,8.54-0.02,12.58c-0.01,1.1-0.21,2.21-0.36,3.55c-33.16,0-66.12,0-99.43,0
		c0-5.35,0-10.6,0-16.14C333.41,300.19,366.36,300.19,400.06,300.19z"/>
</g>
</svg>
