<svg width="683" height="683" viewBox="0 0 683 683" fill="none" xmlns="http://www.w3.org/2000/svg">
<g clip-path="url(#clip0_67_14)">
<path d="M325.334 0.933439C312.267 2.93344 296.267 11.7334 286.534 22.1334C273.867 35.7334 268.667 49.0668 268.667 68.0001C268.667 92.1334 280.267 113.333 300.134 125.6L306.267 129.333L303.867 136.267C302.534 140.133 301.467 145.2 301.334 147.467C301.334 153.6 304.667 163.467 308.4 168.4L311.6 172.667L308.534 177.333C303.6 184.533 289.467 198.267 282 203.2C273.467 208.933 255.6 217.867 228.267 230.133C169.467 256.667 141.334 280.267 127.6 314.667C117.6 339.867 117.334 380.4 126.8 408.4C130.8 419.867 133.6 425.067 141.2 435.2L147.867 444H142.134C129.6 444 118.8 450.533 112.534 461.6C107.6 470.8 107.067 484.267 111.6 492.667C116.934 502.667 126.667 509.733 137.2 511.467L142.667 512.4V563.467V614.667H139.467C134.8 614.667 125.867 618.133 120.8 622C118.4 623.867 114.667 628.533 112.534 632.267C109.334 638.267 108.667 640.8 108.667 648.667C108.8 662.4 115.2 672.667 128 679.467C132.534 681.867 140.534 682 333.334 682.4C553.867 682.8 540.534 683.2 550.934 674.667C565.734 662.533 566.534 636.8 552.534 623.733C547.734 619.333 537.867 614.8 533.067 614.667H529.334V563.6V512.667L536.4 510.933C561.6 505.067 571.334 474.533 554.134 454.933C548.667 448.8 538.4 444 530.4 444C526.8 444 524 443.6 524 443.2C524 442.8 526.4 439.733 529.2 436.267C540.667 422.667 548.134 402.267 550.8 377.467C555.334 335.333 542.534 298 514.934 273.2C496.8 257.067 476.4 245.067 435.2 226.533C400 210.8 386.8 202.933 374 190.133C368.134 184.133 362.534 177.733 361.467 175.733C359.867 172.533 360 171.867 362.934 167.733C369.467 159.067 371.2 146.8 367.334 136C366.267 132.8 365.467 130.133 365.6 130C365.867 129.867 368.667 128.267 372 126.4C383.734 119.6 395.067 106 400.4 92.2668C403.6 84.2668 403.334 79.2001 399.334 75.3334C395.6 71.4668 392.534 71.2001 381.334 74.1334C374.534 75.8668 372 75.8668 366.667 74.6668C352.667 71.3334 343.2 61.7334 340.134 47.7334C338.134 39.2001 340.267 30.2668 346.134 21.2001C351.734 12.5334 351.867 8.93344 346.8 3.86677C343.334 0.533439 342 0.000105788 335.734 0.133439C331.867 0.266772 327.2 0.666772 325.334 0.933439ZM317.067 34.2668C314.534 49.8668 321.2 69.3334 333.067 81.2001C340.667 88.8001 353.334 95.7334 362 96.9334C365.334 97.3334 368.4 98.1334 368.667 98.6668C369.867 100.667 360.267 107.733 352.667 110.533C336.667 116.533 319.067 113.067 306.267 101.333C284.134 81.0668 286.934 46.2668 311.867 30.4001C315.2 28.4001 318 26.6668 318 26.6668C318.134 26.6668 317.734 30.1334 317.067 34.2668ZM343.734 140.4C347.467 143.867 347.6 150.4 343.867 155.2C341.734 157.867 340 158.667 335.867 158.667C323.6 158.667 319.867 142.8 330.934 138C336 135.867 339.467 136.533 343.734 140.4ZM343.334 188.933C359.067 212.667 378.534 226.267 427.334 248C477.334 270.267 499.067 284.933 513.2 306C525.2 324.133 530.134 342.933 528.8 366.667C526.667 403.733 513.734 427.6 489.734 439.067L480.667 443.333L338.934 443.733C182.8 444.133 189.467 444.4 175.067 435.733C161.6 427.6 151.334 412.533 145.867 392.667C142.667 380.667 141.867 350 144.534 337.333C147.6 322.533 155.6 307.467 166.667 295.6C182.4 278.8 204.267 265.467 250 245.333C292.934 226.4 316.934 208.533 330.134 185.6C333.867 179.067 337.334 179.867 343.334 188.933ZM536.667 470C540 473.2 540.934 478.667 539.2 483.333C536.8 489.6 543.734 489.333 334.667 489.333H138.4L134.534 485.467C129.734 480.667 129.6 476.133 134.134 470.8L137.6 466.667H335.467H533.467L536.667 470ZM506.667 563.333V614.667H495.467H484.267L483.734 590.267C483.334 567.467 483.067 565.6 479.867 558.533C472.667 543.067 460.667 535.467 444 535.333C427.734 535.333 415.734 542.667 407.734 557.733C404.934 562.933 404.667 565.333 404.267 588.933L403.734 614.667H392.667H381.6L381.067 589.6C380.534 561.067 379.334 556.667 369.334 546.667C360 537.333 354 535.333 335.334 535.333C320.667 535.333 318.8 535.6 312.534 538.933C308.934 540.8 303.6 544.933 300.8 548C292.134 557.6 291.467 560.4 290.667 588.667L290 614L279.2 614.4L268.267 614.8L267.734 590.4C267.067 561.2 265.467 556 254 545.467C234.534 527.733 204.667 533.067 192.267 556.533C188.8 563.067 188.667 564.133 188.267 588.933L187.734 614.667H176.534H165.334V563.333V512H336H506.667V563.333ZM234.667 559.333C236.667 560.4 239.734 562.933 241.2 564.8C243.734 568.133 244 570 244 591.467V614.667H227.334H210.667V592.267C210.667 572.267 210.934 569.6 213.334 565.6C217.867 558.267 227.2 555.467 234.667 559.333ZM349.2 559.733C357.467 564.133 358.667 568.4 358.667 592.933V614.667H336H313.334V591.467C313.334 569.733 313.467 568.133 316.267 564.667C317.867 562.667 320.934 560.267 323.2 559.2C329.467 556.533 343.734 556.8 349.2 559.733ZM451.6 560C460 565.067 460.667 567.467 460.667 592V614L443.734 614.4L426.667 614.8V593.067C426.667 568.267 428 563.733 436 559.733C442 556.667 446.267 556.667 451.6 560ZM536.667 640.667C540 643.867 540.934 649.333 539.2 654C536.8 660.267 543.734 660 334.667 660H138.4L134.534 656.133C129.734 651.333 129.6 646.8 134.134 641.467L137.6 637.333H335.467H533.467L536.667 640.667Z" fill="#EC1F28"/>
<path d="M203.067 401.6C201.6 403.333 199.867 406 199.467 407.6C198.267 411.467 201.6 417.733 206 419.733C210.533 421.867 222.4 421.733 226.667 419.6C233.867 416 235.067 407.067 229.333 401.333C227.067 399.067 224.8 398.667 216.267 398.667C207.067 398.667 205.467 399.067 203.067 401.6Z" fill="#EC1F28"/>
<path d="M259.334 402C255.067 406.133 255.067 412 259.2 416.933L262.4 420.667H364H465.6L468.8 416.933C472.934 412 472.934 406.133 468.667 402L465.467 398.667H364H262.534L259.334 402Z" fill="#EC1F28"/>
<path d="M535.333 24.2666C530.533 27.0666 529.467 29.8666 529.333 39.5999C529.333 47.7332 529.733 49.7332 532.533 52.7999C536.533 57.5999 544 57.9999 548.4 53.5999C550.667 51.1999 551.333 48.7999 551.733 40.6666C552.267 31.0666 552.133 30.6666 548.267 26.6666C544 22.5332 539.867 21.7332 535.333 24.2666Z" fill="#EC1F28"/>
<path d="M498.667 60C495.067 63.6 494.133 68.5333 496.267 72.8C498.667 77.8667 503.2 80 512 80C520.8 80 525.333 77.8667 527.733 72.8C530 68.4 528.933 63.6 525.067 60C520.8 56.1333 502.533 56.1333 498.667 60Z" fill="#EC1F28"/>
<path d="M555.334 60.6667C551.067 64.8001 551.067 70.6667 555.067 75.4667C557.6 78.4001 559.6 79.2001 565.734 79.7334C579.2 80.8001 585.334 77.2001 585.334 68.2667C585.334 59.8667 581.467 57.3334 568.8 57.3334C559.734 57.3334 558.134 57.7334 555.334 60.6667Z" fill="#EC1F28"/>
<path d="M532.667 83.3335C529.733 86.1335 529.333 87.7335 529.333 96.6668C529.333 105.6 529.733 107.2 532.667 110C538 115.467 546.667 114.4 550 107.867C552.4 103.333 552.667 90.2668 550.4 86.2668C546.667 79.2002 538.133 77.7335 532.667 83.3335Z" fill="#EC1F28"/>
<path d="M55.0668 128.533C51.6002 131.6 51.3335 132.4 51.3335 141.733C51.3335 150.533 51.7335 152.267 54.5335 155.2C58.8002 159.733 66.2668 160 70.4002 155.6C72.9335 152.933 73.3335 150.933 73.3335 142.133C73.3335 133.067 72.9335 131.467 70.0002 128.667C65.8668 124.4 60.0002 124.4 55.0668 128.533Z" fill="#EC1F28"/>
<path d="M25.7335 159.467C21.6002 160.4 17.3335 166.267 17.3335 170.8C17.3335 172.8 18.8002 176.267 20.5335 178.267C23.6002 181.733 24.4002 182 33.7335 182C42.5335 182 44.2668 181.6 47.2002 178.8C51.8668 174.4 52.0002 167.067 47.4668 162.8C45.0668 160.533 42.2668 159.6 36.4002 159.333C32.1335 159.067 27.3335 159.2 25.7335 159.467Z" fill="#EC1F28"/>
<path d="M83.3333 159.6C74.6667 161.867 71.7333 172.667 78.1333 178.8C81.0667 181.6 82.8 182 91.6 182C100.933 182 101.733 181.733 104.8 178.267C108.8 173.6 108.933 167.867 104.933 163.333C102.533 160.4 100.667 159.733 94 159.333C89.6 159.067 84.8 159.2 83.3333 159.6Z" fill="#EC1F28"/>
<path d="M54.5335 186.133C51.7335 189.067 51.3335 190.8 51.3335 199.6C51.3335 208.933 51.6002 209.733 55.0668 212.8C60.0002 216.933 65.8668 216.933 70.0002 212.667C72.9335 209.867 73.3335 208.267 73.3335 198.933C73.3335 189.733 72.9335 188.133 70.2668 185.6C65.8668 181.467 58.6668 181.733 54.5335 186.133Z" fill="#EC1F28"/>
<path d="M612.8 253.467C609.6 256 609.333 256.933 609.333 267.2C609.333 276.933 609.733 278.533 612.4 281.067C616.8 285.2 624 284.933 628.133 280.533C630.933 277.6 631.333 275.867 631.333 267.333C631.333 258.8 630.933 257.067 628.133 254.133C624.133 249.867 617.733 249.6 612.8 253.467Z" fill="#EC1F28"/>
<path d="M581.867 285.333C574.534 288.267 572.534 298 578 303.333C580.8 306.267 582.4 306.667 591.734 306.667C600.934 306.667 602.534 306.267 605.067 303.6C608 300.533 608.934 294.533 607.2 290C605.2 284.933 589.867 282.133 581.867 285.333Z" fill="#EC1F28"/>
<path d="M638.8 285.333C634.133 287.333 632.133 290.667 632 296.133C632 304 636 306.667 648.533 306.667C657.6 306.667 659.2 306.267 662 303.333C666.267 299.2 666.267 293.333 662.133 288.533C659.467 285.333 657.867 284.8 650.533 284.4C645.867 284.267 640.533 284.667 638.8 285.333Z" fill="#EC1F28"/>
<path d="M617.333 307.6C616.267 308 614 309.6 612.4 311.067C609.733 313.467 609.333 315.067 609.333 324.267C609.333 333.6 609.733 335.2 612.667 338C616.8 342.267 622.667 342.267 627.333 338.267C630 336 630.933 333.733 631.6 327.867C632.667 317.467 630.267 310.933 624.533 308.533C622.133 307.467 619.867 306.667 619.733 306.8C619.467 306.8 618.4 307.2 617.333 307.6Z" fill="#EC1F28"/>
</g>
<defs>
<clipPath id="clip0_67_14">
<rect width="682.667" height="682.667" fill="white"/>
</clipPath>
</defs>
</svg>
