<?xml version="1.0" encoding="utf-8"?>
<!-- Generator: Adobe Illustrator 27.9.0, SVG Export Plug-In . SVG Version: 6.00 Build 0)  -->
<svg version="1.1" id="Layer_1" xmlns="http://www.w3.org/2000/svg" xmlns:xlink="http://www.w3.org/1999/xlink" x="0px" y="0px"
	 viewBox="0 0 500 500" style="enable-background:new 0 0 500 500;" xml:space="preserve">
<style type="text/css">
	.st0{fill:#EC1F28;}
</style>
<g>
	<path class="st0" d="M500,397.2c-0.62,1.27-1.26,2.54-1.86,3.83c-3.51,7.5-9.28,11.99-17.56,12.98c-2.41,0.29-4.87,0.34-7.3,0.34
		c-148.85,0.01-297.7,0-446.56,0.05c-7.53,0-14.86-0.63-20.15-6.61C3.86,404.7,2.16,400.75,0,397.2c0-3.26,0-6.51,0-9.77
		c2.64-3.99,4.8-8.43,8.04-11.86c4.1-4.34,9.86-5.37,15.76-5.19c2.41,0.07,4.82,0.01,7.93,0.01c0-2.58,0-4.63,0-6.69
		c0-55.01,0-110.01,0.01-165.02c0-2.11-0.03-4.24,0.22-6.33c0.67-5.6,4.69-9.47,10.28-9.97c1.62-0.14,3.28-0.25,4.87-0.04
		c17.36,2.23,32.24-3.28,47.32-11.9c49.38-28.23,99.44-55.26,149.16-82.88c4.48-2.49,8.28-2.68,12.73-0.06
		c8.69,5.1,17.61,9.79,26.41,14.71c5.34,2.98,6.93,6.99,4.51,11.07c-2.36,3.98-6.23,4.62-11.46,1.76
		c-7.56-4.13-15.02-8.45-22.67-12.39c-1.56-0.8-4.22-1.03-5.67-0.23c-47.44,26.05-94.78,52.26-142.14,78.45
		c-0.28,0.15-0.51,0.4-1.8,1.46c6.52,0,12.06-0.36,17.55,0.09c8.1,0.66,15.01-1.63,22.08-5.61c33.12-18.68,66.55-36.83,99.74-55.39
		c4.97-2.78,8.97-2.95,14.01-0.13c35.33,19.74,70.77,39.26,106.27,58.7c2.56,1.4,5.75,2.14,8.69,2.25
		c7.86,0.31,15.75,0.1,23.83-0.82c-1.77-1.01-3.53-2.03-5.32-3.02c-26.88-14.86-53.77-29.72-80.65-44.58
		c-0.85-0.47-1.75-0.88-2.54-1.44c-3.51-2.49-4.49-6.4-2.51-9.81c2.01-3.47,5.84-4.75,9.69-2.77c6.64,3.43,13.14,7.12,19.69,10.74
		c29.88,16.5,59.72,33.06,89.66,49.44c2.56,1.4,5.75,2.14,8.69,2.26c7.47,0.31,14.97,0.08,22.45,0.11
		c9.25,0.04,13.35,4.07,13.4,13.44c0.08,15.3,0.03,30.59,0.03,45.89c0,40.68,0,81.37,0,122.05c0,1.93,0,3.86,0,6.82
		c14.67-1.72,26.46,1.91,31.73,16.89C500,390.69,500,393.94,500,397.2z M122.57,369.67c0-12.32-0.15-24.19,0.04-36.06
		c0.2-12.26,7.79-19.81,19.98-19.82c71.6-0.06,143.21-0.06,214.81,0c12.18,0.01,19.75,7.57,19.99,19.82
		c0.2,10.25,0.04,20.51,0.07,30.76c0,1.72,0.17,3.43,0.27,5.19c25.46,0,50.45,0,75.47,0c0-57.62,0-114.94,0-172.29
		c-135.74,0-271.06,0-406.38,0c0,57.63,0,114.95,0,172.4C72.1,369.67,96.95,369.67,122.57,369.67z M137.24,369.46
		c75.52,0,150.38,0,225.55,0c0-11.11,0.01-21.84,0-32.57c-0.01-8-0.5-8.49-8.64-8.49c-69.45,0-138.9,0-208.35,0
		c-1.14,0-2.28,0.02-3.42,0.02c-3.42,0-5.12,1.78-5.12,5.13C137.22,345.41,137.24,357.27,137.24,369.46z M249.97,385.05
		c-74.68,0-149.37,0-224.05,0c-7.74,0-11.08,2.11-11.23,7.05c-0.15,5.08,3.54,7.6,11.28,7.6c149.37,0.01,298.74,0.01,448.1-0.01
		c1.94,0,3.95-0.01,5.81-0.48c3.6-0.9,5.51-3.51,5.36-7.16c-0.14-3.64-2.19-6.11-5.88-6.74c-1.91-0.33-3.89-0.25-5.84-0.25
		C399.01,385.05,324.49,385.05,249.97,385.05z M335.57,182.16c-0.92-0.86-1.21-1.25-1.6-1.47c-27.14-15.01-54.27-30.05-81.5-44.9
		c-1.41-0.77-4.07-0.44-5.6,0.39c-26.37,14.4-52.65,28.95-78.94,43.49c-1.04,0.57-2,1.3-3.81,2.48
		C221.74,182.16,278.27,182.16,335.57,182.16z"/>
	<path class="st0" d="M144.53,254.42c0,7.98,0.07,15.95-0.02,23.93c-0.09,7.92-4.52,12.32-12.51,12.37
		c-13.51,0.07-27.02,0.08-40.52,0c-7.88-0.05-12.33-4.56-12.36-12.51c-0.06-16.11-0.07-32.23,0-48.34
		c0.04-7.87,4.56-12.31,12.51-12.35c13.51-0.07,27.02-0.07,40.52,0c7.88,0.05,12.29,4.54,12.36,12.5
		C144.59,238.15,144.53,246.28,144.53,254.42z M93.97,275.74c12.13,0,23.89,0,35.53,0c0-14.71,0-29.07,0-43.36
		c-12.03,0-23.67,0-35.53,0C93.97,246.89,93.97,261.13,93.97,275.74z"/>
	<path class="st0" d="M420.9,254.22c0,7.81,0.03,15.63-0.01,23.44c-0.05,8.61-4.34,13.03-12.8,13.06c-13.34,0.06-26.69,0.06-40.03,0
		c-8.15-0.04-12.54-4.53-12.57-12.8c-0.05-15.95-0.06-31.9,0-47.85c0.03-8.14,4.52-12.53,12.79-12.56c13.34-0.05,26.69-0.06,40.03,0
		c8.17,0.04,12.51,4.49,12.57,12.79C420.94,238.27,420.9,246.24,420.9,254.22z M405.9,275.87c0-14.76,0-29.12,0-43.34
		c-12.11,0-23.87,0-35.52,0c0,14.64,0,28.89,0,43.34C382.28,275.87,393.92,275.87,405.9,275.87z"/>
	<path class="st0" d="M236.57,254.59c0,7.81,0.07,15.62-0.02,23.43c-0.09,8.47-4.23,12.65-12.59,12.69
		c-13.34,0.06-26.69,0.06-40.03,0c-8.22-0.04-12.68-4.4-12.74-12.69c-0.12-15.95-0.11-31.9,0-47.84c0.06-8.3,4.51-12.65,12.74-12.68
		c13.34-0.06,26.69-0.06,40.03,0c8.34,0.04,12.51,4.24,12.6,12.68C236.63,238.32,236.57,246.46,236.57,254.59z M221.72,232.45
		c-12.22,0-23.85,0-35.52,0c0,14.68,0,29.03,0,43.34c12.05,0,23.7,0,35.52,0C221.72,261.22,221.72,246.97,221.72,232.45z"/>
	<path class="st0" d="M263.44,254.07c0-8.14-0.09-16.27,0.03-24.41c0.11-7.79,4.4-12.1,12.14-12.15c13.67-0.09,27.34-0.09,41,0
		c7.42,0.05,12.07,4.33,12.17,11.74c0.21,16.6,0.21,33.2-0.01,49.8c-0.1,7.38-4.79,11.62-12.23,11.67c-13.67,0.09-27.34,0.09-41,0
		c-7.68-0.05-11.96-4.42-12.07-12.23C263.35,270.34,263.44,262.2,263.44,254.07z M278.28,275.79c12.19,0,23.82,0,35.54,0
		c0-14.67,0-29.03,0-43.36c-12.04,0-23.69,0-35.54,0C278.28,246.97,278.28,261.22,278.28,275.79z"/>
</g>
</svg>
