<?xml version="1.0" encoding="utf-8"?>
<!-- Generator: Adobe Illustrator 27.9.0, SVG Export Plug-In . SVG Version: 6.00 Build 0)  -->
<svg version="1.1" id="Layer_1" xmlns="http://www.w3.org/2000/svg" xmlns:xlink="http://www.w3.org/1999/xlink" x="0px" y="0px"
	 viewBox="0 0 500 500" style="enable-background:new 0 0 500 500;" xml:space="preserve">
<style type="text/css">
	.st0{fill:#EC1F28;}
</style>
<g>
	<path class="st0" d="M0,454.15c4.19-5.77,10.51-8.06,16.95-9.57c7.53-1.77,12.05-6.03,15.9-12.74
		c34.01-59.39,68.38-118.57,102.64-177.81c0.57-0.99,1.09-2,1.71-2.95c3.89-5.95,10.44-5.94,14.11,0.22
		c5.67,9.49,11.12,19.11,16.67,28.67c0.79,1.36,1.66,2.69,2.87,4.65c1.25-2.12,2.23-3.73,3.18-5.37
		c31.13-53.73,62.25-107.46,93.38-161.2c0.57-0.98,1.13-1.98,1.71-2.96c4.79-8.11,11.26-8.17,15.95-0.09
		c14.93,25.73,29.82,51.48,44.72,77.23c16.37,28.28,32.72,56.56,49.09,84.84c0.79,1.36,1.65,2.67,2.73,4.43
		c2.85-3.61,5.4-6.95,8.06-10.19c3.6-4.4,8.7-4.77,12.12-0.49c15.97,19.94,29.4,41.35,36.57,66.13c3.68,12.72,4.87,25.54-0.75,38.2
		c-0.52,1.16-0.11,3.17,0.58,4.37c11.32,19.74,22.73,39.44,34.25,59.06c0.89,1.51,2.66,2.79,4.31,3.53
		c5.49,2.44,11.13,4.52,16.68,6.84c5.55,2.32,7.7,6.14,6.01,10.42c-1.85,4.68-6.13,6.09-11.86,3.58
		c-31.99-14.04-65.29-23.81-99.5-30.58c-60.82-12.04-122.2-15.57-184.04-11.77c-46.56,2.87-92.51,9.57-137.24,22.99
		c-18.32,5.5-36.11,12.76-54.07,19.39c-6.39,2.36-8.24,2.14-12.72-2.96C0,458.05,0,456.1,0,454.15z M388.37,415.98
		c0-3.25-0.37-7.14,0.09-10.93c0.63-5.15-1.36-7.11-6.31-8.65c-25.54-7.94-35.53-24.82-30.63-51.15
		c3.07-16.53,10.58-31.32,18.76-45.77c1.47-2.6,1.52-4.43-0.01-7.02c-9.73-16.52-19.27-33.16-28.88-49.76
		c-5.2-8.98-10.41-17.94-15.7-27.05c-32.5,12.29-64.74,12.34-97.01,0.09c-0.53,0.66-0.99,1.1-1.3,1.63
		c-15.46,26.73-30.96,53.44-46.24,80.27c-0.77,1.35-0.38,4.06,0.47,5.55c18.71,32.55,37.59,65,56.32,97.53
		c1.48,2.57,3.02,3.72,6.08,3.58c5.68-0.26,11.38-0.07,17.08-0.07c6.93,0,13.86,0,20.96,0c0-6.93,0-13.54,0-20.09
		c-0.65-0.26-1.09-0.49-1.55-0.62c-1.1-0.29-2.22-0.49-3.31-0.8c-14.14-3.95-25.77-10.92-30.58-25.85
		c-2.66-8.25-2.59-16.72-0.95-25.09c5.61-28.7,20.25-52.87,38.3-75.24c3.35-4.15,8.87-3.93,12.15,0.34
		c4.66,6.05,9.39,12.09,13.52,18.5c11.78,18.28,21.58,37.44,24.91,59.31c3.63,23.86-7.05,40.72-30.17,47.48
		c-1.56,0.46-3.24,0.65-4.65,1.38c-0.93,0.48-2.08,1.69-2.11,2.6c-0.18,6.3-0.1,12.61-0.1,18.37
		C328.01,408.36,357.92,412.13,388.37,415.98z M108.34,331.24c-19.49,33.71-38.79,67.12-58.71,101.57
		c56.93-17.32,113.97-26.44,172.99-28.18c-14.47-25.04-28.42-49.2-42.36-73.32C153.75,343.08,130.85,341.36,108.34,331.24z
		 M395.41,286.71c-7.75,13.87-15.67,26.39-21.85,39.72c-3.96,8.53-6.39,18.11-7.63,27.47c-1.95,14.71,7.88,26.46,22.45,28.25
		c0-3.4-0.03-6.75,0.01-10.1c0.04-4.06-0.13-8.14,0.29-12.16c0.53-5.08,3.14-7.42,7.39-7.37c4.18,0.05,6.77,2.5,7.25,7.57
		c0.37,3.87,0.18,7.79,0.21,11.69c0.02,3.49,0.01,6.99,0.01,10.55c15.52-2.64,24.39-14.12,22.68-29.39
		C423.41,328.05,409.62,308.24,395.41,286.71z M289.74,273.28c-11.6,16.51-22.01,32.99-27.38,51.97c-1.87,6.6-2.66,13.76-2.45,20.62
		c0.36,11.38,11.55,21.8,22.36,21.77c0-1.77-0.01-3.55,0-5.33c0.02-5.68-0.25-11.39,0.18-17.05c0.3-3.99,2.39-7.21,7.05-7.25
		c4.47-0.03,7,2.58,7.44,6.82c0.45,4.34,0.41,8.73,0.5,13.1c0.07,3.32,0.01,6.64,0.01,10.08c16.67-3.75,24.8-15.16,22.42-31.2
		C316.31,312.77,303.25,293.19,289.74,273.28z M236.05,202.41c27.51,9.71,54.35,9.68,81.95,0.03
		c-13.76-23.81-27.21-47.08-40.96-70.89C263.22,155.43,249.77,178.69,236.05,202.41z M116.14,317.89c19.12,8.2,37.47,8.36,56.36-0.1
		c-9.52-16.42-18.7-32.24-28.21-48.65C134.75,285.66,125.6,301.5,116.14,317.89z M403.48,399.3c0,5.8-0.16,12.13,0.15,18.43
		c0.06,1.12,1.92,2.75,3.24,3.11c7.03,1.95,14.19,3.47,21.24,5.34c7.58,2.01,15.1,4.25,23.52,6.63
		c-8.81-15.12-17.1-29.35-25.1-43.08C418.54,393.06,411.24,396.08,403.48,399.3z"/>
	<path class="st0" d="M385.34,124.24c-12.04,0-24.08,0.1-36.11-0.02C333.56,124.06,321.6,113.4,319.6,98
		c-1.82-14.05,7.44-27.56,21.92-31.56c2.62-0.73,3.54-1.99,4.16-4.5c3.43-13.96,12.32-22.89,26.34-25.61
		c14.68-2.84,26.54,2.52,34.89,14.98c1.45,2.16,2.61,2.97,5.34,2.77c12.49-0.93,22.73,8.49,23.52,20.91
		c0.12,1.92,1.26,4.24,2.69,5.52c8.03,7.17,11.09,17.61,7.64,27.42c-3.44,9.77-12.35,16.16-23.19,16.28
		C410.4,124.34,397.87,124.23,385.34,124.24z M385.28,109.3c11.87,0,23.75,0.03,35.62-0.01c6.41-0.02,10.27-2.74,11.31-7.82
		c0.97-4.76-1.54-8.45-7.45-10.94c-5.34-2.25-6.95-5.42-5.05-10.8c1.2-3.4,1.28-6.43-1.66-8.84c-2.96-2.42-5.88-1.68-8.98,0.19
		c-6.02,3.64-10.75,1.57-12.48-5.19c-2.69-10.52-11.27-16.55-21.23-14.92c-9.53,1.56-15.7,9.73-15.21,20.13
		c0.35,7.35-2.39,9.79-9.73,9.95c-3.56,0.08-7.52,0.85-10.53,2.62c-5.25,3.08-7.01,9.68-5.18,15.45c1.98,6.2,7.04,10.07,13.95,10.15
		C360.87,109.39,373.08,109.29,385.28,109.3z"/>
	<path class="st0" d="M116.86,201.45c-12.04,0-24.07,0.06-36.11-0.01c-11.66-0.07-20.51-6.04-24.25-16.18
		c-3.76-10.21-0.88-20.24,7.84-28.13c1.13-1.02,1.95-2.88,2.08-4.42c1.16-13.35,10.72-21.97,24.05-21.78
		c1.52,0.02,3.65-1.02,4.51-2.26c8.53-12.23,20.02-18.03,34.81-15.36c14.58,2.63,23.3,11.9,27.14,26.11
		c0.43,1.58,2.18,3.49,3.71,3.97c14.61,4.49,23.62,17.6,21.83,32.23c-1.81,14.76-14.03,25.56-29.52,25.79
		C140.93,201.59,128.89,201.45,116.86,201.45z M116.66,186.31c12.04,0,24.08,0.15,36.12-0.05c9.6-0.16,15.72-6.52,15.21-15.28
		c-0.47-8.15-7.14-13.42-16.31-12.91c-7.09,0.4-10.21-2.89-9.44-9.97c0.9-8.27-3.23-15.81-10.51-19.19
		c-11.12-5.16-22.78,1.06-26,13.87c-1.76,6.98-6.82,9.06-12.74,5.01c-3.03-2.07-5.94-2.79-8.94-0.45c-2.96,2.31-3.21,5.29-1.84,8.75
		c2.38,5.99,0.76,8.75-4.82,11.62c-2.75,1.42-5.77,4.06-6.75,6.83c-2.2,6.22,2.88,11.65,10.39,11.73
		C92.9,186.41,104.78,186.32,116.66,186.31z"/>
</g>
</svg>
