<?xml version="1.0" encoding="utf-8"?>
<!-- Generator: Adobe Illustrator 27.9.0, SVG Export Plug-In . SVG Version: 6.00 Build 0)  -->
<svg version="1.1" id="Layer_1" xmlns="http://www.w3.org/2000/svg" xmlns:xlink="http://www.w3.org/1999/xlink" x="0px" y="0px"
	 viewBox="0 0 500 500" style="enable-background:new 0 0 500 500;" xml:space="preserve">
<style type="text/css">
	.st0{fill:#EC1F28;}
</style>
<g>
	<path class="st0" d="M500,195.22c-1.76,39.81-19.64,73.59-51.17,100.29c-22.31,18.89-48.02,29.88-77.66,29.75
		c-5.98-0.03-11.06,1.13-16.26,3.85c-18.28,9.53-36.77,18.66-55.06,28.19c-3.16,1.65-5.13,1.28-7.65-0.97
		c-5.62-5.02-11.35-9.94-17.32-14.53c-2.74-2.1-2.94-3.99-1.99-7.04c6.66-21.4,13.17-42.85,19.62-64.31
		c0.59-1.96,1.02-4.27,0.57-6.2c-7.25-31.61-0.66-60.96,15.47-88.24c19.37-32.76,46.96-55.73,84.36-65.24
		c26.07-6.63,51.25-4.21,73.61,12.02C490.32,140.09,499.34,164.76,500,195.22z M307.75,288.31c-4.4,14.38-8.52,27.57-12.37,40.85
		c-0.42,1.43,0.2,3.97,1.26,4.79c1.1,0.85,3.61,0.8,5.02,0.14c6.65-3.12,13.14-6.59,19.69-9.94c5.73-2.93,11.46-5.85,18.02-9.2
		C326.31,308.75,316.17,300.48,307.75,288.31z M445.51,266.54c-4.92-4.1-9.13-7.62-13.61-11.36c-4.38,5.21-8.41,10.02-12.62,15.04
		c3.98,3.33,7.59,6.35,11.64,9.74C435.71,275.56,440.35,271.29,445.51,266.54z M439.52,246.13c4.66,3.87,8.9,7.39,13.61,11.3
		c3.7-5.76,7.12-11.07,10.68-16.62c-4.07-3.41-7.78-6.52-11.65-9.76C447.88,236.16,443.9,240.91,439.52,246.13z M350.5,186.88
		c-4.61-3.89-8.83-7.44-13.56-11.43c-3.71,5.83-7.16,11.24-10.66,16.74c4.21,3.52,7.83,6.54,11.62,9.71
		C342.13,196.85,346.12,192.1,350.5,186.88z M344.57,166.43c4.9,4.11,9.09,7.63,13.56,11.37c4.4-5.25,8.43-10.05,12.63-15.07
		c-4.15-3.43-7.86-6.5-11.79-9.75C354.07,157.57,349.56,161.77,344.57,166.43z M355.27,273.06c-5.45,6.5-10.66,12.71-16.19,19.31
		c2.47,1.38,4.48,2.41,6.38,3.6c2.95,1.85,5.08,1.67,7.34-1.45c3.45-4.75,7.47-9.08,11.48-13.88
		C361.27,278.11,358.44,275.73,355.27,273.06z M467.45,157.71c-2.53-3.26-4.85-6.25-7.41-9.54c-5.66,6.76-10.87,12.96-16.24,19.36
		c3.22,2.64,6.07,4.98,9.1,7.46C457.78,169.2,462.38,163.74,467.45,157.71z M329.98,284.8c5.58-6.65,10.79-12.86,16.23-19.35
		c-3.24-2.7-6.07-5.05-9.06-7.54c-5.02,5.99-9.71,11.58-14.54,17.34C325.16,278.56,327.43,281.5,329.98,284.8z M451,140.56
		c-3.29-1.71-6.08-3.32-9.02-4.59c-0.77-0.33-2.4,0.03-2.96,0.66c-4.47,5.11-8.77,10.35-13.31,15.77c3.33,2.69,6.17,4.98,9.15,7.39
		C440.36,153.26,445.47,147.16,451,140.56z M409.04,153.85c-3.12-2.62-5.96-5.01-9.02-7.59c-4.3,5.14-8.35,9.99-12.6,15.07
		c3.24,2.65,6.08,4.97,9.11,7.45C400.86,163.6,404.83,158.87,409.04,153.85z M415.98,200.71c-4.47,5.33-8.5,10.13-12.66,15.09
		c3.29,2.67,6.14,4.98,9.16,7.43c4.36-5.21,8.38-10.02,12.52-14.96C421.79,205.58,419.07,203.3,415.98,200.71z M463.32,199.35
		c-3.18-2.67-6.02-5.05-9.02-7.58c-4.33,5.16-8.38,10-12.62,15.05c3.11,2.63,5.91,5,8.99,7.6
		C455.05,209.21,459.1,204.39,463.32,199.35z M346.94,209.5c3.18,2.65,6,4.99,9.06,7.54c4.32-5.15,8.3-9.9,12.54-14.95
		c-3.03-2.59-5.85-5-8.93-7.62C355.43,199.43,351.43,204.18,346.94,209.5z M380.96,279.17c3.24,2.69,6.06,5.04,9.07,7.54
		c4.36-5.21,8.39-10.02,12.6-15.05c-3.21-2.64-6.04-4.97-9.08-7.47C389.28,269.28,385.32,273.99,380.96,279.17z M374.11,232.22
		c4.44-5.3,8.46-10.1,12.63-15.08c-3.4-2.75-6.23-5.03-9.18-7.41c-4.42,5.29-8.43,10.08-12.52,14.98
		C368.29,227.41,371.02,229.67,374.11,232.22z M423.62,191.6c3.12,2.62,5.94,4.99,9.01,7.56c4.35-5.18,8.39-9.99,12.62-15.03
		c-3.21-2.67-5.96-4.96-9.06-7.54C431.98,181.63,427.92,186.47,423.62,191.6z M379.85,170.35c-4.4,5.23-8.45,10.04-12.65,15.03
		c3.18,2.65,6.02,5.02,9.04,7.54c4.29-5.1,8.33-9.92,12.6-15.01C385.84,175.39,383.14,173.12,379.85,170.35z M427.17,168.97
		c-3.14-2.6-5.96-4.93-9.06-7.49c-4.36,5.18-8.41,9.99-12.61,14.98c3.18,2.64,6.03,5.01,9.05,7.53
		C418.86,178.86,422.91,174.04,427.17,168.97z M384.49,256.54c-3.14-2.66-5.95-5.05-8.96-7.61c-4.29,5.1-8.35,9.93-12.63,15.02
		c3.07,2.58,5.87,4.94,9,7.57C376.15,266.47,380.19,261.66,384.49,256.54z M404.74,232.42c-3.05-2.56-5.87-4.94-9-7.57
		c-4.3,5.12-8.34,9.93-12.62,15.02c3.25,2.71,6.05,5.05,9.05,7.54C396.54,242.19,400.52,237.45,404.74,232.42z M422.84,247.57
		c-3.22-2.7-6.04-5.07-9.02-7.57c-4.33,5.18-8.38,10.02-12.61,15.06c3.13,2.63,5.94,4.98,9.02,7.56
		C414.57,257.44,418.61,252.62,422.84,247.57z M385.26,200.57c3.22,2.68,5.96,4.97,9.06,7.56c4.22-5.04,8.28-9.88,12.57-15
		c-3.12-2.62-5.94-5-9-7.57C393.62,190.62,389.63,195.36,385.26,200.57z M443.12,223.42c-3.29-2.68-6.13-5-9.14-7.44
		c-4.33,5.18-8.28,9.92-12.48,14.94c3.11,2.63,5.93,5.01,8.96,7.58C434.76,233.38,438.75,228.62,443.12,223.42z M339.36,218.6
		c-4.44,5.3-8.42,10.05-12.57,14.99c3.06,2.57,5.9,4.95,9.02,7.57c4.27-5.1,8.31-9.93,12.54-14.99
		C345.21,223.54,342.5,221.25,339.36,218.6z M353.83,256.37c4.37-5.21,8.47-10.1,12.64-15.06c-3.43-2.85-6.15-5.11-9.06-7.53
		c-4.4,5.24-8.45,10.06-12.62,15.02C348.09,251.57,350.82,253.85,353.83,256.37z M369.57,146.32c3.1,2.59,5.83,4.87,8.8,7.35
		c4.24-5.06,8.3-9.9,12.36-14.75C387.42,136.33,378.9,139.38,369.57,146.32z M399.27,294.1c3.42,2.49,12.58-0.86,21.1-7.44
		c-2.86-2.43-5.65-4.81-8.68-7.39C407.41,284.38,403.35,289.23,399.27,294.1z M468.95,229.62c2.16-7.62,6.11-14.24,4.92-21.74
		c-0.6-0.19-1.2-0.38-1.79-0.56c-4.02,4.8-8.05,9.59-12.31,14.68C462.86,224.55,465.68,226.9,468.95,229.62z M316.03,225.13
		c0.64,0.19,1.28,0.39,1.92,0.58c4.03-4.81,8.07-9.63,12.33-14.71c-3.15-2.65-5.96-5.01-9.2-7.73
		C318.94,210.97,315.05,217.59,316.03,225.13z M416.68,144.79c3.63-4.38,6.92-8.36,10.35-12.51c-11.79-2.84-14.7-2.02-18.9,5.23
		C410.82,139.79,413.53,142.11,416.68,144.79z M363.09,300.53c10.19,3.19,14.53,2.03,18.91-5.04c-2.78-2.34-5.6-4.7-8.65-7.27
		C369.81,292.46,366.51,296.42,363.09,300.53z M317.07,263.42c4.15-4.92,7.48-8.88,11.05-13.1c-3.08-2.6-5.91-4.99-8.61-7.27
		C310.71,248.67,315.99,255.59,317.07,263.42z M472.94,169.58c-4.18,4.98-7.48,8.9-10.99,13.08c3.14,2.65,5.94,5.02,8.62,7.28
		C479.07,184.16,474.04,177.34,472.94,169.58z"/>
	<path class="st0" d="M210.31,239.88c-0.9,7.13-2.01,14.25-2.61,21.41c-0.32,3.78-0.52,7.85,0.52,11.41
		c6.06,20.72,12.42,41.36,18.9,61.96c1.05,3.33,0.47,5.28-2.25,7.4c-5.69,4.42-11.29,8.99-16.54,13.92
		c-3.05,2.86-5.44,2.72-8.93,0.91c-19.45-10.13-38.99-20.09-58.6-29.9c-2.47-1.23-5.59-1.76-8.37-1.67
		c-22.97,0.73-44.2-5.3-63.53-17.28C32.51,285.5,9,253.48,1.78,210.95c-5.27-31.02,0.71-59.61,24.44-82.13
		c19.56-18.55,43.63-23.99,69.69-20.25C157.82,117.44,209.66,177.5,210.31,239.88z M160.58,314.95
		c13.65,6.93,26.14,13.35,38.74,19.56c1.09,0.54,3.1,0.15,4.19-0.56c0.9-0.59,1.74-2.5,1.45-3.49
		c-4.01-13.72-8.22-27.39-12.69-42.11C183.9,300.28,173.8,308.78,160.58,314.95z M149.48,186.89c4.32,5.14,8.37,9.97,12.63,15.04
		c4.02-3.42,7.7-6.54,11.65-9.9c-3.72-5.69-7.16-10.94-10.81-16.51C158.16,179.57,153.95,183.12,149.48,186.89z M60.5,246.11
		c-4.45-5.3-8.49-10.11-12.66-15.07c-4.06,3.42-7.67,6.46-11.64,9.81c3.56,5.53,6.98,10.84,10.7,16.62
		C51.62,253.52,55.85,249.99,60.5,246.11z M129.27,162.77c4.28,5.1,8.32,9.93,12.61,15.05c4.62-3.89,8.81-7.42,13.55-11.42
		c-5.1-4.69-9.81-9.04-14.58-13.43C136.68,156.5,133.09,159.54,129.27,162.77z M69.07,279.97c4.11-3.44,7.81-6.53,11.65-9.74
		c-4.4-5.23-8.45-10.04-12.67-15.05c-4.68,3.95-8.87,7.48-13.53,11.41C59.6,271.26,64.24,275.52,69.07,279.97z M32.58,157.75
		c5,5.94,9.7,11.51,14.58,17.31c3.18-2.65,5.93-4.94,8.99-7.49c-5.38-6.42-10.62-12.68-16.26-19.41
		C37.31,151.53,34.99,154.58,32.58,157.75z M153.76,265.43c5.6,6.66,10.82,12.87,16.41,19.52c2.8-3.91,4.95-6.89,7.09-9.88
		c-4.98-5.91-9.6-11.39-14.43-17.13C159.84,260.4,157.09,262.68,153.76,265.43z M74.23,152.4c-3.26-3.91-6.08-7.3-8.91-10.68
		c-6.08-7.27-6.08-7.28-14.07-2.37c-0.66,0.41-1.21,1-1.98,1.65c5.39,6.39,10.62,12.59,15.99,18.95
		C68.43,157.28,71.15,154.98,74.23,152.4z M144.7,273.06c-3.22,2.74-6.04,5.13-8.96,7.61c2.99,3.59,5.71,6.85,8.43,10.12
		c6.52,7.82,6.53,7.82,15.16,2.42c0.38-0.24,0.64-0.65,1.22-1.25C155.37,285.79,150.25,279.68,144.7,273.06z M96.64,215.75
		c-4.38-5.19-8.41-9.98-12.67-15.02c-3.16,2.67-5.95,5.02-8.97,7.57c4.39,5.22,8.42,10.01,12.61,15
		C90.77,220.67,93.49,218.39,96.64,215.75z M132.83,185.42c-4.43-5.27-8.45-10.07-12.65-15.08c-3.32,2.82-6.09,5.17-8.99,7.62
		c4.38,5.22,8.34,9.94,12.55,14.95C126.74,190.44,129.59,188.09,132.83,185.42z M112.57,161.29c-4.41-5.25-8.46-10.07-12.63-15.04
		c-3.21,2.7-5.94,4.99-9.02,7.58c4.29,5.11,8.34,9.93,12.63,15.03C106.65,166.24,109.38,163.96,112.57,161.29z M85.45,184.07
		c3.04-2.57,5.93-5.02,9.03-7.65c-4.39-5.21-8.42-10-12.63-15c-3.24,2.72-5.95,5-8.99,7.57C76.96,173.9,80.9,178.62,85.45,184.07z
		 M119.03,279.16c-4.43-5.24-8.48-10.03-12.71-15.03c-3.22,2.76-6.01,5.16-8.9,7.65c4.31,5.14,8.35,9.94,12.56,14.95
		C113.14,284.08,115.85,281.81,119.03,279.16z M125.92,232.22c3.12-2.6,5.96-4.96,9.03-7.51c-4.23-5.04-8.27-9.87-12.59-15.02
		c-3.09,2.59-5.89,4.94-9.04,7.57C117.62,222.37,121.66,227.16,125.92,232.22z M45.69,191.75c-3.2,2.71-5.98,5.07-9,7.63
		c4.4,5.22,8.44,10.01,12.67,15.03c3.23-2.76,6-5.12,8.93-7.63C53.96,201.62,50.01,196.9,45.69,191.75z M164.24,241.17
		c3.15-2.62,6-4.99,9.05-7.54c-4.29-5.1-8.36-9.93-12.66-15.05c-3.23,2.79-5.99,5.17-8.9,7.68
		C156.09,231.46,160.06,236.19,164.24,241.17z M95.2,232.39c4.45,5.28,8.44,10.02,12.66,15.04c3.11-2.66,5.92-5.07,8.95-7.66
		c-4.36-5.18-8.41-10-12.58-14.96C101.01,227.51,98.27,229.81,95.2,232.39z M115.5,256.54c4.29,5.13,8.4,10.06,12.59,15.07
		c3.23-2.72,5.96-5.02,9-7.59c-4.25-5.09-8.36-10-12.63-15.1C121.32,251.59,118.61,253.89,115.5,256.54z M155.17,248.8
		c-4.33-5.17-8.38-10.01-12.6-15.07c-3.19,2.71-6.01,5.11-9,7.66c4.34,5.14,8.4,9.96,12.6,14.95
		C149.39,253.65,152.11,251.37,155.17,248.8z M77.14,247.56c4.37,5.2,8.42,10.01,12.64,15.03c3.17-2.66,5.98-5.01,9-7.55
		c-4.35-5.19-8.39-10.02-12.6-15.04C83.17,242.51,80.44,244.79,77.14,247.56z M76.37,191.58c-4.32-5.14-8.38-9.97-12.61-15.01
		c-3.21,2.74-6.02,5.13-8.98,7.65c4.37,5.18,8.37,9.91,12.63,14.96C70.49,196.58,73.3,194.19,76.37,191.58z M140.38,194.41
		c-3.23,2.83-5.99,5.24-8.89,7.78c4.36,5.16,8.36,9.89,12.58,14.88c3.12-2.67,5.92-5.06,8.92-7.62
		C148.7,204.34,144.72,199.59,140.38,194.41z M105.72,208.18c3.15-2.69,5.96-5.09,8.96-7.66c-4.37-5.19-8.42-10.01-12.59-14.97
		c-3.22,2.7-5.95,4.99-9.01,7.56C97.38,198.23,101.44,203.07,105.72,208.18z M65.92,215.85c-3.21,2.76-6.02,5.17-8.96,7.7
		c4.34,5.15,8.4,9.97,12.59,14.95c3.23-2.73,5.95-5.03,8.96-7.58C74.29,225.87,70.34,221.14,65.92,215.85z M109.06,138.68
		c4.33,5.17,8.38,9.98,12.51,14.92c1.76-1.43,3.17-2.52,4.53-3.68c1.4-1.2,2.75-2.46,4.2-3.76
		C120.7,139.37,112.79,136.47,109.06,138.68z M88.31,279.3c-3.13,2.66-5.86,4.97-8.62,7.31c7.99,6.61,17.92,10.14,20.82,7.25
		C96.56,289.14,92.59,284.41,88.31,279.3z M40.21,221.98c-3.65-4.38-7.01-8.53-10.54-12.55c-0.7-0.8-2.02-1.06-3.05-1.57
		c-0.31,1.17-1.1,2.45-0.85,3.48c1.47,5.95,3.18,11.83,5.01,18.49C34.32,226.88,37.15,224.53,40.21,221.98z M182.04,225.64
		c0.65-0.18,1.3-0.36,1.95-0.53c0.84-7.57-2.78-14.23-5.24-21.78c-3.27,2.85-6.01,5.24-8.91,7.76
		C174.15,216.23,178.09,220.93,182.04,225.64z M72.5,131.8c3.95,4.73,7.31,8.76,10.85,13.01c3.19-2.79,5.95-5.19,8.55-7.46
		C87.43,128.04,80.07,131.59,72.5,131.8z M27.6,170.32c-4.64,10.74-4.3,14.16,1.84,19.67c2.78-2.38,5.6-4.79,8.62-7.38
		C34.44,178.36,31.1,174.44,27.6,170.32z M136.95,300.58c-3.51-4.18-6.87-8.19-10.34-12.32c-3.18,2.69-5.9,4.99-8.58,7.27
		C122.34,302.71,126.12,303.74,136.95,300.58z M171.85,250.29c3.68,4.35,7.02,8.29,10.54,12.45c4.69-11.31,4.41-14.14-1.85-19.73
		C177.82,245.29,175.08,247.59,171.85,250.29z"/>
	<path class="st0" d="M288.22,368.26c-28.8,34.32-57.21,68.17-86,102.48c-8.04-6.75-15.87-13.32-24.1-20.23
		c28.71-34.21,57.18-68.15,85.97-102.46C272.13,354.79,279.97,361.36,288.22,368.26z"/>
	<path class="st0" d="M281.03,10.42c-27.6,22.06-28.79,62.46-0.18,85.44c-16.31,13.76-43.96,13.83-61.94-0.08
		c13.55-11.06,21.25-25.18,21.19-42.81c-0.06-17.48-7.65-31.51-21.16-42.42C235.87-3.36,263.32-3.42,281.03,10.42z"/>
	<path class="st0" d="M278.25,398.51c14.65,17.45,28.95,34.5,43.65,52c-7.97,6.7-15.82,13.29-24.08,20.23
		c-13.43-16-26.66-31.75-40.09-47.74C264.5,414.92,271.11,407.04,278.25,398.51z"/>
	<path class="st0" d="M210.18,87.39c-17.45-16.46-17.62-49.85-0.29-68.52c11.38,7.72,17.64,18.49,18.33,32.12
		C228.99,66.34,222.46,78.35,210.18,87.39z"/>
	<path class="st0" d="M290.09,87.09c-24.45-14.78-24.63-51.21-0.34-67.92C305.8,33.44,308.95,67.94,290.09,87.09z"/>
	<path class="st0" d="M348.68,471.2c-1.92,2.9-2.87,5.27-4.58,6.77c-7.52,6.59-15.17,13.02-22.94,19.32
		c-4.43,3.59-8.28,3.13-12.08-1.03c-1.54-1.69-3.02-3.46-4.39-5.3c-2.93-3.92-2.69-8.14,1.04-11.37c7.8-6.76,15.7-13.42,23.72-19.92
		c4-3.24,7.9-2.86,11.3,1.03C343.57,463.9,345.93,467.51,348.68,471.2z"/>
	<path class="st0" d="M197.7,485.26c-1.37,6.38-5.15,10.5-9.81,13.55c-4.21,2.76-7.69-0.15-10.92-2.9
		c-6.74-5.74-13.58-11.35-20.3-17.11c-5.24-4.49-5.5-8.12-1.16-13.48c1.34-1.65,2.67-3.33,4.17-4.84c3.24-3.27,7.06-3.73,10.6-0.88
		c8.29,6.68,16.42,13.57,24.44,20.57C196.2,481.46,196.82,483.71,197.7,485.26z"/>
	<path class="st0" d="M221.79,380.11c-3.51-4.16-6.63-7.87-9.96-11.83c8.09-6.79,15.94-13.38,24.02-20.17
		c2.12,2.48,4.12,4.82,6.43,7.52C235.56,363.66,228.91,371.61,221.79,380.11z"/>
</g>
</svg>
