<svg width="683" height="683" viewBox="0 0 683 683" fill="none" xmlns="http://www.w3.org/2000/svg">
<path d="M314.667 62.9334C312.267 64.6667 308.933 67.7334 307.467 69.7334C304.667 73.4667 304.667 74.6667 304.267 154.8C304.133 199.6 303.467 236 302.933 235.733C279.733 224 268 220.133 256.4 220C252.533 220 252 219.467 250.667 214.267C243.6 187.467 229.867 155.333 216.8 135.333C207.733 121.467 190.267 103.067 179.467 95.8667C155.333 80.1333 129.067 82.1333 110.667 101.333C89.8667 122.8 78.6667 169.467 82.5333 217.467C84.1333 237.2 88.9333 264.667 93.4667 280.667C94.9333 285.733 96.5334 291.067 96.8 292.267C97.4667 294.4 96.4 294.667 87.7333 294.667C76 294.667 68.5333 297.733 63.8667 304.133C60.8 308.4 60.6667 309.867 60.2667 332C59.8667 354.667 60 355.467 62.9333 360C66.5333 365.333 75.0667 370.667 80.2667 370.667C82.9333 370.667 84.1333 371.467 84.6667 373.6C85.0667 375.333 94.4 417.2 105.333 466.667C116.4 516.133 126.533 561.067 128 566.4C135.467 593.867 152.933 614.533 173.867 620.667C184 623.733 501.467 623.6 511.733 620.667C528.8 615.6 545.6 598.533 553.467 578C556.133 571.333 565.333 532.667 578.667 472.667C590.267 420.667 600.133 376.4 600.667 374.267C601.467 371.467 602.4 370.667 605.2 370.667C609.733 370.667 618.4 365.6 621.733 361.2C625.2 356.4 626.533 348.667 626.667 332.533C626.667 315.067 624.4 307.2 617.333 300.8C611.2 295.333 609.467 294.8 596 294.4L586 294L585.333 268C584.667 243.6 584.4 241.6 581.2 234.667C577.733 227.2 571.867 220.933 558.667 210.4C548.667 202.4 548.267 200.267 548.133 164.667L548 135.333L552.533 132.4C560.267 127.467 561.333 123.2 561.333 97.6C561.333 76.4 561.2 74.8 558.267 70.5334C556.667 68.1334 553.2 64.6667 550.8 63.0667C546.267 60 545.733 60 504.4 60C456.933 60 455.867 60.1334 449.6 69.7334C446.133 74.8 446 76.1333 445.6 94.6667C444.933 119.067 446.133 124 454.267 131.6L460.267 137.2L459.733 166.933C459.2 202.133 458.933 203.2 445.867 212.667C441.2 216.133 435.467 221.067 433.333 223.6L429.333 228.133L417.6 225.2C408.4 222.933 403.467 222.4 393.067 222.933L380.133 223.6L379.733 149.333L379.333 75.2L375.733 69.7334C370 61.0667 366.267 60 340.933 60C320.4 60 318.8 60.1334 314.667 62.9334ZM358.4 215.6L358.667 350.667H340.667H322.667V216.267C322.667 142.267 323.067 81.3333 323.6 80.8C324.133 80.4 332 80.1333 341.2 80.2667L358 80.6667L358.4 215.6ZM540.533 82.1333C540.933 83.3333 541.333 90.9333 541.333 99.3333C541.333 110.4 540.8 114.8 539.467 115.867C538.267 116.933 527.333 117.333 502.533 117.067L467.333 116.667L466.933 98.2667L466.533 80H503.2C535.2 80 539.867 80.2667 540.533 82.1333ZM160 109.6C166.8 112.533 179.867 122.8 186.133 130.267C215.6 164.933 235.333 220.933 239.333 281.6L240.267 294.667H179.067H117.733L114.133 283.067C98 230.933 97.0667 168.4 112 135.067C123.6 109.333 139.6 100.8 160 109.6ZM528 167.733C528 209.333 529.733 214.4 549.467 229.467C564 240.533 564.533 242 565.067 270.933L565.6 294.667H504.133H442.667V271.6C442.667 242.933 443.6 240.533 458.667 229.2C477.733 215.067 480 208.133 480 166.4V137.333H504H528V167.733ZM270 242.933C277.2 244.8 287.333 250 295.733 256.133L302.667 261.467V278V294.667H281.333H260V286.267C260 278.667 258.933 267.2 256.533 247.6L255.6 240L260.133 240.8C262.667 241.2 267.067 242.267 270 242.933ZM416.4 246.133C422.667 248.267 422.933 248.533 422.133 252.4C421.733 254.533 421.333 264.933 421.333 275.467V294.667H400.667H380V270C380 245.6 380 245.333 383.067 244.8C384.667 244.4 387.2 243.867 388.667 243.467C393.467 242.267 409.867 243.867 416.4 246.133ZM605.067 331.2C605.333 341.6 604.933 347.6 603.867 348.8C602.533 350.4 584.533 350.667 491.2 350.667H380V332.667V314.667L492.4 314.933L604.667 315.333L605.067 331.2ZM302.667 333.333V350.667L191.067 350.4L79.3333 350L78.9333 332.933L78.5333 316H190.667H302.667V333.333ZM578.667 373.6C578.667 374.533 576.8 383.867 574.4 394.267L570.133 413.333H539.6H509.067L505.067 417.333C501.867 420.667 501.2 422.133 502 425.067C502.4 427.067 504 429.867 505.467 431.333C507.867 433.867 510.133 434 536.8 434.4C563.067 434.8 565.467 435.067 564.8 437.067C564.4 438.267 559.2 460.933 553.333 487.333C547.333 513.733 542.267 536.4 541.867 537.6C541.2 539.733 539.2 540 524.933 540C514.267 540.133 508 540.667 506.533 541.733C503.067 544.4 501.2 549.067 502.133 552.667C503.6 558.667 507.333 560 522.4 560H536.267L535.333 563.6C533.333 572.133 525.867 584.933 519.333 591.467C507.333 603.467 520.267 602.667 341.2 602.667C164.133 602.667 176.133 603.333 163.867 592.267C159.2 588.133 155.733 583.067 152 575.467C144.267 559.6 144 560 160.4 560C175.333 560 179.067 558.667 180.533 552.667C181.467 549.067 179.6 544.4 176.133 541.733C174.667 540.667 168.4 540.133 157.733 540C143.467 540 141.467 539.733 140.8 537.6C140.4 536.4 135.333 513.733 129.333 487.333C123.467 460.933 118.267 438.267 117.867 437.067C117.2 435.067 119.6 434.8 145.867 434.4C173.333 434 174.667 433.867 177.467 431.067C181.733 426.933 181.467 420.4 176.8 416.4C173.2 413.333 172.667 413.333 143.333 413.333C116.133 413.333 113.467 413.067 112.8 410.933C112.133 408.533 104 373.067 104 372.4C104 372.133 210.8 372 341.333 372C530.267 372 578.667 372.4 578.667 373.6Z" fill="#EC1F28"/>
<path d="M151.467 173.467C142 175.6 133.2 178.267 131.733 179.467C128.533 182.533 128.533 189.867 132 193.333C133.6 194.933 136.4 196 139.2 196C146.8 196 175.067 189.467 178.667 186.8C183.2 183.6 183.867 175.867 180.133 172.133C176.533 168.533 172.667 168.667 151.467 173.467Z" fill="#EC1F28"/>
<path d="M165.733 235.867C135.467 242.533 132 244.133 132 250.933C132 256.267 133.867 259.333 138.267 261.2C141.467 262.4 146.933 261.6 172.667 256.133C199.867 250.267 203.733 249.067 206.4 246C209.733 242.133 210 240.267 207.867 235.6C206.267 231.867 201.467 229.2 196.933 229.467C195.333 229.6 181.333 232.4 165.733 235.867Z" fill="#EC1F28"/>
<path d="M234 414.933C225.2 420 226.533 431.6 236.267 434C238 434.4 255.733 434.667 275.6 434.4C310.933 434 312 433.867 314.8 431.067C319.067 426.933 318.8 420.4 314.133 416.4C310.533 413.333 310.4 413.333 273.6 413.333C248.267 413.467 235.867 413.867 234 414.933Z" fill="#EC1F28"/>
<path d="M368.533 416.4C363.867 420.4 363.6 426.933 367.867 431.067C370.667 434 371.333 434 409.467 434H448.267L451.467 430.267C456.4 424.4 455.333 418.533 448.4 414.933C446.4 413.867 434.133 413.333 408.8 413.333C372.267 413.333 372.133 413.333 368.533 416.4Z" fill="#EC1F28"/>
<path d="M165.867 477.333C162.267 478.8 158.667 483.733 158.667 487.067C158.667 488.4 160.4 491.333 162.667 493.467L166.533 497.467L205.467 497.067L244.267 496.667L246.8 493.467C250.267 489.333 250 484.933 246.133 480.4L242.933 476.667L205.733 476.4C185.333 476.267 167.333 476.667 165.867 477.333Z" fill="#EC1F28"/>
<path d="M303.2 477.333C299.6 478.8 296 483.733 296 487.067C296 488.4 297.733 491.333 299.867 493.467L303.733 497.333H341.333H378.933L382.8 493.467C387.467 488.667 387.733 485.333 383.467 480.4L380.267 476.667L343.067 476.4C322.667 476.267 304.667 476.667 303.2 477.333Z" fill="#EC1F28"/>
<path d="M440.533 477.333C436.933 478.8 433.333 483.733 433.333 487.067C433.333 488.4 435.067 491.333 437.2 493.467L441.067 497.333H478.667H516.267L520.267 493.333C523.467 490 524.134 488.533 523.334 485.6C522.934 483.6 521.334 480.8 519.867 479.333C517.467 476.8 515.334 476.667 480.267 476.4C460 476.267 442 476.667 440.533 477.333Z" fill="#EC1F28"/>
<path d="M231.333 543.333C227.333 547.333 227.067 551.867 230.8 556.533L233.467 560H272.8C310.267 560 312.133 559.867 314.667 557.333C319.067 552.933 318.667 547.333 313.867 542.933C310.533 540 310 540 272.533 540H234.533L231.333 543.333Z" fill="#EC1F28"/>
<path d="M369.6 542.133C364.933 545.333 363.6 550 366 554.533C367.067 556.667 368.933 558.667 370 559.2C371.2 559.6 389.467 560 410.667 560H449.2L451.867 556.533C455.6 551.867 455.333 547.333 451.333 543.333L448.133 540H410.4C377.867 540 372.133 540.267 369.6 542.133Z" fill="#EC1F28"/>
</svg>
