<svg width="251" height="246" viewBox="0 0 251 246" fill="none" xmlns="http://www.w3.org/2000/svg">
<path d="M244.722 219.442H219.499C216.678 219.442 214.375 218.83 212.252 217.52C204.606 212.787 198.514 197.63 194.874 188.575C194.465 187.558 194.055 186.543 193.642 185.529C187.653 170.842 180.2 152.564 165.393 143.128C158.764 138.891 151.229 136.744 142.997 136.744H133.088V94.8952C136.609 94.8859 139.915 93.5139 142.397 91.0327C144.891 88.548 146.266 85.2323 146.269 81.6966C146.273 78.1546 144.899 74.8276 142.397 72.3258L115.008 45.0325C113.57 43.5998 111.243 43.6032 109.811 45.0418C108.378 46.4794 108.382 48.8063 109.82 50.2385L137.205 77.5269C138.313 78.6347 138.922 80.113 138.92 81.6898C138.919 83.2596 138.311 84.7286 137.205 85.8311C134.916 88.1202 131.191 88.1202 128.902 85.8311L75.733 32.6753C74.2979 31.2401 71.9715 31.2401 70.5368 32.6753L17.3683 85.8311C16.2619 86.9374 14.7861 87.5465 13.2118 87.5465C13.2098 87.5465 13.2079 87.5465 13.2059 87.5465C11.636 87.545 10.1675 86.9374 9.0602 85.8262C7.95823 84.7286 7.35115 83.2596 7.34968 81.6898C7.34821 80.113 7.95726 78.6347 9.0651 77.5269L68.988 17.6025C70.0855 16.5011 71.5545 15.8935 73.1239 15.892H73.1298C74.7041 15.892 76.1804 16.5011 77.2867 17.6074L98.5092 38.8309C99.9438 40.266 102.271 40.266 103.706 38.8309C105.141 37.3957 105.141 35.0693 103.706 33.6341L82.4835 12.4107C79.9885 9.91626 76.6674 8.54285 73.1298 8.54285C73.1254 8.54285 73.121 8.54285 73.117 8.54285C69.5818 8.54628 66.2662 9.92116 63.7864 12.4107L3.86839 72.3302C1.37048 74.8281 -0.00342344 78.1541 6.40629e-06 81.6966C0.00343626 85.2318 1.37881 88.5475 3.863 91.0229C6.34376 93.5129 9.65209 94.8873 13.1809 94.8952V159.627V238.65H3.67484C1.64535 238.65 6.40629e-06 240.296 6.40629e-06 242.325C6.40629e-06 244.355 1.64535 246 3.67484 246H244.875C248.18 246 250.869 243.317 250.869 240.019V225.588C250.869 222.199 248.111 219.442 244.722 219.442ZM29.4173 238.651H20.5306V163.302H29.4173V238.651ZM54.6821 238.651H36.767V163.302H51.0509H54.6821V238.651ZM84.2381 238.651H62.0318V226.916H84.2381V238.651ZM84.2381 219.567H62.0318V205.721H84.2381V219.567ZM84.2381 198.371H62.0318V184.512H84.2381V198.371ZM84.2381 177.162H62.0318V163.302H84.2381V177.162ZM91.5436 155.952H54.7257V137.737C54.7257 127.587 62.9838 119.328 73.1347 119.328C83.2856 119.328 91.5436 127.587 91.5436 137.737V155.952ZM109.489 238.651H91.5877V163.302H95.2185H109.489V238.651ZM98.8933 155.952V137.737C98.8933 123.534 87.3382 111.978 73.1347 111.978C58.9312 111.978 47.376 123.533 47.376 137.737V155.952H33.0922H20.5306V92.6961C21.2548 92.214 21.9363 91.6569 22.565 91.0278L73.1347 40.4703L123.704 91.0278C124.333 91.6569 125.015 92.214 125.739 92.6966V155.952H113.163H98.8933ZM133.088 238.651V214.324C133.088 212.295 131.443 210.65 129.414 210.65C127.384 210.65 125.739 212.295 125.739 214.324V238.651H116.838V163.302H125.739V197.365C125.739 199.395 127.384 201.04 129.414 201.04C131.443 201.04 133.088 199.395 133.088 197.365V163.302H142.997C146.155 163.302 148.732 164.007 151.105 165.518C158.885 170.477 164.679 184.778 168.512 194.241C168.986 195.41 169.461 196.579 169.937 197.749C175.628 211.771 182.641 229.05 196.092 238.651H133.088ZM243.519 238.651H219.499C213.132 238.651 207.291 237.036 202.142 233.854C189.293 225.896 182.628 209.474 176.747 194.985C176.273 193.817 175.797 192.649 175.324 191.481C171.14 181.151 164.816 165.542 155.055 159.319C151.497 157.053 147.553 155.952 142.997 155.952H133.088V144.092H142.997C149.804 144.092 156.008 145.851 161.44 149.322C174.278 157.504 180.95 173.866 186.837 188.303C187.245 189.306 187.65 190.31 188.054 191.315C192.288 201.848 198.686 217.766 208.387 223.77C211.678 225.803 215.313 226.791 219.499 226.791H243.519V238.651Z" fill="#EC1F28"/>
<path d="M168.526 73.5894H222.346C238.074 73.5894 250.869 60.7999 250.869 45.08C250.869 29.3522 238.074 16.5569 222.346 16.5569C222.16 16.5569 221.972 16.5588 221.784 16.5627C216.035 6.4246 205.147 0 193.373 0C175.364 0 160.712 14.6464 160.712 32.6487C160.712 33.3151 160.733 33.9859 160.774 34.6567C153.289 37.7342 148.295 45.0202 148.295 53.3577C148.295 64.5135 157.37 73.5894 168.526 73.5894ZM165.583 40.8108C167.458 40.3732 168.677 38.5628 168.378 36.6607C168.168 35.3274 168.061 33.9775 168.061 32.6487C168.061 18.699 179.416 7.34968 193.373 7.34968C203.159 7.34968 212.155 13.0765 216.294 21.9388C216.959 23.3622 218.455 24.2054 220.016 24.0378C220.841 23.9492 221.603 23.906 222.346 23.906C234.021 23.906 243.519 33.4043 243.519 45.0795C243.519 56.7468 234.021 66.2392 222.346 66.2392H168.526C161.423 66.2392 155.645 60.4609 155.645 53.3577C155.645 47.3363 159.732 42.1768 165.583 40.8108Z" fill="#EC1F28"/>
<path d="M73.1347 68.3505C64.124 68.3505 56.7929 75.6815 56.7929 84.6927C56.7929 93.7039 64.124 101.035 73.1347 101.035C82.1454 101.035 89.4764 93.7039 89.4764 84.6927C89.4764 75.6815 82.1454 68.3505 73.1347 68.3505ZM73.1347 93.6853C68.1766 93.6853 64.1426 89.6513 64.1426 84.6927C64.1426 79.7341 68.1766 75.7001 73.1347 75.7001C78.0928 75.7001 82.1268 79.7341 82.1268 84.6927C82.1268 89.6513 78.0928 93.6853 73.1347 93.6853Z" fill="#EC1F28"/>
</svg>
