<svg width="512" height="512" viewBox="0 0 512 512" fill="none" xmlns="http://www.w3.org/2000/svg">
<g clip-path="url(#clip0_6_621)">
<path d="M502 492H474.871L452.049 451.726H478.951C497.175 451.726 512 436.9 512 418.677C512 400.454 497.175 385.629 478.951 385.629H477.656C479.162 381.92 480 377.871 480 373.629C480 365.112 476.649 357.369 471.205 351.629C476.649 345.889 480 338.146 480 329.629C480 311.984 465.645 297.629 448 297.629H312.878C295.233 297.629 280.878 311.984 280.878 329.629C280.878 338.146 284.229 345.889 289.673 351.629C284.229 357.369 280.878 365.112 280.878 373.629C280.878 377.872 281.715 381.921 283.222 385.629H216.647V230.831C231.686 229.847 244.938 222.213 253.469 210.835C262.62 223.04 277.2 230.952 293.594 230.952H317.347C344.974 230.952 367.451 208.486 367.472 180.864C367.472 180.851 367.474 180.839 367.474 180.826C367.474 160.177 364.019 139.919 357.204 120.616C355.365 115.408 349.651 112.677 344.445 114.515C339.237 116.353 336.506 122.066 338.344 127.274C343.298 141.308 346.255 155.918 347.168 170.826H263.355C262.406 127.72 255.34 87.401 243.209 56.391C238.371 44.024 232.854 33.551 226.805 25.108C250.151 31.129 272.026 42.35 290.627 58.13C294.839 61.703 301.148 61.185 304.722 56.974C308.294 52.763 307.777 46.452 303.565 42.879C270.972 15.228 229.449 0 186.646 0C86.938 0 5.82 81.119 5.82 180.827C5.82 208.466 28.306 230.952 55.945 230.952H79.698C96.092 230.952 110.672 223.04 119.823 210.835C128.354 222.213 141.607 229.847 156.645 230.831V385.628H130.395L56.428 311.586C50.187 305.338 41.886 301.897 33.056 301.894C33.053 301.894 33.05 301.894 33.047 301.894C24.22 301.894 15.92 305.332 9.678 311.574C-3.202 324.454 -3.207 345.416 9.668 358.302L100.082 448.794C101.957 450.671 104.502 451.726 107.156 451.726H113.301L90.48 492H10C4.477 492 0 496.477 0 502C0 507.523 4.477 512 10 512H502C507.522 512 512 507.523 512 502C512 496.477 507.522 492 502 492ZM312.878 361.628H448C454.617 361.628 460 367.011 460 373.628C460 380.245 454.617 385.628 448 385.628H312.878C306.261 385.628 300.878 380.245 300.878 373.628C300.878 367.011 306.261 361.628 312.878 361.628ZM312.878 317.628H448C454.617 317.628 460 323.011 460 329.628C460 336.245 454.617 341.628 448 341.628H312.878C306.261 341.628 300.878 336.245 300.878 329.628C300.878 323.011 306.261 317.628 312.878 317.628ZM451.884 492H216.646V451.726H429.061L451.884 492ZM196.646 451.726V492H176.646V451.726H196.646ZM317.347 210.952H293.594C280.487 210.952 269.308 202.537 265.175 190.827H345.767C341.634 202.537 330.454 210.952 317.347 210.952ZM224.584 63.677C235.843 92.461 242.426 130.196 243.355 170.827H129.938C130.867 130.197 137.449 92.461 148.709 63.677C159.407 36.328 173.589 20 186.646 20C199.704 20 213.886 36.328 224.584 63.677ZM146.505 25.082C140.449 33.529 134.925 44.011 130.083 56.391C117.952 87.401 110.887 127.72 109.938 170.826H26.127C30.463 100.431 80.295 42.156 146.505 25.082ZM79.699 210.952H55.945C42.838 210.952 31.658 202.537 27.526 190.827H108.118C103.985 202.537 92.806 210.952 79.699 210.952ZM131.53 190.827H241.763C237.63 202.537 226.451 210.952 213.344 210.952H159.949C146.842 210.952 135.663 202.537 131.53 190.827ZM176.646 230.952H196.646V385.628H176.646V230.952ZM23.818 344.166C18.735 339.078 18.736 330.802 23.822 325.716C26.286 323.252 29.563 321.894 33.048 321.894H33.051C36.538 321.895 39.815 323.254 42.279 325.721L119.175 402.696C121.05 404.573 123.596 405.629 126.25 405.629H478.95C486.145 405.629 491.999 411.483 491.999 418.678C491.999 425.873 486.145 431.726 478.95 431.726H111.302L23.818 344.166ZM136.29 451.726H156.647V492H113.468L136.29 451.726Z" fill="#EC1F28"/>
<path d="M327.295 93.871C332.818 93.871 337.295 89.3938 337.295 83.871C337.295 78.3481 332.818 73.871 327.295 73.871C321.772 73.871 317.295 78.3481 317.295 83.871C317.295 89.3938 321.772 93.871 327.295 93.871Z" fill="#EC1F28"/>
</g>
<defs>
<clipPath id="clip0_6_621">
<rect width="512" height="512" fill="white"/>
</clipPath>
</defs>
</svg>
