<?xml version="1.0" encoding="utf-8"?>
<!-- Generator: Adobe Illustrator 27.9.0, SVG Export Plug-In . SVG Version: 6.00 Build 0)  -->
<svg version="1.1" id="Layer_1" xmlns="http://www.w3.org/2000/svg" xmlns:xlink="http://www.w3.org/1999/xlink" x="0px" y="0px"
	 viewBox="0 0 500 500" style="enable-background:new 0 0 500 500;" xml:space="preserve">
<style type="text/css">
	.st0{fill:#EC1F28;}
</style>
<g>
	<path class="st0" d="M244.09,500c-65.34,0-130.68,0-196.03,0c-9.3,0-11.65-2.33-11.65-11.54c0-78.79-0.03-157.59,0.08-236.38
		c0.01-3.63-0.97-5.54-4.26-7.39c-16.31-9.18-27.35-22.39-30.59-41.4c-0.91-5.35,0.44-9.83,3.06-14.33
		c20.24-34.82,40.46-69.66,60.49-104.6c1.65-2.88,2.59-6.56,2.65-9.88c0.27-15.96,0.09-31.92,0.13-47.88
		C68.01,9.83,77.84,0.01,94.61,0.01C197.92,0,301.22,0,404.53,0.01c16.22,0,26.06,9.82,26.1,25.98c0.04,14.95-0.13,29.91,0.12,44.85
		c0.05,3.16,0.9,6.67,2.47,9.4c20.2,35.23,40.35,70.5,61.11,105.4c4.67,7.84,5.26,15.21,3.14,23.48
		c-5.67,22.12-20.01,36.42-40.79,44.52c-4.11,1.6-5.02,3.53-5.02,7.52c0.1,75.6,0.08,151.2,0.08,226.8
		c0,9.94-2.11,12.03-12.13,12.03C374.44,500,309.26,500,244.09,500z M129.24,224.46c-19.71,25.56-45.82,32.88-76.39,28.33
		c0,77.07,0,153.9,0,230.73c8.79,0,17.25,0,25.99,0c0-2.35,0-4.35,0-6.35c0.04-60.81,0.08-121.63,0.13-182.44
		c0.01-8.74,2.56-11.45,10.83-11.45c42.83-0.01,85.66-0.02,128.5,0.01c7.03,0.01,9.89,2.76,9.91,9.7
		c0.03,9.91-0.26,19.81-0.26,29.72c-0.03,51.91-0.01,103.82-0.01,155.73c0,1.76,0,3.51,0,5.15c69.64,0,138.44,0,207.38,0
		c0-75.12,0-149.95,0-224.74c-39.58-5.21-44.42-7.74-65.73-34.29c-26.91,38.86-91.23,39.67-119.03,1.33
		C223.03,269.89,155.97,268.98,129.24,224.46z M414.27,68.69c0.09-1.87,0.23-3.51,0.23-5.15c0.02-11.93,0.01-23.85,0.01-35.78
		c0-9.43-2.15-11.62-11.45-11.62c-36.27-0.01-72.55,0-108.82,0c-66.34,0-132.67,0-199.01,0c-8.58,0-11.11,2.53-11.13,11.07
		c-0.02,12.09-0.01,24.19-0.01,36.28c0,1.63,0,3.27,0,5.2C194.46,68.69,304.2,68.69,414.27,68.69z M258.5,187.85
		c33.68,0,67.23,0,101.07,0c-0.23-1.08-0.35-1.89-0.58-2.68c-9.41-32.19-18.88-64.36-28.16-96.59c-0.95-3.29-2.81-3.5-5.52-3.5
		c-20.66,0.05-41.32,0.02-61.98,0.05c-1.58,0-3.17,0.25-4.83,0.39C258.5,119.88,258.5,153.62,258.5,187.85z M140.93,187.99
		c34.2,0,67.52,0,101.01,0c0-34.33,0-68.32,0-102.47c-1.24-0.15-2.22-0.37-3.19-0.38c-21.31-0.02-42.62,0.08-63.93-0.11
		c-3.7-0.03-4.4,1.97-5.18,4.67c-5.82,20.12-11.68,40.22-17.55,60.32C148.43,162.53,144.74,175.02,140.93,187.99z M24.12,188.18
		c33.76,0,66.65,0,99.95,0c9.99-34.16,19.97-68.29,29.99-102.53c-1.34-0.29-1.82-0.48-2.31-0.48c-21.66-0.02-43.32-0.13-64.97,0.14
		c-1.88,0.02-4.44,2.09-5.5,3.9c-18.31,31.27-36.43,62.64-54.58,94C25.89,184.61,25.2,186.08,24.12,188.18z M476.59,188.33
		c-0.84-1.8-1.25-2.87-1.81-3.85c-18.48-31.95-37.01-63.87-55.42-95.86c-1.57-2.73-3.45-3.57-6.47-3.56
		c-20.49,0.1-40.97,0.05-61.46,0.07c-1.43,0-2.87,0.21-4.67,0.35c0.37,1.37,0.6,2.31,0.87,3.24c8.38,28.64,16.74,57.28,25.16,85.91
		c1.31,4.46,1.66,10.53,4.72,12.8c3.09,2.29,8.99,0.88,13.66,0.89C419.37,188.35,447.57,188.33,476.59,188.33z M145.1,483.65
		c0-53.21,0-105.98,0-158.62c-16.91,0-33.41,0-49.82,0c0,53.09,0,105.74,0,158.62C111.97,483.65,128.36,483.65,145.1,483.65z
		 M162.01,324.75c0,53.31,0,106.08,0,158.8c16.75,0,33.12,0,49.46,0c0-53.1,0-105.88,0-158.8
		C194.87,324.75,178.62,324.75,162.01,324.75z M139.48,204.75c3.53,23.2,29.2,39.68,57.5,37.18c21.63-1.91,44.13-21.09,43.53-37.18
		C206.84,204.75,173.18,204.75,139.48,204.75z M380.18,204.73c2.15,19.94,24.79,36.93,49.45,37.5c25.43,0.59,48.62-16.04,51.93-37.5
		C447.85,204.73,414.19,204.73,380.18,204.73z M119.85,204.71c-33.87,0-67.39,0-100.95,0c3.01,17.69,24.75,32.69,47.81,33.23
		C92.96,238.55,115.46,224.64,119.85,204.71z M360.14,204.73c-33.8,0-67.27,0-100.77,0c2.28,17.08,24.46,32.57,47.17,33.2
		C333.03,238.66,356.36,224.41,360.14,204.73z M95.36,308.18c38.91,0,77.56,0,116.43,0c0-2.94,0-5.66,0-8.45
		c-38.99,0-77.63,0-116.43,0C95.36,302.69,95.36,305.29,95.36,308.18z"/>
	<path class="st0" d="M413.44,370.32c0,24.86,0.01,49.72-0.01,74.58c-0.01,8.31-2.48,10.78-10.8,10.78
		c-43.83,0.01-87.67,0.01-131.5,0c-8.56,0-10.97-2.45-10.97-11.14c-0.01-49.39-0.01-98.77,0-148.16c0-8.57,2.51-11.09,11.08-11.09
		c43.67-0.01,87.33-0.01,131,0c8.82,0,11.19,2.43,11.19,11.46C413.45,321.27,413.44,345.79,413.44,370.32z M276.43,439.26
		c40.48,0,80.47,0,120.46,0c0-8.39,0-16.47,0-24.41c-40.41,0-80.39,0-120.46,0C276.43,423.12,276.43,430.97,276.43,439.26z
		 M378.71,342.09c6.48,0,12.39,0,18.27,0c0-13.72,0-27.03,0-40.32c-6.26,0-12.17,0-18.27,0
		C378.71,315.31,378.71,328.48,378.71,342.09z M396.89,398.05c0-13.3,0-26.25,0-39.11c-6.24,0-12.06,0-18.12,0c0,13.16,0,26,0,39.11
		C384.88,398.05,390.69,398.05,396.89,398.05z M293.96,342.27c0-13.87,0-27.17,0-40.61c-5.95,0-11.56,0-17.26,0
		c0,13.67,0,27.09,0,40.61C282.57,342.27,288.05,342.27,293.96,342.27z M328.54,342.19c0-13.86,0-27.15,0-40.49
		c-6.14,0-11.91,0-17.86,0c0,13.59,0,26.89,0,40.49C316.71,342.19,322.47,342.19,328.54,342.19z M293.93,398.1
		c0-13.43,0-26.26,0-39.16c-5.98,0-11.6,0-17.23,0c0,13.28,0,26.23,0,39.16C282.62,398.1,288.12,398.1,293.93,398.1z M310.73,358.82
		c0,13.4,0,26.23,0,39.22c6.09,0,11.87,0,17.77,0c0-13.23,0-26.18,0-39.22C322.42,358.82,316.77,358.82,310.73,358.82z
		 M361.93,342.2c0-13.86,0-27.18,0-40.53c-5.73,0-11.04,0-16.57,0c0,13.59,0,26.91,0,40.53C350.98,342.2,356.27,342.2,361.93,342.2z
		 M345.39,358.85c0,13.46,0,26.27,0,39.07c5.81,0,11.24,0,16.59,0c0-13.22,0-26.04,0-39.07
		C356.31,358.85,351.01,358.85,345.39,358.85z"/>
	<path class="st0" d="M120.75,403.2c0-5.19-0.11-10.38,0.03-15.57c0.14-5.37,3.1-8.57,7.71-8.69c4.82-0.12,8.19,3.13,8.28,8.71
		c0.18,10.55,0.18,21.1,0,31.64c-0.09,5.44-3.7,8.96-8.31,8.79c-4.51-0.16-7.55-3.51-7.69-8.81
		C120.64,413.92,120.75,408.56,120.75,403.2z"/>
	<path class="st0" d="M184.81,403.75c0,5.19,0.1,10.39-0.03,15.57c-0.13,5.25-3.22,8.64-7.73,8.77c-4.43,0.13-8.15-3.27-8.25-8.34
		c-0.21-10.88-0.22-21.77,0.01-32.65c0.11-5.19,3.64-8.3,8.3-8.16c4.6,0.14,7.55,3.37,7.67,8.73
		C184.91,393.03,184.81,398.39,184.81,403.75z"/>
</g>
</svg>
