<svg width="644" height="644" viewBox="0 0 644 644" fill="none" xmlns="http://www.w3.org/2000/svg">
<g clip-path="url(#clip0_6_622)">
<path d="M151.218 569.266H129.903V558.609C129.903 555.252 128.321 552.094 125.636 550.08L83.0051 518.107C79.3936 515.396 74.4603 515.26 70.6978 517.769L38.725 539.084C33.8281 542.352 32.5063 548.966 35.7744 553.868C39.0372 558.765 45.6566 560.087 50.5535 556.819L76.2504 539.693L108.588 563.938V579.924C108.588 585.81 113.36 590.582 119.245 590.582H151.218C157.104 590.582 161.876 585.81 161.876 579.924C161.876 574.038 157.104 569.266 151.218 569.266Z" fill="#EC1F28"/>
<path d="M85.4823 563.35C83.7078 560.696 80.8404 558.978 77.666 558.661C74.4916 558.359 71.3433 559.483 69.0796 561.731L5.13388 625.677C2.36019 628.352 1.25176 632.317 2.22489 636.043C3.20323 639.769 6.11221 642.678 9.83822 643.651C13.5642 644.629 17.5244 643.516 20.2044 640.747L74.96 585.987L84.2125 599.845L69.0796 614.978C65.0413 619.156 65.0986 625.807 69.2097 629.918C73.3207 634.029 79.9661 634.086 84.1501 630.048L105.465 608.733C109.056 605.137 109.613 599.506 106.798 595.281L85.4823 563.35Z" fill="#EC1F28"/>
<path d="M151.218 515.978C151.218 527.75 141.674 537.294 129.903 537.294C118.131 537.294 108.588 527.75 108.588 515.978C108.588 504.207 118.131 494.663 129.903 494.663C141.674 494.663 151.218 504.207 151.218 515.978Z" fill="#EC1F28"/>
<path d="M193.848 558.609H476.275C520.42 558.609 556.207 522.822 556.207 478.677C556.207 434.532 520.42 398.745 476.275 398.745H343.055V420.06H476.275C508.649 420.06 534.892 446.303 534.892 478.677C534.892 511.05 508.649 537.294 476.275 537.294H193.848V558.609Z" fill="#EC1F28"/>
<path d="M481.604 313.484H167.204C134.831 313.484 108.588 287.24 108.588 254.867C108.588 222.493 134.831 196.25 167.204 196.25H460.289V174.935H167.204C123.06 174.935 87.2723 210.722 87.2723 254.867C87.2723 299.012 123.06 334.799 167.204 334.799H481.604C558.086 334.887 620.065 396.866 620.153 473.348V484.005C620.065 560.487 558.086 622.466 481.604 622.554H193.848V643.87H481.604C569.852 643.771 641.364 572.253 641.468 484.005V473.348C641.364 385.1 569.852 313.583 481.604 313.484Z" fill="#EC1F28"/>
<path d="M172.533 89.6738H460.289V110.989H172.533V89.6738Z" fill="#EC1F28"/>
<path d="M193.849 398.745H161.876C85.3938 398.656 23.4152 336.678 23.3267 260.196V249.538C23.3215 225.22 29.7119 201.329 41.8578 180.264L23.4204 169.606C9.39063 193.908 2.00627 221.473 2.01148 249.538V260.196C2.11035 348.444 73.6225 419.961 161.876 420.06H193.849V398.745Z" fill="#EC1F28"/>
<path d="M513.577 47.0433V44.0823C521.929 39.2583 526.004 29.4229 523.506 20.1027C521.008 10.7825 512.567 4.30359 502.919 4.30359C493.271 4.30359 484.825 10.7825 482.327 20.1027C479.829 29.4229 483.904 39.2583 492.262 44.0823V249.538H470.946V270.853H534.892V249.538H513.577V153.619H641.468V47.0433H513.577ZM620.153 89.6738H598.838V68.3585H620.153V89.6738ZM556.207 89.6738V68.3585H577.523V89.6738H556.207ZM577.523 110.989V132.304H556.207V110.989H577.523ZM534.892 68.3585V89.6738H513.577V68.3585H534.892ZM513.577 110.989H534.892V132.304H513.577V110.989ZM598.838 132.304V110.989H620.153V132.304H598.838Z" fill="#EC1F28"/>
<path d="M257.794 494.663V526.636H279.109V494.663H343.268L285.963 452.033H343.268L285.963 409.402H326.35L268.025 351.701L210.896 409.402H250.441L194.062 452.033H250.441L194.062 494.663H257.794ZM268.16 465.355L278.896 473.348H257.581L268.16 465.355ZM268.16 381.842L274.462 388.087H262.056L268.16 381.842ZM278.818 430.717H257.503L268.087 422.724L278.818 430.717Z" fill="#EC1F28"/>
<path d="M65.9572 142.962V174.935H87.2724V142.962H151.431L94.1259 100.331H151.431L94.1259 57.701H134.514L76.1881 0L19.0595 57.701H58.604L2.22485 100.331H58.604L2.22485 142.962H65.9572ZM76.3234 113.653L87.059 121.647H65.7438L76.3234 113.653ZM76.3234 30.1411L82.6565 36.3858H70.2192L76.3234 30.1411ZM87.059 79.0162H65.7438L76.3234 71.023L87.059 79.0162Z" fill="#EC1F28"/>
</g>
<defs>
<clipPath id="clip0_6_622">
<rect width="644" height="644" fill="white"/>
</clipPath>
</defs>
</svg>
