<svg width="168" height="168" viewBox="0 0 168 168" fill="none" xmlns="http://www.w3.org/2000/svg">
<path d="M101.309 40.5717C101.309 39.2549 101.776 38.7089 102.624 37.718C103.683 36.4819 105.132 34.7895 105.132 31.6408C105.132 30.2722 104.022 29.1624 102.653 29.1624C101.284 29.1624 100.175 30.2718 100.175 31.6408C100.175 32.9572 99.7077 33.5032 98.8591 34.4941C97.8009 35.7299 96.3519 37.4227 96.3519 40.5714C96.3519 43.7204 97.8009 45.4132 98.8591 46.6492C99.7077 47.6402 100.175 48.1861 100.175 49.5032C100.175 50.82 99.7077 51.3663 98.8591 52.3573C97.8009 53.5933 96.3519 55.2861 96.3519 58.4351C96.3519 59.8037 97.4613 60.9135 98.8302 60.9135C100.199 60.9135 101.309 59.8037 101.309 58.4355C101.309 57.1184 101.776 56.5724 102.624 55.5811C103.683 54.3451 105.132 52.6526 105.132 49.5036C105.132 46.3546 103.683 44.6618 102.624 43.4257C101.776 42.4348 101.309 41.8888 101.309 40.5717Z" fill="#EC1F28"/>
<path d="M123.853 40.5717C123.853 39.2549 124.32 38.7089 125.169 37.718C126.227 36.4819 127.676 34.7895 127.676 31.6408C127.676 30.2722 126.566 29.1624 125.197 29.1624C123.828 29.1624 122.719 30.2718 122.719 31.6408C122.719 32.9572 122.251 33.5032 121.403 34.4941C120.345 35.7299 118.896 37.4227 118.896 40.5714C118.896 43.7204 120.345 45.4132 121.403 46.6492C122.251 47.6402 122.719 48.1861 122.719 49.5032C122.719 50.82 122.251 51.3663 121.403 52.3573C120.345 53.5933 118.896 55.2861 118.896 58.4351C118.896 59.8037 120.005 60.9135 121.374 60.9135C122.743 60.9135 123.853 59.8037 123.852 58.4355C123.852 57.1184 124.32 56.5724 125.168 55.5811C126.226 54.3451 127.675 52.6526 127.675 49.5036C127.675 46.3546 126.226 44.6618 125.168 43.4257C124.32 42.4348 123.853 41.8888 123.853 40.5717Z" fill="#EC1F28"/>
<path d="M147.371 40.5717C147.371 39.2549 147.838 38.7089 148.687 37.718C149.745 36.4819 151.194 34.7895 151.194 31.6408C151.194 30.2722 150.084 29.1624 148.715 29.1624C147.347 29.1624 146.237 30.2718 146.237 31.6408C146.237 32.9572 145.77 33.5032 144.921 34.4941C143.863 35.7299 142.414 37.4227 142.414 40.5714C142.414 43.7204 143.863 45.4132 144.921 46.6492C145.77 47.6402 146.237 48.1861 146.237 49.5032C146.237 50.82 145.77 51.3663 144.921 52.3573C143.863 53.5933 142.414 55.2861 142.414 58.4351C142.414 59.8037 143.524 60.9135 144.892 60.9135C146.262 60.9135 147.371 59.8037 147.371 58.4355C147.371 57.1184 147.838 56.5724 148.687 55.5811C149.745 54.3451 151.194 52.6526 151.194 49.5036C151.194 46.3546 149.745 44.6618 148.687 43.4257C147.838 42.4348 147.371 41.8888 147.371 40.5717Z" fill="#EC1F28"/>
<path d="M140.669 149.566H125.017C125.622 148.565 126.059 147.456 126.299 146.271C126.864 143.491 126.284 140.68 124.668 138.351L96.474 95.0532C96.0166 94.351 95.235 93.9271 94.397 93.9271H85.6209C87.3908 90.5084 86.8783 86.1945 84.0486 83.2893L61.0519 59.6804V51.9488C61.0519 44.9587 57.3772 38.8139 51.8611 35.3338C57.2099 31.8593 60.6303 25.8392 60.6303 19.2134C60.6299 8.61919 52.0111 0 41.4163 0C30.8224 0 22.2032 8.61919 22.2032 19.2134C22.2032 25.8392 25.6236 31.859 30.972 35.3338C25.4559 38.8139 21.7813 44.9584 21.7813 51.9488V109.144C21.7813 110.848 22.2268 112.449 23.0055 113.841H20.6505C18.5308 113.841 16.8065 115.565 16.8065 117.685V128.262C16.8065 130.382 18.5308 132.106 20.6505 132.106H27.5126V163.744C27.5126 166.052 29.3898 167.929 31.6975 167.929H38.5347C40.8424 167.929 42.7196 166.052 42.7196 163.744V132.106H66.1378V148.298C66.1378 149.667 67.2472 150.776 68.6162 150.776C69.9851 150.776 71.0945 149.667 71.0945 148.298V131.494C71.0945 129.098 69.1454 127.149 66.7501 127.149H21.7632V118.798H79.443H79.4459V150.148C79.4459 152.56 81.4081 154.523 83.8202 154.523H139.752V163.043H71.0945V159.83C71.0945 158.461 69.9851 157.352 68.6162 157.352C67.2472 157.352 66.1378 158.461 66.1378 159.83V163.656C66.1378 166.051 68.0869 168 70.4822 168H140.669C142.897 168 144.71 166.188 144.71 163.959V153.606C144.71 151.378 142.897 149.566 140.669 149.566ZM32.4693 132.106H37.7626V162.972H32.4693V132.106ZM80.4982 86.7487C81.2864 87.5579 81.712 88.6252 81.6972 89.7547C81.6824 90.8841 81.2286 91.94 80.4195 92.7285C79.6103 93.5166 78.5429 93.9494 77.4135 93.9274C76.2841 93.9127 75.2282 93.4589 74.4397 92.6497L37.3039 54.5255C36.5157 53.7164 36.0901 52.649 36.1049 51.5196C36.1197 50.3902 36.5735 49.3343 37.3826 48.5458C38.178 47.7711 39.2234 47.3465 40.3315 47.3465C40.3505 47.3465 40.3695 47.3465 40.3882 47.3468C41.5176 47.3616 42.5735 47.8154 43.362 48.6245L80.4982 86.7487ZM68.7645 93.9274H61.0516V86.0094L68.7645 93.9274ZM27.1599 19.2134C27.1599 11.3521 33.5554 4.95698 41.4163 4.95698C49.2771 4.95698 55.673 11.3525 55.673 19.2134C55.673 25.4271 51.6226 30.9261 45.7498 32.7961C45.6986 32.7846 45.6468 32.7767 45.5956 32.7659C45.3698 32.7167 45.1424 32.673 44.9141 32.632C44.8009 32.6117 44.6883 32.5897 44.5751 32.5713C44.3307 32.5316 44.0842 32.4988 43.8372 32.4683C43.7354 32.4558 43.634 32.4404 43.5323 32.4293C43.2698 32.401 43.0054 32.381 42.7399 32.363C42.6516 32.3571 42.5637 32.3475 42.4754 32.343C42.1247 32.3243 41.7719 32.3134 41.4166 32.3134C41.0612 32.3134 40.7085 32.3239 40.3577 32.343C40.2701 32.3475 40.1832 32.3571 40.0955 32.363C39.8291 32.3807 39.5637 32.401 39.3005 32.4293C39.1994 32.4401 39.0994 32.4552 38.9986 32.4676C38.7502 32.4982 38.5028 32.5313 38.2574 32.571C38.1448 32.5894 38.0326 32.611 37.9204 32.6314C37.6914 32.6727 37.4637 32.7164 37.2376 32.7656C37.1864 32.7767 37.1345 32.7843 37.0834 32.7958C31.2103 30.9258 27.1599 25.4267 27.1599 19.2134ZM31.435 113.841C28.8448 113.841 26.7379 111.734 26.7379 109.144V90.2619H28.5206C29.8895 90.2619 30.9989 89.1525 30.9989 87.7836C30.9989 86.4147 29.8895 85.3053 28.5206 85.3053H26.7379V51.9488C26.7379 45.1375 31.4019 39.396 37.7035 37.7472C37.9818 37.6747 38.2623 37.61 38.5445 37.5542C38.5934 37.5444 38.6433 37.5368 38.6925 37.5277C38.9383 37.4817 39.1847 37.4414 39.4324 37.4079C39.4938 37.3997 39.5555 37.3918 39.6171 37.3843C39.8731 37.3531 40.1297 37.3282 40.3866 37.3101C40.4253 37.3075 40.4637 37.3035 40.5024 37.3013C41.1104 37.2638 41.7208 37.2638 42.3284 37.3013C42.3691 37.3039 42.4092 37.3075 42.4498 37.3104C42.7048 37.3282 42.9588 37.3528 43.2124 37.3839C43.2761 37.3918 43.3394 37.3997 43.4027 37.4082C43.6485 37.4414 43.8933 37.4814 44.1371 37.527C44.1873 37.5365 44.2385 37.5441 44.2887 37.5542C44.5712 37.61 44.8517 37.6747 45.1303 37.7475C51.4313 39.3967 56.0946 45.1379 56.0946 51.9484V54.5918L46.9127 45.1654C43.3784 41.537 37.5519 41.4606 33.9235 44.9951C30.2954 48.5294 30.219 54.3562 33.7532 57.9843L56.0949 80.9205V85.3046H40.0529C38.684 85.3046 37.5746 86.414 37.5746 87.783C37.5746 89.1519 38.684 90.2613 40.0529 90.2613H56.0949V96.4054C56.0949 97.774 57.2043 98.8837 58.5733 98.8837H75.1295L69.5477 113.841H31.435ZM84.4033 149.566V118.798H88.8083L107.409 149.566H84.4033ZM121.441 145.285C121.147 146.734 120.295 147.965 119.041 148.75C118.2 149.277 117.273 149.538 116.354 149.566H115.986C114.355 149.501 112.784 148.689 111.792 147.233L92.3275 115.037C91.8786 114.294 91.0744 113.841 90.2065 113.841H74.8387L80.4205 98.8844H93.053L120.535 141.089C120.55 141.112 120.566 141.135 120.582 141.157C121.43 142.37 121.735 143.835 121.441 145.285Z" fill="#EC1F28"/>
</svg>
