<svg width="683" height="683" viewBox="0 0 683 683" fill="none" xmlns="http://www.w3.org/2000/svg">
<g clip-path="url(#clip0_67_31)">
<path d="M252.933 1.86671C250.267 2.80005 246.933 4.53338 245.733 5.46671C230.4 17.6 85.0668 143.333 83.0668 146.133C72.5334 161.2 77.0668 182.933 92.5334 192.667C98.5334 196.267 100.133 196.667 110.267 196.667H121.333V230.267V264H74.9334C28.9334 264 28.4001 264 22.6667 267.067C18.6667 269.2 15.8667 272 13.7334 276L10.6667 281.733V448.933V616L209.067 616.267L407.333 616.667L407.733 649.6L408 682.667H540.133H672.267L671.6 646.933C670.933 606.4 670.4 602.933 660.4 582.667C655.2 572 652.4 568.133 642.133 557.867C632 547.867 627.867 544.8 617.333 539.6C610.4 536.133 601.2 532.667 597.067 531.733L589.467 530.133L599.867 519.333C613.6 504.667 623.467 485.733 626 468.8C626.933 462.933 626.933 462.933 633.067 462C648 459.867 661.333 450 667.867 436.133C671.333 428.8 671.333 428.267 671.733 394C672 372.4 671.6 354.533 670.667 346.667C666.667 314.933 653.867 287.733 632.133 264.933C611.067 242.933 586.4 229.2 555.333 222.4C549.733 221.2 535.2 220.667 506 220.667C467.6 220.667 463.867 220.933 452.933 223.733C438.667 227.333 422.933 233.467 414.4 238.8L408 242.667V219.6V196.667L416.267 197.067C426.8 197.733 432.667 195.867 439.6 190C447.333 183.333 451.2 174.933 451.067 164.533C450.933 148.933 452.267 150.4 364 74.5334C320.4 37.2 282.267 5.20005 279.333 3.73338C272.667 0.266712 259.733 -0.666621 252.933 1.86671ZM267.467 22.2667C268.8 22.8 305.467 53.6 348.933 90.9334C403.333 137.467 428.267 159.733 428.8 162C430.267 167.6 428.267 171.867 423.333 174.267C419.867 175.867 417.733 176.133 415.333 175.2C413.467 174.533 379.2 145.867 339.2 111.6C299.2 77.3334 265.867 48.9334 264.933 48.5334C264 48.2667 230 76.5334 189.333 111.333C148.667 146.267 114 175.067 112.267 175.6C105.333 177.333 97.7334 170 99.3334 162.8C100 159.733 115.733 145.6 177.6 92.4001C246.933 32.9334 261.067 21.3334 264.267 21.3334C264.667 21.3334 266.133 21.7334 267.467 22.2667ZM325.333 128.8L385.333 180.267V220.267V260.267L378.267 267.867C365.333 281.867 353.467 302.667 348 320.933L345.067 330.667H189.2H33.3334V308.667V286.667H88.0001H142.667V233.6V180.533L202.933 128.933C236 100.533 263.6 77.3334 264.267 77.3334C264.933 77.3334 292.4 100.533 325.333 128.8ZM557.467 245.867C580.667 251.733 598.133 261.733 614.667 278.533C637.867 302 649.333 330.4 649.333 364.533V379.733L642.667 377.2C638.933 375.867 634 374.667 631.467 374.667C627.2 374.667 626.8 374.267 624.8 368.533C619.867 354 608.533 341.333 594.933 334.933L587.333 331.333L511.6 330.667L435.733 330L432.533 326.267C428.267 321.2 428.4 316.667 433.2 311.867C436.667 308.533 438.133 308 444.533 308H452V297.2V286.4L440.933 286.8C431.333 287.333 428.933 287.867 423.2 291.333C415.867 296 409.6 304.8 408.4 312.8C407.867 316.533 405.867 319.867 401.333 324.8C390.4 336.4 385.333 349.733 385.333 366.667C385.333 374.667 385.333 374.667 381.333 374.667C379.2 374.667 374.4 375.867 370.667 377.2L364 379.733V364C364 346 366.133 334.133 372 318.667C386 282.533 420.533 253.2 459.067 244.8C464.933 243.467 478.933 242.933 506.133 242.8C542.933 242.667 545.6 242.8 557.467 245.867ZM429.467 350C434 351.6 447.067 352 505.2 352C582.8 352 584.133 352.133 593.867 360.267C596.667 362.533 600.4 367.467 602.133 371.2C605.2 377.867 605.333 378.667 605.333 419.333C605.333 451.067 604.8 462.667 603.333 468.933C596.933 496.4 574.667 519.067 547.333 526C536 528.933 477.333 528.933 466 526C439.333 519.2 417.067 497.2 410 470.667C408.4 464.8 408 452.267 408 409.2V355.2L411.467 348.267L414.933 341.2L419.467 344.667C421.867 346.533 426.4 348.933 429.467 350ZM341.6 390.267C342 428.4 342 428.667 345.467 436C348.8 443.067 354.4 450 361.333 455.333L364.667 458L364 526L363.333 594L352.4 594.4L341.333 594.8V530.4C341.333 480.267 340.933 464 339.467 457.2C333.333 428.267 308.933 404.267 279.333 398C267.6 395.6 260.4 395.467 248.667 398C220.8 403.867 198.267 425.067 189.733 453.333C187.867 459.6 187.467 470.4 187.067 527.6L186.533 594.667H175.867H165.333V530.933C165.333 459.733 164.933 455.867 156.533 438.667C144.4 414 115.467 396 88.0001 396C72.6668 396 54.8001 402.267 41.7334 412.267L33.3334 418.533V385.333V352H187.2H341.2L341.6 390.267ZM385.333 418C385.333 439.467 385.333 440 382.533 440C378.533 440 370.533 435.2 367.333 430.933C365.6 428.667 364.533 424.667 364.267 419.333C363.867 412.667 364.267 410.533 366.933 406.667C369.867 402.267 379.733 396 383.6 396C384.933 396 385.333 400.933 385.333 418ZM636.8 398.533C644.4 402 648.4 408.133 649.067 417.2C649.467 423.333 649.067 425.467 646.4 429.333C642.533 434.933 635.333 440 631.2 440H628V418C628 401.333 628.4 396 629.733 396C630.533 396 633.733 397.2 636.8 398.533ZM110.933 423.6C122.667 429.067 132.267 438.667 137.733 450.4L142 459.333L142.4 526.933L142.8 594.667H88.0001H33.2001L33.6001 526.933L34.0001 459.333L38.2667 450.4C45.0667 436 56.9334 425.733 72.6668 420.4C76.0001 419.333 82.6668 418.8 90.0001 419.067C100.267 419.333 103.333 420 110.933 423.6ZM288.4 424.4C300 430.133 308.533 438.667 314.267 450.4L318 458L318.4 526.267L318.8 594.667H264H209.333V530.133C209.333 469.6 209.467 465.067 212 457.067C217.067 440.667 230.4 427.067 246.933 421.067C252.4 419.2 256.8 418.667 266.133 419.067C277.067 419.333 279.333 420 288.4 424.4ZM395.733 494.933C404.533 512.933 420 528.8 438.267 538.933L446.533 543.467L439.333 549.067C427.733 558.133 414.667 577.733 411.2 591.2C410.4 594.667 410.267 594.667 397.867 594.667H385.333L385.467 529.6V464.667L388.533 475.467C390.133 481.467 393.333 490.267 395.733 494.933ZM528.267 553.6C531.067 555.2 534.8 558.667 536.4 561.333C539.2 565.867 539.333 567.2 539.733 612.933L540.133 660H518H496V613.333C496 563.333 496 562.8 502.933 556.4C509.733 550 519.867 548.933 528.267 553.6ZM590.533 552.667C611.867 557.733 631.333 573.467 641.2 593.467C644.133 599.6 647.067 607.2 647.467 610.4L648.4 616.133L620.533 615.733C593.2 615.333 592.533 615.2 585.867 611.733C577.067 607.067 567.467 596.4 564.667 588.133C563.6 584.667 562 576.933 561.333 570.933C560.667 564.933 559.2 558.267 558 556.133C556.933 553.867 556 551.867 556 551.333C556 549.867 582.533 550.8 590.533 552.667ZM476.533 556.267C473.867 564.933 473.333 572.267 473.333 614.267V660H451.333H429.333V634.933C429.333 598.667 432.533 588.133 448.133 571.467C453.867 565.333 459.067 561.333 465.6 558C476.667 552.533 477.867 552.267 476.533 556.267ZM567.067 625.867C580.667 636.133 592.133 638.667 624.4 638.667H649.333V649.333V660H605.333H561.333V641.333C561.333 631.067 561.733 622.667 562.133 622.667C562.533 622.667 564.8 624.133 567.067 625.867Z" fill="#EC1F28"/>
<path d="M247.2 133.867C221.334 139.867 198.667 160.8 190.534 186.667C186.4 199.867 186.667 218.667 191.2 232.933C202.267 267.2 238.4 290.267 273.334 285.333C303.867 280.933 326 263.067 337.067 233.6C341.734 221.2 342 199.733 337.734 186C330.534 162.933 310.8 143.067 288.134 135.867C276.934 132.267 258.134 131.467 247.2 133.867ZM264 176H274.667V166C274.667 156.4 274.8 156 277.734 156C283.467 156 296.8 163.867 303.867 171.333C310.934 178.8 317.334 190.267 317.334 195.6C317.334 198.533 316.8 198.667 307.334 198.667H297.334V209.333V220H308H318.534L316.8 225.067C310.134 243.867 295.467 258 278.4 262.133L274.667 262.933V252.8V242.667H264H253.334V252.8V262.933L249.734 262.133C235.734 258.8 218.534 243.467 213.467 230C211.867 225.867 210.667 222 210.667 221.333C210.667 220.533 215.2 220 220.667 220H230.667V209.333V198.667H220.667C208.934 198.667 208.667 198.267 214.134 186.667C220.667 172.533 231.867 162.267 245.734 157.333L252.667 154.8L253.067 165.467L253.467 176H264Z" fill="#EC1F28"/>
<path d="M256.134 202.133C250.4 209.467 255.067 220 264 220C273.067 220 278.134 208.133 272 201.6C267.867 197.2 259.734 197.6 256.134 202.133Z" fill="#EC1F28"/>
<path d="M450.8 376.533C444.4 378.8 436.4 386 433.067 392.4C431.2 396.133 430 401.333 429.6 408.4L428.933 418.8L440.133 418.4L451.333 418L452 409.867C452.4 405.333 453.467 400.8 454.4 399.6C456.933 396.667 463.333 395.467 466.933 397.467C472 400.133 473.2 402.933 473.333 411.067V418.8L484.4 418.4L495.333 418L495.733 412.933C496.4 404.667 493.467 393.733 488.933 387.6C480.667 376.667 464 371.733 450.8 376.533Z" fill="#EC1F28"/>
<path d="M536.533 377.867C524.4 383.467 517.333 395.867 517.333 411.6V418.667H528.667H540V411.2C540 402.267 541.333 399.6 546.667 397.333C549.867 396 551.467 396 554.667 397.333C560 399.6 561.333 402.267 561.333 411.2V418.667H572.667H584V411.6C584 390 570.133 374.667 550.667 374.667C545.733 374.667 541.067 375.733 536.533 377.867Z" fill="#EC1F28"/>
<path d="M452.267 452.933C452.667 463.467 453.467 467.467 456.267 473.733C466.4 495.6 492.4 509.733 514.8 505.6C542.933 500.4 561.333 478.4 561.333 449.733V440H506.533H451.733L452.267 452.933ZM537.333 463.867C537.333 467.333 528 477.067 521.467 480.267C507.2 487.6 489.867 483.6 480.4 470.933C478 467.733 476 464.533 476 463.867C476 463.2 488.8 462.667 506.667 462.667C524.533 462.667 537.333 463.2 537.333 463.867Z" fill="#EC1F28"/>
</g>
<defs>
<clipPath id="clip0_67_31">
<rect width="682.667" height="682.667" fill="white"/>
</clipPath>
</defs>
</svg>
