<?xml version="1.0" encoding="utf-8"?>
<!-- Generator: Adobe Illustrator 27.9.0, SVG Export Plug-In . SVG Version: 6.00 Build 0)  -->
<svg version="1.1" id="Layer_1" xmlns="http://www.w3.org/2000/svg" xmlns:xlink="http://www.w3.org/1999/xlink" x="0px" y="0px"
	 viewBox="0 0 500 500" style="enable-background:new 0 0 500 500;" xml:space="preserve">
<style type="text/css">
	.st0{fill:#EC1F28;}
</style>
<g>
	<path class="st0" d="M232.44,0c25.72,0,51.44,0,77.16,0c0.41,0.25,0.78,0.62,1.22,0.72c27.38,5.94,42.78,24.97,42.82,52.98
		c0.02,15.13,0,30.26,0,45.4c0,5.66,0,11.32,0,17.01c1.16,0.35,1.91,0.64,2.69,0.81c12.37,2.56,17.84,9.17,17.88,21.7
		c0.02,7.48,0.11,14.97-0.04,22.45c-0.32,16.41-11.48,29.14-27.69,31.46c-3,0.43-4.4,1.55-5.26,4.51
		c-3.87,13.33-10.68,25.05-20.09,35.27c-0.96,1.04-2.31,2.33-2.34,3.54c-0.21,8.24-0.11,16.49-0.11,25.15
		c3.02,0,5.46-0.18,7.86,0.04c3.68,0.33,6.22-0.52,8.4-4.04c2.92-4.7,8.02-6.6,13.46-6.66c13.5-0.14,27.02-0.23,40.52,0
		c8.32,0.14,14.58,5.02,16.66,12.57c0.68,2.45,0.94,5.17,0.7,7.7c-0.46,4.73,1.18,7.37,5.42,10.01
		c7.69,4.78,14.69,10.68,21.88,16.24c1.22,0.95,2.37,2.39,2.84,3.83c1.05,3.21,0.33,6.21-2.69,8.12c-3.14,1.98-6.16,1.45-8.99-0.86
		c-5.72-4.68-11.48-9.32-17.99-14.59c0,46.97,0,92.53,0,137.99c18.7,0,37.03,0,55.45,0c0-13.67,0.78-27.06-0.24-40.31
		c-0.87-11.41-3.06-22.85-6.06-33.91c-2.14-7.88-6.5-15.17-10.04-22.64c-2.25-4.76-1.71-8.51,1.95-10.67
		c3.73-2.21,7.75-0.77,10.53,3.78c0.17,0.28,0.35,0.55,0.51,0.83c11.39,20.05,17.55,41.59,17.7,64.65
		c0.21,30.59-0.08,61.18,0.18,91.77c0.06,7.21-2.39,12.2-8.92,15.16c-94.74,0-189.48,0-284.22,0c-1.28-1.61-3.05-3.04-3.74-4.87
		c-1.93-5.11,1.82-9.38,8.32-9.42c16.27-0.1,32.54-0.03,48.81-0.05c1.87,0,3.75-0.18,5.98-0.3c0-2.29,0-4.05,0-5.81
		c0-19.85-0.13-39.7,0.08-59.55c0.06-5.39-1.12-9.08-5.43-13.22c-21.48-20.61-42.39-41.82-63.28-63.03
		c-9.84-9.98-16.5-22.06-18.04-36c-1.37-12.39-1.09-24.98-1.31-37.48c-0.07-4.12-1.49-5.8-5.78-5.72
		c-11.55,0.21-23.1,0.06-34.66,0.07c-6.37,0.01-6.77,0.4-6.77,7.02c-0.01,30.1-0.01,60.2,0.01,90.3c0,1.58,0.15,3.17,0.24,4.85
		c6.81,0,13.21,0,19.95,0c0-2.1,0-3.86,0-5.63c0-12.04-0.06-24.08,0.04-36.12c0.04-4.82,2.78-7.7,6.92-7.79
		c4.21-0.09,6.95,2.64,7.34,7.42c0.11,1.29,0.04,2.6,0.04,3.9c0,11.55,0.09,23.1-0.06,34.65c-0.04,3.03,0.72,4.45,3.85,5.5
		c11.42,3.84,18.78,13.91,18.85,25.83c0.15,26.03,0.16,52.06-0.01,78.09c-0.08,11.72-7.45,21.54-18.49,25.65
		c-1.33,0.49-2.59,1.13-3.89,1.71c-36.79,0-73.58,0-110.37,0c-6.55-2.95-8.99-7.94-8.93-15.16c0.25-30.11-0.36-60.23,0.22-90.33
		c0.95-48.87,22.35-86.74,63.46-113.17c4.97-3.19,7.08-6.17,6.86-12.13c-0.45-11.71,6.9-18.83,18.67-18.94
		c12.53-0.11,25.07-0.04,37.6-0.02c6.98,0.01,12.64,2.53,16.55,8.57c0.61,0.94,1.86,1.98,2.88,2.05c3.82,0.24,7.65,0.1,11.86,0.1
		c0-8.55,0.1-16.33-0.09-24.11c-0.04-1.42-1.01-3.07-2.04-4.16c-9.75-10.4-16.62-22.45-20.63-36.08c-0.81-2.75-2.03-3.81-4.87-4.35
		c-14.83-2.84-25.53-15.65-25.8-30.72c-0.16-8.46-0.14-16.93-0.01-25.39c0.14-8.9,5.82-16.61,14.4-18.68
		c3.64-0.88,4.11-2.5,4.1-5.66c-0.1-20.67-0.25-41.34,0.05-62.01c0.25-16.69,7.22-30.51,21.03-39.78
		c6.81-4.57,15.22-6.76,22.91-10.02c4.23,0,8.46,0,12.7,0c3.48,2.18,5.51,5.01,4.22,9.35c-1.37,4.59-5.12,4.54-8.95,5.08
		c-5.73,0.8-11.93,1.15-16.93,3.67c-21.61,10.9-22.84,29.27-20.09,53.69c19.74,0,39.46,0,59.53,0c-1.66-3.52-3.28-6.51-4.53-9.64
		c-6.25-15.67,0.39-30.84,16.14-36.96c8.74-3.4,17.84-3.79,26.91-2.13c23.92,4.38,32.93,23.27,21.61,44.78
		c-0.64,1.22-1.19,2.5-1.95,4.1c20.32,0,40.08,0,60.44,0c0-6.38,0.04-12.53-0.01-18.67c-0.18-23.76-15.45-38.91-39.29-38.94
		c-21-0.03-41.99-0.02-62.99,0c-4.14,0-8.02-0.57-9.44-5.17C226.47,4.8,228.99,2.09,232.44,0z M392.25,485.36c0-2.23,0-4.14,0-6.06
		c0-53.05,0-106.11,0-159.16c0-16.6-0.06-33.2,0.04-49.8c0.02-4.06-1.32-5.88-5.68-5.8c-12.04,0.21-24.09,0.19-36.13,0.01
		c-4.14-0.06-5.46,1.75-5.41,5.56c0.1,7.97,0,15.95,0.03,23.92c0.08,20.6-7.41,37.98-21.99,52.48c-19.5,19.39-38.9,38.9-58.35,58.34
		c-1.38,1.38-2.65,3.06-4.32,3.91c-2.95,1.51-3.46,3.7-3.45,6.74c0.11,21.64,0.06,43.29,0.06,64.93c0,1.57,0,3.15,0,4.91
		C302.36,485.36,347.03,485.36,392.25,485.36z M330.47,150.35c-0.9-0.18-2-0.53-3.11-0.62c-15.38-1.23-29.4-6.41-42.5-14.43
		c-23.3-14.25-46.43-13.84-69.99-0.05c-8.59,5.03-18.15,8.6-27.59,11.93c-5.7,2.01-12.01,2.28-18.29,3.37
		c0,6.83-0.07,13.49,0.01,20.14c0.28,21.9,8.23,40.55,24.07,55.68c9.64,9.21,19.45,18.25,29.33,27.2
		c16.85,15.27,38.47,15.19,55.41-0.16c8.07-7.32,15.7-15.16,24.04-22.14C327.35,209.94,333.93,182.04,330.47,150.35z M181.28,275.67
		c-4.28,0-8.07,0-12.23,0c0,4.87,0.16,9.41-0.03,13.93c-0.81,19.56,6.14,35.66,20.25,49.29c18.84,18.2,37.12,36.98,55.64,55.51
		c4.88,4.88,5.31,4.9,10.08,0.13c18.75-18.76,37.12-37.93,56.37-56.16c18.48-17.5,21.43-39.07,19.13-62.7c-3.88,0-7.67,0-11.67,0
		c-0.1,1.27-0.19,2.22-0.25,3.17c-1.63,27.22-20.06,48.56-47.07,52.52c-11.8,1.73-24.03,0.83-36.06,0.74
		c-13.57-0.1-25.42-5.06-35.46-14.08C187.59,306.86,181.55,292.74,181.28,275.67z M71.54,433.09c0,12.35-0.05,24.71,0.01,37.06
		c0.05,10.57,4.99,15.48,15.56,15.51c15.77,0.04,31.54,0.04,47.31,0c11.35-0.03,16.28-4.96,16.3-16.37c0.04-23.9,0.04-47.79,0-71.69
		c-0.02-11.27-5.1-16.34-16.43-16.4c-15.61-0.08-31.22-0.08-46.82,0c-11.08,0.05-15.89,5.03-15.92,16.28
		C71.52,409.36,71.54,421.22,71.54,433.09z M197.23,86.26c-10.57,0-21.14,0.11-31.71-0.06c-3.57-0.06-5.21,0.59-5.12,4.75
		c0.28,12.84,0.08,25.69,0.12,38.54c0.02,5.71,0.8,6.41,6.57,6.31c15.77-0.26,29.74-5.84,43-13.97
		c14.73-9.03,30.78-12.56,48.06-10.8c12.92,1.32,24.46,6.05,35.38,12.82c11.96,7.41,24.99,11.62,39.15,11.94
		c6.11,0.14,6.84-0.53,6.86-6.52c0.03-12.68-0.17-25.37,0.11-38.05c0.09-4.26-1.46-5.08-5.33-5.04
		c-19.84,0.17-39.68,0.26-59.52-0.05c-5.06-0.08-8.61,1.22-11.56,5.32c-3.5,4.87-8.17,7.72-14.54,7.29
		c-6.24-0.42-9.87-4.59-13.33-8.91c-2.12-2.65-4.45-3.72-7.89-3.64C217.4,86.4,207.31,86.26,197.23,86.26z M195.83,248.43
		c0,11.54-0.88,22.12,0.19,32.5c2.12,20.63,17.18,35.15,37.87,36.78c10.67,0.84,21.51,0.85,32.17,0.01
		c21.05-1.65,36.2-16.63,38.11-37.67c0.91-10,0.21-20.15,0.19-30.23c0-0.15-0.5-0.3-1.01-0.59c-5.06,4.67-10.07,9.55-15.36,14.09
		c-3.81,3.26-7.73,6.56-12.08,9.01c-20.42,11.49-44.95,8.28-62.8-7.94C207.53,259.31,202.02,254.14,195.83,248.43z M57.46,431.4
		c0-1.86,0-3.44,0-5.02c0-10.08-0.04-20.15,0.01-30.23c0.08-17.67,11.34-28.95,28.91-29.03c2.35-0.01,4.7,0,7.06,0
		c0-24.65,0-48.47,0-73.08c-2.61,1.72-4.82,2.99-6.82,4.52c-30.53,23.24-47.15,53.93-48.71,92.36c-0.54,13.41-0.09,26.86-0.09,40.48
		C44.48,431.4,50.72,431.4,57.46,431.4z M406.75,446.23c0,13.36,0,26.23,0,39.1c18.65,0,36.92,0,55.26,0c0-13.21,0-26.07,0-39.1
		C443.44,446.23,425.29,446.23,406.75,446.23z M250.03,84.85c8.24-8.96,16.19-17.49,20.57-28.54c3.16-7.97-0.55-15.48-8.84-18.14
		c-7.77-2.5-15.7-2.5-23.48-0.01c-8.46,2.71-12.13,10.4-8.73,18.58C234.06,67.54,241.82,76.01,250.03,84.85z M58.59,485.44
		c-0.56-13.19-1.1-26.02-1.65-39.1c-6.29,0-12.52,0-18.96,0c0,13.15,0,26.01,0,39.1C45.43,485.44,52.51,485.44,58.59,485.44z
		 M345.26,178.06c8.43-1.55,14.16-7.43,14.68-16c0.5-8.4,0.31-16.86,0.1-25.29c-0.09-3.55-1.91-6.02-6.24-5.66
		c-0.17,6.36-2.36,11.52-7.22,15.5c-0.82,0.67-1.25,2.25-1.27,3.41C345.22,159.25,345.26,168.48,345.26,178.06z M146.11,131.5
		c-0.41-0.11-0.82-0.22-1.23-0.33c-0.89,1.83-2.51,3.65-2.55,5.5c-0.21,8.76-0.3,17.55,0.16,26.3c0.38,7.3,5.54,12.86,12.28,14.36
		c0-9.23,0.04-18.45-0.05-27.66c-0.01-1.02-0.44-2.4-1.17-2.98C148.66,142.81,146.55,137.61,146.11,131.5z"/>
	<path class="st0" d="M333.05,411.87c11.23,0,22.46-0.05,33.69,0.01c9.62,0.05,14.3,4.75,14.39,14.44
		c0.07,8.62,0.12,17.25-0.02,25.87c-0.14,8.64-5.14,13.62-13.74,13.64c-22.79,0.06-45.57,0.06-68.36,0
		c-8.83-0.02-13.82-5.09-13.9-13.99c-0.08-8.62-0.07-17.25,0-25.87c0.07-9.23,4.9-14.03,14.25-14.09
		C310.59,411.81,321.82,411.87,333.05,411.87z M366.8,426.28c-22.79,0-44.97,0-67.23,0c0,8.57,0,16.76,0,25.13
		c22.57,0,44.77,0,67.23,0C366.8,442.9,366.8,434.71,366.8,426.28z"/>
	<path class="st0" d="M250.53,210.77c5.84,0,11.68-0.07,17.52,0.02c4.98,0.07,8.15,2.97,8.05,7.13c-0.09,3.99-3.15,6.81-7.85,6.84
		c-12.17,0.08-24.33,0.08-36.5,0c-4.69-0.03-7.75-2.89-7.82-6.88c-0.07-4.15,3.11-7.02,8.1-7.08
		C238.2,210.7,244.36,210.77,250.53,210.77z"/>
	<path class="st0" d="M219.33,157.51c0.08,5.02-4.2,9.37-9.22,9.37c-4.9,0.01-8.94-3.94-9.1-8.88c-0.17-5.22,3.73-9.43,8.86-9.56
		C214.95,148.32,219.25,152.44,219.33,157.51z"/>
	<path class="st0" d="M289.71,148.45c5.15-0.12,9.29,3.92,9.33,9.1c0.04,5.17-4.06,9.36-9.14,9.35c-4.82-0.02-8.99-4.06-9.18-8.92
		C280.52,152.91,284.62,148.56,289.71,148.45z"/>
	<path class="st0" d="M110.47,447.42c-4.88,0-9.77,0.12-14.65-0.04c-4.54-0.14-7.19-2.8-7.25-6.87c-0.06-4.08,2.56-6.99,7.04-7.06
		c9.93-0.17,19.86-0.16,29.78,0.01c4.31,0.07,7.21,3.25,7.13,7.09c-0.08,3.84-3.03,6.71-7.4,6.84
		C120.24,447.53,115.36,447.42,110.47,447.42z"/>
	<path class="st0" d="M110.36,477.69c-4.86,0-9.73,0.12-14.58-0.04c-4.51-0.15-7.14-2.82-7.2-6.87c-0.06-4.06,2.55-6.98,6.98-7.06
		c9.88-0.17,19.77-0.16,29.65-0.02c4.34,0.06,7.25,3.03,7.32,6.86c0.07,3.99-2.99,6.98-7.59,7.1
		C120.08,477.8,115.22,477.7,110.36,477.69z"/>
	<path class="st0" d="M95.74,398.46c4.89,0.12,8.88,4.32,8.69,9.18c-0.18,4.89-4.35,8.68-9.32,8.48c-4.81-0.2-8.38-3.98-8.35-8.86
		C86.8,402.28,90.82,398.34,95.74,398.46z"/>
</g>
</svg>
