<svg width="682" height="683" viewBox="0 0 682 683" fill="none" xmlns="http://www.w3.org/2000/svg">
<path d="M178.8 2.80816C174.4 6.27482 174 13.3415 178 17.3415C182 21.3415 189.067 20.9415 192.533 16.5415C196.267 11.8748 196 7.34149 192 3.34149C188 -0.65851 183.467 -0.925176 178.8 2.80816Z" fill="#EC1F28"/>
<path d="M333.067 4.94141C325.733 12.8081 299.067 48.8081 290.667 62.0081C281.467 76.5414 269.733 100.408 266.533 111.341C264.933 116.541 264.133 123.608 264.133 131.341C264.267 153.741 272.8 173.875 289.333 190.141C317.2 217.741 358.533 219.608 388.533 194.675C413.467 173.875 424.4 137.608 414.667 108.408C409.733 93.7414 399.2 73.6081 386.667 54.6747C376.267 38.9414 355.733 11.7414 348.267 3.60808C343.333 -1.59192 338.8 -1.19192 333.067 4.94141ZM353.067 37.6081C376.267 68.8081 392.133 95.4747 397.867 113.208C407.333 142.275 392.133 176.275 363.733 189.741C355.333 193.608 353.6 194.008 341.333 194.008C329.6 194.008 327.067 193.608 320.133 190.408C308.133 184.675 300.133 178.141 293.467 168.275C281.867 151.075 278.533 130.008 284.667 112.675C288.4 101.875 297.733 83.7414 306.933 69.6081C314.667 57.6081 340.133 22.6747 341.2 22.6747C341.6 22.6747 346.933 29.4747 353.067 37.6081Z" fill="#EC1F28"/>
<path d="M490.8 2.80816C486.4 6.27482 486 13.3415 490 17.3415C494 21.3415 501.067 20.9415 504.533 16.5415C508.267 11.8748 508 7.34149 504 3.34149C500 -0.65851 495.467 -0.925176 490.8 2.80816Z" fill="#EC1F28"/>
<path d="M123.733 26.0081C117.733 30.2747 119.6 41.7414 126.667 43.4747C131.867 44.8081 136.4 42.9414 138.667 38.6747C142.4 31.6081 137.867 24.0081 130 24.0081C128.133 24.0081 125.333 24.9414 123.733 26.0081Z" fill="#EC1F28"/>
<path d="M544.8 27.4747C541.067 32.1414 541.334 36.6747 545.334 40.6747C549.334 44.6747 553.867 44.9414 558.534 41.208C565.734 35.608 561.067 24.008 551.734 24.008C548.8 24.008 546.667 25.0747 544.8 27.4747Z" fill="#EC1F28"/>
<path d="M210.267 34.1414C208.267 35.4747 207.333 37.4747 207.333 40.408C207.333 44.1414 209.333 46.6747 221.067 58.2747C228.533 65.608 235.867 72.1414 237.467 72.5414C241.467 73.7414 247.333 68.808 247.333 64.2747C247.333 61.4747 244.133 57.4747 232.933 46.2747C218.133 31.608 215.733 30.2747 210.267 34.1414Z" fill="#EC1F28"/>
<path d="M449.734 44.9414C442.534 52.1414 436.267 59.3414 435.867 60.9414C434 68.4081 439.867 74.6748 446.267 72.1414C448 71.4748 455.2 64.9414 462.4 57.6081C476.267 43.3414 477.867 39.8748 472.667 34.6748C467.467 29.4748 464 31.0748 449.734 44.9414Z" fill="#EC1F28"/>
<path d="M154.133 59.608C152.267 61.8747 151.6 64.1414 152.133 65.8747C153.067 69.208 209.6 126.408 212.933 127.475C215.333 128.141 220.667 126.008 222.267 123.475C225.733 118.408 223.467 115.475 193.6 85.608C161.467 53.4747 159.733 52.408 154.133 59.608Z" fill="#EC1F28"/>
<path d="M488.134 85.2081C462 111.341 458.934 114.808 458.934 118.808C458.934 124.275 463.6 128.541 468.534 127.341C470.667 126.808 483.6 114.941 501.067 97.6081C526.134 72.4081 530 68.0081 530 64.5414C530 59.4748 526.4 56.0081 521.334 56.0081C518.134 56.0081 512.667 60.6748 488.134 85.2081Z" fill="#EC1F28"/>
<path d="M104.933 91.0747C103.333 92.8081 102 95.8747 102 97.8747C102 102.408 107.467 108.008 112 108.008C116.667 108.008 122 102.408 122 97.6081C122 89.2081 110.8 84.9414 104.933 91.0747Z" fill="#EC1F28"/>
<path d="M564.267 89.4748C558.267 92.9414 559.067 103.608 565.467 106.541C571.6 109.341 575.867 107.741 579.2 101.608C583.733 93.2081 572.933 84.4081 564.267 89.4748Z" fill="#EC1F28"/>
<path d="M136.133 122.941C131.867 128.941 133.333 131.741 147.733 146.275C159.2 157.608 162.267 160.008 165.6 160.008C170.533 160.008 174 156.408 174 151.208C174 148.008 171.467 144.808 160.267 133.608C148.667 122.141 146 120.008 142.4 120.008C139.467 120.008 137.467 120.941 136.133 122.941Z" fill="#EC1F28"/>
<path d="M521.6 134.542C513.733 142.408 507.333 149.608 507.333 150.542C507.333 152.675 510 157.742 511.867 158.942C516.533 162.142 520.267 159.875 534.533 145.342C547.6 132.142 548.933 130.408 548.133 127.075C546.933 122.408 543.867 120.008 539.333 120.008C536.667 120.008 532.533 123.342 521.6 134.542Z" fill="#EC1F28"/>
<path d="M79.3333 168.675C70.8 171.475 60.6667 179.608 56 187.475L52 194.275L42.8 195.075C9.33333 198.008 -9.86667 232.141 5.33333 261.875L8.66667 268.275L4.4 277.075C0.4 285.075 0 287.075 0 297.341C0.133333 306.808 0.666667 309.875 3.73333 316.141C10.8 330.808 26 340.808 43.2 342.275C52.5333 343.075 52.6667 343.075 56 348.675C60.2667 356.008 67.4667 362.275 76.6667 366.541C82.6667 369.341 86 370.008 94.6667 370.008C104.133 370.008 106.533 369.475 114.4 365.608C120.133 362.808 125.067 359.075 128.267 355.341L133.2 349.475L144.8 365.208C156.667 381.341 159.867 383.875 165.2 381.075C172.8 377.075 171.733 372.275 160 356.408C154.533 348.941 150 342.541 150 342.141C150 341.608 151.067 341.341 152.4 341.341C153.6 341.341 158.267 339.608 162.667 337.475C172 333.075 180.933 324.008 184.933 314.941C190.667 302.141 189.2 283.475 181.733 273.075L179.2 269.341L183.6 260.408C187.6 252.275 188 250.141 188 240.008C188 230.541 187.467 227.475 184.533 221.341C177.2 205.875 162.667 196.141 145.333 194.941C136.533 194.408 135.733 194.141 134.133 190.675C131.2 183.875 122 174.941 114.4 171.208C105.2 166.675 88.9333 165.475 79.3333 168.675ZM105.333 186.541C112.4 189.741 118.533 196.808 121.333 205.208C124.267 214.008 126.533 215.208 136.533 213.208C147.2 210.941 155.333 213.208 162.667 220.541C173.867 231.741 174.133 246.941 163.333 259.475C156.8 266.941 156.667 270.408 162.667 277.208C171.867 287.341 173.6 297.208 168 308.941C165.6 314.141 163.2 316.941 158.667 319.875C150.8 324.808 144.933 325.875 135.867 323.875C129.067 322.275 128.4 322.408 125.467 325.208C123.733 326.941 121.867 330.275 121.333 332.808C120.133 339.608 109.6 350.008 102 352.008C87.0667 356.008 73.3333 348.008 67.4667 331.875C64.1333 322.808 61.4667 321.475 51.8667 323.875C31.4667 329.075 12.5333 309.875 17.8667 289.608C18.8 286.541 21.7333 281.341 24.6667 278.008C31.0667 270.675 31.6 265.875 26.5333 261.208C20.9333 256.008 18 248.941 18 240.675C18 222.141 33.7333 209.608 52.1333 213.341C61.4667 215.341 64.6667 213.475 66.9333 204.941C70.1333 193.075 81.7333 184.008 94 184.008C97.3333 184.008 102.4 185.208 105.333 186.541Z" fill="#EC1F28"/>
<path d="M88.9333 202.141C86.4 203.875 86 205.341 86 212.541C86 222.008 88.2667 225.341 94.4 225.341C100.267 225.341 103.333 221.075 103.333 212.941C103.333 201.875 96.5333 196.808 88.9333 202.141Z" fill="#EC1F28"/>
<path d="M37.4666 232.141C32.1333 236.408 33.0666 242.141 39.9999 246.941C49.0666 253.208 57.9999 250.808 57.9999 242.275C57.9999 238.275 55.5999 235.475 48.5333 232.008C42.1333 228.675 41.8666 228.675 37.4666 232.141Z" fill="#EC1F28"/>
<path d="M139.333 232.542C131.333 236.808 128.933 240.808 131.467 246.142C134 251.475 140.133 252.008 147.867 247.475C156.267 242.542 157.333 234.542 150 230.675C146.533 228.808 146.133 228.942 139.333 232.542Z" fill="#EC1F28"/>
<path d="M87.3333 238.542C72.5333 243.342 64.1333 254.408 64.1333 268.942C64.2666 284.542 75.6 296.942 91.0666 298.275C118.133 300.808 134.533 271.475 118.4 249.742C112.133 241.075 96.5333 235.608 87.3333 238.542ZM104 260.275C108.667 265.875 108.533 272.408 103.467 277.475C98.1333 282.675 91.6 282.808 85.8666 277.608C78.5333 271.075 81.0666 258.675 90.4 256.275C96.5333 254.675 100.267 255.742 104 260.275Z" fill="#EC1F28"/>
<path d="M41.0665 288.941C34.3998 292.675 32.5332 297.341 35.4665 302.541C38.6665 308.275 47.7332 307.208 55.7332 300.275C59.0665 297.341 58.6665 290.008 55.0665 287.475C51.0665 284.675 47.7332 284.941 41.0665 288.941Z" fill="#EC1F28"/>
<path d="M135.067 286.808C128 290.808 129.467 298.808 138 303.608C145.867 308.275 150.667 307.608 153.867 301.741C156.133 297.341 153.6 292.675 146.933 288.808C140.533 285.075 138.533 284.675 135.067 286.808Z" fill="#EC1F28"/>
<path d="M89.6 313.475C86.4 315.875 86 317.208 86 323.741C86 332.141 86.6667 333.608 90.9333 335.875C95.0667 338.008 96.4 337.741 100 334.008C102.667 331.475 103.333 329.475 103.333 324.275C103.333 313.475 96.4 308.008 89.6 313.475Z" fill="#EC1F28"/>
<path d="M573.067 168.541C562.4 172.008 551.733 180.808 546.8 190.408C544.933 194.008 544.133 194.408 535.6 194.941C518.4 196.141 504.133 205.875 496.8 221.341C493.867 227.608 493.333 230.541 493.333 240.675C493.333 251.741 493.733 253.341 497.867 260.941L502.267 269.208L499.6 272.941C492.133 283.475 490.667 302.141 496.4 314.941C500.4 324.008 509.333 333.075 518.667 337.475C523.067 339.608 527.733 341.341 529.067 341.341C530.267 341.341 531.333 341.608 531.333 342.141C531.333 342.541 526.8 348.941 521.333 356.408C509.6 372.275 508.533 377.075 516.133 381.075C521.467 383.875 524.667 381.341 536.533 365.208L548.133 349.475L553.067 355.341C556.267 359.075 561.2 362.808 566.933 365.608C583.6 373.741 603.067 371.075 617.067 358.675C619.867 356.275 623.6 351.741 625.333 348.675C628.667 343.075 628.8 343.075 638.133 342.275C655.333 340.808 670.533 330.808 677.6 316.141C680.667 309.875 681.2 306.808 681.333 297.341C681.333 287.075 680.933 285.075 676.933 277.075L672.667 268.275L676 261.875C691.333 232.141 672 197.875 638.4 195.075C629.333 194.408 628.933 194.141 626.933 189.875C623.467 182.675 616 175.475 607.733 171.341C598.533 166.808 582.4 165.475 573.067 168.541ZM598.667 186.541C605.733 189.741 612.4 197.475 614.4 204.941C616.667 213.475 619.867 215.341 629.067 213.341C647.467 209.608 663.333 222.275 663.333 240.675C663.333 248.941 660.4 256.008 654.8 261.208C649.733 265.875 650.267 270.675 656.667 278.008C659.6 281.341 662.533 286.541 663.467 289.608C668.8 309.875 649.867 329.075 629.467 323.875C619.867 321.475 617.2 322.808 613.867 331.875C608.133 347.875 594.267 356.008 579.467 352.008C571.467 349.875 562.267 341.208 560.267 333.741C559.467 330.541 557.333 326.675 555.733 325.075C552.933 322.408 552.267 322.408 545.467 323.875C536.4 325.875 530.533 324.808 522.667 319.875C518.133 316.941 515.733 314.141 513.333 308.941C507.733 297.208 509.467 287.341 518.667 277.208C524.667 270.408 524.533 266.941 518 259.475C507.2 246.941 507.467 231.741 518.667 220.541C526 213.208 534.133 210.941 544.8 213.208C554.8 215.208 557.067 214.008 560 205.208C564.267 192.408 575.067 184.008 587.333 184.008C590.667 184.008 595.733 185.208 598.667 186.541Z" fill="#EC1F28"/>
<path d="M581.6 202.408C578.267 206.008 578.533 220.141 581.733 223.075C588.133 228.941 596.667 222.941 596.667 212.675C596.667 202.275 587.333 196.008 581.6 202.408Z" fill="#EC1F28"/>
<path d="M532 230.942C528.4 232.942 527.333 234.675 527.333 238.942C527.333 241.742 528.667 243.608 532.933 246.675C539.2 251.342 545.733 251.875 549.067 248.275C554 242.942 550.8 236.408 541.067 231.475C536.133 228.942 535.467 228.942 532 230.942Z" fill="#EC1F28"/>
<path d="M632.533 232.408C629.333 234.141 625.733 237.208 624.667 239.075C621.733 244.275 624.933 249.875 631.067 250.408C636.267 250.941 645.2 246.275 647.2 241.875C648.933 238.008 647.2 232.808 643.467 230.808C639.867 228.808 639.2 228.941 632.533 232.408Z" fill="#EC1F28"/>
<path d="M578.933 238.941C576.267 239.741 570.933 242.941 567.333 246.275C562 250.941 560.267 253.741 558.533 259.608C552.667 279.608 566.8 298.675 587.333 298.675C610.133 298.675 624.4 275.875 614.8 255.208C611.067 247.341 604.8 241.875 595.867 239.208C588.8 237.075 586.133 237.075 578.933 238.941ZM597.333 260.275C601.2 264.808 601.6 269.075 598.667 274.675C594.667 282.275 585.867 283.741 579.467 277.608C574.267 272.941 573.333 268.541 576.267 262.675C580.533 254.275 591.333 253.075 597.333 260.275Z" fill="#EC1F28"/>
<path d="M534.267 288.808C527.733 292.808 526 297.341 528.8 302.541C532 308.275 541.067 307.208 549.067 300.275C554.133 295.875 549.867 285.208 543.067 285.341C541.333 285.475 537.467 286.941 534.267 288.808Z" fill="#EC1F28"/>
<path d="M626.267 288.408C621.067 293.875 622.8 298.808 631.333 303.875C640.133 309.075 647.333 306.275 647.333 297.475C647.333 293.875 646.4 292.675 641.067 289.341C633.6 284.541 630.133 284.275 626.267 288.408Z" fill="#EC1F28"/>
<path d="M584 312.275C580 314.541 579.333 316.008 579.333 324.141C579.333 332.408 581.067 335.475 586.267 336.675C598 339.608 601.067 314.675 589.333 311.475C587.867 311.075 585.467 311.475 584 312.275Z" fill="#EC1F28"/>
<path d="M259.6 251.875C251.067 254.808 242 263.208 237.6 272.008C234.667 277.875 234.667 279.075 234.667 326.008C234.667 373.742 234.667 374.008 237.867 382.008C240.667 388.942 241.2 392.675 241.6 409.608C241.867 420.542 241.867 429.342 241.467 429.342C241.067 429.342 236.533 426.542 231.333 423.208C217.733 414.542 194.533 403.608 176 397.475C158.133 391.475 155.867 391.075 151.6 394.142C147.733 396.808 147.733 402.675 151.733 409.075C156.8 417.075 168.933 440.008 168.133 440.008C167.733 440.008 163.6 437.608 159.067 434.542C148.4 427.742 134.267 420.942 121.067 416.542C113.2 413.875 106.933 412.808 95.8665 412.408C72.9332 411.342 60.5332 415.875 47.0665 430.542C35.8665 442.542 25.9998 466.275 25.9998 480.942C25.9998 488.008 30.5332 491.875 36.3998 489.875C40.6665 488.408 42.2665 485.075 45.1998 472.675C47.9998 460.942 52.7998 450.408 58.5332 443.342C73.1998 425.475 100.933 424.675 134.667 441.208C156.4 451.875 183.067 472.275 186.8 481.208C190.533 490.008 203.467 528.408 203.067 529.475C202.8 530.008 197.333 526.008 190.667 520.408C164 498.142 133.2 480.942 102.133 470.675C83.9998 464.675 80.6665 464.275 77.7332 467.608C73.3332 472.675 73.7332 475.208 80.3998 484.808C94.9332 505.342 108.133 530.542 118.4 556.675C124.133 571.608 130.533 590.675 129.867 591.208C129.6 591.475 124.533 588.275 118.667 583.875C106 574.542 79.5998 560.808 61.9998 554.275C46.9332 548.675 12.9332 538.675 8.93317 538.675C5.8665 538.675 0.666504 544.542 0.666504 548.008C0.666504 549.208 2.53317 552.675 4.79984 555.475C25.1998 580.808 49.8665 629.208 61.1998 666.675C63.3332 674.008 65.4665 678.542 67.1998 679.742C69.3332 680.942 94.5332 681.342 181.067 681.342C304.267 681.342 298 681.742 298 672.808C298 663.475 305.067 664.008 185.867 664.008H78.5332L75.4665 654.275C67.4665 629.475 54.1332 599.875 40.9332 577.608C36.3998 570.008 32.6665 563.475 32.6665 563.208C32.6665 561.608 66.7998 574.808 81.3332 582.008C102.8 592.675 118 603.875 132.667 619.742C142.267 630.142 144.533 632.008 148.133 632.008C150.533 632.008 153.2 630.942 154.667 629.342C157.733 626.008 156.8 620.142 149.333 594.008C140.667 563.608 132.133 541.875 118.533 514.942C111.867 501.608 106.533 490.675 106.8 490.675C108.667 490.675 132.933 502.275 142.533 507.875C167.2 522.008 192.267 543.075 209.333 564.008C215.867 572.008 217.6 573.342 221.333 573.342C226.4 573.342 230 569.875 230 564.942C230 559.475 221.2 526.542 213.333 503.342C205.2 478.942 194.4 452.808 183.867 431.608C179.733 423.608 176.8 416.808 177.067 416.542C178 415.608 196.667 423.742 209.867 430.808C267.067 461.342 307.733 510.808 327.333 573.342C330.533 583.208 334 592.408 335.067 593.608C337.733 596.808 343.733 596.675 346.533 593.475C347.867 592.008 350.667 584.808 352.8 577.475C369.867 519.208 407.867 469.342 460 437.342C473.733 428.942 504.667 414.675 504.667 416.808C504.667 417.075 502 422.808 498.667 429.342C488.667 449.208 476.933 477.875 468.667 502.542C460.533 526.408 451.333 560.275 451.333 565.875C451.333 570.008 455.333 573.342 460.267 573.342C463.867 573.342 465.733 571.742 473.067 563.075C488.4 544.675 507.2 528.275 529.067 514.008C541.067 506.142 573.733 489.875 574.933 491.075C575.2 491.475 573.067 496.142 569.867 501.475C553.2 530.142 534.8 578.542 526.667 615.075C524.533 624.675 524.533 625.608 526.533 628.675C528.133 631.075 529.867 632.008 532.8 632.008C536.267 632.008 539.2 629.608 551.867 616.942C568.4 600.008 580.4 591.475 602.667 580.675C616.933 573.742 648.667 562.008 648.667 563.475C648.667 564.008 645.733 569.208 642.133 575.208C628.4 598.008 611.333 635.742 605.333 656.408L603.2 664.008H491.2C381.067 664.008 379.333 664.008 376.667 666.675C373.067 670.275 373.333 674.942 377.067 678.408L380.133 681.342H496.133C586.8 681.342 612.667 680.942 614.4 679.608C615.6 678.808 619.733 668.942 623.467 658.008C635.733 622.008 653.2 587.475 672.4 561.342C676.933 555.208 680.667 548.808 680.667 547.342C680.667 543.742 676 538.675 672.667 538.675C671.333 538.675 660.8 541.342 649.467 544.675C610.933 555.742 584 568.275 560.8 585.608C556 589.075 551.867 591.742 551.6 591.342C550.8 590.675 555.867 575.608 562.933 557.342C571.333 535.875 585.733 508.142 597.467 490.542C602.8 482.408 607.333 474.942 607.333 474.008C607.333 470.808 601.867 465.342 598.667 465.342C594 465.342 570 473.475 554.533 480.275C530.667 490.808 504.267 508.008 486.4 524.542C481.733 528.808 478 531.742 478 531.075C478 529.075 487.867 499.075 492.533 487.208C496.4 477.075 497.467 475.742 507.067 467.742C553.6 428.408 601.467 418.142 622.533 442.942C630.133 451.742 636 466.008 638.667 481.742C640.133 490.808 649.867 493.475 654.667 486.142C656.533 483.342 656.533 482.008 654.667 472.542C648.4 442.275 632.533 421.608 610.133 414.542C598.8 411.075 581.2 411.075 566.933 414.808C555.067 417.742 533.733 427.342 521.6 435.075C517.467 437.742 514 439.608 514 439.342C514 438.142 522.133 422.408 528.133 411.875C534.133 401.475 534.4 399.208 530.267 394.275C527.467 391.075 524 391.342 509.067 396.142C492.267 401.608 474.933 409.075 460.4 417.342C453.867 421.075 448.4 424.008 448 424.008C447.733 424.008 447.2 391.075 447.067 350.942L446.667 277.875L442.667 270.008C440.133 265.075 436.533 260.408 432.933 257.742C422 249.342 421.333 249.342 340.133 249.342C272.267 249.475 266.133 249.608 259.6 251.875ZM420.133 270.142C422.133 271.608 425.067 274.542 426.533 276.542C429.333 280.142 429.333 281.742 429.733 358.542L430 436.942L422.667 442.542C408.267 453.475 382.8 480.542 372.533 496.008L370.267 499.342L365.333 495.342C362.533 493.075 358.4 488.008 356.133 484.008L352 476.675L351.333 418.542C350.667 363.608 350.533 360.142 348.133 357.475C345.2 354.142 341.067 353.875 337.067 356.675C335.067 358.008 334 360.675 333.333 365.608C332.933 369.475 330.667 376.408 328.533 381.075C314.267 410.542 270.133 409.208 255.067 378.942C252 372.808 252 372.142 252 327.342C252 284.275 252.133 281.742 254.667 277.342C256.267 274.542 259.867 271.475 263.333 269.608L269.333 266.675L342.933 266.942C414.8 267.342 416.533 267.342 420.133 270.142ZM334 439.742C334 477.742 334.8 483.342 342.267 494.942C344.4 498.408 349.467 504.275 353.467 507.875L360.8 514.542L354.8 525.608C351.6 531.742 347.333 540.942 345.2 546.275C343.2 551.608 341.2 555.608 340.667 555.342C340.133 555.075 338.667 551.875 337.333 548.408C332.8 536.275 317.867 508.675 309.333 496.675C297.733 480.542 280.4 460.942 268.933 451.342L259.467 443.342V426.942L259.333 410.675L265.733 413.875C277.867 419.875 294.933 421.742 308.133 418.142C315.467 416.142 327.733 410.008 330.133 407.075C330.933 406.142 332.133 405.342 332.8 405.342C333.467 405.342 334 420.808 334 439.742Z" fill="#EC1F28"/>
<path d="M32.6669 509.741C28.6669 511.741 26.6669 516.941 27.8669 521.875C29.6002 529.075 42.5335 530.541 46.0002 524.008C50.8002 515.075 41.6002 505.075 32.6669 509.741Z" fill="#EC1F28"/>
<path d="M641.467 511.075C638 514.541 637.2 518.941 638.8 523.341C640.133 526.808 647.2 529.341 651.2 527.875C661.2 524.008 659.733 510.541 649.067 508.541C645.6 507.875 644.133 508.408 641.467 511.075Z" fill="#EC1F28"/>
<path d="M335.334 665.608C331.467 669.875 331.734 676.408 336.134 679.875C338.134 681.475 341.2 682.675 342.934 682.675C347.334 682.675 352.667 677.075 352.667 672.275C352.667 663.875 341.067 659.475 335.334 665.608Z" fill="#EC1F28"/>
</svg>
