<?xml version="1.0" encoding="utf-8"?>
<!-- Generator: Adobe Illustrator 27.9.0, SVG Export Plug-In . SVG Version: 6.00 Build 0)  -->
<svg version="1.1" id="Layer_1" xmlns="http://www.w3.org/2000/svg" xmlns:xlink="http://www.w3.org/1999/xlink" x="0px" y="0px"
	 viewBox="0 0 500 500" style="enable-background:new 0 0 500 500;" xml:space="preserve">
<style type="text/css">
	.st0{fill:#EC1F28;}
</style>
<g>
	<path class="st0" d="M239.69,392.11c28.28,7.25,46.11,30.57,43.9,57.69c-2.14,26.34-23.84,47.67-50.03,49.16
		c-26.57,1.52-50.8-16.89-55.84-42.43c-5.82-29.52,9.33-52.28,43.82-64.62c-8.82,0-16.59-0.22-24.34,0.06
		c-8.95,0.32-15.05-3.48-19.62-11.13c-32.4-54.25-65.01-108.38-97.4-162.64c-2.18-3.65-4.41-5.07-8.73-5
		c-17.86,0.28-35.72,0.14-53.58,0.11c-11.81-0.02-19.94-7.37-19.92-17.9c0.02-10.57,8.09-17.79,19.98-17.81
		c22.33-0.03,44.66,0.12,66.98-0.07c8.48-0.07,14.6,3.23,18.81,10.56c4.26,7.41,8.7,14.72,13.23,21.97
		c0.86,1.38,2.54,3.17,3.87,3.18c18.37,0.21,36.75,0.14,55.74,0.14c0-2.52,0-4.5,0-6.49c0-44.46-0.01-88.92,0-133.38
		c0-14.15,6.73-20.92,20.77-20.94c10.74-0.01,21.49,0,32.81,0c0-11.41-0.02-22.33,0-33.25C230.19,5.98,237.11-0.99,250.42-1
		c58.05-0.02,116.1-0.02,174.15,0c12.85,0,19.92,7.15,19.92,20.13c0.02,52.09,0.02,104.18,0,156.26c0,11.89-7.25,19.99-17.77,20.04
		c-10.54,0.05-17.93-8.09-17.94-19.88c-0.02-44.46-0.01-88.92-0.01-133.38c0-2.22,0-4.43,0-7.05c-47.59,0-94.91,0-142.57,0
		c0,5.64,0,11.28,0,17.45c2.2,0,4.2,0,6.2,0c32.75,0,65.49-0.01,98.24,0.01c13.23,0.01,20.25,7.05,20.26,20.36
		c0.02,44.27,0.01,88.55,0.01,132.82c0,2.23,0,4.45,0,7.55c2.15,0,4.1,0,6.04,0c26.98,0,53.96-0.03,80.94,0.01
		c16.52,0.02,24.68,12.97,17.34,27.7c-23.12,46.39-46.39,92.7-69.49,139.1c-4,8.03-10.07,12.01-19.07,11.82
		c-7.99-0.17-15.98-0.04-24.1,0.31c14.49,3.5,26.4,10.8,34.74,23.18c8.26,12.27,10.98,25.78,8.28,40.41
		c-4.58,24.79-27.34,43.39-53.02,43.2c-26.43-0.2-48.11-19.32-52.57-46.37c-4.43-26.84,11.6-49.14,43.94-60.58
		C322.16,392.11,280.92,392.11,239.69,392.11z M140.69,249.2c0.62,1.31,0.86,1.98,1.22,2.58c20.25,33.77,40.56,67.51,60.67,101.36
		c1.84,3.1,4.15,3.07,6.97,3.07c60.99-0.02,121.98-0.05,182.97,0.07c3.85,0.01,5.84-1.1,7.6-4.66
		c16.12-32.62,32.48-65.12,48.75-97.66c0.71-1.43,1.24-2.95,1.99-4.75C347.38,249.2,244.4,249.2,140.69,249.2z M354.95,88.7
		c-47.77,0-95.07,0-142.21,0c0,41.75,0,83.09,0,124.32c47.62,0,94.8,0,142.21,0C354.95,171.5,354.95,130.29,354.95,88.7z
		 M247.99,445.46c-0.01-9.68-8.05-17.76-17.73-17.81c-9.67-0.06-17.83,7.94-17.95,17.6c-0.13,9.92,8.1,18.18,18.01,18.09
		C240.01,463.25,248.01,455.16,247.99,445.46z M373.23,463.34c9.69-0.09,17.69-8.18,17.67-17.87c-0.02-9.68-8.06-17.76-17.74-17.81
		c-9.9-0.06-18.11,8.25-17.95,18.16C355.37,455.48,363.54,463.43,373.23,463.34z"/>
	<path class="st0" d="M283.64,141.87c-11.35,0-22.69,0.04-34.04-0.01c-11.34-0.05-19.41-7.5-19.42-17.83
		c-0.01-10.38,7.99-17.84,19.35-17.87c22.88-0.05,45.76-0.05,68.64,0c11.24,0.03,19.29,7.72,19.15,18.08
		c-0.13,10.12-8.09,17.54-19.07,17.6C306.7,141.93,295.17,141.87,283.64,141.87z"/>
	<path class="st0" d="M283.99,159.74c11.35,0,22.69-0.04,34.04,0.01c11.29,0.06,19.34,7.61,19.27,17.96
		c-0.07,10.33-8.11,17.71-19.51,17.73c-22.69,0.04-45.39,0.04-68.08,0c-11.4-0.02-19.47-7.39-19.55-17.7
		c-0.08-10.58,7.99-17.96,19.78-18C261.3,159.71,272.65,159.74,283.99,159.74z"/>
</g>
</svg>
