<?xml version="1.0" encoding="utf-8"?>
<!-- Generator: Adobe Illustrator 27.9.0, SVG Export Plug-In . SVG Version: 6.00 Build 0)  -->
<svg version="1.1" id="Layer_1" xmlns="http://www.w3.org/2000/svg" xmlns:xlink="http://www.w3.org/1999/xlink" x="0px" y="0px"
	 viewBox="0 0 500 500" style="enable-background:new 0 0 500 500;" xml:space="preserve">
<style type="text/css">
	.st0{fill:#EC1F28;}
</style>
<g>
	<path class="st0" d="M102.9,48.8c-6.27,17.7-15.63,24.26-34.06,24.28c-7.05,0-14.1,0.13-21.14-0.07
		c-14.38-0.42-25.66-9.86-29.08-23.81c-0.49-1.99-1.76-4.13-3.31-5.46C6.79,36.41,3.65,26.48,7.06,16.6
		C10.47,6.71,19.03,0.32,30.07,0.03C40.92-0.25,51.78-0.1,62.64-0.04c31.42,0.2,62.9-0.72,94.24,1
		c36.29,1.99,65.59,19.09,88.52,47.15c0.96,1.18,1.87,2.4,2.84,3.58c0.22,0.27,0.59,0.43,1.31,0.94c1.76-2.1,3.52-4.26,5.33-6.37
		c25.92-30.2,58.83-45.81,98.58-46.21c37.9-0.39,75.8-0.13,113.71-0.06C479.1,0,488,5.96,491.74,16.04
		c3.76,10.15,0.7,19.86-8.54,28.03c-1.4,1.23-2.41,3.28-2.87,5.13c-3.44,13.99-14.7,23.39-29.08,23.8
		c-7.04,0.2-14.09,0.07-21.14,0.07c-18.42-0.01-27.76-6.57-34.3-25c-19.3,0.77-39.39-0.54-58.67,2.81
		c-36.78,6.39-62.82,38.13-63.16,75.62c-0.6,66.45-0.18,132.92-0.18,199.37c0,0.74,0.17,1.47,0.33,2.82
		c2.26,0.11,4.45,0.29,6.65,0.31c27.24,0.19,23.39-2.97,23.53,23.82c0.15,30.47,0.03,60.94,0.03,91.4c0,2.05,0,4.1,0,6.76
		c5.75,0,11.03-0.06,16.31,0.01c6.08,0.08,7.89,1.79,7.95,7.8c0.09,10.66,0.06,21.33,0.02,31.99c-0.03,7.34-1.7,9.01-9.14,9.02
		c-30.28,0.03-60.57,0.01-90.85,0.01c-16.38,0-32.76,0.03-49.14-0.01c-7.45-0.02-9.09-1.66-9.12-9.04
		c-0.04-10.66-0.08-21.33,0.02-31.99c0.05-6.01,1.86-7.7,7.96-7.78c5.13-0.07,10.27-0.01,16.29-0.01c0-2.21,0-4.2,0-6.2
		c0-35.42-0.01-70.84,0.01-106.26c0-7.73,1.69-9.46,9.27-9.5c6.83-0.04,13.67-0.01,21.29-0.01c0-2.52,0-4.54,0-6.57
		c0-63.79,0.04-127.58-0.01-191.38c-0.04-48.04-34.45-82.25-82.6-82.26C129.46,48.79,116.33,48.8,102.9,48.8z M261.77,328.79
		c0-2.89,0-5.14,0-7.38c0-32.93-0.03-65.86,0.01-98.79c0.04-33.69-0.6-67.4,0.39-101.07c1.25-42.68,37.96-81,80.53-84.03
		c22.17-1.58,44.51-0.83,66.77-0.97c19.23-0.12,38.46-0.09,57.69,0.01c5.89,0.03,10.51-1.91,12.91-7.49
		c3.6-8.35-2.58-16.77-12.47-16.79c-39.6-0.06-79.2-0.05-118.8,0.1c-5.11,0.02-10.28,0.64-15.3,1.6
		c-57.56,10.98-96.16,57.5-96.27,116.21c-0.12,64.15-0.03,128.29-0.02,192.44c0,2,0.17,4,0.26,6.17
		C245.74,328.79,253.31,328.79,261.77,328.79z M230.12,92.19c1.82-4.91,3.03-8.48,4.47-11.95c1.53-3.68,2.86-7.56,5.05-10.82
		c2.6-3.86,1.95-6.62-0.72-10.09c-23.41-30.49-54.23-46.56-92.68-46.99c-37.87-0.42-75.75-0.1-113.63-0.1
		c-1.14,0-2.29-0.04-3.42,0.07c-6.53,0.68-11.36,5.92-11.3,12.2c0.06,6.32,4.91,11.36,11.52,11.89c1.89,0.15,3.8,0.1,5.71,0.11
		c35.97,0.01,71.95,0.04,107.92-0.01c21.62-0.03,41.27,5.85,58.52,19.1C213.83,65.03,223.02,76.97,230.12,92.19z M316.34,463.63
		c-44.91,0-89.14,0-133.63,0c0,8.06,0,15.74,0,23.48c44.74,0,89.12,0,133.63,0C316.34,479.14,316.34,471.61,316.34,463.63z
		 M207.18,353.2c28.6,0,56.46,0,84.52,0c0-4.07,0-7.76,0-11.51c-28.4,0-56.43,0-84.52,0C207.18,345.66,207.18,349.24,207.18,353.2z
		 M291.73,366.01c-28.34,0-56.35,0-84.38,0c0,4.13,0,7.81,0,11.37c28.44,0,56.45,0,84.38,0
		C291.73,373.35,291.73,369.79,291.73,366.01z M207.25,414.69c0,3.96,0,7.65,0,11.57c28.34,0,56.35,0,84.38,0c0-4.13,0-7.81,0-11.57
		C263.31,414.69,235.43,414.69,207.25,414.69z M207.29,450.65c28.2,0,56.24,0,84.37,0c0-4.02,0-7.7,0-11.65
		c-28.26,0-56.13,0-84.37,0C207.29,442.99,207.29,446.67,207.29,450.65z M207.2,401.77c28.56,0,56.43,0,84.37,0
		c0-4.02,0-7.67,0-11.27c-28.36,0-56.23,0-84.37,0C207.2,394.38,207.2,397.89,207.2,401.77z M31.48,49.03
		c2.18,5.97,6.07,10.4,11.35,10.8c11.66,0.87,23.46,0.9,35.12,0.08c5.51-0.39,9.48-4.89,11.63-10.87
		C70.1,49.03,51.18,49.03,31.48,49.03z M467.5,49.09c-19.57,0-38.59,0-58.13,0c3.22,8.01,9.09,11.54,16.82,11.86
		c8.15,0.34,16.34,0.34,24.49,0C458.42,60.63,464.25,57.06,467.5,49.09z"/>
	<path class="st0" d="M494.34,103.74c-1.94,2.15-3.26,4.91-5.03,5.24c-2.13,0.4-5.89-0.56-6.79-2.15c-4.78-8.39-9.13-17.07-13-25.92
		c-0.71-1.62,0.88-5.33,2.54-6.57c1.39-1.04,5.83-0.73,6.51,0.42C484.03,84.02,488.93,93.61,494.34,103.74z"/>
	<path class="st0" d="M12.96,109.52c-5.67,0.07-8.58-3.94-6.58-8.36c3.83-8.45,7.93-16.81,12.64-24.79c1.02-1.72,5.7-2.97,7.49-2.07
		c1.75,0.88,3.39,5.41,2.6,7.3c-3.59,8.54-7.93,16.77-12.3,24.95C15.96,108.12,13.73,108.95,12.96,109.52z"/>
	<path class="st0" d="M408.53,79.1c-1.51,3.22-2.51,5.46-3.6,7.66c-3.11,6.28-6.24,12.55-9.42,18.79c-1.81,3.56-4.78,5.17-8.45,3.33
		c-3.7-1.85-4.08-5.29-2.37-8.8c3.82-7.83,7.49-15.76,11.92-23.23c1.11-1.87,5.01-3.13,7.4-2.83
		C405.78,74.23,407.17,77.45,408.53,79.1z"/>
	<path class="st0" d="M107.81,109.53c-0.89-0.78-3.21-1.98-4.25-3.89C99.48,98.15,95.8,90.44,92,82.8c-1.78-3.57-1.42-6.8,2.32-8.73
		c3.73-1.92,6.66-0.42,8.47,3.15c3.96,7.77,7.98,15.52,11.65,23.43C116.63,105.38,113.98,109.56,107.81,109.53z"/>
	<path class="st0" d="M66.63,104.18c0,3.61,0.03,7.22-0.01,10.83c-0.04,4.01-1.95,6.68-6.07,6.78c-3.88,0.09-5.99-2.51-6.08-6.17
		c-0.2-7.98-0.2-15.97-0.01-23.94c0.09-3.65,2.16-6.28,6.04-6.21c4.12,0.07,6.06,2.72,6.11,6.73
		C66.67,96.2,66.63,100.19,66.63,104.18z"/>
	<path class="st0" d="M432.34,103.7c0-3.8-0.02-7.6,0.01-11.4c0.03-4.01,1.9-6.73,6.02-6.81c4.21-0.08,6.11,2.8,6.18,6.68
		c0.14,7.6,0.13,15.2,0.01,22.8c-0.06,3.87-1.88,6.85-6.07,6.81c-4.45-0.04-6.21-3.02-6.17-7.25
		C432.37,110.92,432.34,107.31,432.34,103.7z"/>
</g>
</svg>
