<?xml version="1.0" encoding="utf-8"?>
<!-- Generator: Adobe Illustrator 27.9.0, SVG Export Plug-In . SVG Version: 6.00 Build 0)  -->
<svg version="1.1" id="Layer_1" xmlns="http://www.w3.org/2000/svg" xmlns:xlink="http://www.w3.org/1999/xlink" x="0px" y="0px"
	 viewBox="0 0 500 500" style="enable-background:new 0 0 500 500;" xml:space="preserve">
<style type="text/css">
	.st0{fill:#EC1F28;}
</style>
<g>
	<path class="st0" d="M500,366.2c-6.7,11.26-11.59,12.85-24.15,8.22c-24.55-9.05-49.09-18.03-74.83-23.36
		c-25.52-5.29-50.24-3.98-74.71,5.59c-16.46,6.44-33.25,12.27-50.27,17.02c-22.82,6.38-45.49,3.36-67.61-4.29
		c-11.66-4.04-23.35-8.08-34.78-12.73c-26.02-10.59-52.74-11.7-79.43-4.46c-23.78,6.46-47.1,14.67-70.5,22.47
		C11.54,378.73,6.45,377.23,0,366.2c0-2.6,0-5.21,0-7.81c2.9-6.33,8.15-9.45,14.53-11.77c25.04-9.12,49.99-18.48,76.23-23.77
		c3.32-0.67,6.66-1.27,10.29-1.96c-6.26-53.74,9.36-99.6,49.78-135.77c30.5-27.3,66.92-39.68,107.75-37.37
		c87.07,4.91,153.14,83.31,140.34,172.7c11.31,2.79,22.81,4.99,33.89,8.49c19.04,6.02,37.81,12.91,56.74,19.31
		c5.2,1.76,7.96,5.75,10.46,10.14C500,360.99,500,363.59,500,366.2z M130.78,317.17c11.19,1.92,21.98,2.82,32.2,5.76
		c15.27,4.38,30.38,9.58,45.12,15.53c27.07,10.91,53.78,11.79,81.16,1.01c16.9-6.65,34.22-12.35,51.65-17.46
		c9.06-2.66,18.76-3.12,28.28-4.59c7.39-36.48-5.51-87.78-50.08-118.92c-41.73-29.16-97.61-28.85-138.73,0.33
		C136.14,230.23,123.39,281.56,130.78,317.17z"/>
	<path class="st0" d="M0,293.92c3.92-8.4,10.57-11.39,19.66-10.82c8.09,0.51,16.24,0.05,24.36,0.12
		c9.03,0.08,15.54,6.27,15.53,14.65c-0.01,8.37-6.48,14.51-15.57,14.61c-8.12,0.09-16.27-0.37-24.36,0.13
		c-9.09,0.55-15.75-2.43-19.62-10.88C0,299.13,0,296.53,0,293.92z"/>
	<path class="st0" d="M500,301.74c-3.85,8.49-10.54,11.42-19.61,10.88c-8.1-0.48-16.24-0.03-24.37-0.12
		c-9.07-0.1-15.56-6.26-15.57-14.61c-0.01-8.34,6.54-14.57,15.53-14.65c8.12-0.07,16.27,0.38,24.36-0.12
		c9.08-0.57,15.75,2.39,19.66,10.81C500,296.53,500,299.13,500,301.74z"/>
	<path class="st0" d="M264.63,77.68c0.01,5.03,0.13,10.07-0.02,15.09c-0.25,8.31-6.57,14.56-14.56,14.59
		c-7.98,0.03-14.5-6.22-14.65-14.48c-0.18-10.22-0.2-20.45,0.01-30.68c0.16-8.21,6.83-14.48,14.77-14.37
		c7.77,0.11,14.1,6.24,14.4,14.26C264.79,67.28,264.63,72.48,264.63,77.68z"/>
	<path class="st0" d="M145.6,134.77c-3.64-0.14-7.85-2.35-10.53-6.85c-5.31-8.92-10.58-17.87-15.55-26.97
		c-3.83-7.02-1.26-15.63,5.39-19.54c6.75-3.97,15.42-2.11,19.65,4.76c5.52,8.97,10.9,18.06,15.78,27.39
		C165.56,123.56,158.3,134.95,145.6,134.77z"/>
	<path class="st0" d="M354.54,134.77c-12.71,0.13-20.08-11.04-15.06-20.83c4.95-9.65,10.51-19.03,16.26-28.24
		c4.07-6.53,12.87-8.14,19.4-4.26c6.3,3.74,9.19,12.04,5.68,18.66c-5.16,9.74-10.8,19.22-16.52,28.64
		C361.78,132.89,357.57,134.68,354.54,134.77z"/>
	<path class="st0" d="M86.98,193.58c-0.26,12.52-11.1,19.71-20.46,14.98c-9.83-4.97-19.32-10.64-28.67-16.48
		c-6.51-4.07-8.11-12.89-4.23-19.41c3.75-6.3,12.06-9.17,18.67-5.66c9.73,5.17,19.24,10.78,28.63,16.54
		C85.2,186.18,87,190.59,86.98,193.58z"/>
	<path class="st0" d="M452.54,165.65c7.76,0.11,13.31,4.11,15.14,9.86c1.94,6.11,0.1,13.04-5.32,16.41
		c-9.35,5.82-18.89,11.4-28.63,16.54c-6.96,3.67-15.1,0.7-18.86-6.04c-3.73-6.69-1.88-15.18,4.77-19.28
		c8.97-5.53,18.16-10.71,27.37-15.83C449.04,166.18,451.58,165.92,452.54,165.65z"/>
	<path class="st0" d="M170.81,402.95c14.84-0.08,28.53,4.54,42.12,9.62c6.23,2.33,12.54,4.47,18.78,6.78
		c12.26,4.53,24.5,4.4,36.74,0c6.72-2.41,13.59-4.51,20.13-7.35c23.37-10.15,47.34-11.16,71.55-4.29
		c16.38,4.64,32.49,10.28,48.57,15.88c8.61,3,12.28,11.37,9.21,19.19c-2.97,7.57-11.05,10.91-19.39,8.21
		c-16.36-5.3-32.65-10.85-49.16-15.61c-16.3-4.7-32.48-3.43-48.2,3.18c-5.53,2.33-11.27,4.16-16.84,6.41
		c-22.97,9.26-45.89,9.24-68.83-0.11c-4.51-1.84-9.23-3.2-13.65-5.21c-20.72-9.42-41.68-8.62-62.77-1.64
		c-13.1,4.34-26.1,8.99-39.19,13.36c-5.86,1.96-11,0.21-15.03-4.25c-4.07-4.5-5.24-10.04-2.38-15.37c1.65-3.08,4.58-6.5,7.7-7.6
		c20.48-7.27,40.55-15.98,62.25-19.25C158.5,403.98,164.67,403.59,170.81,402.95z"/>
</g>
</svg>
