<svg width="184" height="184" viewBox="0 0 184 184" fill="none" xmlns="http://www.w3.org/2000/svg">
<g clip-path="url(#clip0_6_616)">
<path d="M83.7923 93.422L5.98553 48.4138C4.07702 47.3118 1.63695 47.9653 0.534941 49.8738C0.175084 50.497 -0.00970702 51.2059 0.000392905 51.9252V179.608C0.127203 181.718 1.87711 183.363 3.99061 183.359H81.9571C84.1608 183.359 85.9474 181.572 85.9474 179.369V96.8534C85.9062 95.4031 85.081 94.089 83.7923 93.422ZM51.2332 155.667H46.2853C44.0817 155.667 42.2951 157.454 42.2951 159.658C42.2951 161.861 44.0817 163.648 46.2853 163.648H51.2332V175.219H34.7939V144.096H51.2332V155.667ZM77.9669 175.378H59.2136V140.265C59.2136 138.062 57.4271 136.275 55.2234 136.275H30.804C28.6004 136.275 26.8138 138.062 26.8138 140.265V175.378H7.98045V93.3424L77.9666 133.802L77.9669 175.378ZM77.9669 124.545L7.98083 83.8458V58.7879L77.9669 99.2474V124.545Z" fill="#EC1F28"/>
<path d="M182.587 143.777C181.022 142.212 178.486 142.212 176.921 143.777H176.761C174.123 146.435 170.532 147.929 166.786 147.926C163.015 147.941 159.394 146.447 156.731 143.777C155.179 142.212 152.653 142.202 151.088 143.754C151.08 143.762 151.073 143.769 151.065 143.777C145.523 149.33 136.53 149.34 130.977 143.799C130.969 143.791 130.962 143.784 130.955 143.777C129.403 142.212 126.877 142.202 125.312 143.754C125.304 143.762 125.297 143.769 125.289 143.777C119.747 149.33 110.754 149.34 105.2 143.799C105.193 143.791 105.186 143.784 105.179 143.777C103.614 142.212 101.077 142.212 99.5127 143.777C97.9479 145.342 97.9479 147.878 99.5127 149.443C107.162 157.153 119.291 158.135 128.082 151.757C135.743 157.321 146.116 157.321 153.778 151.757C157.518 154.456 162.013 155.908 166.626 155.907C172.603 156.008 178.364 153.674 182.586 149.443C184.152 147.878 184.152 145.342 182.587 143.777Z" fill="#EC1F28"/>
<path d="M182.827 165.962C181.262 164.397 178.725 164.397 177.16 165.962H176.761C174.123 168.62 170.532 170.114 166.786 170.111C163.015 170.126 159.394 168.632 156.731 165.962C155.179 164.397 152.653 164.387 151.088 165.939C151.08 165.947 151.073 165.954 151.065 165.962C145.523 171.515 136.53 171.525 130.977 165.984C130.969 165.976 130.962 165.969 130.955 165.962C129.403 164.397 126.877 164.387 125.312 165.939C125.304 165.947 125.297 165.954 125.289 165.962C119.747 171.515 110.753 171.525 105.2 165.984C105.193 165.976 105.186 165.969 105.179 165.962C103.335 164.755 100.862 165.271 99.6548 167.114C98.7511 168.494 98.79 170.288 99.7521 171.628C107.402 179.338 119.53 180.32 128.321 173.942C135.983 179.506 146.355 179.506 154.017 173.942C157.757 176.641 162.253 178.093 166.865 178.092C172.842 178.192 178.603 175.859 182.826 171.628C184.391 170.063 184.391 167.527 182.827 165.962Z" fill="#EC1F28"/>
<path d="M158.607 57.4712C145.01 57.4712 133.988 68.4935 133.988 82.0899H106.456C106.456 72.9225 113.888 65.4912 123.055 65.4912C125.258 65.4912 127.045 63.7047 127.045 61.501C127.045 59.2974 125.258 57.5108 123.055 57.5108C109.498 57.5546 98.5195 68.5332 98.4757 82.0899V131.727C98.4757 133.93 100.262 135.717 102.466 135.717C104.67 135.717 106.456 133.93 106.456 131.727V126.859H133.988V131.727C133.988 133.93 135.774 135.717 137.978 135.717C140.182 135.717 141.968 133.93 141.968 131.727V82.0903C141.968 72.9009 149.417 65.4516 158.607 65.4516C167.796 65.4516 175.246 72.9009 175.246 82.0903C175.246 84.2939 177.032 86.0805 179.236 86.0805C181.439 86.0805 183.226 84.2939 183.226 82.0903C183.225 68.4935 172.203 57.4712 158.607 57.4712ZM106.376 118.56V108.265H133.908L133.987 118.56H106.376ZM133.988 100.285H106.376V89.9907H133.988V100.285Z" fill="#EC1F28"/>
<path d="M106.447 23.0937C105.008 21.2334 102.821 20.103 100.471 20.0042L85.6275 17.8496L79.0038 4.68226C76.4751 0.649395 71.1562 -0.569703 67.1233 1.95902C66.0217 2.64955 65.0906 3.58062 64.4001 4.68226L57.6967 18.1686L42.8536 20.0042C38.4526 20.2421 35.0778 24.0023 35.3157 28.4032C35.4384 30.6761 36.5262 32.7885 38.3049 34.2088L49.0781 44.7427L46.5243 59.9049C45.9636 64.2763 49.0527 68.2747 53.4245 68.8355C55.1209 69.0532 56.8424 68.7199 58.3353 67.8849L71.6623 60.8625L84.9893 67.8849C87.6221 69.4441 90.8955 69.4441 93.5283 67.8849C96.0862 66.0943 97.3647 62.976 96.8003 59.9049L94.2465 44.7427L105.02 34.2885C108.505 31.5918 109.145 26.5796 106.447 23.0937ZM87.2237 40.4337C86.3008 41.3517 85.8837 42.6624 86.1063 43.9451L88.8995 61.0226L73.6572 53.0425C72.5062 52.4463 71.1375 52.4463 69.9865 53.0425L54.5848 61.0226L57.298 43.9451C57.5205 42.6624 57.1035 41.3521 56.1806 40.4337L43.8913 27.9846L60.8094 25.5109C62.1138 25.3366 63.2483 24.5305 63.842 23.3563L71.822 8.03431L79.8021 23.3563C80.3957 24.5305 81.5303 25.3366 82.8347 25.5109L99.7528 28.5435L87.2237 40.4337Z" fill="#EC1F28"/>
</g>
<defs>
<clipPath id="clip0_6_616">
<rect width="184" height="184" fill="white"/>
</clipPath>
</defs>
</svg>
