<svg width="180" height="180" viewBox="0 0 180 180" fill="none" xmlns="http://www.w3.org/2000/svg">
<path d="M103.07 63.8448C105.889 68.066 110.694 70.8528 116.14 70.8528C121.586 70.8528 126.391 68.0664 129.21 63.8448C132.029 68.066 136.834 70.8528 142.28 70.8528C150.941 70.8528 157.987 63.8068 157.987 55.1457C157.987 54.8775 157.941 54.6068 157.864 54.3501C157.656 53.6741 154.47 43.6929 145.091 33.4287C144.109 32.3536 142.441 32.2787 141.366 33.2606C140.291 34.2425 140.215 35.9107 141.198 36.9861C146.671 42.9768 149.862 48.9234 151.475 52.5087H131.262C131.246 52.4517 131.229 52.3912 131.213 52.3322C129.433 45.8701 126.854 39.5515 123.521 33.7335C120.794 28.9719 117.457 24.4469 113.395 20.6996C112.842 20.1902 112.278 19.6938 111.698 19.2153C119.956 21.472 127.338 25.117 133.777 30.1278C134.926 31.0222 136.583 30.8155 137.477 29.6662C138.371 28.517 138.165 26.8604 137.015 25.9657C124.427 16.1684 108.61 11.2008 89.9996 11.1994C89.9961 11.1994 89.993 11.1994 89.9894 11.1994C77.5694 11.2004 66.2758 13.4501 56.4219 17.8861C48.4945 21.4552 41.4879 26.4329 35.5978 32.6819C25.6946 43.1877 22.358 53.6287 22.1365 54.348C22.0971 54.4785 22.0134 55.0139 22.0134 55.1464C22.0134 63.8072 29.0594 70.8536 37.7205 70.8536C43.1662 70.8536 47.9717 68.0671 50.7906 63.8455C53.6091 68.0667 58.4149 70.8536 63.8603 70.8536C69.306 70.8536 74.1115 68.0671 76.9303 63.8455C78.1147 65.6191 79.651 67.1379 81.438 68.3044V102.284H59.9976C58.5415 102.284 57.3609 103.465 57.3609 104.921C57.3609 106.377 58.5415 107.558 59.9976 107.558H144.176C145.897 107.558 147.296 108.957 147.296 110.678C147.296 112.397 145.897 113.797 144.176 113.797H35.8239C34.104 113.797 32.7041 112.398 32.7041 110.677C32.7041 108.957 34.1033 107.558 35.8239 107.558H49.4497C50.9059 107.558 52.0864 106.377 52.0864 104.921C52.0864 103.465 50.9059 102.284 49.4497 102.284H35.8239C31.1955 102.284 27.4307 106.05 27.4307 110.678C27.4307 115.305 31.1959 119.07 35.8239 119.07H65.1414L79.5002 139.301C79.5002 139.301 61.5551 164.584 61.5164 164.638C60.2989 166.353 61.5691 168.801 63.6666 168.801H78.1991C79.0534 168.801 79.8546 168.387 80.3492 167.69L90 154.094L99.6504 167.69C100.145 168.386 100.946 168.8 101.801 168.8C101.801 168.8 116.305 168.8 116.333 168.8C118.432 168.8 119.7 166.351 118.483 164.637L100.499 139.3L114.858 119.07H144.176C148.804 119.07 152.569 115.304 152.569 110.676C152.569 106.048 148.804 102.284 144.176 102.284H98.5623V68.3037C100.349 67.1372 101.886 65.6191 103.07 63.8448ZM152.376 57.7828C151.205 62.2635 147.123 65.5791 142.28 65.5791C137.438 65.5791 133.356 62.2631 132.185 57.7828H152.376ZM93.8591 119.07L90 124.507L86.1405 119.07H93.8591ZM76.8375 163.527H68.7723L82.7339 143.856L86.7667 149.538L76.8375 163.527ZM111.228 163.527H103.162L71.6084 119.07H79.6735L111.228 163.527ZM97.2661 134.744L93.2333 129.063L100.326 119.07H108.391L97.2661 134.744ZM116.14 65.5794C111.298 65.5794 107.216 62.2635 106.044 57.7832H126.236C125.065 62.2635 120.982 65.5794 116.14 65.5794ZM96.2191 17.1492C96.2803 17.1629 96.3408 17.1787 96.4019 17.1928C96.6498 17.2501 96.8969 17.3102 97.1427 17.3746C103.403 19.0065 108.681 22.9001 112.885 27.726C116.46 31.8312 119.262 36.5171 121.562 41.4383C123.234 45.0162 124.641 48.7248 125.769 52.5097H105.674C105.674 52.4728 105.672 52.4369 105.671 52.4C105.511 46.1447 104.797 39.8834 103.266 33.8094C101.801 27.9882 99.5889 22.2595 96.248 17.2466C96.2251 17.2121 96.2016 17.1752 96.1787 17.1411C96.1921 17.1439 96.2058 17.1464 96.2191 17.1492ZM37.7198 65.5794C32.8774 65.5794 28.7954 62.2635 27.624 57.7832H47.8153C46.645 62.2635 42.5623 65.5794 37.7198 65.5794ZM48.7568 52.4408C48.7508 52.463 48.7438 52.4872 48.7378 52.509H28.5247C30.2147 48.7508 33.6368 42.4009 39.606 36.1202C45.0221 30.4218 51.4589 25.882 58.7376 22.6283C61.7723 21.272 64.9589 20.1378 68.2878 19.2273C68.0414 19.4312 67.7967 19.6397 67.5531 19.851C61.5596 25.053 57.1352 31.8463 53.7627 38.9742C51.7124 43.3069 50.0291 47.8202 48.7568 52.4408ZM63.8596 65.5794C59.0171 65.5794 54.9351 62.2635 53.7641 57.7832H73.955C72.7847 62.2635 68.702 65.5794 63.8596 65.5794ZM75.3571 40.6403C75.3528 40.6649 75.349 40.6895 75.3455 40.7137C74.8694 43.5702 74.6283 46.4576 74.4532 49.3464C74.3941 50.3993 74.3498 51.454 74.3252 52.509H54.2338C56.7745 44.0318 65.2173 21.3817 83.8104 17.1577C80.8182 21.6376 77.1367 29.1681 75.3571 40.6403ZM79.6609 50.8134C79.8117 47.4005 80.1492 43.9949 80.7149 40.6252C81.8191 34.0369 83.7963 27.5178 87.2026 21.7375C88.0407 20.3154 88.9678 18.9401 90.0144 17.6621C90.0228 17.6727 90.0313 17.6822 90.0401 17.6927C91.0983 18.9584 92.0225 20.3351 92.8596 21.7561C96.3162 27.6219 98.28 34.2939 99.3611 40.9834C99.9752 44.7841 100.322 48.6471 100.399 52.4967C100.399 52.5009 100.399 52.5048 100.399 52.509H79.6011C79.6162 51.9437 79.6359 51.3784 79.6609 50.8134ZM93.2885 102.284H86.7111V70.5094C86.7484 70.5171 86.7864 70.5224 86.8236 70.5301C88.9488 70.971 91.1658 70.9573 93.2885 70.5094V102.284ZM94.3513 64.6235C91.6109 65.8877 88.3888 65.8863 85.6483 64.6232C82.8408 63.3287 80.6998 60.8263 79.9045 57.7828H100.096C99.2999 60.8266 97.1592 63.3294 94.3513 64.6235Z" fill="#EC1F28"/>
<path d="M175.583 93.8749L170.238 92.5597C167.156 91.8021 163.965 93.7343 163.207 96.8133L154.904 130.557H129.264V130.557C126.417 130.557 124.102 132.872 124.102 135.719V142.52C124.102 145.263 126.254 147.507 128.958 147.666C128.958 147.666 124.075 165.403 124.058 165.464C123.604 167.115 124.894 168.801 126.6 168.801H137.176C138.364 168.801 139.406 168.006 139.72 166.86L144.969 147.682H147.447L152.696 166.86C153.009 168.006 154.051 168.801 155.239 168.801C155.239 168.801 165.799 168.801 165.815 168.801C167.534 168.801 168.813 167.12 168.357 165.464L163.408 147.486C166.566 146.814 169.131 144.406 169.928 141.165C169.928 141.165 179.831 100.926 179.836 100.906C180.593 97.8289 178.652 94.6304 175.583 93.8749ZM135.164 163.527H130.061L134.423 147.682H139.5L135.164 163.527ZM157.251 163.527L152.915 147.682H157.992L162.354 163.527H157.251ZM174.715 99.6451L164.808 139.905C164.445 141.378 163.132 142.407 161.614 142.407H129.375V135.83H156.97C158.184 135.83 159.241 135.002 159.531 133.824L168.328 98.074C168.397 97.792 168.696 97.6117 168.977 97.6809C168.977 97.6809 174.323 98.9961 174.323 98.9961C174.609 99.0668 174.786 99.3593 174.715 99.6451Z" fill="#EC1F28"/>
<path d="M55.9417 165.464L51.0419 147.666C53.7458 147.506 55.8984 145.263 55.8984 142.52V135.E9C964.8984 132.872 53.583 130.557 50.7364 130.557H25.0963C25.0963 130.557 16.7984 96.8358 16.7927 96.8129C16.0386 93.7484 12.8229 91.8067 9.76253 92.5594C9.76253 92.5594 4.42019 93.8739 4.41773 93.8746C1.34613 94.6304 -0.59239 97.8325 0.163821 100.905L10.0716 141.165C10.8689 144.405 13.4343 146.813 16.5916 147.486C16.5916 147.486 11.6504 165.435 11.6423 165.464C11.1867 167.118 12.4727 168.801 14.1845 168.801H24.7605C25.9485 168.801 26.9902 168.006 27.3037 166.86L32.5526 147.682H35.0311L40.2799 166.86C40.5935 168.006 41.6348 168.801 42.8231 168.801C42.8231 168.801 53.3964 168.801 53.3992 168.801C55.0765 168.801 56.404 167.145 55.9417 165.464ZM22.7485 163.527H17.6456L22.0078 147.682H27.0851L22.7485 163.527ZM44.8358 163.527L40.4993 147.682H45.5766L49.9387 163.527H44.8358ZM50.6246 142.408H18.386C16.8687 142.408 15.5552 141.379 15.1924 139.905L5.28503 99.6455C5.24074 99.4672 5.29417 99.3262 5.34691 99.2398C5.39929 99.1529 5.49949 99.0404 5.67773 98.9965L11.0229 97.6813C11.3059 97.6113 11.6023 97.791 11.6719 98.074L20.469 133.824C20.7591 135.002 21.8159 135.83 23.0294 135.83H50.6246V142.408Z" fill="#EC1F28"/>
</svg>
