<svg width="158" height="158" viewBox="0 0 158 158" fill="none" xmlns="http://www.w3.org/2000/svg">
<g clip-path="url(#clip0_6_614)">
<path d="M143.753 128.294H135.078C135.071 128.294 135.065 128.286 135.068 128.279L140.425 113.865C140.503 113.654 140.583 113.446 140.661 113.242C141.299 111.573 142.022 109.681 141.201 107.877C140.715 106.808 139.799 106.021 138.478 105.537L130.014 102.433C130.004 102.429 129.994 102.427 129.984 102.423C129.972 102.419 129.961 102.414 129.949 102.41L116.145 97.8072C115.934 97.7369 115.802 97.682 115.723 97.6446C115.72 97.6434 115.719 97.6415 115.718 97.6387C115.649 97.4088 115.564 96.962 115.497 96.6173L112.115 79.1747C112.115 79.1731 112.115 79.1719 112.115 79.1703L114.643 66.4378C114.644 66.4313 114.651 66.4273 114.658 66.4294L116.666 67.1142C116.671 67.1157 116.674 67.1201 116.674 67.1247V76.5667C116.674 81.1561 120.378 84.8997 124.924 84.912H124.967C127.164 84.912 129.322 84.0177 130.894 82.4541C132.472 80.8846 133.341 78.8121 133.341 76.6192V60.9334C133.341 60.9028 133.341 60.8726 133.339 60.8417C133.204 57.437 130.942 54.4042 127.704 53.2935L112.237 48.0277C112.235 48.0271 112.233 48.0255 112.232 48.0237L108.434 42.5591C108.431 42.5542 108.432 42.5474 108.437 42.544C111.314 40.5795 113.565 37.7191 115.144 34.0021C115.166 33.9496 115.185 33.8962 115.203 33.8429C115.205 33.8364 115.209 33.8308 115.211 33.8243C115.213 33.8188 115.214 33.8135 115.216 33.808C115.217 33.803 115.219 33.7981 115.221 33.7935C117.409 27.1612 117.734 21.0677 116.159 16.1706C114.467 10.9106 110.658 7.10043 105.146 5.15228C102.529 4.22434 99.9751 4.24625 97.2703 4.26878C93.4332 4.30118 89.0787 4.3379 83.3308 1.47909C82.214 0.923002 80.8593 1.35256 80.2655 2.44869C77.5585 7.44328 78.1603 12.1277 81.8501 15.6176C81.8542 15.6213 81.8548 15.6272 81.8517 15.6315C79.6181 18.8285 78.4059 22.6267 78.4059 26.5554C78.4059 32.9424 82.1319 39.1695 87.8961 42.7544C87.9014 42.7575 87.9029 42.7643 87.8995 42.7696L81.9844 52.0345C81.9822 52.0375 81.9788 52.0394 81.9751 52.0397L77.0222 52.0647C77.0185 52.0647 77.0151 52.0629 77.0129 52.0598L71.4089 43.9178C68.8099 40.1456 63.6181 39.1865 59.8335 41.7805C57.9841 43.0525 56.747 44.9763 56.3504 47.1982C55.9598 49.3861 56.443 51.579 57.7101 53.3725L66.4476 65.7434C66.4541 65.7527 66.4612 65.7626 66.468 65.7721C68.8858 69.087 71.0022 69.0938 73.9511 69.1034H80.9592C80.9654 69.1034 80.9704 69.1083 80.9704 69.1145L80.9898 78.1912C80.9898 78.1943 80.9886 78.197 80.9864 78.1992L71.0629 87.8909C71.0623 87.8912 71.062 87.8918 71.0614 87.8924C68.6436 90.2581 67.4178 93.1077 67.4178 96.3624V116.199C67.4178 116.204 67.4148 116.208 67.4098 116.21C65.1691 116.798 62.4803 118.172 60.2955 120.445C58.1835 122.642 56.9139 125.319 56.5498 128.285C56.5492 128.29 56.5445 128.294 56.539 128.294H46.7899C46.7837 128.294 46.7788 128.289 46.7788 128.283V127.329C46.7788 118.832 40.3523 111.812 32.1024 110.854C32.0968 110.854 32.0928 110.849 32.0928 110.843V68.9071C32.0928 68.8988 32.1021 68.8932 32.1095 68.8976L36.386 71.3237C37.7188 72.0795 39.1929 72.4384 40.6578 72.4384C43.5895 72.4381 46.485 71 48.1375 68.4242C49.3747 66.5112 49.7613 64.2575 49.2269 62.0783C48.6921 59.8984 47.3059 58.0783 45.3238 56.9544L13.084 38.6668C9.09208 36.4036 3.81667 37.7003 1.322 41.5602C0.0857686 43.4778 -0.300282 45.7333 0.235745 47.9113C0.771155 50.0872 2.15674 51.9042 4.1373 53.0272L14.6357 58.9834C14.639 58.9852 14.6412 58.9889 14.6412 58.9929V81.7323C14.6412 83.0055 15.6222 84.1205 16.8949 84.1532C18.2008 84.1865 19.2701 83.1382 19.2701 81.8397V61.6317C19.2701 61.6234 19.2794 61.6178 19.2868 61.6222L27.4593 66.2588C27.4627 66.2606 27.4648 66.2643 27.4648 66.2683V110.727C27.4648 110.734 27.4599 110.739 27.4537 110.739H19.2809C19.2747 110.739 19.2698 110.734 19.2698 110.727V93.3209C19.2698 92.0477 18.2888 90.9327 17.0161 90.9C15.7102 90.8667 14.6409 91.9149 14.6409 93.2135V110.727C14.6409 110.733 14.636 110.738 14.6298 110.738H6.66715C3.74014 110.738 1.36736 113.111 1.36736 116.038V151.467C1.36736 154.393 3.7389 156.764 6.66406 156.764H44.4649H143.753C151.609 156.764 158 150.378 158 142.529C158 134.679 151.609 128.294 143.753 128.294ZM73.9464 64.4742C71.3043 64.4659 71.245 64.4655 70.2183 63.058L61.4907 50.7013C60.9432 49.9261 60.7359 48.9711 60.9071 48.011C61.0843 47.0173 61.6345 46.1588 62.4535 45.596C64.1353 44.4427 66.443 44.8683 67.5968 46.5421L73.6835 55.3861C74.4843 56.5378 75.3755 56.6967 76.231 56.6967L80.933 56.6732C80.9392 56.6732 80.9441 56.6782 80.9441 56.6844L80.9608 64.4631C80.9608 64.4692 80.9558 64.4742 80.9497 64.4742H73.9464ZM4.73041 46.8053C4.50205 45.8768 4.67301 44.9047 5.21089 44.0706C5.99225 42.8618 7.40006 42.1798 8.80478 42.1798C9.49572 42.1798 10.186 42.3449 10.8008 42.6933L43.0411 60.9806C43.0411 60.9806 43.0411 60.9806 43.0414 60.9809C43.9036 61.4697 44.5041 62.2511 44.7322 63.1812C44.9596 64.11 44.7893 65.0793 44.2471 65.9181C43.0889 67.7234 40.5344 68.3541 38.6705 67.2975L6.42089 49.001C5.55837 48.5119 4.95816 47.7324 4.73041 46.8053ZM136.904 109.928C136.804 110.368 136.532 111.081 136.338 111.59C136.254 111.809 136.169 112.032 136.086 112.255L130.127 128.286C130.126 128.291 130.121 128.294 130.117 128.294H128.732C128.496 128.294 128.004 128.294 127.41 127.429C125.81 125.101 125.733 120.114 126.202 118.857L126.3 118.612C126.304 118.603 126.307 118.593 126.311 118.585L130.555 107.573C130.557 107.567 130.563 107.564 130.569 107.566L136.876 109.879C136.886 109.897 136.893 109.909 136.904 109.928ZM114.682 102.199L126.176 106.031C126.181 106.033 126.185 106.04 126.182 106.046L125.235 108.505L122.798 114.829C122.796 114.834 122.79 114.837 122.784 114.835L102.356 107.813C100.968 107.336 100.61 106.851 100.129 105.865L96.1911 97.7122C96.1887 97.7069 96.1905 97.7008 96.1954 97.698C99.8492 95.715 105.437 92.5741 108.968 87.3539C108.973 87.3459 108.986 87.3484 108.988 87.358L110.953 97.4952C111.318 99.3971 111.664 101.194 114.682 102.199ZM109.227 52.1008C109.543 52.1008 109.863 52.1419 110.182 52.2267C110.205 52.2329 110.22 52.2369 110.237 52.2409C110.239 52.2415 110.241 52.2418 110.243 52.2425C110.252 52.2446 110.261 52.2465 110.273 52.2489C110.308 52.2585 110.344 52.2721 110.379 52.2844C110.391 52.2887 110.402 52.2928 110.414 52.2968L126.207 57.6734C127.634 58.1631 128.636 59.4907 128.712 60.9849V76.6192C128.712 77.5712 128.328 78.4779 127.63 79.1722C126.919 79.8789 125.95 80.2831 124.963 80.2831C124.956 80.2831 124.95 80.2831 124.943 80.2831C122.936 80.2776 121.303 78.6102 121.303 76.5664V66.5143C121.303 66.4402 121.307 66.3705 121.31 66.3057C121.422 64.1647 120.136 63.4037 119.363 63.1417L108.033 59.2806C108.033 59.2802 108.032 59.2802 108.031 59.2799C107.101 58.963 106.347 58.298 105.91 57.4077C105.475 56.5211 105.409 55.525 105.725 54.5989C106.244 53.0778 107.682 52.1008 109.227 52.1008ZM83.4811 6.64186C83.4829 6.63538 83.4903 6.63199 83.4965 6.63446C89.1629 8.96526 93.6335 8.92854 97.3095 8.89676C99.6943 8.87731 101.752 8.85972 103.602 9.51518C111.714 12.3826 112.967 19.3803 112.37 25.2871C112.369 25.2967 112.357 25.3004 112.351 25.2933C111.761 24.6279 111.042 24.0012 110.167 23.4562C110.166 23.4556 110.165 23.4547 110.165 23.454C107.578 20.3036 103.951 17.4417 99.1731 17.0785C95.2715 16.7829 89.8643 15.6417 86.3908 13.3251C86.389 13.3238 86.3871 13.3229 86.3852 13.3217C83.5968 11.4732 82.6562 9.36212 83.4811 6.64186ZM83.0351 26.5548C83.0351 23.575 83.9551 20.6909 85.6548 18.2644C85.6613 18.2629 85.6656 18.2617 85.6721 18.2601C90.742 20.8875 96.8895 21.5476 98.8234 21.6941C105.443 22.1968 109.39 30.3758 110.502 33.03C110.503 33.0328 110.502 33.0359 110.501 33.0387C108.984 36.1903 106.837 38.4304 104.103 39.7055C102.237 40.5835 100.027 41.0285 97.5335 41.0285C95.7863 41.0285 93.926 40.6032 92.1569 39.8C87.6162 37.7305 83.0351 32.8325 83.0351 26.5548ZM92.122 44.7575C92.1248 44.7532 92.13 44.7513 92.1347 44.7532C93.9263 45.3466 95.7622 45.6577 97.5335 45.6577C99.956 45.6577 102.199 45.3108 104.228 44.631C104.232 44.6294 104.237 44.631 104.24 44.635L106.52 47.9169C106.524 47.9228 106.522 47.9308 106.515 47.9333C104.161 48.7476 102.199 50.5973 101.345 53.1044C100.629 55.1982 100.774 57.4515 101.756 59.4487C102.739 61.45 104.437 62.9466 106.54 63.6623L110.217 64.9158C110.222 64.9176 110.225 64.9229 110.224 64.9284L107.859 76.8448C107.858 76.85 107.853 76.8537 107.848 76.8537H85.6276C85.6215 76.8537 85.6165 76.8488 85.6165 76.8426L85.5699 55.0241C85.5699 55.022 85.5706 55.0198 85.5718 55.0183L92.122 44.7575ZM72.0471 96.3618C72.0471 94.3723 72.7834 92.684 74.2976 91.2018L84.2461 81.4854C84.2482 81.4832 84.251 81.4823 84.2538 81.4823H106.788C106.796 81.4823 106.802 81.4903 106.799 81.4974C104.482 87.9449 97.8041 91.5622 93.6202 93.8292C93.0327 94.1473 92.4775 94.4482 92.0183 94.7114L84.4899 98.9176C81.3539 100.671 80.779 101.589 80.871 104.698C80.8821 105.08 80.8951 105.514 80.8951 106.035L80.9379 115.859C80.9379 115.865 80.933 115.87 80.9268 115.87H72.0585C72.0523 115.87 72.0474 115.865 72.0474 115.859V96.3618H72.0471ZM63.6332 123.652C65.7005 121.501 68.4951 120.499 69.7326 120.499H80.9413C80.9475 120.499 80.9525 120.504 80.9525 120.51L80.9694 128.283C80.9694 128.289 80.9645 128.294 80.9583 128.294H61.2373C61.2302 128.294 61.225 128.287 61.2262 128.281C61.5475 126.535 62.3529 124.984 63.6332 123.652ZM5.99596 151.465V116.038C5.99596 115.669 6.29807 115.367 6.66684 115.367H30.1758C36.7785 115.367 42.1502 120.733 42.1502 127.328V130.608V152.125C42.1502 152.131 42.1452 152.136 42.1391 152.136H6.66715C6.29807 152.136 5.99596 151.834 5.99596 151.465ZM143.753 152.136H46.7905C46.7843 152.136 46.7794 152.131 46.7794 152.125V144.855C46.7794 144.848 46.7843 144.843 46.7905 144.843H143.92C145.193 144.843 146.308 143.862 146.341 142.59C146.374 141.284 145.326 140.215 144.027 140.215H46.7905C46.7843 140.215 46.7794 140.21 46.7794 140.203V132.933C46.7794 132.927 46.7843 132.922 46.7905 132.922H58.7624H83.2888H99.5795C100.853 132.922 101.968 131.941 102 130.668C102.034 129.362 100.985 128.293 99.6869 128.293H85.6094C85.6033 128.293 85.5983 128.288 85.5983 128.282L85.5767 118.396V118.184C85.5767 118.182 85.5764 118.181 85.5764 118.179C85.5764 118.179 85.5767 118.176 85.5767 118.174L85.5237 106.025C85.5237 105.445 85.5091 104.955 85.4974 104.561C85.4937 104.429 85.4894 104.292 85.4866 104.161C85.4801 103.876 85.6267 103.612 85.8702 103.464C86.1887 103.27 86.5577 103.064 86.7478 102.958L92.1214 99.9557C92.1269 99.9526 92.134 99.9547 92.1368 99.9606L95.9652 107.886C96.7642 109.523 97.9084 111.178 100.85 112.19L121.43 119.264C121.435 119.265 121.438 119.27 121.437 119.275C121.159 121.771 121.401 125.396 122.635 128.278C122.638 128.285 122.633 128.293 122.625 128.293H110.773C109.5 128.293 108.385 129.274 108.352 130.547C108.319 131.853 109.367 132.922 110.665 132.922H128.733H131.733H143.754C149.057 132.922 153.371 137.232 153.371 142.529C153.371 147.826 149.057 152.136 143.753 152.136Z" fill="#EC1F28"/>
<path d="M23.7114 137.279H19.097C17.8237 137.279 16.7088 138.26 16.6761 139.532C16.6427 140.838 17.691 141.907 18.9896 141.907H23.6043C24.8776 141.907 25.9925 140.926 26.0252 139.654C26.0586 138.348 25.0099 137.279 23.7114 137.279Z" fill="#EC1F28"/>
<path d="M23.7158 126.345H19.0927C17.8195 126.345 16.7045 127.326 16.6718 128.599C16.6385 129.905 17.6868 130.974 18.9853 130.974H23.6084C24.8816 130.974 25.9966 129.993 26.0293 128.72C26.0629 127.414 25.0143 126.345 23.7158 126.345Z" fill="#EC1F28"/>
</g>
<defs>
<clipPath id="clip0_6_614">
<rect width="158" height="158" fill="white"/>
</clipPath>
</defs>
</svg>
