<svg width="170" height="170" viewBox="0 0 170 170" fill="none" xmlns="http://www.w3.org/2000/svg">
<g clip-path="url(#clip0_6_613)">
<path d="M53.7502 79.9999H48.7501V117.5H53.7502V79.9999Z" fill="#EC1F28"/>
<path d="M53.7502 70.0002H48.7501V75.0002H53.7502V70.0002Z" fill="#EC1F28"/>
<path d="M130 27.5002H125V32.5002H130V27.5002Z" fill="#EC1F28"/>
<path d="M118.899 0H59.8513C53.73 0 48.7499 4.98014 48.7499 11.1015V65.0001H53.7499V11.1015C53.7499 7.73699 56.4869 5.00006 59.8513 5.00006H61.8757C61.473 5.96262 61.2499 7.01814 61.2499 8.12514V17.5H66.2499V8.12514C66.2499 6.40223 67.6518 5.00006 69.375 5.00006H75.0952C74.2416 6.47195 73.7498 8.17926 73.7498 10.0001V27.5002H78.7499V10.0001C78.7499 7.24326 80.9928 5.00006 83.75 5.00006H93.7501C96.5069 5.00006 98.7501 7.24293 98.7501 10.0001V27.5002H103.75V10.0001C103.75 8.17959 103.258 6.47195 102.405 5.00006H108.125C109.848 5.00006 111.25 6.40189 111.25 8.12514V17.5H116.25V8.12514C116.25 7.01814 116.027 5.96295 115.624 5.00006H118.899C122.264 5.00006 125.001 7.73699 125.001 11.1015V22.5001H130.001V11.1015C130 4.98014 125.02 0 118.899 0Z" fill="#EC1F28"/>
<path d="M91.2502 14.9998H86.2501V59.9997H91.2502V14.9998Z" fill="#EC1F28"/>
<path d="M91.2502 65.0001H86.2501V72.5H91.2502V65.0001Z" fill="#EC1F28"/>
<path d="M91.2502 77.5001H86.2501V82.5001H91.2502V77.5001Z" fill="#EC1F28"/>
<path d="M103.75 32.4999H98.7501V37.4999H103.75V32.4999Z" fill="#EC1F28"/>
<path d="M103.75 52.5001H98.7501V75.0002H103.75V52.5001Z" fill="#EC1F28"/>
<path d="M116.25 22.5001H111.25V45.0002H116.25V22.5001Z" fill="#EC1F28"/>
<path d="M78.7502 32.4999H73.7501V37.4999H78.7502V32.4999Z" fill="#EC1F28"/>
<path d="M66.2502 25H61.2501V56.8733H66.2502V25Z" fill="#EC1F28"/>
<path d="M78.7502 67.5H73.7501V96.8734H78.7502V67.5Z" fill="#EC1F28"/>
<path d="M66.2502 105H61.2501V117.5H66.2502V105Z" fill="#EC1F28"/>
<path d="M66.2502 95.0001H61.2501V100H66.2502V95.0001Z" fill="#EC1F28"/>
<path d="M91.2502 100H86.2501V113.123H91.2502V100Z" fill="#EC1F28"/>
<path d="M116.25 49.9999H111.25V86.8733H116.25V49.9999Z" fill="#EC1F28"/>
<path d="M116.25 92.4999H111.25V97.5H116.25V92.4999Z" fill="#EC1F28"/>
<path d="M103.75 82.5001H98.7501V121.873H103.75V82.5001Z" fill="#EC1F28"/>
<path d="M45.5633 132.596C34.1919 135.845 26.25 146.374 26.25 158.2V160H31.2501V158.2C31.2501 148.595 37.7008 140.043 46.9372 137.404L45.5633 132.596Z" fill="#EC1F28"/>
<path d="M111.25 155H106.25V160H111.25V155Z" fill="#EC1F28"/>
<path d="M140.917 155H116.25V160H140.917V155Z" fill="#EC1F28"/>
<path d="M154.375 165C154.03 165 153.75 164.72 153.75 164.375C153.75 164.147 153.748 163.92 153.742 163.694C153.567 155.824 150.369 148.453 144.738 142.939C140.617 138.903 135.524 136.199 130 135.032V37.4999H125V134.405C124.584 134.388 124.168 134.375 123.75 134.375C121.195 134.375 118.679 134.706 116.25 135.332V127.5H111.25V137.108C108.605 138.322 106.127 139.918 103.906 141.879C101.998 139.408 99.1369 137.841 96.0503 137.549C94.8769 130.44 88.6869 125 81.2504 125C80.4024 125 79.5676 125.073 78.7505 125.209V102.5H73.7504V126.995C72.7331 127.583 71.7832 128.294 70.9195 129.119C64.9808 124.969 57.8398 122.777 50.5355 122.92C41.5328 123.092 33.0693 126.75 26.7036 133.22C20.3389 139.688 16.8174 148.21 16.7868 157.215C16.7822 158.597 16.8605 159.991 17.0196 161.357C17.1282 162.289 16.8429 163.19 16.2161 163.894C15.5812 164.607 14.7053 165 13.7507 165V170H156.251V165H154.375ZM21.3635 165C21.932 163.684 22.1541 162.228 21.9851 160.778C21.8486 159.609 21.7819 158.416 21.7859 157.232C21.8393 141.371 34.7786 128.221 50.6298 127.919C57.5453 127.787 64.3144 130.103 69.6807 134.44L71.6948 136.068L73.2504 133.999C75.1612 131.457 78.0768 130 81.2497 130C86.7545 130 91.2345 134.471 91.2498 139.972C91.2488 140.007 91.2478 140.042 91.2475 140.077L91.2319 142.976L94.102 142.565C94.4054 142.521 94.7073 142.5 95.0001 142.5C97.0009 142.5 98.8962 143.47 100.07 145.097C100.853 146.182 102.06 146.884 103.383 147.023C104.688 147.161 105.993 146.732 106.966 145.85C111.57 141.674 117.531 139.374 123.75 139.374C130.329 139.374 136.54 141.909 141.24 146.511C145.932 151.106 148.598 157.248 148.743 163.807C148.748 163.996 148.75 164.185 148.75 164.375C148.75 164.586 148.761 164.795 148.784 165H21.3635Z" fill="#EC1F28"/>
<path d="M143.75 127.5H138.75V132.5H143.75V127.5Z" fill="#EC1F28"/>
<path d="M148.75 120H143.75V125H148.75V120Z" fill="#EC1F28"/>
<path d="M163.75 137.5H158.75V142.5H163.75V137.5Z" fill="#EC1F28"/>
<path d="M38.7501 112.5H33.75V117.5H38.7501V112.5Z" fill="#EC1F28"/>
<path d="M31.2501 105H26.25V110H31.2501V105Z" fill="#EC1F28"/>
<path d="M11.2502 122.5H6.25012V127.5H11.2502V122.5Z" fill="#EC1F28"/>
<path d="M16.2499 130H11.2499V135H16.2499V130Z" fill="#EC1F28"/>
</g>
<defs>
<clipPath id="clip0_6_613">
<rect width="170" height="170" fill="white"/>
</clipPath>
</defs>
</svg>
