<svg width="683" height="683" viewBox="0 0 683 683" fill="none" xmlns="http://www.w3.org/2000/svg">
<g clip-path="url(#clip0_67_46)">
<path d="M334.667 1.99996C331.2 3.86663 324.8 11.0666 314.4 24.6666C298.267 46 286.133 68 278.8 90.1333C276.533 96.6666 274.267 102 273.733 101.867C273.2 101.867 268.533 99.8666 263.333 97.4666C242.267 87.6 213.733 80.2666 184.533 77.3333C159.467 74.8 155.2 78.6666 157.333 101.6C162.8 158.8 180 200.267 211.2 231.333C217.867 237.867 227.467 246 232.667 249.333L241.867 255.333L125.067 256L8.26655 256.667L4.79989 259.867C0.13322 264.267 -1.06678 271.2 1.99989 276.8C3.33322 279.2 5.33322 281.6 6.53322 282.267C7.73322 282.8 19.4666 283.6 32.6666 284L56.6666 284.667V469.333V654L32.6666 654.667C19.4666 655.067 7.73322 655.867 6.53322 656.4C5.33322 657.067 3.33322 659.467 1.99989 661.867C-1.06678 667.467 0.13322 674.4 4.79989 678.8L8.26655 682H341.333H674.4L677.867 678.8C682.533 674.4 683.733 667.467 680.667 661.867C679.333 659.467 677.333 657.067 676.133 656.4C674.933 655.867 663.2 655.067 650 654.667L626 654V469.333V284.667L650 284C663.2 283.6 674.933 282.8 676.133 282.267C677.333 281.6 679.333 279.2 680.667 276.8C683.733 271.2 682.533 264.267 677.867 259.867L674.4 256.667L557.6 256L440.8 255.333L450 249.333C469.467 236.667 490.8 211.733 503.067 187.2C513.867 165.467 522.267 134 525.2 103.6C526.933 85.8666 525.6 81.0666 517.733 77.8666C506.667 73.2 452.933 83.0666 425.467 94.8C418.4 97.8666 411.867 100.933 410.933 101.733C408.667 103.6 407.6 102.133 404.8 92.8C397.2 67.7333 379.067 36.6666 356.8 10.2666C348.4 0.266631 341.867 -2.13337 334.667 1.99996ZM349.467 46.9333C387.867 101.467 393.867 153.067 368 206C361.733 218.933 348.933 239.333 344 244.533C340.8 247.867 339.6 246.933 330.267 232.933C287.467 169.467 288.533 110.533 333.2 46.9333C337.067 41.7333 340.667 37.3333 341.333 37.3333C342 37.3333 345.6 41.7333 349.467 46.9333ZM207.067 109.467C225.2 113.067 246.4 120.267 258.667 126.8C264.133 129.867 268.8 132.4 269.067 132.667C269.333 132.933 269.733 138.933 270.133 146.267C271.6 179.333 280.8 207.867 300.133 239.067C303.867 244.933 306.533 249.867 306.267 250.133C305.2 251.333 278.533 242 268.667 237.067C253.333 229.333 244.667 223.333 233.067 212.267C210.933 191.2 196.4 162.4 189.333 125.6C187.867 118 186.667 110.667 186.667 109.2C186.667 105.867 189.867 105.867 207.067 109.467ZM496 109.467C496 110.933 494.8 118.4 493.333 125.733C485.733 163.467 471.733 191.2 449.6 212.267C438 223.333 429.333 229.333 414 237.067C404.133 242 377.467 251.333 376.4 250.133C376.133 249.867 378.8 244.933 382.533 239.067C395.067 218.8 402.4 201.733 407.867 180.267C410.667 169.467 413.867 141.2 412.8 137.467C411.733 134.133 413.2 132.667 424 126.8C440.267 118.133 476.8 107.2 491.733 106.8C495.2 106.667 496 107.2 496 109.467ZM597.333 469.333V654.667H554.667H512L511.733 528.267L511.333 402L508.133 394.933C504.267 386.4 493.2 375.867 484.4 372.533C478.4 370.133 470.8 370 346 369.6C251.867 369.333 211.733 369.6 206 370.667C192 373.333 180.267 382.533 174.4 395.333L171.333 402L170.933 528.267L170.667 654.667H128H85.3332V469.333V284H341.333H597.333V469.333ZM326.667 526.667V654.667L263.067 654.4L199.333 654L198.933 534C198.667 451.867 199.067 412.4 200 409.067C200.8 406.4 202.933 402.933 204.933 401.467C208.267 398.8 209.867 398.667 267.467 398.667H326.667V526.667ZM477.733 401.467C479.733 402.933 481.867 406.4 482.667 409.067C483.6 412.4 484 451.867 483.733 534L483.333 654L419.733 654.4L356 654.667V526.667V398.667H415.2C472.8 398.667 474.4 398.8 477.733 401.467Z" fill="#EC1F28"/>
</g>
<defs>
<clipPath id="clip0_67_46">
<rect width="682.667" height="682.667" fill="white"/>
</clipPath>
</defs>
</svg>
