<svg width="264" height="308" viewBox="0 0 264 308" fill="none" xmlns="http://www.w3.org/2000/svg">
<path d="M175.55 25.87C156.89 36.65 141.23 46.58 123.56 56.78C98.92 70.99 70.35 87.48 45.62 101.52C45.79 148.34 45.81 201.37 45.81 248.18V256.09C44.11 255.35 41.7 254.01 40.5 253.32C28.25 246.29 12.33 237.8 0 230.91C0.08 182.75 0.1 124.48 0 76.33C41.87 52.26 90.68 24.06 132.56 0C146.62 8.14 160.8 17.33 175.55 25.87Z" fill="#17234C"/>
<path d="M263.42 77.6799C244.82 67.1299 218.02 51.6399 199.54 40.1499C157.94 64.3299 109.67 93.4899 67.96 117.48C68.1 139.27 68.08 170.24 67.96 192.03C86.74 202.05 113.82 218.05 132.54 228.09C158.27 213.08 185.06 197.66 210.87 182.79C212.75 181.71 215.72 179.84 218.63 178.31C218.63 185.79 218.57 200.09 218.62 206.27C192.84 220.8 158.05 240.8 132.55 255.82C113.16 244.78 88.98 231.48 67.97 219.59C67.97 236.72 68.14 254.86 67.97 270.76C86.27 281.46 106.18 295.55 124.41 306.36C128.12 308.56 130.76 308.22 134.28 306.18C175.22 282.38 222.37 254.46 263.44 230.88C263.3 183.31 263.32 125.28 263.42 77.6799ZM218.61 127.03C192.23 142.04 158.16 161.18 131.96 176.52C130.62 175.47 114.44 166.3 112.86 165.68C113.17 153.21 112.66 152.33 112.85 142.58C137.46 128.88 175.71 107.41 201.9 92.0699C207.2 95.3299 214.4 98.8899 218.61 101.52C218.88 107.92 218.54 120.53 218.61 127.03Z" fill="#EC1F28"/>
</svg>
